<?xml version="1.0" encoding="UTF-8" standalone="no"?>
<!-- Created with Inkscape (http://www.inkscape.org/) -->

<svg
   xmlns:dc="http://purl.org/dc/elements/1.1/"
   xmlns:cc="http://creativecommons.org/ns#"
   xmlns:rdf="http://www.w3.org/1999/02/22-rdf-syntax-ns#"
   xmlns:svg="http://www.w3.org/2000/svg"
   xmlns="http://www.w3.org/2000/svg"
   xmlns:sodipodi="http://sodipodi.sourceforge.net/DTD/sodipodi-0.dtd"
   xmlns:inkscape="http://www.inkscape.org/namespaces/inkscape"
   width="248.03149"
   height="248.03149"
   id="svg4019"
   version="1.1"
   inkscape:version="0.48.3.1 r9886"
   sodipodi:docname="campana.svg">
  <sodipodi:namedview
     id="base"
     pagecolor="#ffffff"
     bordercolor="#666666"
     borderopacity="1.0"
     inkscape:pageopacity="0.0"
     inkscape:pageshadow="2"
     inkscape:zoom="1.4142136"
     inkscape:cx="102.58751"
     inkscape:cy="50.664539"
     inkscape:document-units="px"
     inkscape:current-layer="layer1"
     showgrid="false"
     units="cm"
     inkscape:window-width="1883"
     inkscape:window-height="1058"
     inkscape:window-x="37"
     inkscape:window-y="0"
     inkscape:window-maximized="1" />
  <defs
     id="defs4021" />
  <metadata
     id="metadata4024">
    <rdf:RDF>
      <cc:Work
         rdf:about="">
        <dc:format>image/svg+xml</dc:format>
        <dc:type
           rdf:resource="http://purl.org/dc/dcmitype/StillImage" />
        <dc:title />
      </cc:Work>
    </rdf:RDF>
  </metadata>
  <g
     inkscape:label="cutter"
     inkscape:groupmode="layer"
     id="layer1"
     transform="translate(0,-804.33068)"
     style="display:inline">
    <path
       style="fill:#000000;fill-opacity:0.23773588;stroke:#000000;stroke-width:0.74438387;stroke-linecap:butt;stroke-linejoin:miter;stroke-miterlimit:4;stroke-opacity:1;stroke-dasharray:none"
       d="m 124.6373,813.2546 -15.35292,1.58181 -12.468429,4.41978 -10.002662,6.88556 -7.862555,9.02564 -10.793566,22.88981 -6.699455,26.84434 -5.489832,27.77484 -7.211219,25.68124 -5.164161,11.11923 -6.699456,9.49089 -8.606939,7.49036 -10.84009,5.07112 -6.745979,3.95453 -3.7684429,6.09465 0.093044,6.88559 4.9780669,6.37366 16.143825,9.30475 20.005316,7.3044 -1.1631,7.8159 2.09358,10.3749 5.72245,8.4209 8.420844,5.7225 10.37485,2.047 10.095706,-2.0006 8.327795,-5.4433 5.722451,-8.1417 2.372728,-10.0026 37.17267,0.279 36.847,-4.3732 34.14861,-9.2116 28.93793,-14.32947 4.83849,-5.48983 1.16311,-6.65287 -2.83797,-6.28074 -7.07165,-4.37327 -9.86308,-4.69892 -8.09518,-7.11817 -11.81709,-20.14489 -8.23475,-25.40209 -6.93207,-27.58873 -8.1417,-26.7513 -11.72404,-22.8898 -7.9556,-9.02566 -9.77006,-6.93207 -11.8636,-4.41978 -14.28287,-1.58181 z m 0.60481,39.31277 13.02672,3.34972 9.53742,9.07219 6.83903,13.25933 4.88502,15.95773 6.83903,33.63685 3.44276,14.65506 4.51284,11.07272 1.72138,5.35025 -1.30266,4.79198 -10.04919,7.49035 -17.07431,4.83849 -20.74969,1.90749 -20.98233,-1.07005 -17.725646,-4.23369 -11.119233,-7.53689 -2.000533,-5.02458 0.977005,-5.90855 8.51389,-33.3577 5.815499,-32.89247 4.326732,-14.05024 6.606406,-11.16576 9.86309,-7.39732 14.09677,-2.74491 z"
       id="path4027"
       inkscape:connector-curvature="0" />
    <path
       style="fill:none;stroke:#ff2222;stroke-width:0.5;stroke-linecap:butt;stroke-linejoin:miter;stroke-miterlimit:4;stroke-opacity:1;stroke-dasharray:none;display:inline"
       d="m 124.45079,884.77786 0,63.63961"
       id="path3077-8"
       inkscape:connector-curvature="0" />
    <path
       style="fill:none;stroke:#ff2222;stroke-width:0.5;stroke-linecap:butt;stroke-linejoin:miter;stroke-miterlimit:4;stroke-opacity:1;stroke-dasharray:none;display:inline"
       d="m 94.752309,918.01187 59.396971,0"
       id="path3079-38"
       inkscape:connector-curvature="0" />
  </g>
  <g
     inkscape:groupmode="layer"
     id="layer4"
     inkscape:label="outer"
     style="display:inline"
     transform="translate(0,-106.29921)">
    <path
       inkscape:connector-curvature="0"
       style="fill:none;stroke:#c07100;stroke-width:3.87079597;stroke-linecap:butt;stroke-linejoin:miter;stroke-miterlimit:4;stroke-opacity:0.36226418;stroke-dasharray:none"
       d="m 124.6373,115.22313 -15.35292,1.58181 -12.468429,4.41978 -10.002662,6.88556 -7.862555,9.02564 -10.793566,22.88981 -6.699455,26.84434 -5.489832,27.77484 -7.211219,25.68124 -5.164161,11.11923 -6.699456,9.49089 -8.606939,7.49036 -10.84009,5.07112 -6.745979,3.95453 -3.7684429,6.09465 0.093044,6.88555 4.9780669,6.37379 16.143825,9.3048 20.005316,7.30426 -1.1631,7.81604 2.09358,10.37484 5.72245,8.42085 8.420844,5.72245 10.37485,2.04705 10.095706,-2.00052 8.327795,-5.44331 5.722451,-8.1417 2.372728,-10.00267 37.17267,0.27915 36.847,-4.37326 34.14861,-9.21174 28.93793,-14.32939 4.83849,-5.48983 1.16311,-6.65293 -2.83797,-6.28074 -7.07165,-4.37327 -9.86308,-4.69892 -8.09518,-7.11817 -11.81709,-20.14489 -8.23475,-25.40209 -6.93207,-27.58873 -8.1417,-26.7513 -11.72404,-22.8898 -7.9556,-9.02566 -9.77006,-6.93207 -11.8636,-4.41978 z"
       id="path4027-4"
       sodipodi:nodetypes="ccccccccccccccccccccccccccccccccccccccccccccccc" />
    <path
       style="fill:none;stroke:#ff2222;stroke-width:0.5;stroke-linecap:butt;stroke-linejoin:miter;stroke-miterlimit:4;stroke-opacity:1;stroke-dasharray:none;display:inline"
       d="m 124.45079,186.74639 0,63.63961"
       id="path3077-6"
       inkscape:connector-curvature="0" />
    <path
       style="fill:none;stroke:#ff2222;stroke-width:0.5;stroke-linecap:butt;stroke-linejoin:miter;stroke-miterlimit:4;stroke-opacity:1;stroke-dasharray:none;display:inline"
       d="m 94.752309,219.9804 59.396971,0"
       id="path3079-3"
       inkscape:connector-curvature="0" />
  </g>
  <g
     inkscape:groupmode="layer"
     id="layer3"
     inkscape:label="join"
     style="display:inline"
     transform="translate(0,-106.29921)">
    <path
       style="font-size:medium;font-style:normal;font-variant:normal;font-weight:normal;font-stretch:normal;text-indent:0;text-align:start;text-decoration:none;line-height:normal;letter-spacing:normal;word-spacing:normal;text-transform:none;direction:ltr;block-progression:tb;writing-mode:lr-tb;text-anchor:start;baseline-shift:baseline;color:#000000;fill:#3e4ab1;fill-opacity:1;stroke:none;stroke-width:1px;marker:none;visibility:visible;display:inline;overflow:visible;enable-background:accumulate;font-family:Sans;-inkscape-font-specification:Sans"
       d="m 121.60835,115.62188 0.47049,39.48783 3.11698,-0.59792 2.85758,0.52023 0.0163,-39.40631 z m 80.48715,119.9456 -31.82287,10.09712 1.49585,3.78214 31.54089,-10.19065 z m -152.089703,0.45931 -1.249135,4.57849 29.124021,8.09518 1.196965,-4.4798 z m 73.590073,43.82216 0,42.47505 5.60932,0.0273 0,-42.47504 z"
       id="path3797"
       inkscape:connector-curvature="0"
       sodipodi:nodetypes="ccccccccccccccccccccc" />
    <path
       style="fill:none;stroke:#ff2222;stroke-width:0.5;stroke-linecap:butt;stroke-linejoin:miter;stroke-miterlimit:4;stroke-opacity:1;stroke-dasharray:none"
       d="m 124.45079,80.447186 0,63.639614"
       id="path3077"
       inkscape:connector-curvature="0"
       transform="translate(0,106.29921)" />
    <path
       style="fill:none;stroke:#ff2222;stroke-width:0.5;stroke-linecap:butt;stroke-linejoin:miter;stroke-miterlimit:4;stroke-opacity:1;stroke-dasharray:none"
       d="m 94.752309,113.6812 59.396971,0"
       id="path3079"
       inkscape:connector-curvature="0"
       transform="translate(0,106.29921)" />
  </g>
</svg>
