<?xml version="1.0" encoding="UTF-8" standalone="no"?>
<!-- Created with Inkscape (http://www.inkscape.org/) -->

<svg
   xmlns:dc="http://purl.org/dc/elements/1.1/"
   xmlns:cc="http://creativecommons.org/ns#"
   xmlns:rdf="http://www.w3.org/1999/02/22-rdf-syntax-ns#"
   xmlns:svg="http://www.w3.org/2000/svg"
   xmlns="http://www.w3.org/2000/svg"
   xmlns:sodipodi="http://sodipodi.sourceforge.net/DTD/sodipodi-0.dtd"
   xmlns:inkscape="http://www.inkscape.org/namespaces/inkscape"
   sodipodi:docname="rocket.svg"
   inkscape:version="0.48.3.1 r9886"
   version="1.1"
   id="svg2"
   height="283.46457"
   width="212.59842">
  <sodipodi:namedview
     id="base"
     pagecolor="#ffffff"
     bordercolor="#666666"
     borderopacity="1.0"
     inkscape:pageopacity="0.0"
     inkscape:pageshadow="2"
     inkscape:zoom="1.9802593"
     inkscape:cx="95.752286"
     inkscape:cy="82.820606"
     inkscape:document-units="mm"
     inkscape:current-layer="layer2"
     showgrid="false"
     units="cm"
     showguides="true"
     inkscape:guide-bbox="true"
     inkscape:window-width="1883"
     inkscape:window-height="1058"
     inkscape:window-x="37"
     inkscape:window-y="0"
     inkscape:window-maximized="1" />
  <defs
     id="defs4">
    <inkscape:perspective
       id="perspective10"
       inkscape:persp3d-origin="372.04724 : 350.78739 : 1"
       inkscape:vp_z="744.09448 : 526.18109 : 1"
       inkscape:vp_y="0 : 1000 : 0"
       inkscape:vp_x="0 : 526.18109 : 1"
       sodipodi:type="inkscape:persp3d" />
    <inkscape:perspective
       sodipodi:type="inkscape:persp3d"
       inkscape:vp_x="0 : 0.5 : 1"
       inkscape:vp_y="0 : 1000 : 0"
       inkscape:vp_z="1 : 0.5 : 1"
       inkscape:persp3d-origin="0.5 : 0.33333333 : 1"
       id="perspective2824" />
    <inkscape:perspective
       sodipodi:type="inkscape:persp3d"
       inkscape:vp_x="0 : 0.5 : 1"
       inkscape:vp_y="0 : 1000 : 0"
       inkscape:vp_z="1 : 0.5 : 1"
       inkscape:persp3d-origin="0.5 : 0.33333333 : 1"
       id="perspective2838" />
  </defs>
  <metadata
     id="metadata7">
    <rdf:RDF>
      <cc:Work
         rdf:about="">
        <dc:format>image/svg+xml</dc:format>
        <dc:type
           rdf:resource="http://purl.org/dc/dcmitype/StillImage" />
        <dc:title />
      </cc:Work>
    </rdf:RDF>
  </metadata>
  <g
     style="display:inline"
     transform="translate(0,-768.89775)"
     id="layer1"
     inkscape:groupmode="layer"
     inkscape:label="cutter">
    <path
       sodipodi:nodetypes="ccsssccccssscc"
       id="path4569"
       d="m 108.29794,791.90192 c -36.070115,27.45414 -59.54168,64.69449 -53.610099,124.45769 -35.520182,8.27355 -40.47368,37.89214 -34.475035,64.44574 5.998634,26.55345 17.161612,45.08305 21.103544,51.46425 3.94193,6.3812 13.017964,6.4584 10.746848,-4.7527 -2.366572,-11.6823 -4.297434,-46.71085 19.573804,-49.84135 l 10.999738,26.64515 51.3224,0 11.80857,-26.64095 c 24.54148,3.0095 21.24764,37.75685 18.80045,49.83715 -2.27112,11.2111 6.8049,11.1339 10.74684,4.7527 3.94192,-6.3811 15.06944,-24.9108 21.06808,-51.46425 5.99864,-26.5536 1.08061,-56.17219 -34.43956,-64.44574 5.93157,-59.7632 -17.57545,-97.00354 -53.64558,-124.45769 z"
       style="fill:#dddddd;fill-opacity:1;stroke:#000000;stroke-width:1.13498068px;stroke-linecap:butt;stroke-linejoin:miter;stroke-opacity:1;display:inline"
       inkscape:connector-curvature="0" />
    <path
       style="fill:none;stroke:#ff2828;stroke-width:0.40215853;stroke-linecap:butt;stroke-linejoin:miter;stroke-miterlimit:4;stroke-opacity:1;stroke-dasharray:none;display:inline"
       d="m 108.30028,777.82119 0,268.85511"
       id="path4821"
       inkscape:connector-curvature="0" />
    <path
       style="fill:none;stroke:#ff2828;stroke-width:0.40215853;stroke-linecap:butt;stroke-linejoin:miter;stroke-miterlimit:4;stroke-opacity:1;stroke-dasharray:none;display:inline"
       d="m 5.6882113,915.97487 197.7718687,0"
       id="path4823"
       inkscape:connector-curvature="0" />
  </g>
  <g
     inkscape:label="outer"
     id="layer2"
     inkscape:groupmode="layer"
     style="display:inline"
     transform="translate(0,35.43295)">
    <path
       inkscape:connector-curvature="0"
       style="fill:none;stroke:#0680ff;stroke-width:4.53992271;stroke-linecap:butt;stroke-linejoin:miter;stroke-miterlimit:4;stroke-opacity:0.43977595;stroke-dasharray:none;display:inline"
       d="M 108.29794,-12.428778 C 72.227825,15.02536 48.75626,52.2658 54.687841,112.02893 c -35.520182,8.27359 -40.47368,37.89213 -34.475035,64.44562 5.998634,26.5535 17.161612,45.08309 21.103544,51.46428 3.94193,6.38119 13.017964,6.45838 10.746848,-4.75273 -2.366572,-11.68231 -4.297434,-46.71087 19.573804,-49.84133 l 10.999738,26.64516 51.3224,0 11.80857,-26.64099 c 24.54148,3.00957 21.24764,37.75688 18.80045,49.83716 -2.27112,11.21111 6.8049,11.13393 10.74684,4.75273 3.94192,-6.38109 15.06944,-24.91083 21.06808,-51.46428 5.99864,-26.55349 1.08061,-56.17203 -34.43956,-64.44562 5.93157,-59.76313 -17.57545,-97.003559 -53.64558,-124.457708 z"
       id="path2844-1"
       sodipodi:nodetypes="ccsssccccssscc" />
    <path
       style="fill:none;stroke:#ff2828;stroke-width:0.40215853;stroke-linecap:butt;stroke-linejoin:miter;stroke-miterlimit:4;stroke-opacity:1;stroke-dasharray:none;display:inline"
       d="m 108.30028,-26.509512 0,268.855092"
       id="path4821-0"
       inkscape:connector-curvature="0" />
    <path
       style="fill:none;stroke:#ff2828;stroke-width:0.40215853;stroke-linecap:butt;stroke-linejoin:miter;stroke-miterlimit:4;stroke-opacity:1;stroke-dasharray:none;display:inline"
       d="m 5.6882113,111.64417 197.7718687,0"
       id="path4823-7"
       inkscape:connector-curvature="0" />
  </g>
</svg>
