<?xml version="1.0" encoding="UTF-8" standalone="no"?>
<!-- Created with Inkscape (http://www.inkscape.org/) -->

<svg
   xmlns:dc="http://purl.org/dc/elements/1.1/"
   xmlns:cc="http://creativecommons.org/ns#"
   xmlns:rdf="http://www.w3.org/1999/02/22-rdf-syntax-ns#"
   xmlns:svg="http://www.w3.org/2000/svg"
   xmlns="http://www.w3.org/2000/svg"
   xmlns:sodipodi="http://sodipodi.sourceforge.net/DTD/sodipodi-0.dtd"
   xmlns:inkscape="http://www.inkscape.org/namespaces/inkscape"
   width="283.46457"
   height="283.46457"
   id="svg2"
   version="1.1"
   inkscape:version="0.48.3.1 r9886"
   sodipodi:docname="star_flat.svg">
  <sodipodi:namedview
     id="base"
     pagecolor="#ffffff"
     bordercolor="#666666"
     borderopacity="1.0"
     inkscape:pageopacity="0.0"
     inkscape:pageshadow="2"
     inkscape:zoom="1.979899"
     inkscape:cx="63.718643"
     inkscape:cy="109.03162"
     inkscape:document-units="px"
     inkscape:current-layer="layer2"
     showgrid="false"
     inkscape:window-width="1883"
     inkscape:window-height="1058"
     inkscape:window-x="37"
     inkscape:window-y="0"
     inkscape:window-maximized="1"
     units="cm">
    <inkscape:grid
       type="xygrid"
       id="grid2985"
       empspacing="5"
       visible="true"
       enabled="true"
       snapvisiblegridlinesonly="true"
       units="mm" />
  </sodipodi:namedview>
  <defs
     id="defs4" />
  <metadata
     id="metadata7">
    <rdf:RDF>
      <cc:Work
         rdf:about="">
        <dc:format>image/svg+xml</dc:format>
        <dc:type
           rdf:resource="http://purl.org/dc/dcmitype/StillImage" />
        <dc:title></dc:title>
      </cc:Work>
    </rdf:RDF>
  </metadata>
  <g
     inkscape:groupmode="layer"
     id="layer2"
     inkscape:label="cutter"
     style="display:inline"
     transform="translate(0,-768.89631)">
    <path
       style="fill:#000000;fill-opacity:0.1302817;stroke:#000000;stroke-width:1;stroke-linecap:butt;stroke-linejoin:miter;stroke-miterlimit:4;stroke-opacity:1;stroke-dasharray:none"
       d="m 139.67365,767.72298 -4.16842,1.97805 -2.64823,4.75961 -4.88616,10.81656 -9.61338,5.43785 -5.15511,2.77124 -2.78573,3.49373 0.59794,4.45492 2.547,4.38551 2.43738,4.35385 0.26909,4.35993 -2.22173,3.82645 -2.9664,2.36373 -6.51469,5.51263 -0.95799,5.30247 2.36539,5.85769 3.12455,6.12901 1.31946,6.11646 -0.40229,7.71654 -6.8754,-3.51084 -4.641542,-4.20341 -3.754958,-5.77592 -3.899548,-4.98281 -5.075311,-1.82408 -8.029089,2.88322 -3.528637,1.38549 -4.423928,0.0101 -3.643029,-2.40977 -2.555724,-4.28067 -2.528336,-4.39143 -3.56086,-2.74207 -4.4178,0.66169 -4.97591,3.07013 -9.513656,5.59386 -11.797847,-1.16081 -5.437349,-0.0754 -3.793298,2.62593 -0.375128,4.59825 2.789126,4.67162 6.911683,9.63748 -0.09973,11.0317 -0.179203,5.84137 1.632062,4.15543 4.158802,1.71285 5.075337,-0.006 4.993109,0.0732 3.912117,1.95015 2.202199,3.83656 0.562245,3.74923 1.514397,8.39587 4.117328,3.47839 6.264946,0.87486 6.879503,0.35309 5.960995,1.91307 6.473125,4.24227 -6.473125,4.20569 -5.960995,1.91306 -6.879503,0.35309 -6.264946,0.87487 -4.117328,3.47839 -1.5144,8.39586 -0.562245,3.74923 -2.202196,3.83656 -3.912117,1.95015 -4.993109,0.0732 -5.075337,-0.006 -4.158802,1.71286 -1.632062,4.15542 0.179203,5.84137 0.09973,11.03169 -6.911683,9.65577 -2.789126,4.68419 0.375128,4.60397 3.793298,2.62021 5.437349,-0.088 11.797847,-1.17908 9.513662,5.59386 4.97591,3.07012 4.417794,0.66169 3.56086,-2.74206 2.528336,-4.39144 2.555724,-4.28067 3.643029,-2.40978 4.423928,0.0101 3.528637,1.38549 8.029089,2.88324 5.075311,-1.82408 3.899548,-4.98281 3.754958,-5.77593 4.641542,-4.20341 6.8754,-3.51084 0.40229,7.75312 -1.31946,6.11647 -3.12454,6.12901 -2.3654,5.85767 0.95799,5.30247 6.51469,5.51263 2.9664,2.36373 2.22173,3.82641 -0.26909,4.3599 -2.43738,4.3539 -2.547,4.3855 -0.59794,4.455 2.78573,3.4937 5.15511,2.7713 9.61338,5.4378 4.88616,10.8165 2.64823,4.7596 4.16842,1.9781 4.16843,-1.9781 2.64822,-4.7596 4.88617,-10.8165 9.61339,-5.4378 5.15511,-2.7713 2.78572,-3.4937 -0.59793,-4.455 -2.547,-4.3855 -2.43738,-4.3539 -0.26909,-4.3599 2.22172,-3.82641 2.96639,-2.36373 6.5147,-5.51263 0.95798,-5.30247 -2.3654,-5.85767 -3.12454,-6.12901 -1.31945,-6.11647 0.40228,-7.75312 6.87541,3.51084 4.64154,4.20341 3.75496,5.77593 3.89955,4.98281 5.07532,1.82408 8.02909,-2.88323 3.52863,-1.38549 4.42393,-0.0101 3.64303,2.40978 2.55572,4.28067 2.52834,4.39144 3.56086,2.74206 4.4178,-0.66169 4.9759,-3.07012 9.51366,-5.59386 11.79785,1.17908 5.43735,0.088 3.79329,-2.62021 0.37513,-4.60397 -2.78913,-4.68419 -6.91167,-9.65577 0.0997,-11.0317 0.1792,-5.84137 -1.63206,-4.15541 -4.1588,-1.71286 -5.07533,0.006 -4.99311,-0.0732 -3.91211,-1.95015 -2.2022,-3.83656 -0.56225,-3.74923 -1.5144,-8.39586 -4.11733,-3.47839 -6.26494,-0.87487 -6.87951,-0.35309 -5.96099,-1.91306 -6.47312,-4.20569 6.47312,-4.24227 5.961,-1.91307 6.8795,-0.35309 6.26495,-0.87486 4.11732,-3.47839 1.5144,-8.39587 0.56225,-3.74923 2.2022,-3.83656 3.91211,-1.95016 4.99311,-0.0732 5.07533,0.006 4.1588,-1.71285 1.63206,-4.15543 -0.1792,-5.84137 -0.0997,-11.0317 6.91167,-9.63748 2.78913,-4.67162 -0.37513,-4.59825 -3.79329,-2.62592 -5.43735,0.0754 -11.79785,1.1608 -9.51366,-5.59386 -4.97591,-3.07013 -4.41779,-0.66169 -3.56086,2.74207 -2.52834,4.39143 -2.55572,4.28067 -3.64303,2.40977 -4.42393,-0.0101 -3.52863,-1.38549 -8.02909,-2.88323 -5.07532,1.82408 -3.89955,4.98281 -3.75496,5.77592 -4.64154,4.20341 -6.87541,3.51084 -0.40228,-7.71654 1.31946,-6.11646 3.12454,-6.12901 2.3654,-5.85769 -0.95799,-5.30247 -6.5147,-5.51263 -2.96639,-2.36373 -2.22172,-3.82645 0.26909,-4.35993 2.43738,-4.35385 2.547,-4.38551 0.59793,-4.45492 -2.78572,-3.49373 -5.15511,-2.77124 -9.61339,-5.43785 -4.88617,-10.81656 -2.64822,-4.75961 -4.16843,-1.97805 0,0"
       id="path2987"
       inkscape:connector-curvature="0"
       sodipodi:nodetypes="sssssscssssssssssscssssssssssscssssssssssscssssssssssscssssssssssscssssss" />
  </g>
  <g
     inkscape:groupmode="layer"
     id="layer1"
     inkscape:label="outer"
     style="display:inline">
    <path
       style="fill:none;stroke:#ffb505;stroke-width:3.9000001;stroke-linecap:butt;stroke-linejoin:miter;stroke-miterlimit:4;stroke-opacity:0.40377359;stroke-dasharray:none;display:inline"
       d="m 139.67365,-1.1733309 -4.16842,1.97805217 -2.64823,4.75960523 -4.88616,10.8165625 -9.61338,5.437849 -5.15511,2.771238 -2.78573,3.493733 0.59794,4.454915 2.547,4.385513 2.43738,4.35385 0.26909,4.359932 -2.22173,3.826446 -2.9664,2.363734 -6.51469,5.51263 -0.95799,5.302475 2.36539,5.857681 3.12455,6.129011 1.31946,6.116463 -0.40229,7.71654 -6.8754,-3.51084 -4.641542,-4.20341 -3.754958,-5.77592 -3.899548,-4.98281 -5.075311,-1.82408 -8.029089,2.883221 -3.528637,1.385492 -4.423928,0.01013 -3.643029,-2.409774 -2.555724,-4.280668 -2.528336,-4.391432 -3.56086,-2.742066 -4.4178,0.661685 -4.97591,3.070131 -9.513656,5.593864 -11.797847,-1.160806 -5.437349,-0.07541 -3.793298,2.625926 -0.375128,4.598253 2.789126,4.67162 6.911683,9.637477 -0.09973,11.031702 -0.179203,5.841366 1.632062,4.15543 4.158802,1.71285 5.075337,-0.006 4.993109,0.0732 3.912117,1.95015 2.202199,3.83656 0.562245,3.74923 1.514397,8.39587 4.117328,3.47839 6.264946,0.87486 6.879503,0.35309 5.960995,1.91307 6.473125,4.24227 -6.473125,4.20569 -5.960995,1.91306 -6.879503,0.35309 -6.264946,0.87487 -4.117328,3.47839 -1.5144,8.39586 -0.562245,3.74923 -2.202196,3.83656 -3.912117,1.95015 -4.993109,0.0732 -5.075337,-0.006 -4.158802,1.71286 -1.632062,4.15542 0.179203,5.84136 0.09973,11.0317 -6.911683,9.65577 -2.789126,4.68419 0.375128,4.60397 3.793298,2.62021 5.437349,-0.088 11.797847,-1.17908 9.513662,5.59385 4.97591,3.07013 4.417794,0.66169 3.56086,-2.74206 2.528336,-4.39144 2.555724,-4.28067 3.643029,-2.40978 4.423928,0.0101 3.528637,1.38549 8.029089,2.88324 5.075311,-1.82408 3.899548,-4.98282 3.754958,-5.77592 4.641542,-4.20341 6.8754,-3.51084 0.40229,7.75312 -1.31946,6.11647 -3.12454,6.12901 -2.3654,5.85767 0.95799,5.30247 6.51469,5.51263 2.9664,2.36373 2.22173,3.82642 -0.26909,4.35995 -2.43738,4.35386 -2.547,4.38554 -0.59794,4.45495 2.78573,3.49375 5.15511,2.77124 9.61338,5.43781 4.88616,10.81654 2.64823,4.75961 4.16842,1.97805 4.16843,-1.97805 2.64822,-4.75961 4.88617,-10.81654 9.61339,-5.43781 5.15511,-2.77124 2.78572,-3.49375 -0.59793,-4.45495 -2.547,-4.38554 -2.43738,-4.35386 -0.26909,-4.35995 2.22172,-3.82642 2.96639,-2.36373 6.5147,-5.51263 0.95798,-5.30247 -2.3654,-5.85767 -3.12454,-6.12901 -1.31945,-6.11647 0.40228,-7.75312 6.87541,3.51084 4.64154,4.20341 3.75496,5.77592 3.89955,4.98282 5.07532,1.82408 8.02909,-2.88323 3.52863,-1.38549 4.42393,-0.0101 3.64303,2.40978 2.55572,4.28067 2.52834,4.39144 3.56086,2.74206 4.4178,-0.66169 4.9759,-3.07013 9.51366,-5.59385 11.79785,1.17908 5.43735,0.088 3.79329,-2.62021 0.37513,-4.60397 -2.78913,-4.68419 -6.91167,-9.65577 0.0997,-11.0317 0.1792,-5.84137 -1.63206,-4.15541 -4.1588,-1.71286 -5.07533,0.006 -4.99311,-0.0732 -3.91211,-1.95015 -2.2022,-3.83656 -0.56225,-3.74923 -1.5144,-8.39586 -4.11733,-3.47839 -6.26494,-0.87487 -6.87951,-0.35309 -5.96099,-1.91306 -6.47312,-4.20569 6.47312,-4.24227 5.961,-1.91307 6.8795,-0.35309 6.26495,-0.87486 4.11732,-3.47839 1.5144,-8.39587 0.56225,-3.74923 2.2022,-3.83656 3.91211,-1.95016 4.99311,-0.0732 5.07533,0.006 4.1588,-1.71285 1.63206,-4.15543 -0.1792,-5.841366 -0.0997,-11.031702 6.91167,-9.637477 2.78913,-4.67162 -0.37513,-4.598253 -3.79329,-2.625918 -5.43735,0.07541 -11.79785,1.160799 -9.51366,-5.593864 -4.97591,-3.070131 -4.41779,-0.661685 -3.56086,2.742066 -2.52834,4.391432 -2.55572,4.280668 -3.64303,2.409774 -4.42393,-0.01012 -3.52863,-1.385492 -8.02909,-2.883229 -5.07532,1.82408 -3.89955,4.98281 -3.75496,5.77592 -4.64154,4.20341 -6.87541,3.51084 -0.40228,-7.71654 1.31946,-6.116463 3.12454,-6.129011 2.3654,-5.857681 -0.95799,-5.302475 -6.5147,-5.51263 -2.96639,-2.363734 -2.22172,-3.826446 0.26909,-4.359932 2.43738,-4.35385 2.547,-4.385513 0.59793,-4.454915 -2.78572,-3.493733 -5.15511,-2.771238 -9.61339,-5.437849 -4.88617,-10.8165625 -2.64822,-4.75960523 -4.16843,-1.97805217 0,0"
       id="path2987-9"
       inkscape:connector-curvature="0"
       sodipodi:nodetypes="sssssscssssssssssscssssssssssscssssssssssscssssssssssscssssssssssscssssssccccccccccccccccccccccccccccccccccccccccccccccccccccccccccccccccccccccccccccccccccccccccccccccccccccccccccccccccccccccccccccccccccccccccccccccccc" />
  </g>
  <g
     inkscape:groupmode="layer"
     id="layer3"
     inkscape:label="join"
     style="display:inline" />
</svg>
