<?xml version="1.0" encoding="UTF-8" standalone="no"?>
<!-- Created with Inkscape (http://www.inkscape.org/) -->

<svg
   xmlns:dc="http://purl.org/dc/elements/1.1/"
   xmlns:cc="http://creativecommons.org/ns#"
   xmlns:rdf="http://www.w3.org/1999/02/22-rdf-syntax-ns#"
   xmlns:svg="http://www.w3.org/2000/svg"
   xmlns="http://www.w3.org/2000/svg"
   xmlns:sodipodi="http://sodipodi.sourceforge.net/DTD/sodipodi-0.dtd"
   xmlns:inkscape="http://www.inkscape.org/namespaces/inkscape"
   width="283.46457"
   height="283.46457"
   id="svg2"
   version="1.1"
   inkscape:version="0.48.3.1 r9886"
   sodipodi:docname="star.svg">
  <defs
     id="defs4" />
  <sodipodi:namedview
     id="base"
     pagecolor="#ffffff"
     bordercolor="#666666"
     borderopacity="1.0"
     inkscape:pageopacity="0.0"
     inkscape:pageshadow="2"
     inkscape:zoom="2.9446961"
     inkscape:cx="142.69114"
     inkscape:cy="130.87157"
     inkscape:document-units="px"
     inkscape:current-layer="layer3"
     showgrid="false"
     inkscape:window-width="1883"
     inkscape:window-height="1058"
     inkscape:window-x="37"
     inkscape:window-y="0"
     inkscape:window-maximized="1"
     units="cm">
    <inkscape:grid
       type="xygrid"
       id="grid2985"
       empspacing="5"
       visible="true"
       enabled="true"
       snapvisiblegridlinesonly="true"
       units="mm" />
  </sodipodi:namedview>
  <metadata
     id="metadata7">
    <rdf:RDF>
      <cc:Work
         rdf:about="">
        <dc:format>image/svg+xml</dc:format>
        <dc:type
           rdf:resource="http://purl.org/dc/dcmitype/StillImage" />
        <dc:title />
      </cc:Work>
    </rdf:RDF>
  </metadata>
  <g
     inkscape:groupmode="layer"
     id="layer2"
     inkscape:label="cutter"
     style="display:inline"
     transform="translate(0,-768.89631)">
    <path
       style="fill:#000000;stroke:#000000;stroke-width:1;stroke-linecap:butt;stroke-linejoin:miter;stroke-miterlimit:4;stroke-opacity:1;stroke-dasharray:none;fill-opacity:0.11698113"
       d="m 139.67365,767.72298 c -7.03251,0 -7.24428,12.11568 -11.70281,17.55422 -3.49756,4.26635 -16.28672,6.33364 -17.55422,11.70282 -1.41709,6.00293 7.85313,11.72014 5.85141,17.55421 -2.28231,6.65188 -7.65175,5.95433 -11.70282,11.70281 -4.632577,6.57366 6.43518,15.38488 5.85141,23.40563 -0.16944,2.32813 -0.30634,4.93639 -0.40229,7.71654 -2.45354,-1.30579 -4.77607,-2.49431 -6.8754,-3.51084 -7.238077,-3.50482 -9.362137,-17.51132 -17.371359,-16.78622 -7.00387,0.63408 -9.079815,5.62823 -15.981654,4.27884 -6.053314,-1.18349 -6.380712,-12.04971 -12.287949,-13.82394 -5.283607,-1.58691 -13.46383,8.42986 -18.907366,9.32568 -6.939184,1.14192 -17.512243,-4.70064 -21.028494,1.38971 -3.516267,6.09033 6.845035,12.32688 9.325681,18.90735 1.945978,5.16215 -2.662955,17.24622 1.353134,21.0285 4.49015,4.2287 14.087765,-0.92031 18.139365,3.73026 4.619541,5.30247 1.326029,9.59908 4.278841,15.98166 3.376664,7.29875 16.568477,2.10345 23.222772,6.61941 1.937596,1.31495 4.104887,2.76407 6.473125,4.24227 -2.361701,1.47433 -4.540205,2.89391 -6.473125,4.20569 -6.654295,4.51595 -19.846108,-0.67935 -23.222772,6.61941 -2.952812,6.38257 0.340693,10.67918 -4.278841,15.98165 -4.0516,4.65057 -13.649215,-0.49843 -18.139365,3.73028 -4.016089,3.78227 0.592844,15.86633 -1.353134,21.02848 -2.480646,6.58047 -12.841948,12.8536 -9.325681,18.94393 3.516251,6.09035 14.08931,0.21121 21.028494,1.35315 5.443536,0.89581 13.623774,10.91258 18.907366,9.32567 5.907237,-1.77422 6.234635,-12.64045 12.287949,-13.82395 6.901839,-1.34941 8.977784,3.64476 15.981654,4.27885 8.009222,0.7251 10.133282,-13.28141 17.371359,-16.78623 2.09933,-1.01653 4.42186,-2.20504 6.8754,-3.51084 0.096,2.78148 0.23277,5.424 0.40229,7.75312 0.58378,8.02076 -10.483987,16.83197 -5.85141,23.40562 4.05107,5.74849 9.42051,5.05094 11.70282,11.70278 2.00172,5.8341 -7.2685,11.5513 -5.85141,17.5543 1.26751,5.3692 14.05666,7.4365 17.55422,11.7028 4.45853,5.4385 4.6703,17.5542 11.70281,17.5542 7.03252,0 7.24427,-12.1157 11.70282,-17.5542 3.49756,-4.2663 16.28673,-6.3336 17.55422,-11.7028 1.4171,-6.003 -7.85312,-11.7202 -5.8514,-17.5543 2.28229,-6.65184 7.65174,-5.95429 11.70281,-11.70278 4.63256,-6.57365 -6.4352,-15.38486 -5.85141,-23.40562 0.16951,-2.32912 0.30634,-4.97164 0.40228,-7.75312 2.45355,1.3058 4.77608,2.49431 6.87541,3.51084 7.23807,3.50482 9.36213,17.51133 17.37137,16.78623 7.00387,-0.63409 9.07981,-5.62823 15.98165,-4.27885 6.05331,1.1835 6.38071,12.04973 12.28795,13.82395 5.2836,1.58691 13.46382,-8.42986 18.90736,-9.32567 6.93919,-1.14194 17.51225,4.7372 21.02849,-1.35315 3.51627,-6.09033 -6.84504,-12.36346 -9.32567,-18.94393 -1.94599,-5.16215 2.66294,-17.24622 -1.35315,-21.02848 -4.49014,-4.22871 -14.08776,0.92029 -18.13935,-3.73028 -4.61955,-5.30247 -1.32604,-9.59908 -4.27885,-15.98165 -3.37666,-7.29876 -16.56848,-2.10346 -23.22277,-6.61941 -1.93291,-1.31178 -4.11142,-2.73136 -6.47312,-4.20569 2.36823,-1.4782 4.53553,-2.92732 6.47312,-4.24227 6.65431,-4.51596 19.84611,0.67934 23.22277,-6.61941 2.95281,-6.38258 -0.3407,-10.67919 4.27885,-15.98166 4.05159,-4.65058 13.64921,0.49844 18.13935,-3.73026 4.01609,-3.78228 -0.59284,-15.86635 1.35315,-21.0285 2.48063,-6.58047 12.84194,-12.81702 9.32567,-18.90735 -3.51624,-6.09033 -14.0893,-0.24779 -21.02849,-1.38971 -5.44354,-0.89582 -13.62377,-10.91259 -18.90736,-9.32568 -5.90724,1.77423 -6.23464,12.64045 -12.28795,13.82394 -6.90184,1.34941 -8.97778,-3.64476 -15.98165,-4.27884 -8.00924,-0.7251 -10.1333,13.2814 -17.37137,16.78622 -2.09933,1.01653 -4.42186,2.20505 -6.87541,3.51084 -0.096,-2.78015 -0.23283,-5.38841 -0.40228,-7.71654 -0.58377,-8.02075 10.48397,-16.83197 5.85141,-23.40563 -4.05107,-5.74848 -9.42052,-5.05093 -11.70281,-11.70281 -2.00172,-5.83407 7.2685,-11.55128 5.8514,-17.55421 -1.26749,-5.36918 -14.05666,-7.43647 -17.55422,-11.70282 -4.45855,-5.43854 -4.6703,-17.55422 -11.70282,-17.55422 z"
       id="path2987"
       inkscape:connector-curvature="0"
       sodipodi:nodetypes="sssssscssssssssssscssssssssssscssssssssssscssssssssssscssssssssssscssssss" />
    <path
       style="fill:none;stroke:#ff1a1a;stroke-width:0.50000000000000000;stroke-linecap:butt;stroke-linejoin:miter;stroke-opacity:1;stroke-miterlimit:4;stroke-dasharray:none"
       d="m 138.89379,880.37625 0,55.69335"
       id="path3956"
       inkscape:connector-curvature="0" />
    <path
       style="fill:none;stroke:#ff1a1a;stroke-width:0.50000000000000000;stroke-linecap:butt;stroke-linejoin:miter;stroke-opacity:1;stroke-miterlimit:4;stroke-dasharray:none"
       d="m 110.36792,139.47688 57.73092,0"
       id="path3958"
       inkscape:connector-curvature="0"
       transform="translate(0,768.89631)" />
  </g>
  <g
     inkscape:groupmode="layer"
     id="layer1"
     inkscape:label="outer"
     style="display:inline">
    <path
       style="fill:none;stroke:#ffb505;stroke-width:3.9000001;stroke-linecap:butt;stroke-linejoin:miter;stroke-miterlimit:4;stroke-opacity:0.40377359;stroke-dasharray:none;display:inline"
       d="m 139.67365,-1.1733309 c -7.03251,0 -7.24428,12.1156799 -11.70281,17.5542199 -3.49756,4.26635 -16.28672,6.33364 -17.55422,11.70282 -1.41709,6.00293 7.85313,11.72014 5.85141,17.55421 -2.28231,6.65188 -7.65175,5.95433 -11.70282,11.70281 -4.632577,6.57366 6.43518,15.38488 5.85141,23.40563 -0.16944,2.32813 -0.30634,4.93639 -0.40229,7.71654 -2.45354,-1.30579 -4.77607,-2.49431 -6.8754,-3.51084 -7.238077,-3.50482 -9.362137,-17.51132 -17.371359,-16.78622 -7.00387,0.63408 -9.079815,5.62823 -15.981654,4.27884 -6.053314,-1.18349 -6.380712,-12.04971 -12.287949,-13.82394 -5.283607,-1.58691 -13.46383,8.42986 -18.907366,9.32568 -6.939184,1.14192 -17.512243,-4.70064 -21.028494,1.38971 -3.516267,6.09033 6.845035,12.32688 9.325681,18.90735 1.945978,5.16215 -2.662955,17.246221 1.353134,21.028501 4.49015,4.2287 14.087765,-0.92031 18.139365,3.73026 4.619541,5.30247 1.326029,9.59908 4.278841,15.98166 3.376664,7.29875 16.568477,2.10345 23.222772,6.61941 1.937596,1.31495 4.104887,2.76407 6.473125,4.24227 -2.361701,1.47433 -4.540205,2.89391 -6.473125,4.20569 -6.654295,4.51595 -19.846108,-0.67935 -23.222772,6.61941 -2.952812,6.38257 0.340693,10.67918 -4.278841,15.98165 -4.0516,4.65057 -13.649215,-0.49843 -18.139365,3.73028 -4.016089,3.78227 0.592844,15.86633 -1.353134,21.02848 -2.480646,6.58047 -12.841948,12.8536 -9.325681,18.94393 3.516251,6.09035 14.08931,0.21121 21.028494,1.35315 5.443536,0.89581 13.623774,10.91258 18.907366,9.32567 5.907237,-1.77422 6.234635,-12.64045 12.287949,-13.82395 6.901839,-1.34941 8.977784,3.64476 15.981654,4.27885 8.009222,0.7251 10.133282,-13.28141 17.371359,-16.78623 2.09933,-1.01653 4.42186,-2.20504 6.8754,-3.51084 0.096,2.78148 0.23277,5.424 0.40229,7.75312 0.58378,8.02076 -10.483987,16.83197 -5.85141,23.40562 4.05107,5.74849 9.42051,5.05094 11.70282,11.70278 2.00172,5.8341 -7.2685,11.5513 -5.85141,17.5543 1.26751,5.3692 14.05666,7.4365 17.55422,11.7028 4.45853,5.4385 4.6703,17.5542 11.70281,17.5542 7.03252,0 7.24427,-12.1157 11.70282,-17.5542 3.49756,-4.2663 16.28673,-6.3336 17.55422,-11.7028 1.4171,-6.003 -7.85312,-11.7202 -5.8514,-17.5543 2.28229,-6.65184 7.65174,-5.95429 11.70281,-11.70278 4.63256,-6.57365 -6.4352,-15.38486 -5.85141,-23.40562 0.16951,-2.32912 0.30634,-4.97164 0.40228,-7.75312 2.45355,1.3058 4.77608,2.49431 6.87541,3.51084 7.23807,3.50482 9.36213,17.51133 17.37137,16.78623 7.00387,-0.63409 9.07981,-5.62823 15.98165,-4.27885 6.05331,1.1835 6.38071,12.04973 12.28795,13.82395 5.2836,1.58691 13.46382,-8.42986 18.90736,-9.32567 6.93919,-1.14194 17.51225,4.7372 21.02849,-1.35315 3.51627,-6.09033 -6.84504,-12.36346 -9.32567,-18.94393 -1.94599,-5.16215 2.66294,-17.24622 -1.35315,-21.02848 -4.49014,-4.22871 -14.08776,0.92029 -18.13935,-3.73028 -4.61955,-5.30247 -1.32604,-9.59908 -4.27885,-15.98165 -3.37666,-7.29876 -16.56848,-2.10346 -23.22277,-6.61941 -1.93291,-1.31178 -4.11142,-2.73136 -6.47312,-4.20569 2.36823,-1.4782 4.53553,-2.92732 6.47312,-4.24227 6.65431,-4.51596 19.84611,0.67934 23.22277,-6.61941 2.95281,-6.38258 -0.3407,-10.67919 4.27885,-15.98166 4.05159,-4.65058 13.64921,0.49844 18.13935,-3.73026 4.01609,-3.78228 -0.59284,-15.866351 1.35315,-21.028501 2.48063,-6.58047 12.84194,-12.81702 9.32567,-18.90735 -3.51624,-6.09033 -14.0893,-0.24779 -21.02849,-1.38971 -5.44354,-0.89582 -13.62377,-10.91259 -18.90736,-9.32568 -5.90724,1.77423 -6.23464,12.64045 -12.28795,13.82394 -6.90184,1.34941 -8.97778,-3.64476 -15.98165,-4.27884 -8.00924,-0.7251 -10.1333,13.2814 -17.37137,16.78622 -2.09933,1.01653 -4.42186,2.20505 -6.87541,3.51084 -0.096,-2.78015 -0.23283,-5.38841 -0.40228,-7.71654 -0.58377,-8.02075 10.48397,-16.83197 5.85141,-23.40563 -4.05107,-5.74848 -9.42052,-5.05093 -11.70281,-11.70281 -2.00172,-5.83407 7.2685,-11.55128 5.8514,-17.55421 -1.26749,-5.36918 -14.05666,-7.43647 -17.55422,-11.70282 -4.45855,-5.43854 -4.6703,-17.5542199 -11.70282,-17.5542199 z"
       id="path2987-9"
       inkscape:connector-curvature="0"
       sodipodi:nodetypes="sssssscssssssssssscssssssssssscssssssssssscssssssssssscssssssssssscssssss" />
    <path
       style="fill:none;stroke:#ff1a1a;stroke-width:0.5;stroke-linecap:butt;stroke-linejoin:miter;stroke-miterlimit:4;stroke-opacity:1;stroke-dasharray:none;display:inline"
       d="m 138.89379,111.47994 0,55.69335"
       id="path3956-5"
       inkscape:connector-curvature="0" />
    <path
       style="fill:none;stroke:#ff1a1a;stroke-width:0.5;stroke-linecap:butt;stroke-linejoin:miter;stroke-miterlimit:4;stroke-opacity:1;stroke-dasharray:none;display:inline"
       d="m 110.36792,139.47688 57.73092,0"
       id="path3958-2"
       inkscape:connector-curvature="0" />
  </g>
  <g
     inkscape:groupmode="layer"
     id="layer3"
     inkscape:label="join"
     style="display:inline">
    <path
       style="fill:none;stroke:#ff1a1a;stroke-width:0.5;stroke-linecap:butt;stroke-linejoin:miter;stroke-miterlimit:4;stroke-opacity:1;stroke-dasharray:none;display:inline"
       d="m 138.89379,111.47994 0,55.69335"
       id="path3956-4"
       inkscape:connector-curvature="0" />
    <path
       style="fill:none;stroke:#ff1a1a;stroke-width:0.5;stroke-linecap:butt;stroke-linejoin:miter;stroke-miterlimit:4;stroke-opacity:1;stroke-dasharray:none;display:inline"
       d="m 110.36792,139.47688 57.73092,0"
       id="path3958-4"
       inkscape:connector-curvature="0" />
  </g>
</svg>
