solid OpenSCAD_Model
  facet normal -0.889963 0.456033 0
    outer loop
      vertex -33.782 -18.48 0
      vertex -33.782 -18.48 1.01
      vertex -25.261 -1.851 0
    endloop
  endfacet
  facet normal -0.889963 0.456033 0
    outer loop
      vertex -25.261 -1.851 0
      vertex -33.782 -18.48 1.01
      vertex -25.261 -1.851 1.01
    endloop
  endfacet
  facet normal -0.866025 -0.5 -0
    outer loop
      vertex -33.782 -18.48 0
      vertex -31.282 -22.8101 0
      vertex -33.782 -18.48 1.01
    endloop
  endfacet
  facet normal -0.866025 -0.5 0
    outer loop
      vertex -33.782 -18.48 1.01
      vertex -31.282 -22.8101 0
      vertex -31.282 -22.8101 1.01
    endloop
  endfacet
  facet normal -0 0 -1
    outer loop
      vertex -33.782 -18.48 0
      vertex -25.261 -1.851 0
      vertex -31.282 -22.8101 0
    endloop
  endfacet
  facet normal 0 0 -1
    outer loop
      vertex -31.282 19.1081 0
      vertex -25.261 -1.851 0
      vertex -33.782 14.778 0
    endloop
  endfacet
  facet normal 0 0 -1
    outer loop
      vertex -28.782 14.778 0
      vertex -25.261 -1.851 0
      vertex -31.282 19.1081 0
    endloop
  endfacet
  facet normal 0 0 -1
    outer loop
      vertex -12.427 5.853 0
      vertex -21.0914 -0.230529 0
      vertex -21.6873 0.932419 0
    endloop
  endfacet
  facet normal 0 0 -1
    outer loop
      vertex -9.91894 16.0252 0
      vertex -2.466 35.7501 0
      vertex 2.534 35.7501 0
    endloop
  endfacet
  facet normal 0 0 -1
    outer loop
      vertex 21.7747 0.993807 0
      vertex 12.1135 4.65674 0
      vertex 12.705 5.81261 0
    endloop
  endfacet
  facet normal 0 0 -1
    outer loop
      vertex 28.838 14.778 0
      vertex 31.338 19.1081 0
      vertex 33.838 14.778 0
    endloop
  endfacet
  facet normal -0 0 -1
    outer loop
      vertex 21.7747 0.993807 0
      vertex 33.838 14.778 0
      vertex 25.317 -1.851 0
    endloop
  endfacet
  facet normal 0 0 -1
    outer loop
      vertex 20.317 -1.851 0
      vertex 33.838 -18.48 0
      vertex 28.838 -18.48 0
    endloop
  endfacet
  facet normal -0 0 -1
    outer loop
      vertex 0.034 -35.122 0
      vertex 12.67 -23.7571 0
      vertex 2.534 -39.4521 0
    endloop
  endfacet
  facet normal 0 0 -1
    outer loop
      vertex -28.782 14.778 0
      vertex -12.613 20.0551 0
      vertex -10.113 15.725 0
    endloop
  endfacet
  facet normal 0 0 -1
    outer loop
      vertex 10.17 -19.427 0
      vertex 12.67 -23.7571 0
      vertex 0.034 -35.122 0
    endloop
  endfacet
  facet normal -0 0 -1
    outer loop
      vertex -12.613 20.0551 0
      vertex -2.466 35.7501 0
      vertex -10.113 15.725 0
    endloop
  endfacet
  facet normal 0 0 -1
    outer loop
      vertex -12.613 20.0551 0
      vertex -28.782 14.778 0
      vertex -31.282 19.1081 0
    endloop
  endfacet
  facet normal 0 0 -1
    outer loop
      vertex -31.282 -22.8101 0
      vertex -25.261 -1.851 0
      vertex -22.1546 1.84433 0
    endloop
  endfacet
  facet normal 0 0 -1
    outer loop
      vertex -9.91894 16.0252 0
      vertex -2.0042 12.1487 0
      vertex -2.54519 11.3123 0
    endloop
  endfacet
  facet normal 0 0 -1
    outer loop
      vertex -31.282 -22.8101 0
      vertex -22.1546 1.84433 0
      vertex -21.6873 0.932419 0
    endloop
  endfacet
  facet normal 0 0 -1
    outer loop
      vertex 0.168 15.507 0
      vertex 0.168 13.9335 0
      vertex -2.0042 12.1487 0
    endloop
  endfacet
  facet normal 0 0 -1
    outer loop
      vertex 0.034 31.42 0
      vertex 12.67 20.0551 0
      vertex 9.94852 16.0679 0
    endloop
  endfacet
  facet normal 0 0 -1
    outer loop
      vertex -11.5758 -19.3528 0
      vertex -31.282 -22.8101 0
      vertex -28.782 -18.48 0
    endloop
  endfacet
  facet normal 0 0 -1
    outer loop
      vertex -9.21083 17.1204 0
      vertex 2.534 35.7501 0
      vertex 0.034 31.42 0
    endloop
  endfacet
  facet normal 0 0 -1
    outer loop
      vertex -31.282 -22.8101 0
      vertex -20.261 -1.851 0
      vertex -28.782 -18.48 0
    endloop
  endfacet
  facet normal 0 -0 -1
    outer loop
      vertex -12.613 -23.7571 0
      vertex -31.282 -22.8101 0
      vertex -10.113 -19.427 0
    endloop
  endfacet
  facet normal 0 0 -1
    outer loop
      vertex 4.926 8.151 0
      vertex 0.168 13.9335 0
      vertex 0.168 15.507 0
    endloop
  endfacet
  facet normal 0 -0 -1
    outer loop
      vertex 9.684 -0.091 0
      vertex 8.724 -0.091 0
      vertex 12.1135 4.65674 0
    endloop
  endfacet
  facet normal 0 0 -1
    outer loop
      vertex -4.11 -7.48962 0
      vertex -10.8057 -8.01064 0
      vertex -11.9786 -7.09672 0
    endloop
  endfacet
  facet normal 0 -0 -1
    outer loop
      vertex -11.9786 -7.09672 0
      vertex -13.342 -7.884 0
      vertex -8.389 -0.091 0
    endloop
  endfacet
  facet normal 0 0 -1
    outer loop
      vertex -21.0914 -0.230529 0
      vertex -12.427 5.853 0
      vertex -11.818 4.706 0
    endloop
  endfacet
  facet normal 0 0 -1
    outer loop
      vertex 13.678 7.714 0
      vertex 4.446 7.31962 0
      vertex 4.926 8.151 0
    endloop
  endfacet
  facet normal 0 0 -1
    outer loop
      vertex 12.1135 4.65674 0
      vertex 21.7747 0.993807 0
      vertex 21.1789 -0.169047 0
    endloop
  endfacet
  facet normal -0 0 -1
    outer loop
      vertex 12.3151 6.9267 0
      vertex 13.678 7.714 0
      vertex 12.705 5.81261 0
    endloop
  endfacet
  facet normal 0 0 -1
    outer loop
      vertex -10.113 15.725 0
      vertex -2.466 35.7501 0
      vertex -9.91894 16.0252 0
    endloop
  endfacet
  facet normal 0 -0 -1
    outer loop
      vertex -9.21083 17.1204 0
      vertex -9.91894 16.0252 0
      vertex 2.534 35.7501 0
    endloop
  endfacet
  facet normal 0 0 -1
    outer loop
      vertex -11.9792 6.92669 0
      vertex -4.59 8.151 0
      vertex -4.11 7.31962 0
    endloop
  endfacet
  facet normal 0 0 -1
    outer loop
      vertex 12.3145 -7.09673 0
      vertex 4.926 -8.321 0
      vertex 4.446 -7.48962 0
    endloop
  endfacet
  facet normal 0 0 -1
    outer loop
      vertex -9.91894 16.0252 0
      vertex -2.54519 11.3123 0
      vertex -2.716 11.056 0
    endloop
  endfacet
  facet normal 0 0 -1
    outer loop
      vertex -4.59 8.151 0
      vertex -11.9792 6.92669 0
      vertex -13.342 7.714 0
    endloop
  endfacet
  facet normal 0 0 -1
    outer loop
      vertex -4.11 -7.48962 0
      vertex -9.4982 -8.07593 0
      vertex -10.8057 -8.01064 0
    endloop
  endfacet
  facet normal -0 0 -1
    outer loop
      vertex -13.342 -7.884 0
      vertex -11.9786 -7.09672 0
      vertex -10.8057 -8.01064 0
    endloop
  endfacet
  facet normal 0 0 -1
    outer loop
      vertex -10.8057 -8.01064 0
      vertex -9.4982 -8.07593 0
      vertex -11.5758 -19.3528 0
    endloop
  endfacet
  facet normal 0 0 -1
    outer loop
      vertex 12.3151 6.9267 0
      vertex 12.1135 4.65674 0
      vertex 8.724 -0.091 0
    endloop
  endfacet
  facet normal 0 0 -1
    outer loop
      vertex 4.446 -7.48962 0
      vertex 4.926 -8.321 0
      vertex 0.168 -14.1026 0
    endloop
  endfacet
  facet normal 0 0 -1
    outer loop
      vertex 0.168 13.9335 0
      vertex 4.926 8.151 0
      vertex 4.446 7.31962 0
    endloop
  endfacet
  facet normal 0 0 -1
    outer loop
      vertex 13.678 7.714 0
      vertex 12.3151 6.9267 0
      vertex 4.446 7.31962 0
    endloop
  endfacet
  facet normal 0 0 -1
    outer loop
      vertex 3.272 10.818 0
      vertex 9.455 16.771 0
      vertex 9.94852 16.0679 0
    endloop
  endfacet
  facet normal -0 0 -1
    outer loop
      vertex 10.19 15.724 0
      vertex 31.338 19.1081 0
      vertex 28.838 14.778 0
    endloop
  endfacet
  facet normal 0 0 -1
    outer loop
      vertex 21.1789 -0.169047 0
      vertex 25.317 -1.851 0
      vertex 20.317 -1.851 0
    endloop
  endfacet
  facet normal 0 0 -1
    outer loop
      vertex 3.272 10.818 0
      vertex 9.94852 16.0679 0
      vertex 10.19 15.724 0
    endloop
  endfacet
  facet normal 0 -0 -1
    outer loop
      vertex -4.11 7.31962 0
      vertex -4.59 8.151 0
      vertex -2.54519 11.3123 0
    endloop
  endfacet
  facet normal 0 0 -1
    outer loop
      vertex 10.1806 -8.05863 0
      vertex 12.2467 -19.3217 0
      vertex 10.9491 -19.3875 0
    endloop
  endfacet
  facet normal 0 0 -1
    outer loop
      vertex -31.282 -22.8101 0
      vertex -11.5758 -19.3528 0
      vertex -10.2693 -19.4191 0
    endloop
  endfacet
  facet normal 0 0 -1
    outer loop
      vertex -31.282 -22.8101 0
      vertex -10.2693 -19.4191 0
      vertex -10.113 -19.427 0
    endloop
  endfacet
  facet normal 0 0 -1
    outer loop
      vertex 10.17 -19.427 0
      vertex 31.338 -22.8101 0
      vertex 12.67 -23.7571 0
    endloop
  endfacet
  facet normal 0 0 -1
    outer loop
      vertex -12.613 -23.7571 0
      vertex 0.034 -35.122 0
      vertex 2.534 -39.4521 0
    endloop
  endfacet
  facet normal 0 0 -1
    outer loop
      vertex 20.317 -1.851 0
      vertex 25.317 -1.851 0
      vertex 33.838 -18.48 0
    endloop
  endfacet
  facet normal 0 0 -1
    outer loop
      vertex 28.838 -18.48 0
      vertex 33.838 -18.48 0
      vertex 12.2467 -19.3217 0
    endloop
  endfacet
  facet normal 0 0 -1
    outer loop
      vertex 10.17 -19.427 0
      vertex 10.9491 -19.3875 0
      vertex 33.838 -18.48 0
    endloop
  endfacet
  facet normal -0 0 -1
    outer loop
      vertex -9.4982 -8.07593 0
      vertex -4.11 -7.48962 0
      vertex -4.59 -8.321 0
    endloop
  endfacet
  facet normal 0 0 -1
    outer loop
      vertex 4.926 -8.321 0
      vertex 12.3145 -7.09673 0
      vertex 10.1806 -8.05863 0
    endloop
  endfacet
  facet normal 0 0 -1
    outer loop
      vertex 12.2467 -19.3217 0
      vertex 10.1806 -8.05863 0
      vertex 11.4782 -7.99384 0
    endloop
  endfacet
  facet normal 0 0 -1
    outer loop
      vertex 3.272 10.818 0
      vertex 10.19 15.724 0
      vertex 10.204 15.704 0
    endloop
  endfacet
  facet normal 0 0 -1
    outer loop
      vertex 9.455 16.771 0
      vertex 3.272 10.818 0
      vertex 2.522 11.885 0
    endloop
  endfacet
  facet normal 0 0 -1
    outer loop
      vertex 10.1806 -8.05863 0
      vertex 12.3145 -7.09673 0
      vertex 11.4782 -7.99384 0
    endloop
  endfacet
  facet normal 0 0 -1
    outer loop
      vertex -9.349 -0.091 0
      vertex -8.389 -0.091 0
      vertex -13.342 -7.884 0
    endloop
  endfacet
  facet normal 0 0 -1
    outer loop
      vertex 13.678 -7.884 0
      vertex 11.4782 -7.99384 0
      vertex 12.3145 -7.09673 0
    endloop
  endfacet
  facet normal 0 -0 -1
    outer loop
      vertex 0.168 -15.676 0
      vertex 0.168 -14.1026 0
      vertex 4.926 -8.321 0
    endloop
  endfacet
  facet normal -0 0 -1
    outer loop
      vertex 22.2106 1.84433 0
      vertex 33.838 14.778 0
      vertex 21.7747 0.993807 0
    endloop
  endfacet
  facet normal -0 0 -1
    outer loop
      vertex 21.1789 -0.169047 0
      vertex 21.7747 0.993807 0
      vertex 25.317 -1.851 0
    endloop
  endfacet
  facet normal -0 0 -1
    outer loop
      vertex 28.838 14.778 0
      vertex 33.838 14.778 0
      vertex 22.2106 1.84433 0
    endloop
  endfacet
  facet normal 0 0 -1
    outer loop
      vertex 10.19 15.724 0
      vertex 12.67 20.0551 0
      vertex 31.338 19.1081 0
    endloop
  endfacet
  facet normal -0 0 -1
    outer loop
      vertex 9.94852 16.0679 0
      vertex 12.67 20.0551 0
      vertex 10.19 15.724 0
    endloop
  endfacet
  facet normal 0 0 -1
    outer loop
      vertex -4.59 -8.321 0
      vertex 0.168 -14.1026 0
      vertex 0.168 -15.676 0
    endloop
  endfacet
  facet normal -0 0 -1
    outer loop
      vertex 0.034 31.42 0
      vertex 2.534 35.7501 0
      vertex 12.67 20.0551 0
    endloop
  endfacet
  facet normal 0 0 -1
    outer loop
      vertex -2.0042 12.1487 0
      vertex -9.91894 16.0252 0
      vertex -9.21083 17.1204 0
    endloop
  endfacet
  facet normal 0 -0 -1
    outer loop
      vertex -10.2693 -19.4191 0
      vertex -11.5758 -19.3528 0
      vertex -9.4982 -8.07593 0
    endloop
  endfacet
  facet normal 0 0 -1
    outer loop
      vertex -13.342 7.714 0
      vertex -11.9792 6.92669 0
      vertex -9.349 -0.091 0
    endloop
  endfacet
  facet normal 0 0 -1
    outer loop
      vertex 13.678 -7.884 0
      vertex 12.3145 -7.09673 0
      vertex 8.724 -0.091 0
    endloop
  endfacet
  facet normal 0 0 -1
    outer loop
      vertex 10.9491 -19.3875 0
      vertex 12.2467 -19.3217 0
      vertex 33.838 -18.48 0
    endloop
  endfacet
  facet normal -0 0 -1
    outer loop
      vertex 10.17 -19.427 0
      vertex 33.838 -18.48 0
      vertex 31.338 -22.8101 0
    endloop
  endfacet
  facet normal 0 0 -1
    outer loop
      vertex 0.034 -35.122 0
      vertex -12.613 -23.7571 0
      vertex -10.113 -19.427 0
    endloop
  endfacet
  facet normal 0 0 -1
    outer loop
      vertex 12.3151 6.9267 0
      vertex 12.705 5.81261 0
      vertex 12.1135 4.65674 0
    endloop
  endfacet
  facet normal 0 0 -1
    outer loop
      vertex 13.678 -7.884 0
      vertex 8.724 -0.091 0
      vertex 9.684 -0.091 0
    endloop
  endfacet
  facet normal 0 0 -1
    outer loop
      vertex -12.613 -23.7571 0
      vertex 2.534 -39.4521 0
      vertex -2.466 -39.4521 0
    endloop
  endfacet
  facet normal 0 0 -1
    outer loop
      vertex -20.261 -1.851 0
      vertex -31.282 -22.8101 0
      vertex -21.0914 -0.230529 0
    endloop
  endfacet
  facet normal 0 0 -1
    outer loop
      vertex 0.168 -14.1026 0
      vertex -4.59 -8.321 0
      vertex -4.11 -7.48962 0
    endloop
  endfacet
  facet normal 0 0 -1
    outer loop
      vertex -21.0914 -0.230529 0
      vertex -31.282 -22.8101 0
      vertex -21.6873 0.932419 0
    endloop
  endfacet
  facet normal 0 0 -1
    outer loop
      vertex -22.1546 1.84433 0
      vertex -25.261 -1.851 0
      vertex -28.782 14.778 0
    endloop
  endfacet
  facet normal 0 0 -1
    outer loop
      vertex -4.11 7.31962 0
      vertex -2.54519 11.3123 0
      vertex -2.0042 12.1487 0
    endloop
  endfacet
  facet normal 0 0 -1
    outer loop
      vertex -4.11 7.31962 0
      vertex -2.0042 12.1487 0
      vertex 0.168 13.9335 0
    endloop
  endfacet
  facet normal 0 0 -1
    outer loop
      vertex -8.389 -0.091 0
      vertex -9.349 -0.091 0
      vertex -11.9792 6.92669 0
    endloop
  endfacet
  facet normal -0.889963 -0.456033 -0
    outer loop
      vertex -33.782 14.778 0
      vertex -25.261 -1.851 0
      vertex -33.782 14.778 1.01
    endloop
  endfacet
  facet normal -0.889963 -0.456033 0
    outer loop
      vertex -33.782 14.778 1.01
      vertex -25.261 -1.851 0
      vertex -25.261 -1.851 1.01
    endloop
  endfacet
  facet normal 0 0 1
    outer loop
      vertex -25.261 -1.851 1.01
      vertex -33.782 -18.48 1.01
      vertex -31.282 -22.8101 1.01
    endloop
  endfacet
  facet normal -0 0 1
    outer loop
      vertex -29.742 -18.48 1.01
      vertex -25.261 -1.851 1.01
      vertex -31.282 -22.8101 1.01
    endloop
  endfacet
  facet normal 0 0 1
    outer loop
      vertex 10.65 16.5564 1.01
      vertex 29.318 15.6094 1.01
      vertex 31.338 19.1081 1.01
    endloop
  endfacet
  facet normal 0 0 1
    outer loop
      vertex 0.514 32.2514 1.01
      vertex 10.65 16.5564 1.01
      vertex 12.67 20.0551 1.01
    endloop
  endfacet
  facet normal 0 0 1
    outer loop
      vertex -12.613 20.0551 1.01
      vertex -0.446 32.2514 1.01
      vertex -2.466 35.7501 1.01
    endloop
  endfacet
  facet normal 0 0 1
    outer loop
      vertex -29.262 15.6094 1.01
      vertex -10.593 16.5564 1.01
      vertex -12.613 20.0551 1.01
    endloop
  endfacet
  facet normal 0 0 1
    outer loop
      vertex -12.613 -23.7571 1.01
      vertex -29.262 -19.3114 1.01
      vertex -31.282 -22.8101 1.01
    endloop
  endfacet
  facet normal 0 -0 1
    outer loop
      vertex 29.318 -19.3114 1.01
      vertex 10.65 -20.2584 1.01
      vertex 31.338 -22.8101 1.01
    endloop
  endfacet
  facet normal -0 0 1
    outer loop
      vertex -29.262 -19.3114 1.01
      vertex -29.742 -18.48 1.01
      vertex -31.282 -22.8101 1.01
    endloop
  endfacet
  facet normal 0 0 1
    outer loop
      vertex 21.277 -1.851 1.01
      vertex 33.838 -18.48 1.01
      vertex 25.317 -1.851 1.01
    endloop
  endfacet
  facet normal 0 -0 1
    outer loop
      vertex 10.65 -20.2584 1.01
      vertex 0.514 -35.9534 1.01
      vertex 12.67 -23.7571 1.01
    endloop
  endfacet
  facet normal 0 0 1
    outer loop
      vertex -0.446 32.2514 1.01
      vertex 0.514 32.2514 1.01
      vertex 2.534 35.7501 1.01
    endloop
  endfacet
  facet normal 0 0 1
    outer loop
      vertex -31.282 19.1081 1.01
      vertex -25.261 -1.851 1.01
      vertex -29.742 14.778 1.01
    endloop
  endfacet
  facet normal 0 0 1
    outer loop
      vertex -31.282 19.1081 1.01
      vertex -29.262 15.6094 1.01
      vertex -12.613 20.0551 1.01
    endloop
  endfacet
  facet normal 0 0 1
    outer loop
      vertex -31.282 19.1081 1.01
      vertex -29.742 14.778 1.01
      vertex -29.262 15.6094 1.01
    endloop
  endfacet
  facet normal 0 -0 1
    outer loop
      vertex 29.798 14.778 1.01
      vertex 21.277 -1.851 1.01
      vertex 33.838 14.778 1.01
    endloop
  endfacet
  facet normal 0 0 1
    outer loop
      vertex -2.466 35.7501 1.01
      vertex -0.446 32.2514 1.01
      vertex 2.534 35.7501 1.01
    endloop
  endfacet
  facet normal 0 0 1
    outer loop
      vertex 21.277 -1.851 1.01
      vertex 29.798 -18.48 1.01
      vertex 33.838 -18.48 1.01
    endloop
  endfacet
  facet normal 0 -0 1
    outer loop
      vertex 2.534 35.7501 1.01
      vertex 0.514 32.2514 1.01
      vertex 12.67 20.0551 1.01
    endloop
  endfacet
  facet normal 0 -0 1
    outer loop
      vertex 12.67 20.0551 1.01
      vertex 10.65 16.5564 1.01
      vertex 31.338 19.1081 1.01
    endloop
  endfacet
  facet normal 0 -0 1
    outer loop
      vertex 31.338 19.1081 1.01
      vertex 29.318 15.6094 1.01
      vertex 33.838 14.778 1.01
    endloop
  endfacet
  facet normal 0 0 1
    outer loop
      vertex 29.318 15.6094 1.01
      vertex 29.798 14.778 1.01
      vertex 33.838 14.778 1.01
    endloop
  endfacet
  facet normal 0 0 1
    outer loop
      vertex 33.838 14.778 1.01
      vertex 21.277 -1.851 1.01
      vertex 25.317 -1.851 1.01
    endloop
  endfacet
  facet normal -0 0 1
    outer loop
      vertex 33.838 -18.48 1.01
      vertex 29.798 -18.48 1.01
      vertex 31.338 -22.8101 1.01
    endloop
  endfacet
  facet normal 0 0 1
    outer loop
      vertex -12.613 20.0551 1.01
      vertex -10.593 16.5564 1.01
      vertex -0.446 32.2514 1.01
    endloop
  endfacet
  facet normal 0 -0 1
    outer loop
      vertex 29.798 -18.48 1.01
      vertex 29.318 -19.3114 1.01
      vertex 31.338 -22.8101 1.01
    endloop
  endfacet
  facet normal -0 0 1
    outer loop
      vertex 31.338 -22.8101 1.01
      vertex 10.65 -20.2584 1.01
      vertex 12.67 -23.7571 1.01
    endloop
  endfacet
  facet normal 0 0 1
    outer loop
      vertex 12.67 -23.7571 1.01
      vertex 0.514 -35.9534 1.01
      vertex 2.534 -39.4521 1.01
    endloop
  endfacet
  facet normal -0 0 1
    outer loop
      vertex 2.534 -39.4521 1.01
      vertex -0.446 -35.9534 1.01
      vertex -2.466 -39.4521 1.01
    endloop
  endfacet
  facet normal 0 0 1
    outer loop
      vertex -33.782 14.778 1.01
      vertex -25.261 -1.851 1.01
      vertex -31.282 19.1081 1.01
    endloop
  endfacet
  facet normal 0 0 1
    outer loop
      vertex -10.593 -20.2584 1.01
      vertex -2.466 -39.4521 1.01
      vertex -0.446 -35.9534 1.01
    endloop
  endfacet
  facet normal 0 -0 1
    outer loop
      vertex -10.593 -20.2584 1.01
      vertex -12.613 -23.7571 1.01
      vertex -2.466 -39.4521 1.01
    endloop
  endfacet
  facet normal -0 0 1
    outer loop
      vertex -10.593 -20.2584 1.01
      vertex -29.262 -19.3114 1.01
      vertex -12.613 -23.7571 1.01
    endloop
  endfacet
  facet normal 0 -0 1
    outer loop
      vertex 0.514 -35.9534 1.01
      vertex -0.446 -35.9534 1.01
      vertex 2.534 -39.4521 1.01
    endloop
  endfacet
  facet normal 0 0 1
    outer loop
      vertex -29.742 -18.48 1.01
      vertex -21.221 -1.851 1.01
      vertex -25.261 -1.851 1.01
    endloop
  endfacet
  facet normal -0 0 1
    outer loop
      vertex -21.221 -1.851 1.01
      vertex -29.742 14.778 1.01
      vertex -25.261 -1.851 1.01
    endloop
  endfacet
  facet normal -0.0506607 -0.998716 0
    outer loop
      vertex -31.282 -22.8101 1.01
      vertex -31.282 -22.8101 0
      vertex -12.613 -23.7571 0
    endloop
  endfacet
  facet normal -0.0506607 -0.998716 0
    outer loop
      vertex -12.613 -23.7571 1.01
      vertex -31.282 -22.8101 1.01
      vertex -12.613 -23.7571 0
    endloop
  endfacet
  facet normal -0.83978 -0.542927 -0
    outer loop
      vertex -12.613 -23.7571 0
      vertex -2.466 -39.4521 0
      vertex -12.613 -23.7571 1.01
    endloop
  endfacet
  facet normal -0.83978 -0.542927 0
    outer loop
      vertex -12.613 -23.7571 1.01
      vertex -2.466 -39.4521 0
      vertex -2.466 -39.4521 1.01
    endloop
  endfacet
  facet normal 0 -1 0
    outer loop
      vertex -2.466 -39.4521 1.01
      vertex -2.466 -39.4521 0
      vertex 2.534 -39.4521 0
    endloop
  endfacet
  facet normal 0 -1 0
    outer loop
      vertex 2.534 -39.4521 1.01
      vertex -2.466 -39.4521 1.01
      vertex 2.534 -39.4521 0
    endloop
  endfacet
  facet normal 0.840048 -0.542512 0
    outer loop
      vertex 2.534 -39.4521 1.01
      vertex 2.534 -39.4521 0
      vertex 12.67 -23.7571 0
    endloop
  endfacet
  facet normal 0.840048 -0.542512 0
    outer loop
      vertex 12.67 -23.7571 1.01
      vertex 2.534 -39.4521 1.01
      vertex 12.67 -23.7571 0
    endloop
  endfacet
  facet normal 0.0506634 -0.998716 0
    outer loop
      vertex 12.67 -23.7571 1.01
      vertex 12.67 -23.7571 0
      vertex 31.338 -22.8101 0
    endloop
  endfacet
  facet normal 0.0506634 -0.998716 0
    outer loop
      vertex 31.338 -22.8101 1.01
      vertex 12.67 -23.7571 1.01
      vertex 31.338 -22.8101 0
    endloop
  endfacet
  facet normal 0.866025 -0.5 0
    outer loop
      vertex 31.338 -22.8101 1.01
      vertex 31.338 -22.8101 0
      vertex 33.838 -18.48 0
    endloop
  endfacet
  facet normal 0.866025 -0.5 0
    outer loop
      vertex 33.838 -18.48 1.01
      vertex 31.338 -22.8101 1.01
      vertex 33.838 -18.48 0
    endloop
  endfacet
  facet normal 0.889963 0.456033 0
    outer loop
      vertex 33.838 -18.48 0
      vertex 25.317 -1.851 0
      vertex 25.317 -1.851 1.01
    endloop
  endfacet
  facet normal 0.889963 0.456033 -0
    outer loop
      vertex 33.838 -18.48 1.01
      vertex 33.838 -18.48 0
      vertex 25.317 -1.851 1.01
    endloop
  endfacet
  facet normal 0.889963 -0.456033 0
    outer loop
      vertex 25.317 -1.851 1.01
      vertex 25.317 -1.851 0
      vertex 33.838 14.778 0
    endloop
  endfacet
  facet normal 0.889963 -0.456033 0
    outer loop
      vertex 33.838 14.778 1.01
      vertex 25.317 -1.851 1.01
      vertex 33.838 14.778 0
    endloop
  endfacet
  facet normal 0.866025 0.5 0
    outer loop
      vertex 33.838 14.778 0
      vertex 31.338 19.1081 0
      vertex 31.338 19.1081 1.01
    endloop
  endfacet
  facet normal 0.866025 0.5 -0
    outer loop
      vertex 33.838 14.778 1.01
      vertex 33.838 14.778 0
      vertex 31.338 19.1081 1.01
    endloop
  endfacet
  facet normal 0.0506634 0.998716 0
    outer loop
      vertex 12.67 20.0551 0
      vertex 12.67 20.0551 1.01
      vertex 31.338 19.1081 0
    endloop
  endfacet
  facet normal 0.0506634 0.998716 0
    outer loop
      vertex 31.338 19.1081 0
      vertex 12.67 20.0551 1.01
      vertex 31.338 19.1081 1.01
    endloop
  endfacet
  facet normal 0.840048 0.542512 0
    outer loop
      vertex 12.67 20.0551 0
      vertex 2.534 35.7501 0
      vertex 2.534 35.7501 1.01
    endloop
  endfacet
  facet normal 0.840048 0.542512 -0
    outer loop
      vertex 12.67 20.0551 1.01
      vertex 12.67 20.0551 0
      vertex 2.534 35.7501 1.01
    endloop
  endfacet
  facet normal 0 1 0
    outer loop
      vertex -2.466 35.7501 0
      vertex -2.466 35.7501 1.01
      vertex 2.534 35.7501 0
    endloop
  endfacet
  facet normal 0 1 0
    outer loop
      vertex 2.534 35.7501 0
      vertex -2.466 35.7501 1.01
      vertex 2.534 35.7501 1.01
    endloop
  endfacet
  facet normal -0.83978 0.542927 0
    outer loop
      vertex -12.613 20.0551 0
      vertex -12.613 20.0551 1.01
      vertex -2.466 35.7501 0
    endloop
  endfacet
  facet normal -0.83978 0.542927 0
    outer loop
      vertex -2.466 35.7501 0
      vertex -12.613 20.0551 1.01
      vertex -2.466 35.7501 1.01
    endloop
  endfacet
  facet normal -0.0506607 0.998716 0
    outer loop
      vertex -31.282 19.1081 0
      vertex -31.282 19.1081 1.01
      vertex -12.613 20.0551 0
    endloop
  endfacet
  facet normal -0.0506607 0.998716 0
    outer loop
      vertex -12.613 20.0551 0
      vertex -31.282 19.1081 1.01
      vertex -12.613 20.0551 1.01
    endloop
  endfacet
  facet normal -0.866025 0.5 0
    outer loop
      vertex -33.782 14.778 0
      vertex -33.782 14.778 1.01
      vertex -31.282 19.1081 0
    endloop
  endfacet
  facet normal -0.866025 0.5 0
    outer loop
      vertex -31.282 19.1081 0
      vertex -33.782 14.778 1.01
      vertex -31.282 19.1081 1.01
    endloop
  endfacet
  facet normal 0.0506607 -0.998716 0
    outer loop
      vertex -28.782 14.778 1.01
      vertex -28.782 14.778 0
      vertex -10.113 15.725 0
    endloop
  endfacet
  facet normal 0.0506607 -0.998716 1.28559e-17
    outer loop
      vertex -28.782 14.778 15.01
      vertex -28.782 14.778 1.01
      vertex -10.113 15.725 15.01
    endloop
  endfacet
  facet normal 0.0506607 -0.998716 0
    outer loop
      vertex -10.113 15.725 15.01
      vertex -28.782 14.778 1.01
      vertex -10.113 15.725 0
    endloop
  endfacet
  facet normal 0.889963 0.456033 0
    outer loop
      vertex -28.782 14.778 1.01
      vertex -22.1546 1.84433 1.01
      vertex -22.1546 1.84433 0
    endloop
  endfacet
  facet normal 0.889963 0.456033 0
    outer loop
      vertex -28.782 14.778 0
      vertex -28.782 14.778 1.01
      vertex -22.1546 1.84433 0
    endloop
  endfacet
  facet normal 0.83978 -0.542927 0
    outer loop
      vertex 0.034 31.42 15.01
      vertex -9.91894 16.0252 3.5
      vertex -9.21083 17.1204 3.5
    endloop
  endfacet
  facet normal 0.83978 -0.542927 0
    outer loop
      vertex -9.91894 16.0252 0
      vertex -9.91894 16.0252 3.5
      vertex -10.113 15.725 15.01
    endloop
  endfacet
  facet normal 0.83978 -0.542927 0
    outer loop
      vertex -9.21083 17.1204 0
      vertex 0.034 31.42 0
      vertex -9.21083 17.1204 3.5
    endloop
  endfacet
  facet normal 0.83978 -0.542927 0
    outer loop
      vertex 0.034 31.42 0
      vertex 0.034 31.42 15.01
      vertex -9.21083 17.1204 3.5
    endloop
  endfacet
  facet normal 0.83978 -0.542927 1.27134e-16
    outer loop
      vertex 0.034 31.42 15.01
      vertex -10.113 15.725 15.01
      vertex -9.91894 16.0252 3.5
    endloop
  endfacet
  facet normal 0.83978 -0.542927 0
    outer loop
      vertex -10.113 15.725 15.01
      vertex -10.113 15.725 0
      vertex -9.91894 16.0252 0
    endloop
  endfacet
  facet normal -0.567858 -0.823126 0
    outer loop
      vertex -9.91894 16.0252 3.5
      vertex -9.91894 16.0252 0
      vertex -2.716 11.056 0
    endloop
  endfacet
  facet normal -0.567858 -0.823126 0
    outer loop
      vertex -2.716 11.056 3.5
      vertex -9.91894 16.0252 3.5
      vertex -2.716 11.056 0
    endloop
  endfacet
  facet normal 0.832168 -0.554523 0
    outer loop
      vertex -2.716 11.056 3.5
      vertex -2.716 11.056 0
      vertex -2.54519 11.3123 0
    endloop
  endfacet
  facet normal 0.832168 -0.554523 0
    outer loop
      vertex -2.54519 11.3123 3.5
      vertex -2.716 11.056 3.5
      vertex -2.54519 11.3123 0
    endloop
  endfacet
  facet normal -0.839662 0.543109 0
    outer loop
      vertex 0.168 15.507 15.01
      vertex 0.168 15.507 0
      vertex -4.59 8.151 15.01
    endloop
  endfacet
  facet normal -0.839662 0.543109 0
    outer loop
      vertex -2.0042 12.1487 3.5
      vertex 0.168 15.507 0
      vertex -2.0042 12.1487 0
    endloop
  endfacet
  facet normal -0.839662 0.543109 -1.06454e-16
    outer loop
      vertex -4.59 8.151 15.01
      vertex 0.168 15.507 0
      vertex -2.0042 12.1487 3.5
    endloop
  endfacet
  facet normal -0.839662 0.543109 -1.60359e-16
    outer loop
      vertex -4.59 8.151 15.01
      vertex -2.0042 12.1487 3.5
      vertex -2.54519 11.3123 3.5
    endloop
  endfacet
  facet normal -0.839662 0.543109 0
    outer loop
      vertex -4.59 8.151 15.01
      vertex -2.54519 11.3123 0
      vertex -4.59 8.151 0
    endloop
  endfacet
  facet normal -0.839662 0.543109 0
    outer loop
      vertex -2.54519 11.3123 0
      vertex -4.59 8.151 15.01
      vertex -2.54519 11.3123 3.5
    endloop
  endfacet
  facet normal -0.0498693 0.998756 0
    outer loop
      vertex -4.59 8.151 15.01
      vertex -4.59 8.151 0
      vertex -13.342 7.714 15.01
    endloop
  endfacet
  facet normal -0.0498693 0.998756 0
    outer loop
      vertex -13.342 7.714 15.01
      vertex -4.59 8.151 0
      vertex -13.342 7.714 0
    endloop
  endfacet
  facet normal -0.89026 -0.455453 0
    outer loop
      vertex -9.349 -0.091 15.01
      vertex -13.342 7.714 15.01
      vertex -9.349 -0.091 0
    endloop
  endfacet
  facet normal -0.89026 -0.455453 0
    outer loop
      vertex -9.349 -0.091 0
      vertex -13.342 7.714 15.01
      vertex -13.342 7.714 0
    endloop
  endfacet
  facet normal -0.889976 0.456008 0
    outer loop
      vertex -9.349 -0.091 15.01
      vertex -9.349 -0.091 0
      vertex -13.342 -7.884 15.01
    endloop
  endfacet
  facet normal -0.889976 0.456008 0
    outer loop
      vertex -13.342 -7.884 15.01
      vertex -9.349 -0.091 0
      vertex -13.342 -7.884 0
    endloop
  endfacet
  facet normal -0.0498693 -0.998756 -4.72793e-16
    outer loop
      vertex -4.59 -8.321 15.01
      vertex -10.8057 -8.01064 3.5
      vertex -9.4982 -8.07593 3.5
    endloop
  endfacet
  facet normal -0.0498693 -0.998756 -0
    outer loop
      vertex -10.8057 -8.01064 0
      vertex -10.8057 -8.01064 3.5
      vertex -13.342 -7.884 15.01
    endloop
  endfacet
  facet normal -0.0498693 -0.998756 -0
    outer loop
      vertex -9.4982 -8.07593 0
      vertex -4.59 -8.321 0
      vertex -9.4982 -8.07593 3.5
    endloop
  endfacet
  facet normal -0.0498693 -0.998756 -0
    outer loop
      vertex -4.59 -8.321 0
      vertex -4.59 -8.321 15.01
      vertex -9.4982 -8.07593 3.5
    endloop
  endfacet
  facet normal -0.0498693 -0.998756 -3.64567e-17
    outer loop
      vertex -4.59 -8.321 15.01
      vertex -13.342 -7.884 15.01
      vertex -10.8057 -8.01064 3.5
    endloop
  endfacet
  facet normal -0.0498693 -0.998756 0
    outer loop
      vertex -13.342 -7.884 15.01
      vertex -13.342 -7.884 0
      vertex -10.8057 -8.01064 0
    endloop
  endfacet
  facet normal -0.997703 0.0677356 0
    outer loop
      vertex -11.5758 -19.3528 0
      vertex -11.5758 -19.3528 3.5
      vertex -10.8057 -8.01064 0
    endloop
  endfacet
  facet normal -0.997703 0.0677356 0
    outer loop
      vertex -10.8057 -8.01064 0
      vertex -11.5758 -19.3528 3.5
      vertex -10.8057 -8.01064 3.5
    endloop
  endfacet
  facet normal 0.0506607 0.998716 -0
    outer loop
      vertex -10.113 -19.427 15.01
      vertex -10.113 -19.427 0
      vertex -10.2693 -19.4191 3.5
    endloop
  endfacet
  facet normal 0.0506607 0.998716 1.62018e-16
    outer loop
      vertex -10.113 -19.427 15.01
      vertex -10.2693 -19.4191 3.5
      vertex -28.782 -18.48 15.01
    endloop
  endfacet
  facet normal 0.0506607 0.998716 0
    outer loop
      vertex -11.5758 -19.3528 0
      vertex -28.782 -18.48 15.01
      vertex -11.5758 -19.3528 3.5
    endloop
  endfacet
  facet normal 0.0506607 0.998716 1.31288e-15
    outer loop
      vertex -10.2693 -19.4191 3.5
      vertex -11.5758 -19.3528 3.5
      vertex -28.782 -18.48 15.01
    endloop
  endfacet
  facet normal 0.0506607 0.998716 -0
    outer loop
      vertex -28.782 -18.48 1.01
      vertex -11.5758 -19.3528 0
      vertex -28.782 -18.48 0
    endloop
  endfacet
  facet normal 0.0506607 0.998716 2.57118e-17
    outer loop
      vertex -28.782 -18.48 15.01
      vertex -11.5758 -19.3528 0
      vertex -28.782 -18.48 1.01
    endloop
  endfacet
  facet normal 0.0506607 0.998716 -0
    outer loop
      vertex -10.2693 -19.4191 3.5
      vertex -10.113 -19.427 0
      vertex -10.2693 -19.4191 0
    endloop
  endfacet
  facet normal 0.889963 -0.456033 0
    outer loop
      vertex -20.261 -1.851 0
      vertex -20.261 -1.851 1.01
      vertex -28.782 -18.48 1.01
    endloop
  endfacet
  facet normal 0.889963 -0.456033 0
    outer loop
      vertex -28.782 -18.48 0
      vertex -20.261 -1.851 0
      vertex -28.782 -18.48 1.01
    endloop
  endfacet
  facet normal 0.889963 -0.456033 0
    outer loop
      vertex -28.782 -18.48 15.01
      vertex -20.261 -1.851 1.01
      vertex -20.261 -1.851 15.01
    endloop
  endfacet
  facet normal 4.43793e-17 0 0
    outer loop
      vertex -20.261 -1.851 15.01
      vertex -20.261 -1.851 1.01
      vertex -20.261 -1.851 0
    endloop
  endfacet
  facet normal 0.889963 -0.456033 0
    outer loop
      vertex -28.782 -18.48 1.01
      vertex -20.261 -1.851 1.01
      vertex -28.782 -18.48 15.01
    endloop
  endfacet
  facet normal 0.889963 0.456033 0
    outer loop
      vertex -21.0914 -0.230529 3.5
      vertex -20.261 -1.851 15.01
      vertex -20.261 -1.851 0
    endloop
  endfacet
  facet normal 0.889963 0.456033 0
    outer loop
      vertex -22.1546 1.84433 0
      vertex -22.1546 1.84433 1.01
      vertex -21.6873 0.932419 0
    endloop
  endfacet
  facet normal 0.889963 0.456033 -0
    outer loop
      vertex -21.6873 0.932419 3.5
      vertex -21.6873 0.932419 0
      vertex -22.1546 1.84433 1.01
    endloop
  endfacet
  facet normal 0.889963 0.456033 7.13745e-17
    outer loop
      vertex -28.782 14.778 15.01
      vertex -20.261 -1.851 15.01
      vertex -21.0914 -0.230529 3.5
    endloop
  endfacet
  facet normal 0.889963 0.456033 6.05444e-16
    outer loop
      vertex -21.6873 0.932419 3.5
      vertex -22.1546 1.84433 1.01
      vertex -28.782 14.778 15.01
    endloop
  endfacet
  facet normal 0.889963 0.456033 0
    outer loop
      vertex -28.782 14.778 15.01
      vertex -21.0914 -0.230529 3.5
      vertex -21.6873 0.932419 3.5
    endloop
  endfacet
  facet normal 0.889963 0.456033 0
    outer loop
      vertex -22.1546 1.84433 1.01
      vertex -28.782 14.778 1.01
      vertex -28.782 14.778 15.01
    endloop
  endfacet
  facet normal 0.889963 0.456033 0
    outer loop
      vertex -21.0914 -0.230529 0
      vertex -21.0914 -0.230529 3.5
      vertex -20.261 -1.851 0
    endloop
  endfacet
  facet normal 0.469902 -0.882719 0
    outer loop
      vertex -21.0914 -0.230529 3.5
      vertex -21.0914 -0.230529 0
      vertex -11.818 4.706 0
    endloop
  endfacet
  facet normal 0.469902 -0.882719 0
    outer loop
      vertex -11.818 4.706 3.5
      vertex -21.0914 -0.230529 3.5
      vertex -11.818 4.706 0
    endloop
  endfacet
  facet normal 0.883225 0.468949 0
    outer loop
      vertex -11.818 4.706 0
      vertex -12.427 5.853 0
      vertex -12.427 5.853 3.5
    endloop
  endfacet
  facet normal 0.883225 0.468949 -0
    outer loop
      vertex -11.818 4.706 3.5
      vertex -11.818 4.706 0
      vertex -12.427 5.853 3.5
    endloop
  endfacet
  facet normal -0.469234 0.883074 0
    outer loop
      vertex -21.6873 0.932419 0
      vertex -21.6873 0.932419 3.5
      vertex -12.427 5.853 0
    endloop
  endfacet
  facet normal -0.469234 0.883074 0
    outer loop
      vertex -12.427 5.853 0
      vertex -21.6873 0.932419 3.5
      vertex -12.427 5.853 3.5
    endloop
  endfacet
  facet normal 0.0498693 -0.998756 0
    outer loop
      vertex -11.9792 6.92669 13.51
      vertex -11.9792 6.92669 0
      vertex -4.11 7.31962 0
    endloop
  endfacet
  facet normal 0.0498693 -0.998756 0
    outer loop
      vertex -4.11 7.31962 13.51
      vertex -11.9792 6.92669 13.51
      vertex -4.11 7.31962 0
    endloop
  endfacet
  facet normal 0.89026 0.455453 0
    outer loop
      vertex -8.389 -0.091 0
      vertex -11.9792 6.92669 0
      vertex -11.9792 6.92669 13.51
    endloop
  endfacet
  facet normal 0.89026 0.455453 -0
    outer loop
      vertex -8.389 -0.091 13.51
      vertex -8.389 -0.091 0
      vertex -11.9792 6.92669 13.51
    endloop
  endfacet
  facet normal 0.839662 -0.543109 0
    outer loop
      vertex -4.11 7.31962 13.51
      vertex -4.11 7.31962 0
      vertex 0.168 13.9335 0
    endloop
  endfacet
  facet normal 0.839662 -0.543109 0
    outer loop
      vertex 0.168 13.9335 13.51
      vertex -4.11 7.31962 13.51
      vertex 0.168 13.9335 0
    endloop
  endfacet
  facet normal -0.839662 -0.543109 -0
    outer loop
      vertex 0.168 13.9335 0
      vertex 4.446 7.31962 0
      vertex 0.168 13.9335 13.51
    endloop
  endfacet
  facet normal -0.839662 -0.543109 0
    outer loop
      vertex 0.168 13.9335 13.51
      vertex 4.446 7.31962 0
      vertex 4.446 7.31962 13.51
    endloop
  endfacet
  facet normal -0.0498693 -0.998756 0
    outer loop
      vertex 4.446 7.31962 13.51
      vertex 4.446 7.31962 0
      vertex 12.3151 6.9267 0
    endloop
  endfacet
  facet normal -0.0498693 -0.998756 0
    outer loop
      vertex 12.3151 6.9267 13.51
      vertex 4.446 7.31962 13.51
      vertex 12.3151 6.9267 0
    endloop
  endfacet
  facet normal -0.890214 0.455543 0
    outer loop
      vertex 8.724 -0.091 0
      vertex 8.724 -0.091 13.51
      vertex 12.3151 6.9267 0
    endloop
  endfacet
  facet normal -0.890214 0.455543 0
    outer loop
      vertex 12.3151 6.9267 0
      vertex 8.724 -0.091 13.51
      vertex 12.3151 6.9267 13.51
    endloop
  endfacet
  facet normal -0.889929 -0.456099 -0
    outer loop
      vertex 8.724 -0.091 0
      vertex 12.3145 -7.09673 0
      vertex 8.724 -0.091 13.51
    endloop
  endfacet
  facet normal -0.889929 -0.456099 0
    outer loop
      vertex 8.724 -0.091 13.51
      vertex 12.3145 -7.09673 0
      vertex 12.3145 -7.09673 13.51
    endloop
  endfacet
  facet normal -0.0498693 0.998756 0
    outer loop
      vertex 4.446 -7.48962 0
      vertex 4.446 -7.48962 13.51
      vertex 12.3145 -7.09673 0
    endloop
  endfacet
  facet normal -0.0498693 0.998756 0
    outer loop
      vertex 12.3145 -7.09673 0
      vertex 4.446 -7.48962 13.51
      vertex 12.3145 -7.09673 13.51
    endloop
  endfacet
  facet normal -0.839628 0.543161 0
    outer loop
      vertex 0.168 -14.1026 0
      vertex 0.168 -14.1026 13.51
      vertex 4.446 -7.48962 0
    endloop
  endfacet
  facet normal -0.839628 0.543161 0
    outer loop
      vertex 4.446 -7.48962 0
      vertex 0.168 -14.1026 13.51
      vertex 4.446 -7.48962 13.51
    endloop
  endfacet
  facet normal 0.839628 0.543161 0
    outer loop
      vertex 0.168 -14.1026 0
      vertex -4.11 -7.48962 0
      vertex -4.11 -7.48962 13.51
    endloop
  endfacet
  facet normal 0.839628 0.543161 -0
    outer loop
      vertex 0.168 -14.1026 13.51
      vertex 0.168 -14.1026 0
      vertex -4.11 -7.48962 13.51
    endloop
  endfacet
  facet normal 0.0498693 0.998756 0
    outer loop
      vertex -11.9786 -7.09672 0
      vertex -11.9786 -7.09672 13.51
      vertex -4.11 -7.48962 0
    endloop
  endfacet
  facet normal 0.0498693 0.998756 0
    outer loop
      vertex -4.11 -7.48962 0
      vertex -11.9786 -7.09672 13.51
      vertex -4.11 -7.48962 13.51
    endloop
  endfacet
  facet normal 0.889976 -0.456008 0
    outer loop
      vertex -11.9786 -7.09672 13.51
      vertex -11.9786 -7.09672 0
      vertex -8.389 -0.091 0
    endloop
  endfacet
  facet normal 0.889976 -0.456008 0
    outer loop
      vertex -8.389 -0.091 13.51
      vertex -11.9786 -7.09672 13.51
      vertex -8.389 -0.091 0
    endloop
  endfacet
  facet normal 0.997697 -0.0678225 0
    outer loop
      vertex -10.2693 -19.4191 3.5
      vertex -10.2693 -19.4191 0
      vertex -9.4982 -8.07593 0
    endloop
  endfacet
  facet normal 0.997697 -0.0678225 0
    outer loop
      vertex -9.4982 -8.07593 3.5
      vertex -10.2693 -19.4191 3.5
      vertex -9.4982 -8.07593 0
    endloop
  endfacet
  facet normal -0.839628 -0.543161 0
    outer loop
      vertex 0.168 -15.676 15.01
      vertex -4.59 -8.321 15.01
      vertex 0.168 -15.676 0
    endloop
  endfacet
  facet normal -0.839628 -0.543161 0
    outer loop
      vertex 0.168 -15.676 0
      vertex -4.59 -8.321 15.01
      vertex -4.59 -8.321 0
    endloop
  endfacet
  facet normal 0.839628 -0.543161 0
    outer loop
      vertex 4.926 -8.321 0
      vertex 4.926 -8.321 15.01
      vertex 0.168 -15.676 15.01
    endloop
  endfacet
  facet normal 0.839628 -0.543161 0
    outer loop
      vertex 0.168 -15.676 0
      vertex 4.926 -8.321 0
      vertex 0.168 -15.676 15.01
    endloop
  endfacet
  facet normal 0.0498693 -0.998756 -5.7632e-17
    outer loop
      vertex 13.678 -7.884 15.01
      vertex 10.1806 -8.05863 3.5
      vertex 11.4782 -7.99384 3.5
    endloop
  endfacet
  facet normal 0.0498693 -0.998756 0
    outer loop
      vertex 10.1806 -8.05863 0
      vertex 10.1806 -8.05863 3.5
      vertex 4.926 -8.321 15.01
    endloop
  endfacet
  facet normal 0.0498693 -0.998756 0
    outer loop
      vertex 11.4782 -7.99384 0
      vertex 13.678 -7.884 0
      vertex 11.4782 -7.99384 3.5
    endloop
  endfacet
  facet normal 0.0498693 -0.998756 0
    outer loop
      vertex 13.678 -7.884 0
      vertex 13.678 -7.884 15.01
      vertex 11.4782 -7.99384 3.5
    endloop
  endfacet
  facet normal 0.0498693 -0.998756 -5.46851e-17
    outer loop
      vertex 13.678 -7.884 15.01
      vertex 4.926 -8.321 15.01
      vertex 10.1806 -8.05863 3.5
    endloop
  endfacet
  facet normal 0.0498693 -0.998756 0
    outer loop
      vertex 4.926 -8.321 15.01
      vertex 4.926 -8.321 0
      vertex 10.1806 -8.05863 0
    endloop
  endfacet
  facet normal -0.997707 -0.0676825 -0
    outer loop
      vertex 10.1806 -8.05863 0
      vertex 10.9491 -19.3875 0
      vertex 10.1806 -8.05863 3.5
    endloop
  endfacet
  facet normal -0.997707 -0.0676825 0
    outer loop
      vertex 10.1806 -8.05863 3.5
      vertex 10.9491 -19.3875 0
      vertex 10.9491 -19.3875 3.5
    endloop
  endfacet
  facet normal -0.0506634 0.998716 0
    outer loop
      vertex 28.838 -18.48 15.01
      vertex 28.838 -18.48 1.01
      vertex 10.17 -19.427 15.01
    endloop
  endfacet
  facet normal -0.0506634 0.998716 0
    outer loop
      vertex 10.17 -19.427 15.01
      vertex 28.838 -18.48 1.01
      vertex 28.838 -18.48 0
    endloop
  endfacet
  facet normal -0.0506634 0.998716 0
    outer loop
      vertex 12.2467 -19.3217 3.5
      vertex 28.838 -18.48 0
      vertex 12.2467 -19.3217 0
    endloop
  endfacet
  facet normal -0.0506634 0.998716 3.02378e-16
    outer loop
      vertex 10.17 -19.427 15.01
      vertex 28.838 -18.48 0
      vertex 12.2467 -19.3217 3.5
    endloop
  endfacet
  facet normal -0.0506634 0.998716 0
    outer loop
      vertex 10.17 -19.427 15.01
      vertex 10.9491 -19.3875 3.5
      vertex 10.9491 -19.3875 0
    endloop
  endfacet
  facet normal -0.0506634 0.998716 0
    outer loop
      vertex 10.17 -19.427 15.01
      vertex 10.9491 -19.3875 0
      vertex 10.17 -19.427 0
    endloop
  endfacet
  facet normal -0.0506634 0.998716 8.98111e-17
    outer loop
      vertex 10.9491 -19.3875 3.5
      vertex 10.17 -19.427 15.01
      vertex 12.2467 -19.3217 3.5
    endloop
  endfacet
  facet normal -0.840048 0.542512 0
    outer loop
      vertex 10.17 -19.427 15.01
      vertex 10.17 -19.427 0
      vertex 0.034 -35.122 15.01
    endloop
  endfacet
  facet normal -0.840048 0.542512 0
    outer loop
      vertex 0.034 -35.122 15.01
      vertex 10.17 -19.427 0
      vertex 0.034 -35.122 0
    endloop
  endfacet
  facet normal 0.83978 0.542927 0
    outer loop
      vertex -10.113 -19.427 15.01
      vertex 0.034 -35.122 15.01
      vertex 0.034 -35.122 0
    endloop
  endfacet
  facet normal 0.83978 0.542927 0
    outer loop
      vertex -10.113 -19.427 0
      vertex -10.113 -19.427 15.01
      vertex 0.034 -35.122 0
    endloop
  endfacet
  facet normal 0.567858 0.823126 0
    outer loop
      vertex -9.21083 17.1204 0
      vertex -9.21083 17.1204 3.5
      vertex -2.0042 12.1487 0
    endloop
  endfacet
  facet normal 0.567858 0.823126 0
    outer loop
      vertex -2.0042 12.1487 0
      vertex -9.21083 17.1204 3.5
      vertex -2.0042 12.1487 3.5
    endloop
  endfacet
  facet normal -0.840048 -0.542512 0
    outer loop
      vertex 9.94852 16.0679 3.5
      vertex 10.17 15.725 3.5
      vertex 10.17 15.725 15.01
    endloop
  endfacet
  facet normal -0.840048 -0.542512 1.90121e-16
    outer loop
      vertex 9.94852 16.0679 3.5
      vertex 10.17 15.725 15.01
      vertex 0.034 31.42 15.01
    endloop
  endfacet
  facet normal -0.840048 -0.542512 0
    outer loop
      vertex 9.94852 16.0679 3.5
      vertex 0.034 31.42 15.01
      vertex 9.94852 16.0679 0
    endloop
  endfacet
  facet normal -0.840048 -0.542512 0
    outer loop
      vertex 0.034 31.42 15.01
      vertex 0.034 31.42 0
      vertex 9.94852 16.0679 0
    endloop
  endfacet
  facet normal 0.818474 0.574543 0
    outer loop
      vertex 9.94852 16.0679 0
      vertex 9.455 16.771 0
      vertex 9.455 16.771 3.5
    endloop
  endfacet
  facet normal 0.818474 0.574543 -0
    outer loop
      vertex 9.94852 16.0679 3.5
      vertex 9.94852 16.0679 0
      vertex 9.455 16.771 3.5
    endloop
  endfacet
  facet normal -0.576063 0.817405 0
    outer loop
      vertex 2.522 11.885 0
      vertex 2.522 11.885 3.5
      vertex 9.455 16.771 0
    endloop
  endfacet
  facet normal -0.576063 0.817405 0
    outer loop
      vertex 9.455 16.771 0
      vertex 2.522 11.885 3.5
      vertex 9.455 16.771 3.5
    endloop
  endfacet
  facet normal -0.818114 -0.575056 -0
    outer loop
      vertex 2.522 11.885 0
      vertex 3.272 10.818 0
      vertex 2.522 11.885 3.5
    endloop
  endfacet
  facet normal -0.818114 -0.575056 0
    outer loop
      vertex 2.522 11.885 3.5
      vertex 3.272 10.818 0
      vertex 3.272 10.818 3.5
    endloop
  endfacet
  facet normal 0.576118 -0.817366 0
    outer loop
      vertex 3.272 10.818 3.5
      vertex 3.272 10.818 0
      vertex 10.204 15.704 0
    endloop
  endfacet
  facet normal 0.576118 -0.817366 0
    outer loop
      vertex 10.204 15.704 3.5
      vertex 3.272 10.818 3.5
      vertex 10.204 15.704 0
    endloop
  endfacet
  facet normal 0.818474 0.574543 0
    outer loop
      vertex 10.204 15.704 0
      vertex 10.19 15.724 0
      vertex 10.19 15.724 3.5
    endloop
  endfacet
  facet normal 0.818474 0.574543 -0
    outer loop
      vertex 10.204 15.704 3.5
      vertex 10.204 15.704 0
      vertex 10.19 15.724 3.5
    endloop
  endfacet
  facet normal -0.0506634 -0.998716 0
    outer loop
      vertex 10.19 15.724 3.5
      vertex 10.19 15.724 0
      vertex 28.838 14.778 0
    endloop
  endfacet
  facet normal -0.0506634 -0.998716 0
    outer loop
      vertex 28.838 14.778 1.01
      vertex 10.19 15.724 3.5
      vertex 28.838 14.778 0
    endloop
  endfacet
  facet normal -0.0506634 -0.998716 0
    outer loop
      vertex 28.838 14.778 15.01
      vertex 10.19 15.724 3.5
      vertex 28.838 14.778 1.01
    endloop
  endfacet
  facet normal -0.0506634 -0.998716 5.69778e-17
    outer loop
      vertex 10.17 15.725 15.01
      vertex 10.19 15.724 3.5
      vertex 28.838 14.778 15.01
    endloop
  endfacet
  facet normal -0.0506634 -0.998716 -0
    outer loop
      vertex 10.17 15.725 3.5
      vertex 10.19 15.724 3.5
      vertex 10.17 15.725 15.01
    endloop
  endfacet
  facet normal -0.889963 0.456033 0
    outer loop
      vertex 28.838 14.778 1.01
      vertex 28.838 14.778 0
      vertex 22.2106 1.84433 1.01
    endloop
  endfacet
  facet normal -0.889963 0.456033 0
    outer loop
      vertex 22.2106 1.84433 1.01
      vertex 28.838 14.778 0
      vertex 22.2106 1.84433 0
    endloop
  endfacet
  facet normal -0.889963 0.456033 0
    outer loop
      vertex 28.838 14.778 15.01
      vertex 28.838 14.778 1.01
      vertex 20.317 -1.851 15.01
    endloop
  endfacet
  facet normal -0.889963 0.456033 9.43072e-17
    outer loop
      vertex 20.317 -1.851 15.01
      vertex 28.838 14.778 1.01
      vertex 22.2106 1.84433 1.01
    endloop
  endfacet
  facet normal -0.889963 0.456033 0
    outer loop
      vertex 21.7747 0.993807 3.5
      vertex 22.2106 1.84433 1.01
      vertex 22.2106 1.84433 0
    endloop
  endfacet
  facet normal -0.889963 0.456033 2.68376e-15
    outer loop
      vertex 20.317 -1.851 15.01
      vertex 22.2106 1.84433 1.01
      vertex 21.7747 0.993807 3.5
    endloop
  endfacet
  facet normal -0.889963 0.456033 -6.87646e-17
    outer loop
      vertex 21.1789 -0.169047 3.5
      vertex 20.317 -1.851 15.01
      vertex 21.7747 0.993807 3.5
    endloop
  endfacet
  facet normal -0.889963 0.456033 0
    outer loop
      vertex 20.317 -1.851 15.01
      vertex 21.1789 -0.169047 3.5
      vertex 21.1789 -0.169047 0
    endloop
  endfacet
  facet normal -0.889963 0.456033 0
    outer loop
      vertex 20.317 -1.851 15.01
      vertex 21.1789 -0.169047 0
      vertex 20.317 -1.851 0
    endloop
  endfacet
  facet normal -0.889963 0.456033 0
    outer loop
      vertex 21.7747 0.993807 3.5
      vertex 22.2106 1.84433 0
      vertex 21.7747 0.993807 0
    endloop
  endfacet
  facet normal 0.469195 0.883095 0
    outer loop
      vertex 12.705 5.81261 0
      vertex 12.705 5.81261 3.5
      vertex 21.7747 0.993807 0
    endloop
  endfacet
  facet normal 0.469195 0.883095 0
    outer loop
      vertex 21.7747 0.993807 0
      vertex 12.705 5.81261 3.5
      vertex 21.7747 0.993807 3.5
    endloop
  endfacet
  facet normal 0.890214 -0.455543 1.53777e-16
    outer loop
      vertex 13.678 7.714 15.01
      vertex 12.1135 4.65674 3.5
      vertex 12.705 5.81261 3.5
    endloop
  endfacet
  facet normal 0.890214 -0.455543 0
    outer loop
      vertex 12.1135 4.65674 0
      vertex 12.1135 4.65674 3.5
      vertex 9.684 -0.091 15.01
    endloop
  endfacet
  facet normal 0.890214 -0.455543 0
    outer loop
      vertex 12.705 5.81261 0
      vertex 13.678 7.714 0
      vertex 12.705 5.81261 3.5
    endloop
  endfacet
  facet normal 0.890214 -0.455543 0
    outer loop
      vertex 13.678 7.714 0
      vertex 13.678 7.714 15.01
      vertex 12.705 5.81261 3.5
    endloop
  endfacet
  facet normal 0.890214 -0.455543 -3.64374e-17
    outer loop
      vertex 13.678 7.714 15.01
      vertex 9.684 -0.091 15.01
      vertex 12.1135 4.65674 3.5
    endloop
  endfacet
  facet normal 0.890214 -0.455543 0
    outer loop
      vertex 9.684 -0.091 15.01
      vertex 9.684 -0.091 0
      vertex 12.1135 4.65674 0
    endloop
  endfacet
  facet normal 0.0498693 0.998756 -0
    outer loop
      vertex 13.678 7.714 15.01
      vertex 13.678 7.714 0
      vertex 4.926 8.151 15.01
    endloop
  endfacet
  facet normal 0.0498693 0.998756 -0
    outer loop
      vertex 4.926 8.151 15.01
      vertex 13.678 7.714 0
      vertex 4.926 8.151 0
    endloop
  endfacet
  facet normal 0.839662 0.543109 0
    outer loop
      vertex 0.168 15.507 15.01
      vertex 4.926 8.151 15.01
      vertex 4.926 8.151 0
    endloop
  endfacet
  facet normal 0.839662 0.543109 0
    outer loop
      vertex 0.168 15.507 0
      vertex 0.168 15.507 15.01
      vertex 4.926 8.151 0
    endloop
  endfacet
  facet normal -0.469902 -0.882719 0
    outer loop
      vertex 12.1135 4.65674 3.5
      vertex 12.1135 4.65674 0
      vertex 21.1789 -0.169047 0
    endloop
  endfacet
  facet normal -0.469902 -0.882719 0
    outer loop
      vertex 21.1789 -0.169047 3.5
      vertex 12.1135 4.65674 3.5
      vertex 21.1789 -0.169047 0
    endloop
  endfacet
  facet normal -0.889963 -0.456033 0
    outer loop
      vertex 20.317 -1.851 1.01
      vertex 28.838 -18.48 1.01
      vertex 28.838 -18.48 15.01
    endloop
  endfacet
  facet normal -0.889963 -0.456033 2.16985e-17
    outer loop
      vertex 20.317 -1.851 1.01
      vertex 28.838 -18.48 15.01
      vertex 20.317 -1.851 15.01
    endloop
  endfacet
  facet normal -3.43263e-18 -0 0
    outer loop
      vertex 20.317 -1.851 1.01
      vertex 20.317 -1.851 15.01
      vertex 20.317 -1.851 0
    endloop
  endfacet
  facet normal -0.889963 -0.456033 0
    outer loop
      vertex 28.838 -18.48 1.01
      vertex 20.317 -1.851 1.01
      vertex 28.838 -18.48 0
    endloop
  endfacet
  facet normal -0.889963 -0.456033 0
    outer loop
      vertex 28.838 -18.48 0
      vertex 20.317 -1.851 1.01
      vertex 20.317 -1.851 0
    endloop
  endfacet
  facet normal 0.997707 0.0676825 0
    outer loop
      vertex 12.2467 -19.3217 0
      vertex 11.4782 -7.99384 0
      vertex 11.4782 -7.99384 3.5
    endloop
  endfacet
  facet normal 0.997707 0.0676825 -0
    outer loop
      vertex 12.2467 -19.3217 3.5
      vertex 12.2467 -19.3217 0
      vertex 11.4782 -7.99384 3.5
    endloop
  endfacet
  facet normal 0.889929 0.456099 0
    outer loop
      vertex 9.684 -0.091 15.01
      vertex 13.678 -7.884 15.01
      vertex 13.678 -7.884 0
    endloop
  endfacet
  facet normal 0.889929 0.456099 0
    outer loop
      vertex 9.684 -0.091 0
      vertex 9.684 -0.091 15.01
      vertex 13.678 -7.884 0
    endloop
  endfacet
  facet normal -0.0506607 -0.998716 0
    outer loop
      vertex -29.262 -19.3114 13.51
      vertex -29.262 -19.3114 1.01
      vertex -10.593 -20.2584 1.01
    endloop
  endfacet
  facet normal -0.0506607 -0.998716 0
    outer loop
      vertex -10.593 -20.2584 13.51
      vertex -29.262 -19.3114 13.51
      vertex -10.593 -20.2584 1.01
    endloop
  endfacet
  facet normal -0.866025 -0.5 -0
    outer loop
      vertex -29.742 -18.48 1.01
      vertex -29.262 -19.3114 1.01
      vertex -29.742 -18.48 13.51
    endloop
  endfacet
  facet normal -0.866025 -0.5 0
    outer loop
      vertex -29.742 -18.48 13.51
      vertex -29.262 -19.3114 1.01
      vertex -29.262 -19.3114 13.51
    endloop
  endfacet
  facet normal -0.83978 -0.542927 -0
    outer loop
      vertex -10.593 -20.2584 1.01
      vertex -0.446 -35.9534 1.01
      vertex -10.593 -20.2584 13.51
    endloop
  endfacet
  facet normal -0.83978 -0.542927 0
    outer loop
      vertex -10.593 -20.2584 13.51
      vertex -0.446 -35.9534 1.01
      vertex -0.446 -35.9534 13.51
    endloop
  endfacet
  facet normal 0 -1 0
    outer loop
      vertex -0.446 -35.9534 13.51
      vertex -0.446 -35.9534 1.01
      vertex 0.514 -35.9534 1.01
    endloop
  endfacet
  facet normal 0 -1 0
    outer loop
      vertex 0.514 -35.9534 13.51
      vertex -0.446 -35.9534 13.51
      vertex 0.514 -35.9534 1.01
    endloop
  endfacet
  facet normal 0.840048 -0.542512 0
    outer loop
      vertex 0.514 -35.9534 13.51
      vertex 0.514 -35.9534 1.01
      vertex 10.65 -20.2584 1.01
    endloop
  endfacet
  facet normal 0.840048 -0.542512 0
    outer loop
      vertex 10.65 -20.2584 13.51
      vertex 0.514 -35.9534 13.51
      vertex 10.65 -20.2584 1.01
    endloop
  endfacet
  facet normal 0.0506634 -0.998716 0
    outer loop
      vertex 10.65 -20.2584 13.51
      vertex 10.65 -20.2584 1.01
      vertex 29.318 -19.3114 1.01
    endloop
  endfacet
  facet normal 0.0506634 -0.998716 0
    outer loop
      vertex 29.318 -19.3114 13.51
      vertex 10.65 -20.2584 13.51
      vertex 29.318 -19.3114 1.01
    endloop
  endfacet
  facet normal 0.866025 -0.5 0
    outer loop
      vertex 29.318 -19.3114 13.51
      vertex 29.318 -19.3114 1.01
      vertex 29.798 -18.48 1.01
    endloop
  endfacet
  facet normal 0.866025 -0.5 0
    outer loop
      vertex 29.798 -18.48 13.51
      vertex 29.318 -19.3114 13.51
      vertex 29.798 -18.48 1.01
    endloop
  endfacet
  facet normal 0.889963 0.456033 0
    outer loop
      vertex 29.798 -18.48 1.01
      vertex 21.277 -1.851 1.01
      vertex 21.277 -1.851 13.51
    endloop
  endfacet
  facet normal 0.889963 0.456033 -0
    outer loop
      vertex 29.798 -18.48 13.51
      vertex 29.798 -18.48 1.01
      vertex 21.277 -1.851 13.51
    endloop
  endfacet
  facet normal 0.889963 -0.456033 0
    outer loop
      vertex 21.277 -1.851 13.51
      vertex 21.277 -1.851 1.01
      vertex 29.798 14.778 1.01
    endloop
  endfacet
  facet normal 0.889963 -0.456033 0
    outer loop
      vertex 29.798 14.778 13.51
      vertex 21.277 -1.851 13.51
      vertex 29.798 14.778 1.01
    endloop
  endfacet
  facet normal 0.866025 0.5 0
    outer loop
      vertex 29.798 14.778 1.01
      vertex 29.318 15.6094 1.01
      vertex 29.318 15.6094 13.51
    endloop
  endfacet
  facet normal 0.866025 0.5 -0
    outer loop
      vertex 29.798 14.778 13.51
      vertex 29.798 14.778 1.01
      vertex 29.318 15.6094 13.51
    endloop
  endfacet
  facet normal 0.0506634 0.998716 0
    outer loop
      vertex 10.65 16.5564 1.01
      vertex 10.65 16.5564 13.51
      vertex 29.318 15.6094 1.01
    endloop
  endfacet
  facet normal 0.0506634 0.998716 0
    outer loop
      vertex 29.318 15.6094 1.01
      vertex 10.65 16.5564 13.51
      vertex 29.318 15.6094 13.51
    endloop
  endfacet
  facet normal 0.840048 0.542512 0
    outer loop
      vertex 10.65 16.5564 1.01
      vertex 0.514 32.2514 1.01
      vertex 0.514 32.2514 13.51
    endloop
  endfacet
  facet normal 0.840048 0.542512 -0
    outer loop
      vertex 10.65 16.5564 13.51
      vertex 10.65 16.5564 1.01
      vertex 0.514 32.2514 13.51
    endloop
  endfacet
  facet normal 0 1 0
    outer loop
      vertex -0.446 32.2514 1.01
      vertex -0.446 32.2514 13.51
      vertex 0.514 32.2514 1.01
    endloop
  endfacet
  facet normal 0 1 0
    outer loop
      vertex 0.514 32.2514 1.01
      vertex -0.446 32.2514 13.51
      vertex 0.514 32.2514 13.51
    endloop
  endfacet
  facet normal -0.83978 0.542927 0
    outer loop
      vertex -10.593 16.5564 1.01
      vertex -10.593 16.5564 13.51
      vertex -0.446 32.2514 1.01
    endloop
  endfacet
  facet normal -0.83978 0.542927 0
    outer loop
      vertex -0.446 32.2514 1.01
      vertex -10.593 16.5564 13.51
      vertex -0.446 32.2514 13.51
    endloop
  endfacet
  facet normal -0.0506607 0.998716 0
    outer loop
      vertex -29.262 15.6094 1.01
      vertex -29.262 15.6094 13.51
      vertex -10.593 16.5564 1.01
    endloop
  endfacet
  facet normal -0.0506607 0.998716 0
    outer loop
      vertex -10.593 16.5564 1.01
      vertex -29.262 15.6094 13.51
      vertex -10.593 16.5564 13.51
    endloop
  endfacet
  facet normal -0.866025 0.5 0
    outer loop
      vertex -29.742 14.778 1.01
      vertex -29.742 14.778 13.51
      vertex -29.262 15.6094 1.01
    endloop
  endfacet
  facet normal -0.866025 0.5 0
    outer loop
      vertex -29.262 15.6094 1.01
      vertex -29.742 14.778 13.51
      vertex -29.262 15.6094 13.51
    endloop
  endfacet
  facet normal -0.889963 -0.456033 -0
    outer loop
      vertex -29.742 14.778 1.01
      vertex -21.221 -1.851 1.01
      vertex -29.742 14.778 13.51
    endloop
  endfacet
  facet normal -0.889963 -0.456033 0
    outer loop
      vertex -29.742 14.778 13.51
      vertex -21.221 -1.851 1.01
      vertex -21.221 -1.851 13.51
    endloop
  endfacet
  facet normal -0.889963 0.456033 0
    outer loop
      vertex -29.742 -18.48 1.01
      vertex -29.742 -18.48 13.51
      vertex -21.221 -1.851 1.01
    endloop
  endfacet
  facet normal -0.889963 0.456033 0
    outer loop
      vertex -21.221 -1.851 1.01
      vertex -29.742 -18.48 13.51
      vertex -21.221 -1.851 13.51
    endloop
  endfacet
  facet normal 0 0 1
    outer loop
      vertex -20.741 -1.851 15.01
      vertex -29.262 -18.48 15.01
      vertex -29.022 -18.8957 15.01
    endloop
  endfacet
  facet normal 0 -0 1
    outer loop
      vertex 10.17 -19.427 15.01
      vertex 0.034 -35.122 15.01
      vertex 10.41 -19.8427 15.01
    endloop
  endfacet
  facet normal -0 0 1
    outer loop
      vertex -28.782 -18.48 15.01
      vertex -20.741 -1.851 15.01
      vertex -29.022 -18.8957 15.01
    endloop
  endfacet
  facet normal 0 -0 1
    outer loop
      vertex 28.838 14.778 15.01
      vertex 20.317 -1.851 15.01
      vertex 29.318 14.778 15.01
    endloop
  endfacet
  facet normal 0 0 1
    outer loop
      vertex 10.17 15.725 15.01
      vertex 28.838 14.778 15.01
      vertex 29.078 15.1937 15.01
    endloop
  endfacet
  facet normal 0 0 1
    outer loop
      vertex -10.113 15.725 15.01
      vertex 0.034 31.42 15.01
      vertex 0.274 31.8357 15.01
    endloop
  endfacet
  facet normal 0 -0 1
    outer loop
      vertex 20.797 -1.851 15.01
      vertex 20.317 -1.851 15.01
      vertex 29.318 -18.48 15.01
    endloop
  endfacet
  facet normal 0 0 1
    outer loop
      vertex -28.782 14.778 15.01
      vertex -10.113 15.725 15.01
      vertex -10.353 16.1407 15.01
    endloop
  endfacet
  facet normal 0 0 1
    outer loop
      vertex 0.034 31.42 15.01
      vertex 10.17 15.725 15.01
      vertex 10.41 16.1407 15.01
    endloop
  endfacet
  facet normal -0 0 1
    outer loop
      vertex -10.113 -19.427 15.01
      vertex -28.782 -18.48 15.01
      vertex -10.353 -19.8427 15.01
    endloop
  endfacet
  facet normal 0 0 1
    outer loop
      vertex -10.353 -19.8427 15.01
      vertex -28.782 -18.48 15.01
      vertex -29.022 -18.8957 15.01
    endloop
  endfacet
  facet normal 0 -0 1
    outer loop
      vertex 28.838 -18.48 15.01
      vertex 10.17 -19.427 15.01
      vertex 29.078 -18.8957 15.01
    endloop
  endfacet
  facet normal 0 0 1
    outer loop
      vertex -29.022 15.1937 15.01
      vertex -28.782 14.778 15.01
      vertex -10.353 16.1407 15.01
    endloop
  endfacet
  facet normal 0 0 1
    outer loop
      vertex -29.022 15.1937 15.01
      vertex -20.741 -1.851 15.01
      vertex -28.782 14.778 15.01
    endloop
  endfacet
  facet normal 0 0 1
    outer loop
      vertex -10.353 16.1407 15.01
      vertex -10.113 15.725 15.01
      vertex -0.206 31.8357 15.01
    endloop
  endfacet
  facet normal 0 -0 1
    outer loop
      vertex 0.274 31.8357 15.01
      vertex 0.034 31.42 15.01
      vertex 10.41 16.1407 15.01
    endloop
  endfacet
  facet normal 0 -0 1
    outer loop
      vertex 10.41 16.1407 15.01
      vertex 10.17 15.725 15.01
      vertex 29.078 15.1937 15.01
    endloop
  endfacet
  facet normal 0 -0 1
    outer loop
      vertex 29.078 15.1937 15.01
      vertex 28.838 14.778 15.01
      vertex 29.318 14.778 15.01
    endloop
  endfacet
  facet normal 0 0 1
    outer loop
      vertex 29.318 14.778 15.01
      vertex 20.317 -1.851 15.01
      vertex 20.797 -1.851 15.01
    endloop
  endfacet
  facet normal 0 0 1
    outer loop
      vertex 29.318 -18.48 15.01
      vertex 28.838 -18.48 15.01
      vertex 29.078 -18.8957 15.01
    endloop
  endfacet
  facet normal 0 0 1
    outer loop
      vertex -10.113 15.725 15.01
      vertex 0.274 31.8357 15.01
      vertex -0.206 31.8357 15.01
    endloop
  endfacet
  facet normal 0 0 1
    outer loop
      vertex 29.078 -18.8957 15.01
      vertex 10.17 -19.427 15.01
      vertex 10.41 -19.8427 15.01
    endloop
  endfacet
  facet normal -0 0 1
    outer loop
      vertex 0.034 -35.122 15.01
      vertex -10.113 -19.427 15.01
      vertex -0.206 -35.5377 15.01
    endloop
  endfacet
  facet normal 0 0 1
    outer loop
      vertex 10.41 -19.8427 15.01
      vertex 0.034 -35.122 15.01
      vertex 0.274 -35.5377 15.01
    endloop
  endfacet
  facet normal 0 0 1
    outer loop
      vertex -0.206 -35.5377 15.01
      vertex -10.113 -19.427 15.01
      vertex -10.353 -19.8427 15.01
    endloop
  endfacet
  facet normal 0 0 1
    outer loop
      vertex 20.317 -1.851 15.01
      vertex 28.838 -18.48 15.01
      vertex 29.318 -18.48 15.01
    endloop
  endfacet
  facet normal 0 0 1
    outer loop
      vertex -29.262 14.778 15.01
      vertex -20.741 -1.851 15.01
      vertex -29.022 15.1937 15.01
    endloop
  endfacet
  facet normal 0 -0 1
    outer loop
      vertex 0.034 -35.122 15.01
      vertex -0.206 -35.5377 15.01
      vertex 0.274 -35.5377 15.01
    endloop
  endfacet
  facet normal 0 0 1
    outer loop
      vertex -28.782 -18.48 15.01
      vertex -20.261 -1.851 15.01
      vertex -20.741 -1.851 15.01
    endloop
  endfacet
  facet normal -0 0 1
    outer loop
      vertex -20.261 -1.851 15.01
      vertex -28.782 14.778 15.01
      vertex -20.741 -1.851 15.01
    endloop
  endfacet
  facet normal 0 -0 1
    outer loop
      vertex -9.21083 17.1204 3.5
      vertex -9.91894 16.0252 3.5
      vertex -2.716 11.056 3.5
    endloop
  endfacet
  facet normal -0 0 1
    outer loop
      vertex -2.0042 12.1487 3.5
      vertex -9.21083 17.1204 3.5
      vertex -2.54519 11.3123 3.5
    endloop
  endfacet
  facet normal -0 0 1
    outer loop
      vertex -2.54519 11.3123 3.5
      vertex -9.21083 17.1204 3.5
      vertex -2.716 11.056 3.5
    endloop
  endfacet
  facet normal 0 0 1
    outer loop
      vertex -12.6606 7.32035 15.01
      vertex -4.35 7.73531 15.01
      vertex -4.59 8.151 15.01
    endloop
  endfacet
  facet normal 0 -0 1
    outer loop
      vertex -12.6603 -7.49036 15.01
      vertex -13.342 -7.884 15.01
      vertex -4.59 -8.321 15.01
    endloop
  endfacet
  facet normal -0 0 1
    outer loop
      vertex -8.869 -0.091 15.01
      vertex -12.6606 7.32035 15.01
      vertex -9.349 -0.091 15.01
    endloop
  endfacet
  facet normal 0 -0 1
    outer loop
      vertex 12.9966 7.32035 15.01
      vertex 9.684 -0.091 15.01
      vertex 13.678 7.714 15.01
    endloop
  endfacet
  facet normal 0 0 1
    outer loop
      vertex 0.168 14.7203 15.01
      vertex 4.686 7.73531 15.01
      vertex 4.926 8.151 15.01
    endloop
  endfacet
  facet normal -0 -0 1
    outer loop
      vertex -12.6606 7.32035 15.01
      vertex -13.342 7.714 15.01
      vertex -9.349 -0.091 15.01
    endloop
  endfacet
  facet normal 0 0 1
    outer loop
      vertex -4.59 8.151 15.01
      vertex -4.35 7.73531 15.01
      vertex 0.168 15.507 15.01
    endloop
  endfacet
  facet normal 0 0 1
    outer loop
      vertex 9.204 -0.091 15.01
      vertex 9.684 -0.091 15.01
      vertex 12.9966 7.32035 15.01
    endloop
  endfacet
  facet normal 0 0 1
    outer loop
      vertex -4.59 8.151 15.01
      vertex -13.342 7.714 15.01
      vertex -12.6606 7.32035 15.01
    endloop
  endfacet
  facet normal -0 0 1
    outer loop
      vertex 0.168 14.7203 15.01
      vertex 0.168 15.507 15.01
      vertex -4.35 7.73531 15.01
    endloop
  endfacet
  facet normal 0 0 1
    outer loop
      vertex 4.686 7.73531 15.01
      vertex 12.9966 7.32035 15.01
      vertex 13.678 7.714 15.01
    endloop
  endfacet
  facet normal 0 0 1
    outer loop
      vertex 4.926 8.151 15.01
      vertex 0.168 15.507 15.01
      vertex 0.168 14.7203 15.01
    endloop
  endfacet
  facet normal 0 0 1
    outer loop
      vertex 13.678 7.714 15.01
      vertex 4.926 8.151 15.01
      vertex 4.686 7.73531 15.01
    endloop
  endfacet
  facet normal 0 0 1
    outer loop
      vertex 13.678 -7.884 15.01
      vertex 9.684 -0.091 15.01
      vertex 9.204 -0.091 15.01
    endloop
  endfacet
  facet normal 0 -0 1
    outer loop
      vertex 4.686 -7.90531 15.01
      vertex 0.168 -14.8893 15.01
      vertex 4.926 -8.321 15.01
    endloop
  endfacet
  facet normal 0 0 1
    outer loop
      vertex 13.678 -7.884 15.01
      vertex 9.204 -0.091 15.01
      vertex 12.9963 -7.49036 15.01
    endloop
  endfacet
  facet normal 0 0 1
    outer loop
      vertex 4.926 -8.321 15.01
      vertex 13.678 -7.884 15.01
      vertex 4.686 -7.90531 15.01
    endloop
  endfacet
  facet normal 0 0 1
    outer loop
      vertex 0.168 -15.676 15.01
      vertex 4.926 -8.321 15.01
      vertex 0.168 -14.8893 15.01
    endloop
  endfacet
  facet normal 0 -0 1
    outer loop
      vertex 12.9963 -7.49036 15.01
      vertex 4.686 -7.90531 15.01
      vertex 13.678 -7.884 15.01
    endloop
  endfacet
  facet normal 0 0 1
    outer loop
      vertex 0.168 -15.676 15.01
      vertex 0.168 -14.8893 15.01
      vertex -4.35 -7.90531 15.01
    endloop
  endfacet
  facet normal 0 0 1
    outer loop
      vertex -9.349 -0.091 15.01
      vertex -13.342 -7.884 15.01
      vertex -12.6603 -7.49036 15.01
    endloop
  endfacet
  facet normal -0 0 1
    outer loop
      vertex -4.35 -7.90531 15.01
      vertex -12.6603 -7.49036 15.01
      vertex -4.59 -8.321 15.01
    endloop
  endfacet
  facet normal 0 -0 1
    outer loop
      vertex -4.35 -7.90531 15.01
      vertex -4.59 -8.321 15.01
      vertex 0.168 -15.676 15.01
    endloop
  endfacet
  facet normal 0 0 1
    outer loop
      vertex -12.6603 -7.49036 15.01
      vertex -8.869 -0.091 15.01
      vertex -9.349 -0.091 15.01
    endloop
  endfacet
  facet normal 0 -0 1
    outer loop
      vertex -10.8057 -8.01064 3.5
      vertex -11.5758 -19.3528 3.5
      vertex -10.2693 -19.4191 3.5
    endloop
  endfacet
  facet normal -0 0 1
    outer loop
      vertex -9.4982 -8.07593 3.5
      vertex -10.8057 -8.01064 3.5
      vertex -10.2693 -19.4191 3.5
    endloop
  endfacet
  facet normal 0 0 1
    outer loop
      vertex -12.427 5.853 3.5
      vertex -21.6873 0.932419 3.5
      vertex -21.0914 -0.230529 3.5
    endloop
  endfacet
  facet normal -0 0 1
    outer loop
      vertex -11.818 4.706 3.5
      vertex -12.427 5.853 3.5
      vertex -21.0914 -0.230529 3.5
    endloop
  endfacet
  facet normal 0 0 1
    outer loop
      vertex 0.168 13.9335 13.51
      vertex 4.446 7.31962 13.51
      vertex 4.686 7.73531 13.51
    endloop
  endfacet
  facet normal -0 -0 1
    outer loop
      vertex -11.9792 6.92669 13.51
      vertex -12.6606 7.32035 13.51
      vertex -8.869 -0.091 13.51
    endloop
  endfacet
  facet normal 0 0 1
    outer loop
      vertex 12.3151 6.9267 13.51
      vertex 8.724 -0.091 13.51
      vertex 9.204 -0.091 13.51
    endloop
  endfacet
  facet normal -0 0 1
    outer loop
      vertex 0.168 13.9335 13.51
      vertex 0.168 14.7203 13.51
      vertex -4.35 7.73531 13.51
    endloop
  endfacet
  facet normal 0 0 1
    outer loop
      vertex -4.35 7.73531 13.51
      vertex -12.6606 7.32035 13.51
      vertex -11.9792 6.92669 13.51
    endloop
  endfacet
  facet normal 0 -0 1
    outer loop
      vertex 4.686 7.73531 13.51
      vertex 4.446 7.31962 13.51
      vertex 12.9966 7.32035 13.51
    endloop
  endfacet
  facet normal 0 0 1
    outer loop
      vertex 4.686 7.73531 13.51
      vertex 0.168 14.7203 13.51
      vertex 0.168 13.9335 13.51
    endloop
  endfacet
  facet normal 0 0 1
    outer loop
      vertex 12.3151 6.9267 13.51
      vertex 12.9966 7.32035 13.51
      vertex 4.446 7.31962 13.51
    endloop
  endfacet
  facet normal -0 0 1
    outer loop
      vertex -4.11 -7.48962 13.51
      vertex -11.9786 -7.09672 13.51
      vertex -4.35 -7.90531 13.51
    endloop
  endfacet
  facet normal 0 0 1
    outer loop
      vertex 9.204 -0.091 13.51
      vertex 12.9966 7.32035 13.51
      vertex 12.3151 6.9267 13.51
    endloop
  endfacet
  facet normal 0 0 1
    outer loop
      vertex 12.9963 -7.49036 13.51
      vertex 9.204 -0.091 13.51
      vertex 8.724 -0.091 13.51
    endloop
  endfacet
  facet normal 0 0 1
    outer loop
      vertex 4.686 -7.90531 13.51
      vertex 12.9963 -7.49036 13.51
      vertex 12.3145 -7.09673 13.51
    endloop
  endfacet
  facet normal 0 0 1
    outer loop
      vertex 4.686 -7.90531 13.51
      vertex 12.3145 -7.09673 13.51
      vertex 4.446 -7.48962 13.51
    endloop
  endfacet
  facet normal 0 0 1
    outer loop
      vertex 0.168 -14.8893 13.51
      vertex 4.686 -7.90531 13.51
      vertex 0.168 -14.1026 13.51
    endloop
  endfacet
  facet normal 0 0 1
    outer loop
      vertex 8.724 -0.091 13.51
      vertex 12.3145 -7.09673 13.51
      vertex 12.9963 -7.49036 13.51
    endloop
  endfacet
  facet normal 0 0 1
    outer loop
      vertex -4.35 -7.90531 13.51
      vertex 0.168 -14.8893 13.51
      vertex -4.11 -7.48962 13.51
    endloop
  endfacet
  facet normal 0 0 1
    outer loop
      vertex -12.6603 -7.49036 13.51
      vertex -11.9786 -7.09672 13.51
      vertex -8.389 -0.091 13.51
    endloop
  endfacet
  facet normal 0 0 1
    outer loop
      vertex -12.6603 -7.49036 13.51
      vertex -4.35 -7.90531 13.51
      vertex -11.9786 -7.09672 13.51
    endloop
  endfacet
  facet normal 0 -0 1
    outer loop
      vertex 4.446 -7.48962 13.51
      vertex 0.168 -14.1026 13.51
      vertex 4.686 -7.90531 13.51
    endloop
  endfacet
  facet normal 0 0 1
    outer loop
      vertex -8.389 -0.091 13.51
      vertex -8.869 -0.091 13.51
      vertex -12.6603 -7.49036 13.51
    endloop
  endfacet
  facet normal -0 0 1
    outer loop
      vertex -8.389 -0.091 13.51
      vertex -11.9792 6.92669 13.51
      vertex -8.869 -0.091 13.51
    endloop
  endfacet
  facet normal 0 0 1
    outer loop
      vertex -11.9792 6.92669 13.51
      vertex -4.11 7.31962 13.51
      vertex -4.35 7.73531 13.51
    endloop
  endfacet
  facet normal -0 -0 1
    outer loop
      vertex 0.168 -14.1026 13.51
      vertex -4.11 -7.48962 13.51
      vertex 0.168 -14.8893 13.51
    endloop
  endfacet
  facet normal 0 0 1
    outer loop
      vertex -4.11 7.31962 13.51
      vertex 0.168 13.9335 13.51
      vertex -4.35 7.73531 13.51
    endloop
  endfacet
  facet normal 0 0 1
    outer loop
      vertex 11.4782 -7.99384 3.5
      vertex 10.1806 -8.05863 3.5
      vertex 10.9491 -19.3875 3.5
    endloop
  endfacet
  facet normal -0 0 1
    outer loop
      vertex 12.2467 -19.3217 3.5
      vertex 11.4782 -7.99384 3.5
      vertex 10.9491 -19.3875 3.5
    endloop
  endfacet
  facet normal 0 0 1
    outer loop
      vertex 9.455 16.771 3.5
      vertex 2.522 11.885 3.5
      vertex 3.272 10.818 3.5
    endloop
  endfacet
  facet normal -0 0 1
    outer loop
      vertex 10.17 15.725 3.5
      vertex 9.455 16.771 3.5
      vertex 3.272 10.818 3.5
    endloop
  endfacet
  facet normal -0 0 1
    outer loop
      vertex 10.204 15.704 3.5
      vertex 10.19 15.724 3.5
      vertex 3.272 10.818 3.5
    endloop
  endfacet
  facet normal -0 0 1
    outer loop
      vertex 10.19 15.724 3.5
      vertex 10.17 15.725 3.5
      vertex 3.272 10.818 3.5
    endloop
  endfacet
  facet normal -0 -0 1
    outer loop
      vertex 9.94852 16.0679 3.5
      vertex 9.455 16.771 3.5
      vertex 10.17 15.725 3.5
    endloop
  endfacet
  facet normal 0 -0 1
    outer loop
      vertex 12.705 5.81261 3.5
      vertex 12.1135 4.65674 3.5
      vertex 21.1789 -0.169047 3.5
    endloop
  endfacet
  facet normal -0 0 1
    outer loop
      vertex 21.7747 0.993807 3.5
      vertex 12.705 5.81261 3.5
      vertex 21.1789 -0.169047 3.5
    endloop
  endfacet
  facet normal 0 0 1
    outer loop
      vertex -29.262 -18.48 13.51
      vertex -29.742 -18.48 13.51
      vertex -29.262 -19.3114 13.51
    endloop
  endfacet
  facet normal -0 0 1
    outer loop
      vertex -29.022 -18.8957 13.51
      vertex -29.262 -18.48 13.51
      vertex -29.262 -19.3114 13.51
    endloop
  endfacet
  facet normal 0 -0 1
    outer loop
      vertex 29.318 14.778 13.51
      vertex 20.797 -1.851 13.51
      vertex 29.798 14.778 13.51
    endloop
  endfacet
  facet normal 0 0 1
    outer loop
      vertex 10.41 16.1407 13.51
      vertex 29.078 15.1937 13.51
      vertex 29.318 15.6094 13.51
    endloop
  endfacet
  facet normal 0 0 1
    outer loop
      vertex -10.353 16.1407 13.51
      vertex -0.206 31.8357 13.51
      vertex -0.446 32.2514 13.51
    endloop
  endfacet
  facet normal 0 -0 1
    outer loop
      vertex 21.277 -1.851 13.51
      vertex 20.797 -1.851 13.51
      vertex 29.798 -18.48 13.51
    endloop
  endfacet
  facet normal 0 0 1
    outer loop
      vertex -29.262 14.778 13.51
      vertex -29.022 15.1937 13.51
      vertex -29.262 15.6094 13.51
    endloop
  endfacet
  facet normal 0 0 1
    outer loop
      vertex 0.274 31.8357 13.51
      vertex 10.41 16.1407 13.51
      vertex 10.65 16.5564 13.51
    endloop
  endfacet
  facet normal 0 -0 1
    outer loop
      vertex 10.41 -19.8427 13.51
      vertex 0.274 -35.5377 13.51
      vertex 10.65 -20.2584 13.51
    endloop
  endfacet
  facet normal 0 0 1
    outer loop
      vertex -10.593 -20.2584 13.51
      vertex -29.022 -18.8957 13.51
      vertex -29.262 -19.3114 13.51
    endloop
  endfacet
  facet normal 0 0 1
    outer loop
      vertex 20.797 -1.851 13.51
      vertex 29.318 -18.48 13.51
      vertex 29.798 -18.48 13.51
    endloop
  endfacet
  facet normal 0 0 1
    outer loop
      vertex -21.221 -1.851 13.51
      vertex -29.742 -18.48 13.51
      vertex -29.262 -18.48 13.51
    endloop
  endfacet
  facet normal 0 -0 1
    outer loop
      vertex 29.078 -18.8957 13.51
      vertex 10.41 -19.8427 13.51
      vertex 29.318 -19.3114 13.51
    endloop
  endfacet
  facet normal -0 0 1
    outer loop
      vertex -10.353 -19.8427 13.51
      vertex -29.022 -18.8957 13.51
      vertex -10.593 -20.2584 13.51
    endloop
  endfacet
  facet normal 0 0 1
    outer loop
      vertex -29.262 15.6094 13.51
      vertex -29.022 15.1937 13.51
      vertex -10.593 16.5564 13.51
    endloop
  endfacet
  facet normal 0 0 1
    outer loop
      vertex -29.022 15.1937 13.51
      vertex -10.353 16.1407 13.51
      vertex -10.593 16.5564 13.51
    endloop
  endfacet
  facet normal 0 0 1
    outer loop
      vertex -10.593 16.5564 13.51
      vertex -10.353 16.1407 13.51
      vertex -0.446 32.2514 13.51
    endloop
  endfacet
  facet normal 0 0 1
    outer loop
      vertex -0.446 32.2514 13.51
      vertex -0.206 31.8357 13.51
      vertex 0.514 32.2514 13.51
    endloop
  endfacet
  facet normal 0 -0 1
    outer loop
      vertex 0.514 32.2514 13.51
      vertex 0.274 31.8357 13.51
      vertex 10.65 16.5564 13.51
    endloop
  endfacet
  facet normal 0 -0 1
    outer loop
      vertex 10.65 16.5564 13.51
      vertex 10.41 16.1407 13.51
      vertex 29.318 15.6094 13.51
    endloop
  endfacet
  facet normal 0 -0 1
    outer loop
      vertex 29.318 15.6094 13.51
      vertex 29.078 15.1937 13.51
      vertex 29.798 14.778 13.51
    endloop
  endfacet
  facet normal 0 0 1
    outer loop
      vertex 29.078 15.1937 13.51
      vertex 29.318 14.778 13.51
      vertex 29.798 14.778 13.51
    endloop
  endfacet
  facet normal 0 0 1
    outer loop
      vertex 29.798 14.778 13.51
      vertex 20.797 -1.851 13.51
      vertex 21.277 -1.851 13.51
    endloop
  endfacet
  facet normal 0 0 1
    outer loop
      vertex 29.798 -18.48 13.51
      vertex 29.318 -18.48 13.51
      vertex 29.318 -19.3114 13.51
    endloop
  endfacet
  facet normal 0 0 1
    outer loop
      vertex -0.206 31.8357 13.51
      vertex 0.274 31.8357 13.51
      vertex 0.514 32.2514 13.51
    endloop
  endfacet
  facet normal 0 0 1
    outer loop
      vertex 29.318 -18.48 13.51
      vertex 29.078 -18.8957 13.51
      vertex 29.318 -19.3114 13.51
    endloop
  endfacet
  facet normal 0 0 1
    outer loop
      vertex 29.318 -19.3114 13.51
      vertex 10.41 -19.8427 13.51
      vertex 10.65 -20.2584 13.51
    endloop
  endfacet
  facet normal 0 0 1
    outer loop
      vertex 10.65 -20.2584 13.51
      vertex 0.274 -35.5377 13.51
      vertex 0.514 -35.9534 13.51
    endloop
  endfacet
  facet normal -0 0 1
    outer loop
      vertex 0.514 -35.9534 13.51
      vertex -0.206 -35.5377 13.51
      vertex -0.446 -35.9534 13.51
    endloop
  endfacet
  facet normal 0 0 1
    outer loop
      vertex -0.446 -35.9534 13.51
      vertex -10.353 -19.8427 13.51
      vertex -10.593 -20.2584 13.51
    endloop
  endfacet
  facet normal 0 0 1
    outer loop
      vertex -29.742 14.778 13.51
      vertex -29.262 14.778 13.51
      vertex -29.262 15.6094 13.51
    endloop
  endfacet
  facet normal 0 0 1
    outer loop
      vertex -29.742 14.778 13.51
      vertex -21.221 -1.851 13.51
      vertex -29.262 14.778 13.51
    endloop
  endfacet
  facet normal 0 -0 1
    outer loop
      vertex 0.274 -35.5377 13.51
      vertex -0.206 -35.5377 13.51
      vertex 0.514 -35.9534 13.51
    endloop
  endfacet
  facet normal -0 0 1
    outer loop
      vertex -0.206 -35.5377 13.51
      vertex -10.353 -19.8427 13.51
      vertex -0.446 -35.9534 13.51
    endloop
  endfacet
  facet normal 0 0 1
    outer loop
      vertex -29.262 -18.48 13.51
      vertex -20.741 -1.851 13.51
      vertex -21.221 -1.851 13.51
    endloop
  endfacet
  facet normal -0 0 1
    outer loop
      vertex -20.741 -1.851 13.51
      vertex -29.262 14.778 13.51
      vertex -21.221 -1.851 13.51
    endloop
  endfacet
  facet normal -0.889963 0.456033 0
    outer loop
      vertex -29.262 -18.48 13.51
      vertex -29.262 -18.48 15.01
      vertex -20.741 -1.851 13.51
    endloop
  endfacet
  facet normal -0.889963 0.456033 0
    outer loop
      vertex -20.741 -1.851 13.51
      vertex -29.262 -18.48 15.01
      vertex -20.741 -1.851 15.01
    endloop
  endfacet
  facet normal -0.889963 -0.456033 -0
    outer loop
      vertex -29.262 14.778 13.51
      vertex -20.741 -1.851 13.51
      vertex -29.262 14.778 15.01
    endloop
  endfacet
  facet normal -0.889963 -0.456033 0
    outer loop
      vertex -29.262 14.778 15.01
      vertex -20.741 -1.851 13.51
      vertex -20.741 -1.851 15.01
    endloop
  endfacet
  facet normal -0.866025 0.5 0
    outer loop
      vertex -29.262 14.778 13.51
      vertex -29.262 14.778 15.01
      vertex -29.022 15.1937 13.51
    endloop
  endfacet
  facet normal -0.866025 0.5 0
    outer loop
      vertex -29.022 15.1937 13.51
      vertex -29.262 14.778 15.01
      vertex -29.022 15.1937 15.01
    endloop
  endfacet
  facet normal -0.0506607 0.998716 0
    outer loop
      vertex -29.022 15.1937 13.51
      vertex -29.022 15.1937 15.01
      vertex -10.353 16.1407 13.51
    endloop
  endfacet
  facet normal -0.0506607 0.998716 0
    outer loop
      vertex -10.353 16.1407 13.51
      vertex -29.022 15.1937 15.01
      vertex -10.353 16.1407 15.01
    endloop
  endfacet
  facet normal -0.83978 0.542927 0
    outer loop
      vertex -10.353 16.1407 13.51
      vertex -10.353 16.1407 15.01
      vertex -0.206 31.8357 13.51
    endloop
  endfacet
  facet normal -0.83978 0.542927 0
    outer loop
      vertex -0.206 31.8357 13.51
      vertex -10.353 16.1407 15.01
      vertex -0.206 31.8357 15.01
    endloop
  endfacet
  facet normal 0 1 0
    outer loop
      vertex -0.206 31.8357 13.51
      vertex -0.206 31.8357 15.01
      vertex 0.274 31.8357 13.51
    endloop
  endfacet
  facet normal 0 1 0
    outer loop
      vertex 0.274 31.8357 13.51
      vertex -0.206 31.8357 15.01
      vertex 0.274 31.8357 15.01
    endloop
  endfacet
  facet normal 0.840048 0.542512 0
    outer loop
      vertex 10.41 16.1407 13.51
      vertex 0.274 31.8357 13.51
      vertex 0.274 31.8357 15.01
    endloop
  endfacet
  facet normal 0.840048 0.542512 -0
    outer loop
      vertex 10.41 16.1407 15.01
      vertex 10.41 16.1407 13.51
      vertex 0.274 31.8357 15.01
    endloop
  endfacet
  facet normal 0.0506634 0.998716 0
    outer loop
      vertex 10.41 16.1407 13.51
      vertex 10.41 16.1407 15.01
      vertex 29.078 15.1937 13.51
    endloop
  endfacet
  facet normal 0.0506634 0.998716 0
    outer loop
      vertex 29.078 15.1937 13.51
      vertex 10.41 16.1407 15.01
      vertex 29.078 15.1937 15.01
    endloop
  endfacet
  facet normal 0.866025 0.5 0
    outer loop
      vertex 29.318 14.778 13.51
      vertex 29.078 15.1937 13.51
      vertex 29.078 15.1937 15.01
    endloop
  endfacet
  facet normal 0.866025 0.5 -0
    outer loop
      vertex 29.318 14.778 15.01
      vertex 29.318 14.778 13.51
      vertex 29.078 15.1937 15.01
    endloop
  endfacet
  facet normal 0.889963 -0.456033 0
    outer loop
      vertex 20.797 -1.851 15.01
      vertex 20.797 -1.851 13.51
      vertex 29.318 14.778 13.51
    endloop
  endfacet
  facet normal 0.889963 -0.456033 0
    outer loop
      vertex 29.318 14.778 15.01
      vertex 20.797 -1.851 15.01
      vertex 29.318 14.778 13.51
    endloop
  endfacet
  facet normal 0.889963 0.456033 0
    outer loop
      vertex 29.318 -18.48 13.51
      vertex 20.797 -1.851 13.51
      vertex 20.797 -1.851 15.01
    endloop
  endfacet
  facet normal 0.889963 0.456033 -0
    outer loop
      vertex 29.318 -18.48 15.01
      vertex 29.318 -18.48 13.51
      vertex 20.797 -1.851 15.01
    endloop
  endfacet
  facet normal 0.866025 -0.5 0
    outer loop
      vertex 29.078 -18.8957 15.01
      vertex 29.078 -18.8957 13.51
      vertex 29.318 -18.48 13.51
    endloop
  endfacet
  facet normal 0.866025 -0.5 0
    outer loop
      vertex 29.318 -18.48 15.01
      vertex 29.078 -18.8957 15.01
      vertex 29.318 -18.48 13.51
    endloop
  endfacet
  facet normal 0.0506634 -0.998716 0
    outer loop
      vertex 10.41 -19.8427 15.01
      vertex 10.41 -19.8427 13.51
      vertex 29.078 -18.8957 13.51
    endloop
  endfacet
  facet normal 0.0506634 -0.998716 0
    outer loop
      vertex 29.078 -18.8957 15.01
      vertex 10.41 -19.8427 15.01
      vertex 29.078 -18.8957 13.51
    endloop
  endfacet
  facet normal 0.840048 -0.542512 0
    outer loop
      vertex 0.274 -35.5377 15.01
      vertex 0.274 -35.5377 13.51
      vertex 10.41 -19.8427 13.51
    endloop
  endfacet
  facet normal 0.840048 -0.542512 0
    outer loop
      vertex 10.41 -19.8427 15.01
      vertex 0.274 -35.5377 15.01
      vertex 10.41 -19.8427 13.51
    endloop
  endfacet
  facet normal 0 -1 0
    outer loop
      vertex -0.206 -35.5377 15.01
      vertex -0.206 -35.5377 13.51
      vertex 0.274 -35.5377 13.51
    endloop
  endfacet
  facet normal 0 -1 0
    outer loop
      vertex 0.274 -35.5377 15.01
      vertex -0.206 -35.5377 15.01
      vertex 0.274 -35.5377 13.51
    endloop
  endfacet
  facet normal -0.83978 -0.542927 -0
    outer loop
      vertex -10.353 -19.8427 13.51
      vertex -0.206 -35.5377 13.51
      vertex -10.353 -19.8427 15.01
    endloop
  endfacet
  facet normal -0.83978 -0.542927 0
    outer loop
      vertex -10.353 -19.8427 15.01
      vertex -0.206 -35.5377 13.51
      vertex -0.206 -35.5377 15.01
    endloop
  endfacet
  facet normal -0.0506607 -0.998716 0
    outer loop
      vertex -29.022 -18.8957 15.01
      vertex -29.022 -18.8957 13.51
      vertex -10.353 -19.8427 13.51
    endloop
  endfacet
  facet normal -0.0506607 -0.998716 0
    outer loop
      vertex -10.353 -19.8427 15.01
      vertex -29.022 -18.8957 15.01
      vertex -10.353 -19.8427 13.51
    endloop
  endfacet
  facet normal -0.866025 -0.5 -0
    outer loop
      vertex -29.262 -18.48 13.51
      vertex -29.022 -18.8957 13.51
      vertex -29.262 -18.48 15.01
    endloop
  endfacet
  facet normal -0.866025 -0.5 0
    outer loop
      vertex -29.262 -18.48 15.01
      vertex -29.022 -18.8957 13.51
      vertex -29.022 -18.8957 15.01
    endloop
  endfacet
  facet normal 0.89026 0.455453 0
    outer loop
      vertex -8.869 -0.091 13.51
      vertex -12.6606 7.32035 13.51
      vertex -12.6606 7.32035 15.01
    endloop
  endfacet
  facet normal 0.89026 0.455453 -0
    outer loop
      vertex -8.869 -0.091 15.01
      vertex -8.869 -0.091 13.51
      vertex -12.6606 7.32035 15.01
    endloop
  endfacet
  facet normal 0.889976 -0.456008 0
    outer loop
      vertex -12.6603 -7.49036 15.01
      vertex -12.6603 -7.49036 13.51
      vertex -8.869 -0.091 13.51
    endloop
  endfacet
  facet normal 0.889976 -0.456008 0
    outer loop
      vertex -8.869 -0.091 15.01
      vertex -12.6603 -7.49036 15.01
      vertex -8.869 -0.091 13.51
    endloop
  endfacet
  facet normal 0.0498693 0.998756 0
    outer loop
      vertex -12.6603 -7.49036 13.51
      vertex -12.6603 -7.49036 15.01
      vertex -4.35 -7.90531 13.51
    endloop
  endfacet
  facet normal 0.0498693 0.998756 0
    outer loop
      vertex -4.35 -7.90531 13.51
      vertex -12.6603 -7.49036 15.01
      vertex -4.35 -7.90531 15.01
    endloop
  endfacet
  facet normal 0.839628 0.543161 0
    outer loop
      vertex 0.168 -14.8893 13.51
      vertex -4.35 -7.90531 13.51
      vertex -4.35 -7.90531 15.01
    endloop
  endfacet
  facet normal 0.839628 0.543161 -0
    outer loop
      vertex 0.168 -14.8893 15.01
      vertex 0.168 -14.8893 13.51
      vertex -4.35 -7.90531 15.01
    endloop
  endfacet
  facet normal -0.839628 0.543161 0
    outer loop
      vertex 0.168 -14.8893 13.51
      vertex 0.168 -14.8893 15.01
      vertex 4.686 -7.90531 13.51
    endloop
  endfacet
  facet normal -0.839628 0.543161 0
    outer loop
      vertex 4.686 -7.90531 13.51
      vertex 0.168 -14.8893 15.01
      vertex 4.686 -7.90531 15.01
    endloop
  endfacet
  facet normal -0.0498693 0.998756 0
    outer loop
      vertex 4.686 -7.90531 13.51
      vertex 4.686 -7.90531 15.01
      vertex 12.9963 -7.49036 13.51
    endloop
  endfacet
  facet normal -0.0498693 0.998756 0
    outer loop
      vertex 12.9963 -7.49036 13.51
      vertex 4.686 -7.90531 15.01
      vertex 12.9963 -7.49036 15.01
    endloop
  endfacet
  facet normal -0.889929 -0.456099 -0
    outer loop
      vertex 9.204 -0.091 13.51
      vertex 12.9963 -7.49036 13.51
      vertex 9.204 -0.091 15.01
    endloop
  endfacet
  facet normal -0.889929 -0.456099 0
    outer loop
      vertex 9.204 -0.091 15.01
      vertex 12.9963 -7.49036 13.51
      vertex 12.9963 -7.49036 15.01
    endloop
  endfacet
  facet normal -0.890214 0.455543 0
    outer loop
      vertex 9.204 -0.091 13.51
      vertex 9.204 -0.091 15.01
      vertex 12.9966 7.32035 13.51
    endloop
  endfacet
  facet normal -0.890214 0.455543 0
    outer loop
      vertex 12.9966 7.32035 13.51
      vertex 9.204 -0.091 15.01
      vertex 12.9966 7.32035 15.01
    endloop
  endfacet
  facet normal -0.0498693 -0.998756 0
    outer loop
      vertex 4.686 7.73531 15.01
      vertex 4.686 7.73531 13.51
      vertex 12.9966 7.32035 13.51
    endloop
  endfacet
  facet normal -0.0498693 -0.998756 0
    outer loop
      vertex 12.9966 7.32035 15.01
      vertex 4.686 7.73531 15.01
      vertex 12.9966 7.32035 13.51
    endloop
  endfacet
  facet normal -0.839662 -0.543109 -0
    outer loop
      vertex 0.168 14.7203 13.51
      vertex 4.686 7.73531 13.51
      vertex 0.168 14.7203 15.01
    endloop
  endfacet
  facet normal -0.839662 -0.543109 0
    outer loop
      vertex 0.168 14.7203 15.01
      vertex 4.686 7.73531 13.51
      vertex 4.686 7.73531 15.01
    endloop
  endfacet
  facet normal 0.839662 -0.543109 0
    outer loop
      vertex -4.35 7.73531 15.01
      vertex -4.35 7.73531 13.51
      vertex 0.168 14.7203 13.51
    endloop
  endfacet
  facet normal 0.839662 -0.543109 0
    outer loop
      vertex 0.168 14.7203 15.01
      vertex -4.35 7.73531 15.01
      vertex 0.168 14.7203 13.51
    endloop
  endfacet
  facet normal 0.0498693 -0.998756 0
    outer loop
      vertex -12.6606 7.32035 15.01
      vertex -12.6606 7.32035 13.51
      vertex -4.35 7.73531 13.51
    endloop
  endfacet
  facet normal 0.0498693 -0.998756 0
    outer loop
      vertex -4.35 7.73531 15.01
      vertex -12.6606 7.32035 15.01
      vertex -4.35 7.73531 13.51
    endloop
  endfacet
endsolid OpenSCAD_Model
