<?xml version="1.0" encoding="UTF-8" standalone="no"?>
<!-- Created with Inkscape (http://www.inkscape.org/) -->

<svg
   xmlns:dc="http://purl.org/dc/elements/1.1/"
   xmlns:cc="http://creativecommons.org/ns#"
   xmlns:rdf="http://www.w3.org/1999/02/22-rdf-syntax-ns#"
   xmlns:svg="http://www.w3.org/2000/svg"
   xmlns="http://www.w3.org/2000/svg"
   xmlns:sodipodi="http://sodipodi.sourceforge.net/DTD/sodipodi-0.dtd"
   xmlns:inkscape="http://www.inkscape.org/namespaces/inkscape"
   sodipodi:docname="A.svg"
   inkscape:version="0.48.3.1 r9886"
   version="1.1"
   id="svg4019"
   height="283.46457"
   width="248.03149">
  <sodipodi:namedview
     id="base"
     pagecolor="#ffffff"
     bordercolor="#666666"
     borderopacity="1.0"
     inkscape:pageopacity="0.0"
     inkscape:pageshadow="2"
     inkscape:zoom="2.4819292"
     inkscape:cx="141.73201"
     inkscape:cy="116.84845"
     inkscape:document-units="px"
     inkscape:current-layer="layer1"
     showgrid="false"
     units="cm"
     inkscape:window-width="1883"
     inkscape:window-height="1058"
     inkscape:window-x="37"
     inkscape:window-y="0"
     inkscape:window-maximized="1" />
  <defs
     id="defs4021" />
  <metadata
     id="metadata4024">
    <rdf:RDF>
      <cc:Work
         rdf:about="">
        <dc:format>image/svg+xml</dc:format>
        <dc:type
           rdf:resource="http://purl.org/dc/dcmitype/StillImage" />
        <dc:title />
      </cc:Work>
    </rdf:RDF>
  </metadata>
  <g
     inkscape:label="cutter"
     inkscape:groupmode="layer"
     id="layer1"
     transform="translate(0,-768.89761)"
     style="display:inline">
    <path
       style="fill:none;stroke:#f80000;stroke-width:0.5;stroke-linecap:butt;stroke-linejoin:miter;stroke-miterlimit:4;stroke-opacity:0.38643069;stroke-dasharray:none"
       d="m 95.893146,912.55158 52.781524,0"
       id="path3022"
       inkscape:connector-curvature="0" />
    <path
       style="fill:none;stroke:#f80000;stroke-width:0.5;stroke-linecap:butt;stroke-linejoin:miter;stroke-miterlimit:4;stroke-opacity:0.38643069;stroke-dasharray:none"
       d="m 123.29119,885.95936 0,49.15531"
       id="path3024"
       inkscape:connector-curvature="0" />
    <path
       inkscape:connector-curvature="0"
       id="path3010"
       style="font-size:280px;font-style:normal;font-variant:normal;font-weight:900;font-stretch:normal;text-align:start;line-height:125%;letter-spacing:0px;word-spacing:0px;writing-mode:lr-tb;text-anchor:start;fill:#000000;fill-opacity:0.16000001;stroke:#000000;stroke-width:0.5;stroke-miterlimit:4;stroke-opacity:1;stroke-dasharray:none;font-family:HelveticaRounded-Black;-inkscape-font-specification:HelveticaRounded-Black Heavy"
       d="m 157.44097,980.47878 4.48,14.84 c 1.49319,5.41332 4.75986,9.42662 9.8,12.04002 5.03985,2.6133 10.45317,3.92 16.24,3.92 7.65316,0 14.46649,-2.52 20.44,-7.56 5.97314,-5.04001 8.95981,-11.2 8.96,-18.48002 -1.9e-4,-4.10664 -0.84019,-8.95997 -2.52,-14.56 -1.68019,-5.78662 -4.10685,-13.15995 -7.28,-22.12 l -0.28,-0.84 -42.84,-119.28 c -3.17347,-8.77314 -7.1868,-15.30647 -12.04,-19.6 -4.66679,-4.29313 -10.92012,-6.43979 -18.76,-6.44 l -20.16,0 c -7.84008,2.1e-4 -14.18674,2.14687 -19.04,6.44 -4.66673,4.29353 -8.58673,10.82686 -11.76,19.6 l -42.84,119.28 -0.28,0.84 c -3.36001,9.33339 -5.88001,16.80005 -7.56,22.4 -1.49334,5.41337 -2.24001,10.17336 -2.24,14.28 -10e-6,7.28002 2.98666,13.44001 8.96,18.48002 5.97331,5.04 12.78664,7.56 20.44,7.56 5.78663,0 11.19995,-1.3067 16.24,-3.92 5.03994,-2.6134 8.30661,-6.6267 9.8,-12.04002 l 4.48,-14.84 67.76,0 m -11.76,-40.32 -44.24,0 21.84,-73.64 0.56,0 21.84,73.64" />
  </g>
  <g
     inkscape:groupmode="layer"
     id="layer4"
     inkscape:label="outer"
     style="display:inline"
     transform="translate(0,-70.866144)">
    <path
       style="fill:none;stroke:#f80000;stroke-width:0.5;stroke-linecap:butt;stroke-linejoin:miter;stroke-miterlimit:4;stroke-opacity:0.38643069;stroke-dasharray:none;display:inline"
       d="m 95.893146,214.52011 52.781524,0"
       id="path3022-8"
       inkscape:connector-curvature="0" />
    <path
       style="fill:none;stroke:#f80000;stroke-width:0.5;stroke-linecap:butt;stroke-linejoin:miter;stroke-miterlimit:4;stroke-opacity:0.38643069;stroke-dasharray:none;display:inline"
       d="m 123.29119,187.92789 0,49.15531"
       id="path3024-0"
       inkscape:connector-curvature="0" />
    <path
       sodipodi:nodetypes="ccssccccccccccccccssscccc"
       d="m 157.44097,282.44731 4.48,14.84 c 1.49319,5.41334 4.75986,9.42663 9.8,12.04003 5.03985,2.6133 10.45317,3.92 16.24,3.92 7.65316,0 14.46649,-2.52 20.44,-7.56 5.97314,-5.04002 8.95981,-11.20001 8.96,-18.48003 -1.9e-4,-4.10664 -0.84019,-8.95997 -2.52,-14.56 -1.68019,-5.78662 -4.10685,-13.15995 -7.28,-22.12 l -0.28,-0.84 -42.84,-119.28 c -3.17347,-8.77314 -7.1868,-15.30647 -12.04,-19.6 -4.66679,-4.29313 -10.92012,-6.43979 -18.76,-6.44 l -20.16,0 c -7.84008,2.1e-4 -14.18674,2.14687 -19.04,6.44 -4.66673,4.29353 -8.58673,10.82686 -11.76,19.6 l -42.84,119.28 -0.28,0.84 c -3.36001,9.33339 -5.88001,16.80005 -7.56,22.4 -1.49334,5.41337 -2.24001,10.17336 -2.24,14.28 -10e-6,7.28002 2.98666,13.44001 8.96,18.48003 5.97331,5.04 12.78664,7.56 20.44,7.56 5.78663,0 11.19995,-1.3067 16.24,-3.92 5.03994,-2.6134 8.30661,-6.62669 9.8,-12.04003 l 4.48,-14.84 67.76,0"
       style="font-size:280px;font-style:normal;font-variant:normal;font-weight:900;font-stretch:normal;text-align:start;line-height:125%;letter-spacing:0px;word-spacing:0px;writing-mode:lr-tb;text-anchor:start;fill:none;stroke:#3c4cbd;stroke-width:3;stroke-miterlimit:4;stroke-opacity:0.41142859;stroke-dasharray:none;font-family:HelveticaRounded-Black;-inkscape-font-specification:HelveticaRounded-Black Heavy"
       id="path3782"
       inkscape:connector-curvature="0" />
  </g>
  <g
     inkscape:groupmode="layer"
     id="layer3"
     inkscape:label="join"
     style="display:inline"
     transform="translate(0,-70.866144)">
    <path
       id="path3817"
       style="fill:#000000;fill-opacity:1;stroke:none"
       d="m 65.313704,178.51536 -5.384931,15.38047 51.731797,13.62263 4.63562,-15.7704 z m 116.409586,-0.19334 5.41359,15.14684 -51.92715,13.89766 -4.62223,-15.76111 z m -66.83983,63.67148 15.8908,-0.0208 0.54007,40.43656 -16.79798,-0.0244 z"
       inkscape:connector-curvature="0"
       sodipodi:nodetypes="ccccccccccccccc" />
    <path
       style="fill:none;stroke:#f80000;stroke-width:0.5;stroke-linecap:butt;stroke-linejoin:miter;stroke-miterlimit:4;stroke-opacity:0.38643069;stroke-dasharray:none;display:inline"
       d="m 95.893146,214.52011 52.781524,0"
       id="path3022-4"
       inkscape:connector-curvature="0" />
    <path
       style="fill:none;stroke:#f80000;stroke-width:0.5;stroke-linecap:butt;stroke-linejoin:miter;stroke-miterlimit:4;stroke-opacity:0.38643069;stroke-dasharray:none;display:inline"
       d="m 123.29119,187.92789 0,49.15531"
       id="path3024-03"
       inkscape:connector-curvature="0" />
  </g>
</svg>
