<?xml version="1.0" encoding="UTF-8" standalone="no"?>
<!-- Created with Inkscape (http://www.inkscape.org/) -->

<svg
   xmlns:dc="http://purl.org/dc/elements/1.1/"
   xmlns:cc="http://creativecommons.org/ns#"
   xmlns:rdf="http://www.w3.org/1999/02/22-rdf-syntax-ns#"
   xmlns:svg="http://www.w3.org/2000/svg"
   xmlns="http://www.w3.org/2000/svg"
   xmlns:sodipodi="http://sodipodi.sourceforge.net/DTD/sodipodi-0.dtd"
   xmlns:inkscape="http://www.inkscape.org/namespaces/inkscape"
   sodipodi:docname="B.svg"
   inkscape:version="0.48.3.1 r9886"
   version="1.1"
   id="svg4019"
   height="283.46457"
   width="248.03149">
  <sodipodi:namedview
     id="base"
     pagecolor="#ffffff"
     bordercolor="#666666"
     borderopacity="1.0"
     inkscape:pageopacity="0.0"
     inkscape:pageshadow="2"
     inkscape:zoom="1.754989"
     inkscape:cx="108.76903"
     inkscape:cy="91.870634"
     inkscape:document-units="px"
     inkscape:current-layer="layer1"
     showgrid="false"
     units="cm"
     inkscape:window-width="1883"
     inkscape:window-height="1058"
     inkscape:window-x="37"
     inkscape:window-y="0"
     inkscape:window-maximized="1"
     showguides="true"
     inkscape:guide-bbox="true" />
  <defs
     id="defs4021" />
  <metadata
     id="metadata4024">
    <rdf:RDF>
      <cc:Work
         rdf:about="">
        <dc:format>image/svg+xml</dc:format>
        <dc:type
           rdf:resource="http://purl.org/dc/dcmitype/StillImage" />
        <dc:title />
      </cc:Work>
    </rdf:RDF>
  </metadata>
  <g
     inkscape:label="cutter"
     inkscape:groupmode="layer"
     id="layer1"
     transform="translate(0,-768.89761)"
     style="display:inline">
    <path
       style="fill:none;stroke:#f80000;stroke-width:0.5;stroke-linecap:butt;stroke-linejoin:miter;stroke-miterlimit:4;stroke-opacity:0.38643069;stroke-dasharray:none"
       d="m 95.731167,913.49075 52.781523,0"
       id="path3022"
       inkscape:connector-curvature="0" />
    <path
       style="fill:none;stroke:#f80000;stroke-width:0.5;stroke-linecap:butt;stroke-linejoin:miter;stroke-miterlimit:4;stroke-opacity:0.38643069;stroke-dasharray:none"
       d="m 123.12921,886.89853 0,49.15531"
       id="path3024"
       inkscape:connector-curvature="0" />
    <path
       d="m 98.377053,893.4501 0,-36.68 31.640007,0 c 6.71987,1.5e-4 11.66654,1.68015 14.84,5.04 3.1732,3.17348 4.75986,7.65347 4.76,13.44 -1.4e-4,4.85346 -1.77347,9.14679 -5.32,12.88 -3.5468,3.54678 -8.30679,5.32012 -14.28,5.32 l -31.640007,0 m -62.72,81.2 c -2.2e-5,13.25336 2.986642,22.96006 8.96,29.12 5.973296,6.1601 15.213287,9.2401 27.72,9.2401 l 71.400007,0 c 24.63984,0 43.39982,-5.5067 56.28,-16.52014 12.8798,-11.1999 19.31979,-25.47992 19.32,-42.83996 -2.1e-4,-12.87993 -3.26687,-23.70659 -9.8,-32.48 -6.34686,-8.77324 -15.49352,-14.2799 -27.44,-16.52 l 0,-0.56 c 10.26649,-2.61323 17.54648,-7.46655 21.84,-14.56 4.4798,-7.09321 6.7198,-16.14653 6.72,-27.16 -2e-4,-7.09318 -1.21353,-13.62651 -3.64,-19.6 -2.42686,-6.15983 -6.44019,-11.57316 -12.04,-16.24 -5.60018,-4.66648 -12.9735,-8.30648 -22.12,-10.92 -9.14682,-2.7998 -20.34681,-4.1998 -33.6,-4.2 l -66.920007,0 c -12.506713,2e-4 -21.746704,3.08019 -27.72,9.24 -5.973358,6.16018 -8.960022,15.86684 -8.96,29.12 l 0,124.88 m 62.72,-7 0,-38.92 32.200007,0 c 8.02654,8e-5 14.3732,1.68008 19.04,5.04 4.66652,3.1734 6.99985,7.9334 7,14.28 -1.5e-4,6.34672 -2.33348,11.20005 -7,14.56 -4.6668,3.36004 -11.01346,5.04004 -19.04,5.04 l -32.200007,0"
       style="font-size:280px;font-style:normal;font-variant:normal;font-weight:900;font-stretch:normal;text-align:start;line-height:125%;letter-spacing:0px;word-spacing:0px;writing-mode:lr-tb;text-anchor:start;fill:#000000;fill-opacity:0.13168724;stroke:#000000;stroke-width:0.5;stroke-miterlimit:4;stroke-opacity:1;stroke-dasharray:none;display:inline;font-family:HelveticaRounded-Black;-inkscape-font-specification:HelveticaRounded-Black Heavy"
       id="path4395"
       inkscape:connector-curvature="0" />
  </g>
  <g
     inkscape:groupmode="layer"
     id="layer4"
     inkscape:label="outer"
     style="display:inline"
     transform="translate(0,-70.866144)">
    <path
       style="fill:none;stroke:#f80000;stroke-width:0.5;stroke-linecap:butt;stroke-linejoin:miter;stroke-miterlimit:4;stroke-opacity:0.38643069;stroke-dasharray:none;display:inline"
       d="m 95.731167,215.45928 52.781523,0"
       id="path3022-8"
       inkscape:connector-curvature="0" />
    <path
       style="fill:none;stroke:#f80000;stroke-width:0.5;stroke-linecap:butt;stroke-linejoin:miter;stroke-miterlimit:4;stroke-opacity:0.38643069;stroke-dasharray:none;display:inline"
       d="m 123.12921,188.86706 0,49.15531"
       id="path3024-0"
       inkscape:connector-curvature="0" />
    <path
       inkscape:connector-curvature="0"
       id="path3884"
       style="font-size:280px;font-style:normal;font-variant:normal;font-weight:900;font-stretch:normal;text-align:start;line-height:125%;letter-spacing:0px;word-spacing:0px;writing-mode:lr-tb;text-anchor:start;fill:none;stroke:#101bf3;stroke-width:2;stroke-miterlimit:4;stroke-opacity:0.22633745;stroke-dasharray:none;font-family:HelveticaRounded-Black;-inkscape-font-specification:HelveticaRounded-Black Heavy"
       d="m 35.657053,276.61863 c -2.2e-5,13.25335 2.986642,22.96001 8.96,29.12 5.973296,6.16 15.213287,9.24 27.72,9.24 l 71.400007,0 c 24.63984,0 43.39982,-5.50667 56.28,-16.52 12.8798,-11.19998 19.31979,-25.47996 19.32,-42.84 -2.1e-4,-12.87993 -3.26687,-23.70659 -9.8,-32.48 -6.34686,-8.77324 -15.49352,-14.2799 -27.44,-16.52 l 0,-0.56 c 10.26649,-2.61323 17.54648,-7.46655 21.84,-14.56 4.4798,-7.09321 6.7198,-16.14653 6.72,-27.16 -2e-4,-7.09318 -1.21353,-13.62651 -3.64,-19.6 -2.42686,-6.15983 -6.44019,-11.57316 -12.04,-16.24 -5.60018,-4.66648 -12.9735,-8.30648 -22.12,-10.92 -9.14682,-2.7998 -20.34681,-4.1998 -33.6,-4.2 l -66.920007,0 c -12.506713,2e-4 -21.746704,3.08019 -27.72,9.24 -5.973358,6.16018 -8.960022,15.86684 -8.96,29.12 l 0,124.88"
       sodipodi:nodetypes="cssscccccccccccccsc" />
  </g>
  <g
     inkscape:groupmode="layer"
     id="layer3"
     inkscape:label="join"
     style="display:inline"
     transform="translate(0,-70.866144)">
    <path
       style="fill:none;stroke:#f80000;stroke-width:0.5;stroke-linecap:butt;stroke-linejoin:miter;stroke-miterlimit:4;stroke-opacity:0.38643069;stroke-dasharray:none;display:inline"
       d="m 95.731167,215.45928 52.781523,0"
       id="path3022-4"
       inkscape:connector-curvature="0" />
    <path
       style="fill:none;stroke:#f80000;stroke-width:0.5;stroke-linecap:butt;stroke-linejoin:miter;stroke-miterlimit:4;stroke-opacity:0.38643069;stroke-dasharray:none;display:inline"
       d="m 123.12921,188.86706 0,49.15531"
       id="path3024-03"
       inkscape:connector-curvature="0" />
    <path
       id="path3897"
       style="fill:#191607;fill-opacity:0.4979424;stroke:#000000;stroke-width:0.2;stroke-linecap:butt;stroke-linejoin:miter;stroke-miterlimit:4;stroke-opacity:1;stroke-dasharray:none"
       d="m 99.027275,269.54361 0.02518,45.66166 22.394705,-0.0252 0,-45.63648 z m -0.201456,-74.01342 0,10.08163 -63.216652,-0.56981 0.05864,15.85495 63.158007,-1.04004 0,10.80882 22.347086,0 -6.4466,-35.13555 z m -0.201456,-82.81357 0,46.12398 18.913347,0 5.83664,-46.12398 z"
       inkscape:connector-curvature="0"
       sodipodi:nodetypes="cccccccccccccccccsc" />
  </g>
</svg>
