<?xml version="1.0" encoding="UTF-8" standalone="no"?>
<!-- Created with Inkscape (http://www.inkscape.org/) -->

<svg
   xmlns:dc="http://purl.org/dc/elements/1.1/"
   xmlns:cc="http://creativecommons.org/ns#"
   xmlns:rdf="http://www.w3.org/1999/02/22-rdf-syntax-ns#"
   xmlns:svg="http://www.w3.org/2000/svg"
   xmlns="http://www.w3.org/2000/svg"
   xmlns:sodipodi="http://sodipodi.sourceforge.net/DTD/sodipodi-0.dtd"
   xmlns:inkscape="http://www.inkscape.org/namespaces/inkscape"
   width="248.03149"
   height="283.46457"
   id="svg2"
   version="1.1"
   inkscape:version="0.48.3.1 r9886"
   sodipodi:docname="C.svg">
  <defs
     id="defs4" />
  <sodipodi:namedview
     id="base"
     pagecolor="#ffffff"
     bordercolor="#666666"
     borderopacity="1.0"
     inkscape:pageopacity="0.0"
     inkscape:pageshadow="2"
     inkscape:zoom="2.9880278"
     inkscape:cx="123.34641"
     inkscape:cy="141.73228"
     inkscape:document-units="px"
     inkscape:current-layer="layer1"
     showgrid="false"
     units="cm"
     inkscape:window-width="1883"
     inkscape:window-height="1058"
     inkscape:window-x="37"
     inkscape:window-y="0"
     inkscape:window-maximized="1" />
  <metadata
     id="metadata7">
    <rdf:RDF>
      <cc:Work
         rdf:about="">
        <dc:format>image/svg+xml</dc:format>
        <dc:type
           rdf:resource="http://purl.org/dc/dcmitype/StillImage" />
        <dc:title></dc:title>
      </cc:Work>
    </rdf:RDF>
  </metadata>
  <g
     inkscape:label="cutter"
     inkscape:groupmode="layer"
     id="layer1"
     transform="translate(0,-768.89632)"
     style="display:inline"
     sodipodi:insensitive="true">
    <path
       inkscape:connector-curvature="0"
       id="path3831"
       style="font-size:280px;font-style:normal;font-variant:normal;font-weight:900;font-stretch:normal;text-align:start;line-height:125%;letter-spacing:0px;word-spacing:0px;writing-mode:lr-tb;text-anchor:start;fill:#000000;fill-opacity:0.13564669;stroke:#000000;stroke-width:0.60000002;stroke-miterlimit:4;stroke-opacity:1;font-family:HelveticaRounded-Black;-inkscape-font-specification:HelveticaRounded-Black Heavy"
       d="m 28.384106,910.73131 c -1.2e-5,17.54675 2.799985,33.04007 8.4,46.48 5.599974,13.44004 13.253299,24.5467 22.96,33.32 9.706613,8.58668 20.719936,15.02669 33.04,19.31999 12.506574,4.2933 25.759894,6.44 39.760004,6.44 9.14654,0 18.66653,-1.4 28.56,-4.2 9.89317,-2.6133 19.03983,-6.3466 27.44,-11.2 8.39982,-5.03997 15.11981,-11.10663 20.16,-18.19999 5.22646,-7.0933 7.8398,-14.83996 7.84,-23.24 -2e-4,-8.21327 -2.89353,-14.93327 -8.68,-20.16 -5.60019,-5.41325 -12.69352,-8.11992 -21.28,-8.12 -9.3335,8e-5 -17.17349,4.48008 -23.52,13.44 -6.34681,8.77339 -11.57347,14.56005 -15.68,17.36 -3.92013,2.61338 -8.86679,3.92005 -14.84,3.92 -13.06677,5e-5 -22.9601,-4.94662 -29.68,-14.84 -6.720084,-9.89326 -10.080081,-23.33325 -10.080004,-40.32 -7.7e-5,-17.17321 3.453253,-30.6132 10.360004,-40.32 6.90657,-9.89318 15.58656,-14.83984 26.04,-14.84 7.46654,1.6e-4 13.5332,1.30682 18.2,3.92 4.85319,2.42682 9.33319,6.90681 13.44,13.44 4.29318,7.09347 7.93318,11.66679 10.92,13.72 3.17317,2.05346 7.7465,3.08012 13.72,3.08 8.95982,1.2e-4 16.23981,-2.61321 21.84,-7.84 5.78647,-5.22653 8.6798,-11.85319 8.68,-19.88 -2e-4,-7.27984 -2.14687,-14.27984 -6.44,-21 -4.10686,-6.90649 -9.98685,-13.06648 -17.64,-18.48 -7.65351,-5.41314 -16.6135,-9.61313 -26.88,-12.6 -10.08014,-3.17313 -20.9068,-4.75979 -32.48,-4.76 -13.62677,2.1e-4 -26.69343,2.24021 -39.200004,6.72 -12.320065,4.29353 -23.426721,10.92019 -33.32,19.88 -9.893367,8.96017 -17.640026,20.16016 -23.24,33.6 -5.600015,13.25347 -8.400012,28.37345 -8.4,45.36" />
    <path
       style="fill:none;stroke:#ff5206;stroke-width:0.5;stroke-linecap:butt;stroke-linejoin:miter;stroke-miterlimit:4;stroke-opacity:0.51757184;stroke-dasharray:none;display:inline"
       d="m 127.17419,891.05047 0,37.81759"
       id="path3759-2"
       inkscape:connector-curvature="0" />
    <path
       style="fill:none;stroke:#ff5206;stroke-width:0.5;stroke-linecap:butt;stroke-linejoin:miter;stroke-miterlimit:4;stroke-opacity:0.51757184;stroke-dasharray:none;display:inline"
       d="m 106.42471,910.12661 40.49494,0"
       id="path3761-2"
       inkscape:connector-curvature="0" />
  </g>
  <g
     inkscape:groupmode="layer"
     id="layer2"
     inkscape:label="outer"
     style="display:inline"
     sodipodi:insensitive="true">
    <path
       inkscape:connector-curvature="0"
       id="path3827"
       style="font-size:280px;font-style:normal;font-variant:normal;font-weight:900;font-stretch:normal;text-align:start;line-height:125%;letter-spacing:0px;word-spacing:0px;writing-mode:lr-tb;text-anchor:start;fill:#000000;fill-opacity:0.13564669;stroke:#2000fe;stroke-width:2.5;stroke-miterlimit:4;stroke-opacity:0.15654949;font-family:HelveticaRounded-Black;-inkscape-font-specification:HelveticaRounded-Black Heavy"
       d="m 28.384106,141.83499 c -1.2e-5,17.54675 2.799985,33.04007 8.4,46.48 5.599974,13.44005 13.253299,24.5467 22.96,33.32 9.706613,8.58668 20.719936,15.02668 33.04,19.32 12.506574,4.29334 25.759894,6.44 39.760004,6.44 9.14654,0 18.66653,-1.4 28.56,-4.2 9.89317,-2.61333 19.03983,-6.34666 27.44,-11.2 8.39982,-5.03998 15.11981,-11.10664 20.16,-18.2 5.22646,-7.09329 7.8398,-14.83995 7.84,-23.24 -2e-4,-8.21327 -2.89353,-14.93326 -8.68,-20.16 -5.60019,-5.41325 -12.69352,-8.11992 -21.28,-8.12 -9.3335,8e-5 -17.17349,4.48008 -23.52,13.44 -6.34681,8.7734 -11.57347,14.56006 -15.68,17.36 -3.92013,2.61338 -8.86679,3.92005 -14.84,3.92 -13.06677,5e-5 -22.9601,-4.94661 -29.68,-14.84 -6.720084,-9.89326 -10.080081,-23.33325 -10.080004,-40.32 -7.7e-5,-17.17321 3.453253,-30.6132 10.360004,-40.32 6.90657,-9.893178 15.58656,-14.83984 26.04,-14.839995 7.46654,1.55e-4 13.5332,1.306821 18.2,3.92 4.85319,2.426816 9.33319,6.906811 13.44,13.439995 4.29318,7.09347 7.93318,11.6668 10.92,13.72 3.17317,2.05346 7.7465,3.08013 13.72,3.08 8.95982,1.3e-4 16.23981,-2.6132 21.84,-7.84 5.78647,-5.22653 8.6798,-11.85319 8.68,-19.879995 -2e-4,-7.279844 -2.14687,-14.279837 -6.44,-21 -4.10686,-6.90649 -9.98685,-13.066484 -17.64,-18.48 -7.65351,-5.413139 -16.6135,-9.613135 -26.88,-12.6 -10.08014,-3.173129 -20.9068,-4.759794 -32.48,-4.76 -13.62677,2.06e-4 -26.69343,2.240204 -39.200004,6.72 -12.320065,4.293528 -23.426721,10.920188 -33.32,19.88 -9.893367,8.96017 -17.640026,20.160159 -23.24,33.6 -5.600015,13.253465 -8.400012,28.373455 -8.4,45.359995" />
    <path
       style="fill:none;stroke:#ff5206;stroke-width:0.5;stroke-linecap:butt;stroke-linejoin:miter;stroke-miterlimit:4;stroke-opacity:0.51757184;stroke-dasharray:none;display:inline"
       d="m 127.17419,122.15415 0,37.81759"
       id="path3759-7"
       inkscape:connector-curvature="0" />
    <path
       style="fill:none;stroke:#ff5206;stroke-width:0.5;stroke-linecap:butt;stroke-linejoin:miter;stroke-miterlimit:4;stroke-opacity:0.51757184;stroke-dasharray:none;display:inline"
       d="m 106.42471,141.23029 40.49494,0"
       id="path3761-1"
       inkscape:connector-curvature="0" />
  </g>
  <g
     inkscape:groupmode="layer"
     id="layer3"
     inkscape:label="join"
     style="display:inline"
     sodipodi:insensitive="true">
    <path
       style="fill:none;stroke:#ff5206;stroke-width:0.5;stroke-linecap:butt;stroke-linejoin:miter;stroke-miterlimit:4;stroke-opacity:0.51757184;stroke-dasharray:none"
       d="m 127.17419,122.15415 0,37.81759"
       id="path3759"
       inkscape:connector-curvature="0" />
    <path
       style="fill:none;stroke:#ff5206;stroke-width:0.5;stroke-linecap:butt;stroke-linejoin:miter;stroke-miterlimit:4;stroke-opacity:0.51757184;stroke-dasharray:none"
       d="m 106.42471,141.23029 40.49494,0"
       id="path3761"
       inkscape:connector-curvature="0" />
  </g>
</svg>
