<?xml version="1.0" encoding="UTF-8" standalone="no"?>
<!-- Created with Inkscape (http://www.inkscape.org/) -->

<svg
   xmlns:dc="http://purl.org/dc/elements/1.1/"
   xmlns:cc="http://creativecommons.org/ns#"
   xmlns:rdf="http://www.w3.org/1999/02/22-rdf-syntax-ns#"
   xmlns:svg="http://www.w3.org/2000/svg"
   xmlns="http://www.w3.org/2000/svg"
   xmlns:sodipodi="http://sodipodi.sourceforge.net/DTD/sodipodi-0.dtd"
   xmlns:inkscape="http://www.inkscape.org/namespaces/inkscape"
   width="248.03149"
   height="283.46457"
   id="svg2"
   version="1.1"
   inkscape:version="0.48.3.1 r9886"
   sodipodi:docname="D.svg">
  <defs
     id="defs4" />
  <sodipodi:namedview
     id="base"
     pagecolor="#ffffff"
     bordercolor="#666666"
     borderopacity="1.0"
     inkscape:pageopacity="0.0"
     inkscape:pageshadow="2"
     inkscape:zoom="2.9880278"
     inkscape:cx="103.93693"
     inkscape:cy="180.80652"
     inkscape:document-units="px"
     inkscape:current-layer="layer1"
     showgrid="false"
     units="cm"
     inkscape:window-width="1883"
     inkscape:window-height="1058"
     inkscape:window-x="37"
     inkscape:window-y="0"
     inkscape:window-maximized="1" />
  <metadata
     id="metadata7">
    <rdf:RDF>
      <cc:Work
         rdf:about="">
        <dc:format>image/svg+xml</dc:format>
        <dc:type
           rdf:resource="http://purl.org/dc/dcmitype/StillImage" />
        <dc:title></dc:title>
      </cc:Work>
    </rdf:RDF>
  </metadata>
  <g
     inkscape:label="cutter"
     inkscape:groupmode="layer"
     id="layer1"
     transform="translate(0,-768.89632)"
     sodipodi:insensitive="true"
     style="display:inline">
    <path
       inkscape:connector-curvature="0"
       id="path4722"
       style="font-size:280px;font-style:normal;font-variant:normal;font-weight:900;font-stretch:normal;text-align:start;line-height:125%;letter-spacing:0px;word-spacing:0px;writing-mode:lr-tb;text-anchor:start;fill:#000000;fill-opacity:0.13564669;stroke:#000000;stroke-width:0.60000002;stroke-miterlimit:4;stroke-opacity:1;font-family:HelveticaRounded-Black;-inkscape-font-specification:HelveticaRounded-Black Heavy"
       d="m 35.384106,973.17131 c -1.9e-5,13.25336 2.986644,22.96002 8.96,29.11999 5.973299,6.16 15.21329,9.24 27.72,9.24 l 54.600004,0 c 16.23987,0 30.42652,-2.52 42.56,-7.56 12.31983,-5.22664 22.49315,-12.4133 30.52,-21.55999 8.02647,-9.14663 13.90647,-19.78662 17.64,-31.92 3.91979,-12.13326 5.87979,-25.38658 5.88,-39.76 -2.1e-4,-14.37322 -1.96021,-27.62654 -5.88,-39.76 -3.73353,-12.13318 -9.61353,-22.77317 -17.64,-31.92 -8.02685,-9.14648 -18.20017,-16.23981 -30.52,-21.28 -12.13348,-5.22647 -26.32013,-7.8398 -42.56,-7.84 l -54.600004,0 c -12.50671,2e-4 -21.746701,3.0802 -27.72,9.24 -5.973356,6.16019 -8.960019,15.86684 -8.96,29.12 l 0,124.88 m 62.72,-12.04 0,-100.8 14.280004,0 c 17.73322,1.5e-4 29.86654,4.10681 36.4,12.32 6.71986,8.21347 10.07985,20.90679 10.08,38.08 -1.5e-4,17.17342 -3.36014,29.86674 -10.08,38.08 -6.53346,8.21339 -18.66678,12.32005 -36.4,12.32 l -14.280004,0" />
    <path
       style="fill:none;stroke:#ff5206;stroke-width:0.5;stroke-linecap:butt;stroke-linejoin:miter;stroke-miterlimit:4;stroke-opacity:0.51757184;stroke-dasharray:none"
       d="m 127.17419,891.05047 0,37.81759"
       id="path3759-52"
       inkscape:connector-curvature="0" />
    <path
       style="fill:none;stroke:#ff5206;stroke-width:0.5;stroke-linecap:butt;stroke-linejoin:miter;stroke-miterlimit:4;stroke-opacity:0.51757184;stroke-dasharray:none"
       d="m 106.42471,910.12661 40.49494,0"
       id="path3761-2"
       inkscape:connector-curvature="0" />
  </g>
  <g
     inkscape:groupmode="layer"
     id="layer2"
     inkscape:label="outer"
     style="display:inline"
     sodipodi:insensitive="true">
    <path
       inkscape:connector-curvature="0"
       id="path4718"
       style="font-size:280px;font-style:normal;font-variant:normal;font-weight:900;font-stretch:normal;text-align:start;line-height:125%;letter-spacing:0px;word-spacing:0px;writing-mode:lr-tb;text-anchor:start;fill:#000000;fill-opacity:0.13564669;stroke:#2000fe;stroke-width:2.5;stroke-miterlimit:4;stroke-opacity:0.15654949;font-family:HelveticaRounded-Black;-inkscape-font-specification:HelveticaRounded-Black Heavy"
       d="m 35.384106,204.27499 c -1.9e-5,13.25336 2.986644,22.96002 8.96,29.12 5.973299,6.16001 15.21329,9.24 27.72,9.24 l 54.600004,0 c 16.23987,0 30.42652,-2.51999 42.56,-7.56 12.31983,-5.22665 22.49315,-12.41331 30.52,-21.56 8.02647,-9.14662 13.90647,-19.78661 17.64,-31.92 3.91979,-12.13326 5.87979,-25.38658 5.88,-39.76 -2.1e-4,-14.37321 -1.96021,-27.62653 -5.88,-39.76 -3.73353,-12.133176 -9.61353,-22.773165 -17.64,-31.919995 -8.02685,-9.146486 -18.20017,-16.239812 -30.52,-21.28 -12.13348,-5.226468 -26.32013,-7.839799 -42.56,-7.84 l -54.600004,0 c -12.50671,2.01e-4 -21.746701,3.080198 -27.72,9.24 -5.973356,6.160186 -8.960019,15.866843 -8.96,29.12 l 0,124.879995 m 62.72,-12.04 0,-100.799995 14.280004,0 c 17.73322,1.51e-4 29.86654,4.106813 36.4,12.319995 6.71986,8.21347 10.07985,20.90679 10.08,38.08 -1.5e-4,17.17342 -3.36014,29.86674 -10.08,38.08 -6.53346,8.21339 -18.66678,12.32005 -36.4,12.32 l -14.280004,0" />
    <path
       style="fill:none;stroke:#ff5206;stroke-width:0.5;stroke-linecap:butt;stroke-linejoin:miter;stroke-miterlimit:4;stroke-opacity:0.51757184;stroke-dasharray:none"
       d="m 127.17419,122.15415 0,37.81759"
       id="path3759-5"
       inkscape:connector-curvature="0" />
    <path
       style="fill:none;stroke:#ff5206;stroke-width:0.5;stroke-linecap:butt;stroke-linejoin:miter;stroke-miterlimit:4;stroke-opacity:0.51757184;stroke-dasharray:none"
       d="m 106.42471,141.23029 40.49494,0"
       id="path3761-3"
       inkscape:connector-curvature="0" />
  </g>
  <g
     inkscape:groupmode="layer"
     id="layer3"
     inkscape:label="join"
     style="display:inline"
     sodipodi:insensitive="true">
    <path
       style="fill:none;stroke:#ff5206;stroke-width:0.5;stroke-linecap:butt;stroke-linejoin:miter;stroke-miterlimit:4;stroke-opacity:0.51757184;stroke-dasharray:none"
       d="m 127.17419,122.15415 0,37.81759"
       id="path3759"
       inkscape:connector-curvature="0" />
    <path
       style="fill:none;stroke:#ff5206;stroke-width:0.5;stroke-linecap:butt;stroke-linejoin:miter;stroke-miterlimit:4;stroke-opacity:0.51757184;stroke-dasharray:none"
       d="m 106.42471,141.23029 40.49494,0"
       id="path3761"
       inkscape:connector-curvature="0" />
    <path
       style="fill:#000000;fill-opacity:1;stroke:#000000;stroke-width:0.40000001;stroke-linecap:butt;stroke-linejoin:miter;stroke-miterlimit:4;stroke-opacity:1;stroke-dasharray:none"
       d="m 35.260351,131.96474 62.711364,0 0.236646,18.26778 -62.94801,0 z"
       id="path3915"
       inkscape:connector-curvature="0"
       sodipodi:nodetypes="ccccc" />
    <path
       inkscape:connector-curvature="0"
       id="path4425"
       d="m 98.79998,242.62004 0,-50.40573 13.96215,0.0296 0,50.37614 z"
       style="fill:#000000;fill-opacity:1;stroke:#000000;stroke-width:0.40000001;stroke-linecap:butt;stroke-linejoin:miter;stroke-miterlimit:4;stroke-opacity:1;stroke-dasharray:none"
       sodipodi:nodetypes="ccccc" />
    <path
       sodipodi:nodetypes="ccccc"
       style="fill:#000000;fill-opacity:1;stroke:#000000;stroke-width:0.40000001;stroke-linecap:butt;stroke-linejoin:miter;stroke-miterlimit:4;stroke-opacity:1;stroke-dasharray:none"
       d="m 98.79998,91.491569 0,-50.524054 13.96215,0.0296 0,50.494464 z"
       id="path4427"
       inkscape:connector-curvature="0" />
    <path
       sodipodi:nodetypes="cccccccc"
       inkscape:connector-curvature="0"
       id="path4429"
       d="m 158.33484,131.96474 64.59388,0 0.33315,9.85195 -0.18017,8.41583 -64.57952,0 0.21267,-5.48858 0.0913,-7.36252 z"
       style="fill:#000000;fill-opacity:1;stroke:#000000;stroke-width:0.40000001;stroke-linecap:butt;stroke-linejoin:miter;stroke-miterlimit:4;stroke-opacity:1;stroke-dasharray:none" />
  </g>
</svg>
