<?xml version="1.0" encoding="UTF-8" standalone="no"?>
<!-- Created with Inkscape (http://www.inkscape.org/) -->

<svg
   xmlns:dc="http://purl.org/dc/elements/1.1/"
   xmlns:cc="http://creativecommons.org/ns#"
   xmlns:rdf="http://www.w3.org/1999/02/22-rdf-syntax-ns#"
   xmlns:svg="http://www.w3.org/2000/svg"
   xmlns="http://www.w3.org/2000/svg"
   xmlns:sodipodi="http://sodipodi.sourceforge.net/DTD/sodipodi-0.dtd"
   xmlns:inkscape="http://www.inkscape.org/namespaces/inkscape"
   width="248.03149"
   height="283.46457"
   id="svg2"
   version="1.1"
   inkscape:version="0.48.3.1 r9886"
   sodipodi:docname="E.svg">
  <defs
     id="defs4" />
  <sodipodi:namedview
     id="base"
     pagecolor="#ffffff"
     bordercolor="#666666"
     borderopacity="1.0"
     inkscape:pageopacity="0.0"
     inkscape:pageshadow="2"
     inkscape:zoom="2.9880278"
     inkscape:cx="78.166107"
     inkscape:cy="131.29524"
     inkscape:document-units="px"
     inkscape:current-layer="layer1"
     showgrid="false"
     units="cm"
     inkscape:window-width="1883"
     inkscape:window-height="1058"
     inkscape:window-x="37"
     inkscape:window-y="0"
     inkscape:window-maximized="1" />
  <metadata
     id="metadata7">
    <rdf:RDF>
      <cc:Work
         rdf:about="">
        <dc:format>image/svg+xml</dc:format>
        <dc:type
           rdf:resource="http://purl.org/dc/dcmitype/StillImage" />
        <dc:title></dc:title>
      </cc:Work>
    </rdf:RDF>
  </metadata>
  <g
     inkscape:label="cutter"
     inkscape:groupmode="layer"
     id="layer1"
     transform="translate(0,-768.89632)"
     style="display:inline"
     sodipodi:insensitive="true">
    <path
       inkscape:connector-curvature="0"
       id="path4506"
       style="font-size:280px;font-style:normal;font-variant:normal;font-weight:900;font-stretch:normal;text-align:start;line-height:125%;letter-spacing:0px;word-spacing:0px;writing-mode:lr-tb;text-anchor:start;fill:#000000;fill-opacity:0.13564669;stroke:#000000;stroke-width:0.60000002;stroke-miterlimit:4;stroke-opacity:1;font-family:HelveticaRounded-Black;-inkscape-font-specification:HelveticaRounded-Black Heavy"
       d="m 39.024106,973.17131 c -2.3e-5,13.25336 2.986641,22.96002 8.96,29.11999 5.973295,6.16 15.213286,9.24 27.72,9.24 l 105.560004,0 c 9.33315,0 16.33315,-2.0533 21,-6.16 4.66647,-4.2933 6.9998,-10.07997 7,-17.35999 -2e-4,-7.27997 -2.33353,-12.9733 -7,-17.08 -4.66685,-4.29329 -11.66685,-6.43995 -21,-6.44 l -77.84,0 0,-32.2 59.92,0 c 9.33317,8e-5 16.33317,-2.05325 21,-6.16 4.66649,-4.29324 6.99982,-10.0799 7,-17.36 -1.8e-4,-7.27989 -2.33351,-12.97322 -7,-17.08 -4.66683,-4.29321 -11.66683,-6.43987 -21,-6.44 l -59.92,0 0,-28.28 74.76,0 c 9.33316,1.6e-4 16.33315,-2.05318 21,-6.16 4.66647,-4.29317 6.99981,-10.07983 7,-17.36 -1.9e-4,-7.27981 -2.33353,-12.97314 -7,-17.08 -4.66685,-4.29313 -11.66684,-6.4398 -21,-6.44 l -102.480004,0 c -12.506714,2e-4 -21.746705,3.0802 -27.72,9.24 -5.973359,6.16019 -8.960023,15.86684 -8.96,29.12 l 0,124.88" />
    <path
       style="fill:none;stroke:#ff5206;stroke-width:0.5;stroke-linecap:butt;stroke-linejoin:miter;stroke-miterlimit:4;stroke-opacity:0.51757184;stroke-dasharray:none;display:inline"
       d="m 127.17419,891.05047 0,37.81759"
       id="path3759-7"
       inkscape:connector-curvature="0" />
    <path
       style="fill:none;stroke:#ff5206;stroke-width:0.5;stroke-linecap:butt;stroke-linejoin:miter;stroke-miterlimit:4;stroke-opacity:0.51757184;stroke-dasharray:none;display:inline"
       d="m 106.42471,910.12661 40.49494,0"
       id="path3761-59"
       inkscape:connector-curvature="0" />
  </g>
  <g
     inkscape:groupmode="layer"
     id="layer2"
     inkscape:label="outer"
     style="display:inline"
     sodipodi:insensitive="true">
    <path
       inkscape:connector-curvature="0"
       id="path4502"
       style="font-size:280px;font-style:normal;font-variant:normal;font-weight:900;font-stretch:normal;text-align:start;line-height:125%;letter-spacing:0px;word-spacing:0px;writing-mode:lr-tb;text-anchor:start;fill:#000000;fill-opacity:0.13564669;stroke:#2000fe;stroke-width:2.5;stroke-miterlimit:4;stroke-opacity:0.15654949;font-family:HelveticaRounded-Black;-inkscape-font-specification:HelveticaRounded-Black Heavy"
       d="m 39.024106,204.27499 c -2.3e-5,13.25336 2.986641,22.96002 8.96,29.12 5.973295,6.16001 15.213286,9.24 27.72,9.24 l 105.560004,0 c 9.33315,0 16.33315,-2.05333 21,-6.16 4.66647,-4.29332 6.9998,-10.07998 7,-17.36 -2e-4,-7.27996 -2.33353,-12.97329 -7,-17.08 -4.66685,-4.29328 -11.66685,-6.43995 -21,-6.44 l -77.84,0 0,-32.2 59.92,0 c 9.33317,8e-5 16.33317,-2.05325 21,-6.16 4.66649,-4.29324 6.99982,-10.0799 7,-17.36 -1.8e-4,-7.27989 -2.33351,-12.97321 -7,-17.08 -4.66683,-4.2932 -11.66683,-6.43987 -21,-6.44 l -59.92,0 0,-28.279995 74.76,0 c 9.33316,1.54e-4 16.33315,-2.053177 21,-6.16 4.66647,-4.293169 6.99981,-10.07983 7,-17.36 -1.9e-4,-7.279815 -2.33353,-12.973143 -7,-17.08 -4.66685,-4.293134 -11.66684,-6.439799 -21,-6.44 l -102.480004,0 c -12.506714,2.01e-4 -21.746705,3.080198 -27.72,9.24 -5.973359,6.160186 -8.960023,15.866843 -8.96,29.12 l 0,124.879995" />
    <path
       style="fill:none;stroke:#ff5206;stroke-width:0.5;stroke-linecap:butt;stroke-linejoin:miter;stroke-miterlimit:4;stroke-opacity:0.51757184;stroke-dasharray:none;display:inline"
       d="m 127.17419,122.15415 0,37.81759"
       id="path3759-0"
       inkscape:connector-curvature="0" />
    <path
       style="fill:none;stroke:#ff5206;stroke-width:0.5;stroke-linecap:butt;stroke-linejoin:miter;stroke-miterlimit:4;stroke-opacity:0.51757184;stroke-dasharray:none;display:inline"
       d="m 106.42471,141.23029 40.49494,0"
       id="path3761-5"
       inkscape:connector-curvature="0" />
  </g>
  <g
     inkscape:groupmode="layer"
     id="layer3"
     inkscape:label="join"
     style="display:inline"
     sodipodi:insensitive="true">
    <path
       style="fill:none;stroke:#ff5206;stroke-width:0.5;stroke-linecap:butt;stroke-linejoin:miter;stroke-miterlimit:4;stroke-opacity:0.51757184;stroke-dasharray:none"
       d="m 127.17419,122.15415 0,37.81759"
       id="path3759"
       inkscape:connector-curvature="0" />
    <path
       style="fill:none;stroke:#ff5206;stroke-width:0.5;stroke-linecap:butt;stroke-linejoin:miter;stroke-miterlimit:4;stroke-opacity:0.51757184;stroke-dasharray:none"
       d="m 106.42471,141.23029 40.49494,0"
       id="path3761"
       inkscape:connector-curvature="0" />
  </g>
</svg>
