<?xml version="1.0" encoding="UTF-8" standalone="no"?>
<!-- Created with Inkscape (http://www.inkscape.org/) -->

<svg
   xmlns:dc="http://purl.org/dc/elements/1.1/"
   xmlns:cc="http://creativecommons.org/ns#"
   xmlns:rdf="http://www.w3.org/1999/02/22-rdf-syntax-ns#"
   xmlns:svg="http://www.w3.org/2000/svg"
   xmlns="http://www.w3.org/2000/svg"
   xmlns:sodipodi="http://sodipodi.sourceforge.net/DTD/sodipodi-0.dtd"
   xmlns:inkscape="http://www.inkscape.org/namespaces/inkscape"
   width="248.03149"
   height="283.46457"
   id="svg2"
   version="1.1"
   inkscape:version="0.48.3.1 r9886"
   sodipodi:docname="G.svg">
  <defs
     id="defs4" />
  <sodipodi:namedview
     id="base"
     pagecolor="#ffffff"
     bordercolor="#666666"
     borderopacity="1.0"
     inkscape:pageopacity="0.0"
     inkscape:pageshadow="2"
     inkscape:zoom="2.9880278"
     inkscape:cx="78.835443"
     inkscape:cy="131.29524"
     inkscape:document-units="px"
     inkscape:current-layer="layer1"
     showgrid="false"
     units="cm"
     inkscape:window-width="1883"
     inkscape:window-height="1058"
     inkscape:window-x="37"
     inkscape:window-y="0"
     inkscape:window-maximized="1" />
  <metadata
     id="metadata7">
    <rdf:RDF>
      <cc:Work
         rdf:about="">
        <dc:format>image/svg+xml</dc:format>
        <dc:type
           rdf:resource="http://purl.org/dc/dcmitype/StillImage" />
        <dc:title></dc:title>
      </cc:Work>
    </rdf:RDF>
  </metadata>
  <g
     inkscape:label="cutter"
     inkscape:groupmode="layer"
     id="layer1"
     transform="translate(0,-768.89632)"
     style="display:inline">
    <path
       inkscape:connector-curvature="0"
       id="path3125"
       style="font-size:280px;font-style:normal;font-variant:normal;font-weight:900;font-stretch:normal;text-align:start;line-height:125%;letter-spacing:0px;word-spacing:0px;writing-mode:lr-tb;text-anchor:start;fill:#000000;fill-opacity:0.13564669;stroke:#000000;stroke-width:0.60000002;stroke-miterlimit:4;stroke-opacity:1;font-family:HelveticaRounded-Black;-inkscape-font-specification:HelveticaRounded-Black Heavy"
       d="m 172.30411,943.49131 c -2.24016,7.84006 -6.34682,13.81339 -12.32,17.92 -5.78681,4.10671 -13.53347,6.16004 -23.24,6.16 -15.30678,4e-5 -26.13343,-4.66662 -32.48,-14 -6.160086,-9.51993 -9.240083,-23.42658 -9.240004,-41.72 -7.9e-5,-19.03988 3.639917,-33.1332 10.920004,-42.28 7.2799,-9.33318 16.70656,-13.99984 28.28,-14 6.71987,1.6e-4 12.1332,1.21349 16.24,3.64 4.10652,2.42682 8.39985,6.06681 12.88,10.92 3.73318,3.92014 6.99984,6.81347 9.8,8.68 2.79984,1.8668 6.3465,2.80013 10.64,2.8 9.51982,1.3e-4 16.98648,-2.8932 22.4,-8.68 5.5998,-5.97319 8.3998,-12.50651 8.4,-19.6 -2e-4,-4.47984 -1.4002,-9.4265 -4.2,-14.84 -2.8002,-5.41315 -7.37352,-10.63982 -13.72,-15.68 -6.16018,-5.03981 -14.6535,-9.2398 -25.48,-12.6 -10.82681,-3.35979 -23.89347,-5.03979 -39.2,-5.04 -11.94677,2.1e-4 -23.89343,2.05354 -35.840004,6.16 -11.760068,3.9202 -22.680057,10.17352 -32.76,18.76 -9.893371,8.40017 -17.826696,19.4135 -23.8,33.04 -5.973351,13.6268 -8.960015,29.49345 -8.96,47.6 -1.5e-5,19.41342 2.799983,36.02673 8.4,49.84 5.786638,13.62671 13.439964,24.54669 22.96,32.76 9.519945,8.02669 19.973267,13.90669 31.36,17.63999 11.573244,3.5467 23.426564,5.32 35.560004,5.32 11.75987,0 23.05319,-2.24 33.88,-6.72 11.01317,-4.6666 18.9465,-10.91998 23.8,-18.75999 l 0.56,0 0,5.6 c -1.8e-4,5.59999 1.95982,10.35999 5.88,14.27999 3.91982,3.7333 9.05314,5.6 15.4,5.6 8.21313,0 13.99979,-2.52 17.36,-7.56 3.35978,-5.04 5.03978,-11.38664 5.04,-19.03999 l 0,-57.68 c -2.2e-4,-8.77324 -2.70688,-16.05324 -8.12,-21.84 -5.41354,-5.78656 -12.78686,-8.67989 -22.12,-8.68 l -41.44,0 c -6.90681,1.1e-4 -12.2268,1.96011 -15.96,5.88 -3.73346,3.9201 -5.60013,9.33343 -5.6,16.24 -1.3e-4,5.78675 1.86654,10.54675 5.6,14.28 3.91986,3.7334 8.39986,5.60007 13.44,5.6 l 15.68,0" />
    <path
       style="fill:none;stroke:#ff5206;stroke-width:0.5;stroke-linecap:butt;stroke-linejoin:miter;stroke-miterlimit:4;stroke-opacity:0.51757184;stroke-dasharray:none;display:inline"
       d="m 127.17419,891.05047 0,37.81759"
       id="path3759-0"
       inkscape:connector-curvature="0" />
    <path
       style="fill:none;stroke:#ff5206;stroke-width:0.5;stroke-linecap:butt;stroke-linejoin:miter;stroke-miterlimit:4;stroke-opacity:0.51757184;stroke-dasharray:none;display:inline"
       d="m 106.42471,910.12661 40.49494,0"
       id="path3761-4"
       inkscape:connector-curvature="0" />
  </g>
  <g
     inkscape:groupmode="layer"
     id="layer2"
     inkscape:label="outer"
     style="display:inline">
    <path
       inkscape:connector-curvature="0"
       id="path3121"
       style="font-size:280px;font-style:normal;font-variant:normal;font-weight:900;font-stretch:normal;text-align:start;line-height:125%;letter-spacing:0px;word-spacing:0px;writing-mode:lr-tb;text-anchor:start;fill:#000000;fill-opacity:0.13564669;stroke:#2000fe;stroke-width:2.5;stroke-miterlimit:4;stroke-opacity:0.15654949;font-family:HelveticaRounded-Black;-inkscape-font-specification:HelveticaRounded-Black Heavy"
       d="m 172.30411,174.59499 c -2.24016,7.84006 -6.34682,13.81339 -12.32,17.92 -5.78681,4.10672 -13.53347,6.16005 -23.24,6.16 -15.30678,5e-5 -26.13343,-4.66661 -32.48,-14 -6.160086,-9.51993 -9.240083,-23.42658 -9.240004,-41.72 -7.9e-5,-19.03988 3.639917,-33.1332 10.920004,-42.28 7.2799,-9.333178 16.70656,-13.99984 28.28,-13.999995 6.71987,1.55e-4 12.1332,1.213488 16.24,3.64 4.10652,2.426816 8.39985,6.066812 12.88,10.919995 3.73318,3.92014 6.99984,6.81347 9.8,8.68 2.79984,1.8668 6.3465,2.80013 10.64,2.8 9.51982,1.3e-4 16.98648,-2.8932 22.4,-8.68 5.5998,-5.973184 8.3998,-12.506511 8.4,-19.599995 -2e-4,-4.479838 -1.4002,-9.4265 -4.2,-14.84 -2.8002,-5.413155 -7.37352,-10.639817 -13.72,-15.68 -6.16018,-5.039807 -14.6535,-9.239803 -25.48,-12.6 -10.82681,-3.359796 -23.89347,-5.039794 -39.2,-5.04 -11.94677,2.06e-4 -23.89343,2.053537 -35.840004,6.16 -11.760068,3.920196 -22.680057,10.173523 -32.76,18.76 -9.893371,8.400173 -17.826696,19.413495 -23.8,33.04 -5.973351,13.626805 -8.960015,29.493455 -8.96,47.599995 -1.5e-5,19.41342 2.799983,36.02674 8.4,49.84 5.786638,13.62671 13.439964,24.5467 22.96,32.76 9.519945,8.02668 19.973267,13.90668 31.36,17.64 11.573244,3.54667 23.426564,5.32 35.560004,5.32 11.75987,0 23.05319,-2.24 33.88,-6.72 11.01317,-4.66666 18.9465,-10.91998 23.8,-18.76 l 0.56,0 0,5.6 c -1.8e-4,5.60001 1.95982,10.36001 5.88,14.28 3.91982,3.73333 9.05314,5.6 15.4,5.6 8.21313,0 13.99979,-2.52 17.36,-7.56 3.35978,-5.03999 5.03978,-11.38665 5.04,-19.04 l 0,-57.68 c -2.2e-4,-8.77324 -2.70688,-16.05323 -8.12,-21.84 -5.41354,-5.78656 -12.78686,-8.67989 -22.12,-8.68 l -41.44,0 c -6.90681,1.1e-4 -12.2268,1.96011 -15.96,5.88 -3.73346,3.9201 -5.60013,9.33343 -5.6,16.24 -1.3e-4,5.78675 1.86654,10.54675 5.6,14.28 3.91986,3.73341 8.39986,5.60007 13.44,5.6 l 15.68,0" />
    <path
       style="fill:none;stroke:#ff5206;stroke-width:0.5;stroke-linecap:butt;stroke-linejoin:miter;stroke-miterlimit:4;stroke-opacity:0.51757184;stroke-dasharray:none;display:inline"
       d="m 127.17419,122.15415 0,37.81759"
       id="path3759-1"
       inkscape:connector-curvature="0" />
    <path
       style="fill:none;stroke:#ff5206;stroke-width:0.5;stroke-linecap:butt;stroke-linejoin:miter;stroke-miterlimit:4;stroke-opacity:0.51757184;stroke-dasharray:none;display:inline"
       d="m 106.42471,141.23029 40.49494,0"
       id="path3761-1"
       inkscape:connector-curvature="0" />
  </g>
  <g
     inkscape:groupmode="layer"
     id="layer3"
     inkscape:label="join"
     style="display:inline">
    <path
       style="fill:none;stroke:#ff5206;stroke-width:0.5;stroke-linecap:butt;stroke-linejoin:miter;stroke-miterlimit:4;stroke-opacity:0.51757184;stroke-dasharray:none"
       d="m 127.17419,122.15415 0,37.81759"
       id="path3759"
       inkscape:connector-curvature="0" />
    <path
       style="fill:none;stroke:#ff5206;stroke-width:0.5;stroke-linecap:butt;stroke-linejoin:miter;stroke-miterlimit:4;stroke-opacity:0.51757184;stroke-dasharray:none"
       d="m 106.42471,141.23029 40.49494,0"
       id="path3761"
       inkscape:connector-curvature="0" />
  </g>
</svg>
