<?xml version="1.0" encoding="UTF-8" standalone="no"?>
<!-- Created with Inkscape (http://www.inkscape.org/) -->

<svg
   xmlns:dc="http://purl.org/dc/elements/1.1/"
   xmlns:cc="http://creativecommons.org/ns#"
   xmlns:rdf="http://www.w3.org/1999/02/22-rdf-syntax-ns#"
   xmlns:svg="http://www.w3.org/2000/svg"
   xmlns="http://www.w3.org/2000/svg"
   xmlns:sodipodi="http://sodipodi.sourceforge.net/DTD/sodipodi-0.dtd"
   xmlns:inkscape="http://www.inkscape.org/namespaces/inkscape"
   width="248.03149"
   height="283.46457"
   id="svg2"
   version="1.1"
   inkscape:version="0.48.3.1 r9886"
   sodipodi:docname="H.svg">
  <defs
     id="defs4" />
  <sodipodi:namedview
     id="base"
     pagecolor="#ffffff"
     bordercolor="#666666"
     borderopacity="1.0"
     inkscape:pageopacity="0.0"
     inkscape:pageshadow="2"
     inkscape:zoom="2.1128547"
     inkscape:cx="-3.4294757"
     inkscape:cy="133.08105"
     inkscape:document-units="px"
     inkscape:current-layer="layer1"
     showgrid="false"
     units="cm"
     inkscape:window-width="1883"
     inkscape:window-height="1058"
     inkscape:window-x="37"
     inkscape:window-y="0"
     inkscape:window-maximized="1" />
  <metadata
     id="metadata7">
    <rdf:RDF>
      <cc:Work
         rdf:about="">
        <dc:format>image/svg+xml</dc:format>
        <dc:type
           rdf:resource="http://purl.org/dc/dcmitype/StillImage" />
        <dc:title></dc:title>
      </cc:Work>
    </rdf:RDF>
  </metadata>
  <g
     inkscape:label="cutter"
     inkscape:groupmode="layer"
     id="layer1"
     transform="translate(0,-768.89632)"
     style="display:inline">
    <path
       inkscape:connector-curvature="0"
       id="path3018"
       style="font-size:280px;font-style:normal;font-variant:normal;font-weight:900;font-stretch:normal;text-align:start;line-height:125%;letter-spacing:0px;word-spacing:0px;writing-mode:lr-tb;text-anchor:start;fill:#000000;fill-opacity:0.13564669;stroke:#000000;stroke-width:0.60000002;stroke-miterlimit:4;stroke-opacity:1;font-family:HelveticaRounded-Black;-inkscape-font-specification:HelveticaRounded-Black Heavy"
       d="m 158.18411,883.09131 -63.000004,0 0,-38.08 c -8.5e-5,-10.82648 -2.893416,-19.31981 -8.68,-25.48 -5.786737,-6.1598 -13.626729,-9.23979 -23.52,-9.24 -9.893376,2.1e-4 -17.733369,3.0802 -23.52,9.24 -5.78669,6.16019 -8.680021,14.65352 -8.68,25.48 l 0,139.44 c -2.1e-5,10.82669 2.89331,19.31999 8.68,25.47999 5.786631,6.16 13.626624,9.24 23.52,9.24 9.893271,0 17.733263,-3.08 23.52,-9.24 5.786584,-6.16 8.679915,-14.6533 8.68,-25.47999 l 0,-47.04 63.000004,0 0,47.04 c -1.5e-4,10.82669 2.89318,19.31999 8.68,25.47999 5.7865,6.16 13.62649,9.24 23.52,9.24 9.89314,0 17.73313,-3.08 23.52,-9.24 5.78645,-6.16 8.67978,-14.6533 8.68,-25.47999 l 0,-139.44 c -2.2e-4,-10.82648 -2.89355,-19.31981 -8.68,-25.48 -5.78687,-6.1598 -13.62686,-9.23979 -23.52,-9.24 -9.89351,2.1e-4 -17.7335,3.0802 -23.52,9.24 -5.78682,6.16019 -8.68015,14.65352 -8.68,25.48 l 0,38.08" />
    <path
       style="fill:none;stroke:#ff5206;stroke-width:0.5;stroke-linecap:butt;stroke-linejoin:miter;stroke-miterlimit:4;stroke-opacity:0.51757184;stroke-dasharray:none;display:inline"
       d="m 127.17419,891.05047 0,37.81759"
       id="path3759-0"
       inkscape:connector-curvature="0" />
    <path
       style="fill:none;stroke:#ff5206;stroke-width:0.5;stroke-linecap:butt;stroke-linejoin:miter;stroke-miterlimit:4;stroke-opacity:0.51757184;stroke-dasharray:none;display:inline"
       d="m 106.42471,910.12661 40.49494,0"
       id="path3761-4"
       inkscape:connector-curvature="0" />
  </g>
  <g
     inkscape:groupmode="layer"
     id="layer2"
     inkscape:label="outer"
     style="display:inline">
    <path
       inkscape:connector-curvature="0"
       id="path3014"
       style="font-size:280px;font-style:normal;font-variant:normal;font-weight:900;font-stretch:normal;text-align:start;line-height:125%;letter-spacing:0px;word-spacing:0px;writing-mode:lr-tb;text-anchor:start;fill:#000000;fill-opacity:0.13564669;stroke:#2000fe;stroke-width:2.5;stroke-miterlimit:4;stroke-opacity:0.15654949;font-family:HelveticaRounded-Black;-inkscape-font-specification:HelveticaRounded-Black Heavy"
       d="m 158.18411,114.19499 -63.000004,0 0,-38.079995 c -8.5e-5,-10.826486 -2.893416,-19.319811 -8.68,-25.48 -5.786737,-6.159798 -13.626729,-9.239795 -23.52,-9.24 -9.893376,2.05e-4 -17.733369,3.080202 -23.52,9.24 -5.78669,6.160189 -8.680021,14.653514 -8.68,25.48 l 0,139.439995 c -2.1e-5,10.82669 2.89331,19.32002 8.68,25.48 5.786631,6.16 13.626624,9.24 23.52,9.24 9.893271,0 17.733263,-3.08 23.52,-9.24 5.786584,-6.15998 8.679915,-14.65331 8.68,-25.48 l 0,-47.04 63.000004,0 0,47.04 c -1.5e-4,10.82669 2.89318,19.32002 8.68,25.48 5.7865,6.16 13.62649,9.24 23.52,9.24 9.89314,0 17.73313,-3.08 23.52,-9.24 5.78645,-6.15998 8.67978,-14.65331 8.68,-25.48 l 0,-139.439995 c -2.2e-4,-10.826486 -2.89355,-19.319811 -8.68,-25.48 -5.78687,-6.159798 -13.62686,-9.239795 -23.52,-9.24 -9.89351,2.05e-4 -17.7335,3.080202 -23.52,9.24 -5.78682,6.160189 -8.68015,14.653514 -8.68,25.48 l 0,38.079995" />
    <path
       style="fill:none;stroke:#ff5206;stroke-width:0.5;stroke-linecap:butt;stroke-linejoin:miter;stroke-miterlimit:4;stroke-opacity:0.51757184;stroke-dasharray:none;display:inline"
       d="m 127.17419,122.15415 0,37.81759"
       id="path3759-1"
       inkscape:connector-curvature="0" />
    <path
       style="fill:none;stroke:#ff5206;stroke-width:0.5;stroke-linecap:butt;stroke-linejoin:miter;stroke-miterlimit:4;stroke-opacity:0.51757184;stroke-dasharray:none;display:inline"
       d="m 106.42471,141.23029 40.49494,0"
       id="path3761-1"
       inkscape:connector-curvature="0" />
  </g>
  <g
     inkscape:groupmode="layer"
     id="layer3"
     inkscape:label="join"
     style="display:inline">
    <path
       style="fill:none;stroke:#ff5206;stroke-width:0.5;stroke-linecap:butt;stroke-linejoin:miter;stroke-miterlimit:4;stroke-opacity:0.51757184;stroke-dasharray:none"
       d="m 127.17419,122.15415 0,37.81759"
       id="path3759"
       inkscape:connector-curvature="0" />
    <path
       style="fill:none;stroke:#ff5206;stroke-width:0.5;stroke-linecap:butt;stroke-linejoin:miter;stroke-miterlimit:4;stroke-opacity:0.51757184;stroke-dasharray:none"
       d="m 106.42471,141.23029 40.49494,0"
       id="path3761"
       inkscape:connector-curvature="0" />
  </g>
</svg>
