solid OpenSCAD_Model
  facet normal 1 0 0
    outer loop
      vertex 31.115 -19.848 0
      vertex 31.115 19.506 0
      vertex 31.115 19.506 1.51
    endloop
  endfacet
  facet normal 1 0 0
    outer loop
      vertex 31.115 -19.848 1.51
      vertex 31.115 -19.848 0
      vertex 31.115 19.506 1.51
    endloop
  endfacet
  facet normal 0 0 -1
    outer loop
      vertex 0.939 19.506 0
      vertex 1.093 21.674 0
      vertex 0.939 -19.848 0
    endloop
  endfacet
  facet normal 0 0 -1
    outer loop
      vertex 0.939 -19.848 0
      vertex 1.093 21.674 0
      vertex 1.552 23.595 0
    endloop
  endfacet
  facet normal 0 0 -1
    outer loop
      vertex 0.939 -19.848 0
      vertex 1.552 23.595 0
      vertex 2.317 25.269 0
    endloop
  endfacet
  facet normal 0 0 -1
    outer loop
      vertex 0.939 -19.848 0
      vertex 2.317 25.269 0
      vertex 5.317 30.4652 0
    endloop
  endfacet
  facet normal 0 0 -1
    outer loop
      vertex 0.939 -19.848 0
      vertex 5.317 30.4652 0
      vertex 6.389 31.8932 0
    endloop
  endfacet
  facet normal 0 0 -1
    outer loop
      vertex 0.939 -19.848 0
      vertex 6.389 31.8932 0
      vertex 7.723 33.0332 0
    endloop
  endfacet
  facet normal 0 0 -1
    outer loop
      vertex 7.552 23.595 0
      vertex 7.723 33.0332 0
      vertex 9.273 33.8482 0
    endloop
  endfacet
  facet normal 0 0 -1
    outer loop
      vertex 9.389 26.697 0
      vertex 9.273 33.8482 0
      vertex 11.042 34.3372 0
    endloop
  endfacet
  facet normal 0 0 -1
    outer loop
      vertex 10.723 27.837 0
      vertex 11.042 34.3372 0
      vertex 13.027 34.5002 0
    endloop
  endfacet
  facet normal 0 0 -1
    outer loop
      vertex 16.027 29.304 0
      vertex 13.027 34.5002 0
      vertex 19.027 34.5002 0
    endloop
  endfacet
  facet normal 0 0 -1
    outer loop
      vertex 18.012 29.141 0
      vertex 19.027 34.5002 0
      vertex 21.012 34.3372 0
    endloop
  endfacet
  facet normal 0 0 -1
    outer loop
      vertex 19.781 28.652 0
      vertex 21.012 34.3372 0
      vertex 22.781 33.8482 0
    endloop
  endfacet
  facet normal 0 0 -1
    outer loop
      vertex 21.331 27.837 0
      vertex 22.781 33.8482 0
      vertex 24.331 33.0332 0
    endloop
  endfacet
  facet normal 0 0 -1
    outer loop
      vertex 22.665 26.697 0
      vertex 24.331 33.0332 0
      vertex 25.665 31.8932 0
    endloop
  endfacet
  facet normal 0 0 -1
    outer loop
      vertex 23.737 25.269 0
      vertex 25.665 31.8932 0
      vertex 26.737 30.4652 0
    endloop
  endfacet
  facet normal 0 0 -1
    outer loop
      vertex 25.115 19.506 0
      vertex 26.737 30.4652 0
      vertex 29.737 25.269 0
    endloop
  endfacet
  facet normal 0 0 -1
    outer loop
      vertex 25.115 -19.847 0
      vertex 31.115 -19.848 0
      vertex 30.961 -22.016 0
    endloop
  endfacet
  facet normal 0 0 -1
    outer loop
      vertex 25.115 -19.847 0
      vertex 31.115 19.506 0
      vertex 31.115 -19.848 0
    endloop
  endfacet
  facet normal 0 0 -1
    outer loop
      vertex 24.961 -22.015 0
      vertex 30.961 -22.016 0
      vertex 30.502 -23.937 0
    endloop
  endfacet
  facet normal 0 0 -1
    outer loop
      vertex 24.502 -23.937 0
      vertex 30.502 -23.937 0
      vertex 29.737 -25.611 0
    endloop
  endfacet
  facet normal 0 0 -1
    outer loop
      vertex 21.331 -28.179 0
      vertex 29.737 -25.611 0
      vertex 26.737 -30.8072 0
    endloop
  endfacet
  facet normal 0 0 -1
    outer loop
      vertex 19.781 -28.994 0
      vertex 26.737 -30.8072 0
      vertex 25.665 -32.2352 0
    endloop
  endfacet
  facet normal 0 0 -1
    outer loop
      vertex 18.012 -29.483 0
      vertex 25.665 -32.2352 0
      vertex 24.331 -33.3752 0
    endloop
  endfacet
  facet normal 0 0 -1
    outer loop
      vertex 14.042 -29.483 0
      vertex 22.781 -34.1902 0
      vertex 21.012 -34.6792 0
    endloop
  endfacet
  facet normal 0 0 -1
    outer loop
      vertex 12.273 -28.994 0
      vertex 21.012 -34.6792 0
      vertex 19.027 -34.8422 0
    endloop
  endfacet
  facet normal 0 0 -1
    outer loop
      vertex 10.723 -28.179 0
      vertex 19.027 -34.8422 0
      vertex 13.027 -34.8422 0
    endloop
  endfacet
  facet normal 0 0 -1
    outer loop
      vertex 0.939 -19.848 0
      vertex 13.027 -34.8422 0
      vertex 11.042 -34.6792 0
    endloop
  endfacet
  facet normal 0 0 -1
    outer loop
      vertex 0.939 -19.848 0
      vertex 11.042 -34.6792 0
      vertex 9.273 -34.1902 0
    endloop
  endfacet
  facet normal 0 0 -1
    outer loop
      vertex 0.939 -19.848 0
      vertex 9.273 -34.1902 0
      vertex 7.723 -33.3752 0
    endloop
  endfacet
  facet normal 0 0 -1
    outer loop
      vertex 0.939 -19.848 0
      vertex 7.723 -33.3752 0
      vertex 6.389 -32.2352 0
    endloop
  endfacet
  facet normal 0 0 -1
    outer loop
      vertex 0.939 -19.848 0
      vertex 6.389 -32.2352 0
      vertex 5.317 -30.8072 0
    endloop
  endfacet
  facet normal 0 0 -1
    outer loop
      vertex 0.939 -19.848 0
      vertex 5.317 -30.8072 0
      vertex 2.317 -25.611 0
    endloop
  endfacet
  facet normal 0 0 -1
    outer loop
      vertex 0.939 -19.848 0
      vertex 2.317 -25.611 0
      vertex 1.552 -23.937 0
    endloop
  endfacet
  facet normal 0 0 -1
    outer loop
      vertex 0.939 -19.848 0
      vertex 1.552 -23.937 0
      vertex 1.093 -22.016 0
    endloop
  endfacet
  facet normal 0 0 -1
    outer loop
      vertex 7.093 -22.015 0
      vertex 0.939 -19.848 0
      vertex 6.939 -19.847 0
    endloop
  endfacet
  facet normal 0 0 -1
    outer loop
      vertex 7.552 -23.937 0
      vertex 0.939 -19.848 0
      vertex 7.093 -22.015 0
    endloop
  endfacet
  facet normal 0 0 -1
    outer loop
      vertex 8.317 -25.611 0
      vertex 0.939 -19.848 0
      vertex 7.552 -23.937 0
    endloop
  endfacet
  facet normal 0 0 -1
    outer loop
      vertex 9.389 -27.038 0
      vertex 0.939 -19.848 0
      vertex 8.317 -25.611 0
    endloop
  endfacet
  facet normal 0 0 -1
    outer loop
      vertex 12.273 -28.994 0
      vertex 19.027 -34.8422 0
      vertex 10.723 -28.179 0
    endloop
  endfacet
  facet normal 0 0 -1
    outer loop
      vertex 0.939 -19.848 0
      vertex 9.389 -27.038 0
      vertex 13.027 -34.8422 0
    endloop
  endfacet
  facet normal 0 0 -1
    outer loop
      vertex 9.389 -27.038 0
      vertex 10.723 -28.179 0
      vertex 13.027 -34.8422 0
    endloop
  endfacet
  facet normal 0 0 -1
    outer loop
      vertex 18.012 -29.483 0
      vertex 22.781 -34.1902 0
      vertex 16.027 -29.646 0
    endloop
  endfacet
  facet normal 0 0 -1
    outer loop
      vertex 14.042 -29.483 0
      vertex 21.012 -34.6792 0
      vertex 12.273 -28.994 0
    endloop
  endfacet
  facet normal 0 0 -1
    outer loop
      vertex 16.027 -29.646 0
      vertex 22.781 -34.1902 0
      vertex 14.042 -29.483 0
    endloop
  endfacet
  facet normal 0 0 -1
    outer loop
      vertex 18.012 -29.483 0
      vertex 24.331 -33.3752 0
      vertex 22.781 -34.1902 0
    endloop
  endfacet
  facet normal 0 0 -1
    outer loop
      vertex 22.665 -27.038 0
      vertex 29.737 -25.611 0
      vertex 21.331 -28.179 0
    endloop
  endfacet
  facet normal 0 0 -1
    outer loop
      vertex 24.502 -23.937 0
      vertex 29.737 -25.611 0
      vertex 23.737 -25.611 0
    endloop
  endfacet
  facet normal 0 0 -1
    outer loop
      vertex 23.737 -25.611 0
      vertex 29.737 -25.611 0
      vertex 22.665 -27.038 0
    endloop
  endfacet
  facet normal 0 0 -1
    outer loop
      vertex 21.331 -28.179 0
      vertex 26.737 -30.8072 0
      vertex 19.781 -28.994 0
    endloop
  endfacet
  facet normal 0 0 -1
    outer loop
      vertex 19.781 -28.994 0
      vertex 25.665 -32.2352 0
      vertex 18.012 -29.483 0
    endloop
  endfacet
  facet normal 0 0 -1
    outer loop
      vertex 25.115 19.506 0
      vertex 31.115 19.506 0
      vertex 25.115 -19.847 0
    endloop
  endfacet
  facet normal 0 0 -1
    outer loop
      vertex 24.961 21.674 0
      vertex 26.737 30.4652 0
      vertex 25.115 19.506 0
    endloop
  endfacet
  facet normal 0 0 -1
    outer loop
      vertex 25.115 -19.847 0
      vertex 30.961 -22.016 0
      vertex 24.961 -22.015 0
    endloop
  endfacet
  facet normal 0 0 -1
    outer loop
      vertex 24.502 23.595 0
      vertex 26.737 30.4652 0
      vertex 24.961 21.674 0
    endloop
  endfacet
  facet normal 0 0 -1
    outer loop
      vertex 24.961 -22.015 0
      vertex 30.502 -23.937 0
      vertex 24.502 -23.937 0
    endloop
  endfacet
  facet normal 0 0 -1
    outer loop
      vertex 14.042 29.141 0
      vertex 13.027 34.5002 0
      vertex 16.027 29.304 0
    endloop
  endfacet
  facet normal 0 0 -1
    outer loop
      vertex 12.273 28.652 0
      vertex 13.027 34.5002 0
      vertex 14.042 29.141 0
    endloop
  endfacet
  facet normal 0 0 -1
    outer loop
      vertex 8.317 25.269 0
      vertex 9.273 33.8482 0
      vertex 9.389 26.697 0
    endloop
  endfacet
  facet normal 0 0 -1
    outer loop
      vertex 7.093 21.674 0
      vertex 7.723 33.0332 0
      vertex 7.552 23.595 0
    endloop
  endfacet
  facet normal 0 0 -1
    outer loop
      vertex 6.939 19.506 0
      vertex 0.939 -19.848 0
      vertex 7.093 21.674 0
    endloop
  endfacet
  facet normal 0 0 -1
    outer loop
      vertex 0.939 -19.848 0
      vertex 7.723 33.0332 0
      vertex 7.093 21.674 0
    endloop
  endfacet
  facet normal 0 0 -1
    outer loop
      vertex 6.939 -19.847 0
      vertex 0.939 -19.848 0
      vertex 6.939 19.506 0
    endloop
  endfacet
  facet normal 0 0 -1
    outer loop
      vertex 9.389 26.697 0
      vertex 11.042 34.3372 0
      vertex 10.723 27.837 0
    endloop
  endfacet
  facet normal 0 0 -1
    outer loop
      vertex 10.723 27.837 0
      vertex 13.027 34.5002 0
      vertex 12.273 28.652 0
    endloop
  endfacet
  facet normal 0 0 -1
    outer loop
      vertex 16.027 29.304 0
      vertex 19.027 34.5002 0
      vertex 18.012 29.141 0
    endloop
  endfacet
  facet normal 0 0 -1
    outer loop
      vertex 18.012 29.141 0
      vertex 21.012 34.3372 0
      vertex 19.781 28.652 0
    endloop
  endfacet
  facet normal 0 0 -1
    outer loop
      vertex 19.781 28.652 0
      vertex 22.781 33.8482 0
      vertex 21.331 27.837 0
    endloop
  endfacet
  facet normal 0 0 -1
    outer loop
      vertex 21.331 27.837 0
      vertex 24.331 33.0332 0
      vertex 22.665 26.697 0
    endloop
  endfacet
  facet normal 0 0 -1
    outer loop
      vertex 22.665 26.697 0
      vertex 25.665 31.8932 0
      vertex 23.737 25.269 0
    endloop
  endfacet
  facet normal 0 0 -1
    outer loop
      vertex 23.737 25.269 0
      vertex 26.737 30.4652 0
      vertex 24.502 23.595 0
    endloop
  endfacet
  facet normal 0 0 -1
    outer loop
      vertex 25.115 19.506 0
      vertex 29.737 25.269 0
      vertex 30.502 23.595 0
    endloop
  endfacet
  facet normal 0 0 -1
    outer loop
      vertex 25.115 19.506 0
      vertex 30.502 23.595 0
      vertex 30.961 21.674 0
    endloop
  endfacet
  facet normal 0 0 -1
    outer loop
      vertex 25.115 19.506 0
      vertex 30.961 21.674 0
      vertex 31.115 19.506 0
    endloop
  endfacet
  facet normal 0 0 -1
    outer loop
      vertex 7.552 23.595 0
      vertex 9.273 33.8482 0
      vertex 8.317 25.269 0
    endloop
  endfacet
  facet normal 0.997487 -0.0708547 0
    outer loop
      vertex 30.961 -22.016 0
      vertex 31.115 -19.848 0
      vertex 31.115 -19.848 1.51
    endloop
  endfacet
  facet normal 0.997487 -0.0708547 0
    outer loop
      vertex 30.961 -22.016 1.51
      vertex 30.961 -22.016 0
      vertex 31.115 -19.848 1.51
    endloop
  endfacet
  facet normal 0 0 1
    outer loop
      vertex 0.939 -19.848 1.51
      vertex 1.093 -22.016 1.51
      vertex 1.552 -23.937 1.51
    endloop
  endfacet
  facet normal 0 0 1
    outer loop
      vertex 5.317 -30.8072 1.51
      vertex 0.939 -19.848 1.51
      vertex 2.317 -25.611 1.51
    endloop
  endfacet
  facet normal 0 0 1
    outer loop
      vertex 2.317 -25.611 1.51
      vertex 0.939 -19.848 1.51
      vertex 1.552 -23.937 1.51
    endloop
  endfacet
  facet normal 0 0 1
    outer loop
      vertex 6.389 -32.2352 1.51
      vertex 0.939 -19.848 1.51
      vertex 5.317 -30.8072 1.51
    endloop
  endfacet
  facet normal 0 0 1
    outer loop
      vertex 7.723 -33.3752 1.51
      vertex 0.939 -19.848 1.51
      vertex 6.389 -32.2352 1.51
    endloop
  endfacet
  facet normal 0 0 1
    outer loop
      vertex 9.273 -34.1902 1.51
      vertex 0.939 -19.848 1.51
      vertex 7.723 -33.3752 1.51
    endloop
  endfacet
  facet normal 0 0 1
    outer loop
      vertex 11.042 -34.6792 1.51
      vertex 0.939 -19.848 1.51
      vertex 9.273 -34.1902 1.51
    endloop
  endfacet
  facet normal 0 0 1
    outer loop
      vertex 13.027 -34.8422 1.51
      vertex 0.939 -19.848 1.51
      vertex 11.042 -34.6792 1.51
    endloop
  endfacet
  facet normal 0 0 1
    outer loop
      vertex 8.889 -27.904 1.51
      vertex 0.939 -19.848 1.51
      vertex 13.027 -34.8422 1.51
    endloop
  endfacet
  facet normal 0 0 1
    outer loop
      vertex 8.889 -27.904 1.51
      vertex 7.817 -26.477 1.51
      vertex 0.939 -19.848 1.51
    endloop
  endfacet
  facet normal 0 0 1
    outer loop
      vertex 7.317 -25.611 1.51
      vertex 6.552 -23.937 1.51
      vertex 0.939 -19.848 1.51
    endloop
  endfacet
  facet normal 0 0 1
    outer loop
      vertex 15.527 -30.512 1.51
      vertex 19.027 -34.8422 1.51
      vertex 21.012 -34.6792 1.51
    endloop
  endfacet
  facet normal 0 0 1
    outer loop
      vertex 18.512 -30.349 1.51
      vertex 16.527 -30.512 1.51
      vertex 22.781 -34.1902 1.51
    endloop
  endfacet
  facet normal 0 0 1
    outer loop
      vertex 20.281 -29.86 1.51
      vertex 18.512 -30.349 1.51
      vertex 24.331 -33.3752 1.51
    endloop
  endfacet
  facet normal 0 0 1
    outer loop
      vertex 21.831 -29.045 1.51
      vertex 20.281 -29.86 1.51
      vertex 25.665 -32.2352 1.51
    endloop
  endfacet
  facet normal 0 0 1
    outer loop
      vertex 8.889 27.563 1.51
      vertex 10.223 28.704 1.51
      vertex 11.042 34.3372 1.51
    endloop
  endfacet
  facet normal 0 0 1
    outer loop
      vertex 7.817 26.136 1.51
      vertex 8.889 27.563 1.51
      vertex 9.273 33.8482 1.51
    endloop
  endfacet
  facet normal 0 0 1
    outer loop
      vertex 6.552 -23.937 1.51
      vertex 6.093 -22.015 1.51
      vertex 0.939 -19.848 1.51
    endloop
  endfacet
  facet normal 0 0 1
    outer loop
      vertex 5.317 30.4652 1.51
      vertex 0.939 -19.848 1.51
      vertex 6.389 31.8932 1.51
    endloop
  endfacet
  facet normal 0 0 1
    outer loop
      vertex 2.317 25.269 1.51
      vertex 0.939 -19.848 1.51
      vertex 5.317 30.4652 1.51
    endloop
  endfacet
  facet normal 0 0 1
    outer loop
      vertex 1.552 23.595 1.51
      vertex 0.939 -19.848 1.51
      vertex 2.317 25.269 1.51
    endloop
  endfacet
  facet normal 0 0 1
    outer loop
      vertex 1.093 21.674 1.51
      vertex 0.939 -19.848 1.51
      vertex 1.552 23.595 1.51
    endloop
  endfacet
  facet normal 0 0 1
    outer loop
      vertex 0.939 19.506 1.51
      vertex 0.939 -19.848 1.51
      vertex 1.093 21.674 1.51
    endloop
  endfacet
  facet normal 0 0 1
    outer loop
      vertex 23.165 -27.904 1.51
      vertex 21.831 -29.045 1.51
      vertex 26.737 -30.8072 1.51
    endloop
  endfacet
  facet normal 0 0 1
    outer loop
      vertex 6.389 31.8932 1.51
      vertex 0.939 -19.848 1.51
      vertex 5.939 19.506 1.51
    endloop
  endfacet
  facet normal 0 0 1
    outer loop
      vertex 6.389 31.8932 1.51
      vertex 6.093 21.674 1.51
      vertex 7.723 33.0332 1.51
    endloop
  endfacet
  facet normal 0 0 1
    outer loop
      vertex 6.389 31.8932 1.51
      vertex 5.939 19.506 1.51
      vertex 6.093 21.674 1.51
    endloop
  endfacet
  facet normal 0 0 1
    outer loop
      vertex 7.723 33.0332 1.51
      vertex 6.552 23.595 1.51
      vertex 9.273 33.8482 1.51
    endloop
  endfacet
  facet normal 0 0 1
    outer loop
      vertex 6.093 21.674 1.51
      vertex 6.552 23.595 1.51
      vertex 7.723 33.0332 1.51
    endloop
  endfacet
  facet normal 0 0 1
    outer loop
      vertex 6.552 23.595 1.51
      vertex 7.317 25.27 1.51
      vertex 9.273 33.8482 1.51
    endloop
  endfacet
  facet normal 0 0 1
    outer loop
      vertex 26.115 19.506 1.51
      vertex 26.115 -19.847 1.51
      vertex 31.115 19.506 1.51
    endloop
  endfacet
  facet normal 0 0 1
    outer loop
      vertex 7.317 25.27 1.51
      vertex 7.817 26.136 1.51
      vertex 9.273 33.8482 1.51
    endloop
  endfacet
  facet normal 0 0 1
    outer loop
      vertex 9.273 33.8482 1.51
      vertex 8.889 27.563 1.51
      vertex 11.042 34.3372 1.51
    endloop
  endfacet
  facet normal 0 0 1
    outer loop
      vertex 11.042 34.3372 1.51
      vertex 10.223 28.704 1.51
      vertex 13.027 34.5002 1.51
    endloop
  endfacet
  facet normal 0 0 1
    outer loop
      vertex 10.223 28.704 1.51
      vertex 11.773 29.519 1.51
      vertex 13.027 34.5002 1.51
    endloop
  endfacet
  facet normal 0 0 1
    outer loop
      vertex 13.027 34.5002 1.51
      vertex 13.542 30.008 1.51
      vertex 19.027 34.5002 1.51
    endloop
  endfacet
  facet normal 0 0 1
    outer loop
      vertex 13.542 30.008 1.51
      vertex 15.527 30.171 1.51
      vertex 19.027 34.5002 1.51
    endloop
  endfacet
  facet normal 0 0 1
    outer loop
      vertex 15.527 30.171 1.51
      vertex 16.527 30.171 1.51
      vertex 19.027 34.5002 1.51
    endloop
  endfacet
  facet normal 0 0 1
    outer loop
      vertex 19.027 34.5002 1.51
      vertex 18.512 30.008 1.51
      vertex 21.012 34.3372 1.51
    endloop
  endfacet
  facet normal 0 0 1
    outer loop
      vertex 21.012 34.3372 1.51
      vertex 20.281 29.519 1.51
      vertex 22.781 33.8482 1.51
    endloop
  endfacet
  facet normal 0 0 1
    outer loop
      vertex 22.781 33.8482 1.51
      vertex 21.831 28.704 1.51
      vertex 24.331 33.0332 1.51
    endloop
  endfacet
  facet normal 0 0 1
    outer loop
      vertex 24.331 33.0332 1.51
      vertex 23.165 27.563 1.51
      vertex 25.665 31.8932 1.51
    endloop
  endfacet
  facet normal 0 0 1
    outer loop
      vertex 25.665 31.8932 1.51
      vertex 24.237 26.136 1.51
      vertex 26.737 30.4652 1.51
    endloop
  endfacet
  facet normal 0 0 1
    outer loop
      vertex 26.737 30.4652 1.51
      vertex 24.737 25.27 1.51
      vertex 29.737 25.269 1.51
    endloop
  endfacet
  facet normal 0 0 1
    outer loop
      vertex 24.737 25.27 1.51
      vertex 25.502 23.595 1.51
      vertex 29.737 25.269 1.51
    endloop
  endfacet
  facet normal 0 0 1
    outer loop
      vertex 25.502 23.595 1.51
      vertex 25.961 21.674 1.51
      vertex 29.737 25.269 1.51
    endloop
  endfacet
  facet normal 0 0 1
    outer loop
      vertex 29.737 25.269 1.51
      vertex 26.115 19.506 1.51
      vertex 30.502 23.595 1.51
    endloop
  endfacet
  facet normal 0 0 1
    outer loop
      vertex 31.115 19.506 1.51
      vertex 26.115 -19.847 1.51
      vertex 31.115 -19.848 1.51
    endloop
  endfacet
  facet normal 0 0 1
    outer loop
      vertex 30.961 -22.016 1.51
      vertex 25.961 -22.015 1.51
      vertex 30.502 -23.937 1.51
    endloop
  endfacet
  facet normal 0 0 1
    outer loop
      vertex 30.502 -23.937 1.51
      vertex 25.502 -23.937 1.51
      vertex 29.737 -25.611 1.51
    endloop
  endfacet
  facet normal 0 0 1
    outer loop
      vertex 29.737 -25.611 1.51
      vertex 24.737 -25.611 1.51
      vertex 26.737 -30.8072 1.51
    endloop
  endfacet
  facet normal 0 0 1
    outer loop
      vertex 24.737 -25.611 1.51
      vertex 24.237 -26.477 1.51
      vertex 26.737 -30.8072 1.51
    endloop
  endfacet
  facet normal 0 0 1
    outer loop
      vertex 24.237 -26.477 1.51
      vertex 23.165 -27.904 1.51
      vertex 26.737 -30.8072 1.51
    endloop
  endfacet
  facet normal 0 0 1
    outer loop
      vertex 11.773 29.519 1.51
      vertex 13.542 30.008 1.51
      vertex 13.027 34.5002 1.51
    endloop
  endfacet
  facet normal 0 0 1
    outer loop
      vertex 26.737 -30.8072 1.51
      vertex 21.831 -29.045 1.51
      vertex 25.665 -32.2352 1.51
    endloop
  endfacet
  facet normal 0 0 1
    outer loop
      vertex 25.665 -32.2352 1.51
      vertex 20.281 -29.86 1.51
      vertex 24.331 -33.3752 1.51
    endloop
  endfacet
  facet normal 0 0 1
    outer loop
      vertex 24.331 -33.3752 1.51
      vertex 18.512 -30.349 1.51
      vertex 22.781 -34.1902 1.51
    endloop
  endfacet
  facet normal 0 0 1
    outer loop
      vertex 22.781 -34.1902 1.51
      vertex 16.527 -30.512 1.51
      vertex 21.012 -34.6792 1.51
    endloop
  endfacet
  facet normal 0 0 1
    outer loop
      vertex 16.527 -30.512 1.51
      vertex 15.527 -30.512 1.51
      vertex 21.012 -34.6792 1.51
    endloop
  endfacet
  facet normal 0 0 1
    outer loop
      vertex 19.027 -34.8422 1.51
      vertex 13.542 -30.349 1.51
      vertex 13.027 -34.8422 1.51
    endloop
  endfacet
  facet normal 0 0 1
    outer loop
      vertex 13.542 -30.349 1.51
      vertex 11.773 -29.86 1.51
      vertex 13.027 -34.8422 1.51
    endloop
  endfacet
  facet normal 0 0 1
    outer loop
      vertex 11.773 -29.86 1.51
      vertex 10.223 -29.045 1.51
      vertex 13.027 -34.8422 1.51
    endloop
  endfacet
  facet normal 0 0 1
    outer loop
      vertex 10.223 -29.045 1.51
      vertex 8.889 -27.904 1.51
      vertex 13.027 -34.8422 1.51
    endloop
  endfacet
  facet normal 0 0 1
    outer loop
      vertex 7.817 -26.477 1.51
      vertex 7.317 -25.611 1.51
      vertex 0.939 -19.848 1.51
    endloop
  endfacet
  facet normal 0 0 1
    outer loop
      vertex 15.527 -30.512 1.51
      vertex 13.542 -30.349 1.51
      vertex 19.027 -34.8422 1.51
    endloop
  endfacet
  facet normal 0 0 1
    outer loop
      vertex 25.961 -22.015 1.51
      vertex 25.502 -23.937 1.51
      vertex 30.502 -23.937 1.51
    endloop
  endfacet
  facet normal 0 0 1
    outer loop
      vertex 25.502 -23.937 1.51
      vertex 24.737 -25.611 1.51
      vertex 29.737 -25.611 1.51
    endloop
  endfacet
  facet normal 0 0 1
    outer loop
      vertex 6.093 -22.015 1.51
      vertex 5.939 -19.847 1.51
      vertex 0.939 -19.848 1.51
    endloop
  endfacet
  facet normal 0 0 1
    outer loop
      vertex 16.527 30.171 1.51
      vertex 18.512 30.008 1.51
      vertex 19.027 34.5002 1.51
    endloop
  endfacet
  facet normal 0 0 1
    outer loop
      vertex 18.512 30.008 1.51
      vertex 20.281 29.519 1.51
      vertex 21.012 34.3372 1.51
    endloop
  endfacet
  facet normal 0 0 1
    outer loop
      vertex 20.281 29.519 1.51
      vertex 21.831 28.704 1.51
      vertex 22.781 33.8482 1.51
    endloop
  endfacet
  facet normal 0 0 1
    outer loop
      vertex 21.831 28.704 1.51
      vertex 23.165 27.563 1.51
      vertex 24.331 33.0332 1.51
    endloop
  endfacet
  facet normal 0 0 1
    outer loop
      vertex 23.165 27.563 1.51
      vertex 24.237 26.136 1.51
      vertex 25.665 31.8932 1.51
    endloop
  endfacet
  facet normal 0 0 1
    outer loop
      vertex 24.237 26.136 1.51
      vertex 24.737 25.27 1.51
      vertex 26.737 30.4652 1.51
    endloop
  endfacet
  facet normal 0 0 1
    outer loop
      vertex 25.961 21.674 1.51
      vertex 26.115 19.506 1.51
      vertex 29.737 25.269 1.51
    endloop
  endfacet
  facet normal 0 0 1
    outer loop
      vertex 26.115 19.506 1.51
      vertex 30.961 21.674 1.51
      vertex 30.502 23.595 1.51
    endloop
  endfacet
  facet normal 0 0 1
    outer loop
      vertex 26.115 19.506 1.51
      vertex 31.115 19.506 1.51
      vertex 30.961 21.674 1.51
    endloop
  endfacet
  facet normal 0 0 1
    outer loop
      vertex 26.115 -19.847 1.51
      vertex 25.961 -22.015 1.51
      vertex 30.961 -22.016 1.51
    endloop
  endfacet
  facet normal 0 0 1
    outer loop
      vertex 26.115 -19.847 1.51
      vertex 30.961 -22.016 1.51
      vertex 31.115 -19.848 1.51
    endloop
  endfacet
  facet normal 0 0 1
    outer loop
      vertex 5.939 -19.847 1.51
      vertex 5.939 19.506 1.51
      vertex 0.939 -19.848 1.51
    endloop
  endfacet
  facet normal 0.997487 0.0708547 0
    outer loop
      vertex 30.961 21.674 0
      vertex 30.961 21.674 1.51
      vertex 31.115 19.506 1.51
    endloop
  endfacet
  facet normal 0.997487 0.0708547 0
    outer loop
      vertex 31.115 19.506 0
      vertex 30.961 21.674 0
      vertex 31.115 19.506 1.51
    endloop
  endfacet
  facet normal -0.997487 -0.0708547 0
    outer loop
      vertex 1.093 -22.016 0
      vertex 1.093 -22.016 1.51
      vertex 0.939 -19.848 0
    endloop
  endfacet
  facet normal -0.997487 -0.0708547 0
    outer loop
      vertex 0.939 -19.848 0
      vertex 1.093 -22.016 1.51
      vertex 0.939 -19.848 1.51
    endloop
  endfacet
  facet normal -1 0 0
    outer loop
      vertex 0.939 -19.848 1.51
      vertex 0.939 19.506 1.51
      vertex 0.939 -19.848 0
    endloop
  endfacet
  facet normal -1 0 0
    outer loop
      vertex 0.939 -19.848 0
      vertex 0.939 19.506 1.51
      vertex 0.939 19.506 0
    endloop
  endfacet
  facet normal -0.972621 -0.232396 0
    outer loop
      vertex 1.552 -23.937 0
      vertex 1.552 -23.937 1.51
      vertex 1.093 -22.016 0
    endloop
  endfacet
  facet normal -0.972621 -0.232396 0
    outer loop
      vertex 1.093 -22.016 0
      vertex 1.552 -23.937 1.51
      vertex 1.093 -22.016 1.51
    endloop
  endfacet
  facet normal -0.909527 -0.415644 0
    outer loop
      vertex 2.317 -25.611 0
      vertex 2.317 -25.611 1.51
      vertex 1.552 -23.937 0
    endloop
  endfacet
  facet normal -0.909527 -0.415644 0
    outer loop
      vertex 1.552 -23.937 0
      vertex 2.317 -25.611 1.51
      vertex 1.552 -23.937 1.51
    endloop
  endfacet
  facet normal -0.866025 -0.5 0
    outer loop
      vertex 5.317 -30.8072 0
      vertex 5.317 -30.8072 1.51
      vertex 2.317 -25.611 0
    endloop
  endfacet
  facet normal -0.866025 -0.5 0
    outer loop
      vertex 2.317 -25.611 0
      vertex 5.317 -30.8072 1.51
      vertex 2.317 -25.611 1.51
    endloop
  endfacet
  facet normal -0.799731 -0.600358 0
    outer loop
      vertex 6.389 -32.2352 0
      vertex 6.389 -32.2352 1.51
      vertex 5.317 -30.8072 0
    endloop
  endfacet
  facet normal -0.799731 -0.600358 0
    outer loop
      vertex 5.317 -30.8072 0
      vertex 6.389 -32.2352 1.51
      vertex 5.317 -30.8072 1.51
    endloop
  endfacet
  facet normal -0.649664 -0.760221 0
    outer loop
      vertex 6.389 -32.2352 0
      vertex 7.723 -33.3752 0
      vertex 7.723 -33.3752 1.51
    endloop
  endfacet
  facet normal -0.649664 -0.760221 0
    outer loop
      vertex 6.389 -32.2352 1.51
      vertex 6.389 -32.2352 0
      vertex 7.723 -33.3752 1.51
    endloop
  endfacet
  facet normal -0.465393 -0.885104 0
    outer loop
      vertex 7.723 -33.3752 0
      vertex 9.273 -34.1902 0
      vertex 9.273 -34.1902 1.51
    endloop
  endfacet
  facet normal -0.465393 -0.885104 0
    outer loop
      vertex 7.723 -33.3752 1.51
      vertex 7.723 -33.3752 0
      vertex 9.273 -34.1902 1.51
    endloop
  endfacet
  facet normal -0.266435 -0.963853 0
    outer loop
      vertex 9.273 -34.1902 0
      vertex 11.042 -34.6792 0
      vertex 11.042 -34.6792 1.51
    endloop
  endfacet
  facet normal -0.266435 -0.963853 0
    outer loop
      vertex 9.273 -34.1902 1.51
      vertex 9.273 -34.1902 0
      vertex 11.042 -34.6792 1.51
    endloop
  endfacet
  facet normal -0.0818404 -0.996645 0
    outer loop
      vertex 11.042 -34.6792 0
      vertex 13.027 -34.8422 0
      vertex 13.027 -34.8422 1.51
    endloop
  endfacet
  facet normal -0.0818404 -0.996645 0
    outer loop
      vertex 11.042 -34.6792 1.51
      vertex 11.042 -34.6792 0
      vertex 13.027 -34.8422 1.51
    endloop
  endfacet
  facet normal 0 -1 0
    outer loop
      vertex 13.027 -34.8422 0
      vertex 19.027 -34.8422 0
      vertex 19.027 -34.8422 1.51
    endloop
  endfacet
  facet normal 0 -1 0
    outer loop
      vertex 13.027 -34.8422 1.51
      vertex 13.027 -34.8422 0
      vertex 19.027 -34.8422 1.51
    endloop
  endfacet
  facet normal 0.0818404 -0.996645 0
    outer loop
      vertex 19.027 -34.8422 0
      vertex 21.012 -34.6792 0
      vertex 21.012 -34.6792 1.51
    endloop
  endfacet
  facet normal 0.0818404 -0.996645 0
    outer loop
      vertex 19.027 -34.8422 1.51
      vertex 19.027 -34.8422 0
      vertex 21.012 -34.6792 1.51
    endloop
  endfacet
  facet normal 0.266435 -0.963853 0
    outer loop
      vertex 21.012 -34.6792 0
      vertex 22.781 -34.1902 0
      vertex 22.781 -34.1902 1.51
    endloop
  endfacet
  facet normal 0.266435 -0.963853 0
    outer loop
      vertex 21.012 -34.6792 1.51
      vertex 21.012 -34.6792 0
      vertex 22.781 -34.1902 1.51
    endloop
  endfacet
  facet normal 0.465393 -0.885104 0
    outer loop
      vertex 22.781 -34.1902 0
      vertex 24.331 -33.3752 0
      vertex 24.331 -33.3752 1.51
    endloop
  endfacet
  facet normal 0.465393 -0.885104 0
    outer loop
      vertex 22.781 -34.1902 1.51
      vertex 22.781 -34.1902 0
      vertex 24.331 -33.3752 1.51
    endloop
  endfacet
  facet normal 0.649664 -0.760221 0
    outer loop
      vertex 24.331 -33.3752 0
      vertex 25.665 -32.2352 0
      vertex 25.665 -32.2352 1.51
    endloop
  endfacet
  facet normal 0.649664 -0.760221 0
    outer loop
      vertex 24.331 -33.3752 1.51
      vertex 24.331 -33.3752 0
      vertex 25.665 -32.2352 1.51
    endloop
  endfacet
  facet normal 0.799731 -0.600358 0
    outer loop
      vertex 25.665 -32.2352 0
      vertex 26.737 -30.8072 0
      vertex 26.737 -30.8072 1.51
    endloop
  endfacet
  facet normal 0.799731 -0.600358 0
    outer loop
      vertex 25.665 -32.2352 1.51
      vertex 25.665 -32.2352 0
      vertex 26.737 -30.8072 1.51
    endloop
  endfacet
  facet normal 0.866025 -0.5 0
    outer loop
      vertex 26.737 -30.8072 0
      vertex 29.737 -25.611 0
      vertex 29.737 -25.611 1.51
    endloop
  endfacet
  facet normal 0.866025 -0.5 0
    outer loop
      vertex 26.737 -30.8072 1.51
      vertex 26.737 -30.8072 0
      vertex 29.737 -25.611 1.51
    endloop
  endfacet
  facet normal 0.909527 -0.415644 0
    outer loop
      vertex 29.737 -25.611 0
      vertex 30.502 -23.937 0
      vertex 30.502 -23.937 1.51
    endloop
  endfacet
  facet normal 0.909527 -0.415644 0
    outer loop
      vertex 29.737 -25.611 1.51
      vertex 29.737 -25.611 0
      vertex 30.502 -23.937 1.51
    endloop
  endfacet
  facet normal 0.972621 -0.232396 0
    outer loop
      vertex 30.502 -23.937 0
      vertex 30.961 -22.016 0
      vertex 30.961 -22.016 1.51
    endloop
  endfacet
  facet normal 0.972621 -0.232396 0
    outer loop
      vertex 30.502 -23.937 1.51
      vertex 30.502 -23.937 0
      vertex 30.961 -22.016 1.51
    endloop
  endfacet
  facet normal 0.972621 0.232396 0
    outer loop
      vertex 30.502 23.595 0
      vertex 30.502 23.595 1.51
      vertex 30.961 21.674 1.51
    endloop
  endfacet
  facet normal 0.972621 0.232396 0
    outer loop
      vertex 30.961 21.674 0
      vertex 30.502 23.595 0
      vertex 30.961 21.674 1.51
    endloop
  endfacet
  facet normal 0.909527 0.415644 0
    outer loop
      vertex 29.737 25.269 0
      vertex 29.737 25.269 1.51
      vertex 30.502 23.595 1.51
    endloop
  endfacet
  facet normal 0.909527 0.415644 0
    outer loop
      vertex 30.502 23.595 0
      vertex 29.737 25.269 0
      vertex 30.502 23.595 1.51
    endloop
  endfacet
  facet normal 0.866025 0.5 0
    outer loop
      vertex 26.737 30.4652 0
      vertex 26.737 30.4652 1.51
      vertex 29.737 25.269 1.51
    endloop
  endfacet
  facet normal 0.866025 0.5 0
    outer loop
      vertex 29.737 25.269 0
      vertex 26.737 30.4652 0
      vertex 29.737 25.269 1.51
    endloop
  endfacet
  facet normal 0.799731 0.600358 0
    outer loop
      vertex 25.665 31.8932 0
      vertex 25.665 31.8932 1.51
      vertex 26.737 30.4652 1.51
    endloop
  endfacet
  facet normal 0.799731 0.600358 0
    outer loop
      vertex 26.737 30.4652 0
      vertex 25.665 31.8932 0
      vertex 26.737 30.4652 1.51
    endloop
  endfacet
  facet normal 0.649664 0.760221 0
    outer loop
      vertex 24.331 33.0332 1.51
      vertex 25.665 31.8932 1.51
      vertex 24.331 33.0332 0
    endloop
  endfacet
  facet normal 0.649664 0.760221 0
    outer loop
      vertex 24.331 33.0332 0
      vertex 25.665 31.8932 1.51
      vertex 25.665 31.8932 0
    endloop
  endfacet
  facet normal 0.465393 0.885104 0
    outer loop
      vertex 22.781 33.8482 1.51
      vertex 24.331 33.0332 1.51
      vertex 22.781 33.8482 0
    endloop
  endfacet
  facet normal 0.465393 0.885104 0
    outer loop
      vertex 22.781 33.8482 0
      vertex 24.331 33.0332 1.51
      vertex 24.331 33.0332 0
    endloop
  endfacet
  facet normal 0.266435 0.963853 0
    outer loop
      vertex 21.012 34.3372 1.51
      vertex 22.781 33.8482 1.51
      vertex 21.012 34.3372 0
    endloop
  endfacet
  facet normal 0.266435 0.963853 0
    outer loop
      vertex 21.012 34.3372 0
      vertex 22.781 33.8482 1.51
      vertex 22.781 33.8482 0
    endloop
  endfacet
  facet normal 0.0818404 0.996645 0
    outer loop
      vertex 19.027 34.5002 1.51
      vertex 21.012 34.3372 1.51
      vertex 19.027 34.5002 0
    endloop
  endfacet
  facet normal 0.0818404 0.996645 0
    outer loop
      vertex 19.027 34.5002 0
      vertex 21.012 34.3372 1.51
      vertex 21.012 34.3372 0
    endloop
  endfacet
  facet normal 0 1 0
    outer loop
      vertex 13.027 34.5002 1.51
      vertex 19.027 34.5002 1.51
      vertex 13.027 34.5002 0
    endloop
  endfacet
  facet normal 0 1 0
    outer loop
      vertex 13.027 34.5002 0
      vertex 19.027 34.5002 1.51
      vertex 19.027 34.5002 0
    endloop
  endfacet
  facet normal -0.0818404 0.996645 0
    outer loop
      vertex 11.042 34.3372 1.51
      vertex 13.027 34.5002 1.51
      vertex 11.042 34.3372 0
    endloop
  endfacet
  facet normal -0.0818404 0.996645 0
    outer loop
      vertex 11.042 34.3372 0
      vertex 13.027 34.5002 1.51
      vertex 13.027 34.5002 0
    endloop
  endfacet
  facet normal -0.266435 0.963853 0
    outer loop
      vertex 9.273 33.8482 1.51
      vertex 11.042 34.3372 1.51
      vertex 9.273 33.8482 0
    endloop
  endfacet
  facet normal -0.266435 0.963853 0
    outer loop
      vertex 9.273 33.8482 0
      vertex 11.042 34.3372 1.51
      vertex 11.042 34.3372 0
    endloop
  endfacet
  facet normal -0.465393 0.885104 0
    outer loop
      vertex 7.723 33.0332 1.51
      vertex 9.273 33.8482 1.51
      vertex 7.723 33.0332 0
    endloop
  endfacet
  facet normal -0.465393 0.885104 0
    outer loop
      vertex 7.723 33.0332 0
      vertex 9.273 33.8482 1.51
      vertex 9.273 33.8482 0
    endloop
  endfacet
  facet normal -0.649664 0.760221 0
    outer loop
      vertex 6.389 31.8932 1.51
      vertex 7.723 33.0332 1.51
      vertex 6.389 31.8932 0
    endloop
  endfacet
  facet normal -0.649664 0.760221 0
    outer loop
      vertex 6.389 31.8932 0
      vertex 7.723 33.0332 1.51
      vertex 7.723 33.0332 0
    endloop
  endfacet
  facet normal -0.799731 0.600358 0
    outer loop
      vertex 5.317 30.4652 1.51
      vertex 6.389 31.8932 1.51
      vertex 5.317 30.4652 0
    endloop
  endfacet
  facet normal -0.799731 0.600358 0
    outer loop
      vertex 5.317 30.4652 0
      vertex 6.389 31.8932 1.51
      vertex 6.389 31.8932 0
    endloop
  endfacet
  facet normal -0.866025 0.5 0
    outer loop
      vertex 2.317 25.269 1.51
      vertex 5.317 30.4652 1.51
      vertex 2.317 25.269 0
    endloop
  endfacet
  facet normal -0.866025 0.5 0
    outer loop
      vertex 2.317 25.269 0
      vertex 5.317 30.4652 1.51
      vertex 5.317 30.4652 0
    endloop
  endfacet
  facet normal -0.909527 0.415644 0
    outer loop
      vertex 1.552 23.595 1.51
      vertex 2.317 25.269 1.51
      vertex 1.552 23.595 0
    endloop
  endfacet
  facet normal -0.909527 0.415644 0
    outer loop
      vertex 1.552 23.595 0
      vertex 2.317 25.269 1.51
      vertex 2.317 25.269 0
    endloop
  endfacet
  facet normal -0.972621 0.232396 0
    outer loop
      vertex 1.093 21.674 1.51
      vertex 1.552 23.595 1.51
      vertex 1.093 21.674 0
    endloop
  endfacet
  facet normal -0.972621 0.232396 0
    outer loop
      vertex 1.093 21.674 0
      vertex 1.552 23.595 1.51
      vertex 1.552 23.595 0
    endloop
  endfacet
  facet normal -0.997487 0.0708547 0
    outer loop
      vertex 0.939 19.506 1.51
      vertex 1.093 21.674 1.51
      vertex 0.939 19.506 0
    endloop
  endfacet
  facet normal -0.997487 0.0708547 0
    outer loop
      vertex 0.939 19.506 0
      vertex 1.093 21.674 1.51
      vertex 1.093 21.674 0
    endloop
  endfacet
  facet normal 0.997487 0.0708547 0
    outer loop
      vertex 6.939 -19.847 0
      vertex 6.939 -19.847 12.51
      vertex 7.093 -22.015 12.51
    endloop
  endfacet
  facet normal 0.997487 0.0708547 0
    outer loop
      vertex 7.093 -22.015 0
      vertex 6.939 -19.847 0
      vertex 7.093 -22.015 12.51
    endloop
  endfacet
  facet normal 1 0 0
    outer loop
      vertex 6.939 -19.847 0
      vertex 6.939 19.506 0
      vertex 6.939 19.506 1.51
    endloop
  endfacet
  facet normal 1 0 0
    outer loop
      vertex 6.939 19.506 12.51
      vertex 6.939 -19.847 0
      vertex 6.939 19.506 1.51
    endloop
  endfacet
  facet normal 1 0 0
    outer loop
      vertex 6.939 19.506 12.51
      vertex 6.939 -19.847 12.51
      vertex 6.939 -19.847 0
    endloop
  endfacet
  facet normal 0.997487 -0.0708547 0
    outer loop
      vertex 6.939 19.506 0
      vertex 7.093 21.674 0
      vertex 7.093 21.674 1.51
    endloop
  endfacet
  facet normal 0.997487 -0.0708547 0
    outer loop
      vertex 6.939 19.506 1.51
      vertex 6.939 19.506 0
      vertex 7.093 21.674 1.51
    endloop
  endfacet
  facet normal 0.972621 -0.232396 0
    outer loop
      vertex 7.093 21.674 0
      vertex 7.552 23.595 0
      vertex 7.552 23.595 1.51
    endloop
  endfacet
  facet normal 0.972621 -0.232396 0
    outer loop
      vertex 7.093 21.674 1.51
      vertex 7.093 21.674 0
      vertex 7.552 23.595 1.51
    endloop
  endfacet
  facet normal 0.909527 -0.415644 0
    outer loop
      vertex 7.552 23.595 0
      vertex 8.317 25.269 0
      vertex 8.317 25.269 1.51
    endloop
  endfacet
  facet normal 0.909527 -0.415644 0
    outer loop
      vertex 7.552 23.595 1.51
      vertex 7.552 23.595 0
      vertex 8.317 25.269 1.51
    endloop
  endfacet
  facet normal 0.799731 -0.600358 0
    outer loop
      vertex 8.317 25.269 0
      vertex 9.389 26.697 0
      vertex 9.389 26.697 1.51
    endloop
  endfacet
  facet normal 0.799731 -0.600358 0
    outer loop
      vertex 8.317 25.269 1.51
      vertex 8.317 25.269 0
      vertex 9.389 26.697 1.51
    endloop
  endfacet
  facet normal 0.649664 -0.760221 0
    outer loop
      vertex 9.389 26.697 0
      vertex 10.723 27.837 0
      vertex 10.723 27.837 1.51
    endloop
  endfacet
  facet normal 0.649664 -0.760221 0
    outer loop
      vertex 9.389 26.697 1.51
      vertex 9.389 26.697 0
      vertex 10.723 27.837 1.51
    endloop
  endfacet
  facet normal 0.465393 -0.885104 0
    outer loop
      vertex 10.723 27.837 0
      vertex 12.273 28.652 0
      vertex 12.273 28.652 1.51
    endloop
  endfacet
  facet normal 0.465393 -0.885104 0
    outer loop
      vertex 10.723 27.837 1.51
      vertex 10.723 27.837 0
      vertex 12.273 28.652 1.51
    endloop
  endfacet
  facet normal 0.266435 -0.963853 0
    outer loop
      vertex 12.273 28.652 0
      vertex 14.042 29.141 0
      vertex 14.042 29.141 1.51
    endloop
  endfacet
  facet normal 0.266435 -0.963853 0
    outer loop
      vertex 12.273 28.652 1.51
      vertex 12.273 28.652 0
      vertex 14.042 29.141 1.51
    endloop
  endfacet
  facet normal 0.0818404 -0.996645 0
    outer loop
      vertex 14.042 29.141 0
      vertex 16.027 29.304 0
      vertex 16.027 29.304 1.51
    endloop
  endfacet
  facet normal 0.0818404 -0.996645 0
    outer loop
      vertex 14.042 29.141 1.51
      vertex 14.042 29.141 0
      vertex 16.027 29.304 1.51
    endloop
  endfacet
  facet normal -0.0818404 -0.996645 0
    outer loop
      vertex 16.027 29.304 0
      vertex 18.012 29.141 0
      vertex 18.012 29.141 1.51
    endloop
  endfacet
  facet normal -0.0818404 -0.996645 0
    outer loop
      vertex 16.027 29.304 1.51
      vertex 16.027 29.304 0
      vertex 18.012 29.141 1.51
    endloop
  endfacet
  facet normal -0.266435 -0.963853 0
    outer loop
      vertex 18.012 29.141 0
      vertex 19.781 28.652 0
      vertex 19.781 28.652 1.51
    endloop
  endfacet
  facet normal -0.266435 -0.963853 0
    outer loop
      vertex 18.012 29.141 1.51
      vertex 18.012 29.141 0
      vertex 19.781 28.652 1.51
    endloop
  endfacet
  facet normal -0.465393 -0.885104 0
    outer loop
      vertex 19.781 28.652 0
      vertex 21.331 27.837 0
      vertex 21.331 27.837 1.51
    endloop
  endfacet
  facet normal -0.465393 -0.885104 0
    outer loop
      vertex 19.781 28.652 1.51
      vertex 19.781 28.652 0
      vertex 21.331 27.837 1.51
    endloop
  endfacet
  facet normal -0.649664 -0.760221 0
    outer loop
      vertex 21.331 27.837 0
      vertex 22.665 26.697 0
      vertex 22.665 26.697 1.51
    endloop
  endfacet
  facet normal -0.649664 -0.760221 0
    outer loop
      vertex 21.331 27.837 1.51
      vertex 21.331 27.837 0
      vertex 22.665 26.697 1.51
    endloop
  endfacet
  facet normal -0.799731 -0.600358 0
    outer loop
      vertex 23.737 25.269 0
      vertex 23.737 25.269 1.51
      vertex 22.665 26.697 0
    endloop
  endfacet
  facet normal -0.799731 -0.600358 0
    outer loop
      vertex 22.665 26.697 0
      vertex 23.737 25.269 1.51
      vertex 22.665 26.697 1.51
    endloop
  endfacet
  facet normal -0.909527 -0.415644 0
    outer loop
      vertex 24.502 23.595 0
      vertex 24.502 23.595 1.51
      vertex 23.737 25.269 0
    endloop
  endfacet
  facet normal -0.909527 -0.415644 0
    outer loop
      vertex 23.737 25.269 0
      vertex 24.502 23.595 1.51
      vertex 23.737 25.269 1.51
    endloop
  endfacet
  facet normal -0.972621 -0.232396 0
    outer loop
      vertex 24.961 21.674 0
      vertex 24.961 21.674 1.51
      vertex 24.502 23.595 0
    endloop
  endfacet
  facet normal -0.972621 -0.232396 0
    outer loop
      vertex 24.502 23.595 0
      vertex 24.961 21.674 1.51
      vertex 24.502 23.595 1.51
    endloop
  endfacet
  facet normal -0.997487 -0.0708547 0
    outer loop
      vertex 25.115 19.506 0
      vertex 25.115 19.506 1.51
      vertex 24.961 21.674 0
    endloop
  endfacet
  facet normal -0.997487 -0.0708547 0
    outer loop
      vertex 24.961 21.674 0
      vertex 25.115 19.506 1.51
      vertex 24.961 21.674 1.51
    endloop
  endfacet
  facet normal -1 0 0
    outer loop
      vertex 25.115 -19.847 12.51
      vertex 25.115 19.506 12.51
      vertex 25.115 -19.847 0
    endloop
  endfacet
  facet normal -1 0 0
    outer loop
      vertex 25.115 -19.847 0
      vertex 25.115 19.506 12.51
      vertex 25.115 19.506 1.51
    endloop
  endfacet
  facet normal -1 0 0
    outer loop
      vertex 25.115 19.506 0
      vertex 25.115 -19.847 0
      vertex 25.115 19.506 1.51
    endloop
  endfacet
  facet normal -0.997487 0.0708547 0
    outer loop
      vertex 24.961 -22.015 12.51
      vertex 25.115 -19.847 12.51
      vertex 24.961 -22.015 0
    endloop
  endfacet
  facet normal -0.997487 0.0708547 0
    outer loop
      vertex 24.961 -22.015 0
      vertex 25.115 -19.847 12.51
      vertex 25.115 -19.847 0
    endloop
  endfacet
  facet normal -0.972649 0.232282 0
    outer loop
      vertex 24.502 -23.937 12.51
      vertex 24.961 -22.015 12.51
      vertex 24.502 -23.937 0
    endloop
  endfacet
  facet normal -0.972649 0.232282 0
    outer loop
      vertex 24.502 -23.937 0
      vertex 24.961 -22.015 12.51
      vertex 24.961 -22.015 0
    endloop
  endfacet
  facet normal -0.909527 0.415644 0
    outer loop
      vertex 23.737 -25.611 12.51
      vertex 24.502 -23.937 12.51
      vertex 23.737 -25.611 0
    endloop
  endfacet
  facet normal -0.909527 0.415644 0
    outer loop
      vertex 23.737 -25.611 0
      vertex 24.502 -23.937 12.51
      vertex 24.502 -23.937 0
    endloop
  endfacet
  facet normal -0.799529 0.600627 0
    outer loop
      vertex 22.665 -27.038 12.51
      vertex 23.737 -25.611 12.51
      vertex 22.665 -27.038 0
    endloop
  endfacet
  facet normal -0.799529 0.600627 0
    outer loop
      vertex 22.665 -27.038 0
      vertex 23.737 -25.611 12.51
      vertex 23.737 -25.611 0
    endloop
  endfacet
  facet normal -0.649993 0.75994 0
    outer loop
      vertex 21.331 -28.179 12.51
      vertex 22.665 -27.038 12.51
      vertex 21.331 -28.179 0
    endloop
  endfacet
  facet normal -0.649993 0.75994 0
    outer loop
      vertex 21.331 -28.179 0
      vertex 22.665 -27.038 12.51
      vertex 22.665 -27.038 0
    endloop
  endfacet
  facet normal -0.465393 0.885104 0
    outer loop
      vertex 19.781 -28.994 12.51
      vertex 21.331 -28.179 12.51
      vertex 19.781 -28.994 0
    endloop
  endfacet
  facet normal -0.465393 0.885104 0
    outer loop
      vertex 19.781 -28.994 0
      vertex 21.331 -28.179 12.51
      vertex 21.331 -28.179 0
    endloop
  endfacet
  facet normal -0.266435 0.963853 0
    outer loop
      vertex 18.012 -29.483 12.51
      vertex 19.781 -28.994 12.51
      vertex 18.012 -29.483 0
    endloop
  endfacet
  facet normal -0.266435 0.963853 0
    outer loop
      vertex 18.012 -29.483 0
      vertex 19.781 -28.994 12.51
      vertex 19.781 -28.994 0
    endloop
  endfacet
  facet normal -0.0818404 0.996645 0
    outer loop
      vertex 16.027 -29.646 12.51
      vertex 18.012 -29.483 12.51
      vertex 16.027 -29.646 0
    endloop
  endfacet
  facet normal -0.0818404 0.996645 0
    outer loop
      vertex 16.027 -29.646 0
      vertex 18.012 -29.483 12.51
      vertex 18.012 -29.483 0
    endloop
  endfacet
  facet normal 0.0818404 0.996645 0
    outer loop
      vertex 14.042 -29.483 12.51
      vertex 16.027 -29.646 12.51
      vertex 14.042 -29.483 0
    endloop
  endfacet
  facet normal 0.0818404 0.996645 0
    outer loop
      vertex 14.042 -29.483 0
      vertex 16.027 -29.646 12.51
      vertex 16.027 -29.646 0
    endloop
  endfacet
  facet normal 0.266435 0.963853 0
    outer loop
      vertex 12.273 -28.994 12.51
      vertex 14.042 -29.483 12.51
      vertex 12.273 -28.994 0
    endloop
  endfacet
  facet normal 0.266435 0.963853 0
    outer loop
      vertex 12.273 -28.994 0
      vertex 14.042 -29.483 12.51
      vertex 14.042 -29.483 0
    endloop
  endfacet
  facet normal 0.465393 0.885104 0
    outer loop
      vertex 10.723 -28.179 12.51
      vertex 12.273 -28.994 12.51
      vertex 10.723 -28.179 0
    endloop
  endfacet
  facet normal 0.465393 0.885104 0
    outer loop
      vertex 10.723 -28.179 0
      vertex 12.273 -28.994 12.51
      vertex 12.273 -28.994 0
    endloop
  endfacet
  facet normal 0.649993 0.75994 0
    outer loop
      vertex 9.389 -27.038 12.51
      vertex 10.723 -28.179 12.51
      vertex 9.389 -27.038 0
    endloop
  endfacet
  facet normal 0.649993 0.75994 0
    outer loop
      vertex 9.389 -27.038 0
      vertex 10.723 -28.179 12.51
      vertex 10.723 -28.179 0
    endloop
  endfacet
  facet normal 0.799529 0.600627 0
    outer loop
      vertex 8.317 -25.611 0
      vertex 8.317 -25.611 12.51
      vertex 9.389 -27.038 12.51
    endloop
  endfacet
  facet normal 0.799529 0.600627 0
    outer loop
      vertex 9.389 -27.038 0
      vertex 8.317 -25.611 0
      vertex 9.389 -27.038 12.51
    endloop
  endfacet
  facet normal 0.909527 0.415644 0
    outer loop
      vertex 7.552 -23.937 0
      vertex 7.552 -23.937 12.51
      vertex 8.317 -25.611 12.51
    endloop
  endfacet
  facet normal 0.909527 0.415644 0
    outer loop
      vertex 8.317 -25.611 0
      vertex 7.552 -23.937 0
      vertex 8.317 -25.611 12.51
    endloop
  endfacet
  facet normal 0.972649 0.232282 0
    outer loop
      vertex 7.093 -22.015 0
      vertex 7.093 -22.015 12.51
      vertex 7.552 -23.937 12.51
    endloop
  endfacet
  facet normal 0.972649 0.232282 0
    outer loop
      vertex 7.552 -23.937 0
      vertex 7.093 -22.015 0
      vertex 7.552 -23.937 12.51
    endloop
  endfacet
  facet normal -0.997487 -0.0708547 0
    outer loop
      vertex 6.093 -22.015 1.51
      vertex 6.093 -22.015 12.51
      vertex 5.939 -19.847 1.51
    endloop
  endfacet
  facet normal -0.997487 -0.0708547 0
    outer loop
      vertex 5.939 -19.847 1.51
      vertex 6.093 -22.015 12.51
      vertex 5.939 -19.847 12.51
    endloop
  endfacet
  facet normal -1 0 0
    outer loop
      vertex 5.939 -19.847 12.51
      vertex 5.939 19.506 12.51
      vertex 5.939 -19.847 1.51
    endloop
  endfacet
  facet normal -1 0 0
    outer loop
      vertex 5.939 -19.847 1.51
      vertex 5.939 19.506 12.51
      vertex 5.939 19.506 1.51
    endloop
  endfacet
  facet normal -0.972649 -0.232282 0
    outer loop
      vertex 6.552 -23.937 1.51
      vertex 6.552 -23.937 12.51
      vertex 6.093 -22.015 1.51
    endloop
  endfacet
  facet normal -0.972649 -0.232282 0
    outer loop
      vertex 6.093 -22.015 1.51
      vertex 6.552 -23.937 12.51
      vertex 6.093 -22.015 12.51
    endloop
  endfacet
  facet normal -0.909527 -0.415644 0
    outer loop
      vertex 7.317 -25.611 1.51
      vertex 7.317 -25.611 12.51
      vertex 6.552 -23.937 1.51
    endloop
  endfacet
  facet normal -0.909527 -0.415644 0
    outer loop
      vertex 6.552 -23.937 1.51
      vertex 7.317 -25.611 12.51
      vertex 6.552 -23.937 12.51
    endloop
  endfacet
  facet normal -0.866025 -0.5 0
    outer loop
      vertex 7.817 -26.477 1.51
      vertex 7.817 -26.477 12.51
      vertex 7.317 -25.611 1.51
    endloop
  endfacet
  facet normal -0.866025 -0.5 0
    outer loop
      vertex 7.317 -25.611 1.51
      vertex 7.817 -26.477 12.51
      vertex 7.317 -25.611 12.51
    endloop
  endfacet
  facet normal -0.799529 -0.600627 0
    outer loop
      vertex 8.889 -27.904 1.51
      vertex 8.889 -27.904 12.51
      vertex 7.817 -26.477 1.51
    endloop
  endfacet
  facet normal -0.799529 -0.600627 0
    outer loop
      vertex 7.817 -26.477 1.51
      vertex 8.889 -27.904 12.51
      vertex 7.817 -26.477 12.51
    endloop
  endfacet
  facet normal -0.649993 -0.75994 0
    outer loop
      vertex 8.889 -27.904 1.51
      vertex 10.223 -29.045 1.51
      vertex 10.223 -29.045 12.51
    endloop
  endfacet
  facet normal -0.649993 -0.75994 0
    outer loop
      vertex 8.889 -27.904 12.51
      vertex 8.889 -27.904 1.51
      vertex 10.223 -29.045 12.51
    endloop
  endfacet
  facet normal -0.465393 -0.885104 0
    outer loop
      vertex 10.223 -29.045 1.51
      vertex 11.773 -29.86 1.51
      vertex 11.773 -29.86 12.51
    endloop
  endfacet
  facet normal -0.465393 -0.885104 0
    outer loop
      vertex 10.223 -29.045 12.51
      vertex 10.223 -29.045 1.51
      vertex 11.773 -29.86 12.51
    endloop
  endfacet
  facet normal -0.266435 -0.963853 0
    outer loop
      vertex 11.773 -29.86 1.51
      vertex 13.542 -30.349 1.51
      vertex 13.542 -30.349 12.51
    endloop
  endfacet
  facet normal -0.266435 -0.963853 0
    outer loop
      vertex 11.773 -29.86 12.51
      vertex 11.773 -29.86 1.51
      vertex 13.542 -30.349 12.51
    endloop
  endfacet
  facet normal -0.0818404 -0.996645 0
    outer loop
      vertex 13.542 -30.349 1.51
      vertex 15.527 -30.512 1.51
      vertex 15.527 -30.512 12.51
    endloop
  endfacet
  facet normal -0.0818404 -0.996645 0
    outer loop
      vertex 13.542 -30.349 12.51
      vertex 13.542 -30.349 1.51
      vertex 15.527 -30.512 12.51
    endloop
  endfacet
  facet normal 0 -1 0
    outer loop
      vertex 15.527 -30.512 1.51
      vertex 16.527 -30.512 1.51
      vertex 16.527 -30.512 12.51
    endloop
  endfacet
  facet normal 0 -1 0
    outer loop
      vertex 15.527 -30.512 12.51
      vertex 15.527 -30.512 1.51
      vertex 16.527 -30.512 12.51
    endloop
  endfacet
  facet normal 0.0818404 -0.996645 0
    outer loop
      vertex 16.527 -30.512 1.51
      vertex 18.512 -30.349 1.51
      vertex 18.512 -30.349 12.51
    endloop
  endfacet
  facet normal 0.0818404 -0.996645 0
    outer loop
      vertex 16.527 -30.512 12.51
      vertex 16.527 -30.512 1.51
      vertex 18.512 -30.349 12.51
    endloop
  endfacet
  facet normal 0.266435 -0.963853 0
    outer loop
      vertex 18.512 -30.349 1.51
      vertex 20.281 -29.86 1.51
      vertex 20.281 -29.86 12.51
    endloop
  endfacet
  facet normal 0.266435 -0.963853 0
    outer loop
      vertex 18.512 -30.349 12.51
      vertex 18.512 -30.349 1.51
      vertex 20.281 -29.86 12.51
    endloop
  endfacet
  facet normal 0.465393 -0.885104 0
    outer loop
      vertex 20.281 -29.86 1.51
      vertex 21.831 -29.045 1.51
      vertex 21.831 -29.045 12.51
    endloop
  endfacet
  facet normal 0.465393 -0.885104 0
    outer loop
      vertex 20.281 -29.86 12.51
      vertex 20.281 -29.86 1.51
      vertex 21.831 -29.045 12.51
    endloop
  endfacet
  facet normal 0.649993 -0.75994 0
    outer loop
      vertex 21.831 -29.045 1.51
      vertex 23.165 -27.904 1.51
      vertex 23.165 -27.904 12.51
    endloop
  endfacet
  facet normal 0.649993 -0.75994 0
    outer loop
      vertex 21.831 -29.045 12.51
      vertex 21.831 -29.045 1.51
      vertex 23.165 -27.904 12.51
    endloop
  endfacet
  facet normal 0.799529 -0.600627 0
    outer loop
      vertex 23.165 -27.904 1.51
      vertex 24.237 -26.477 1.51
      vertex 24.237 -26.477 12.51
    endloop
  endfacet
  facet normal 0.799529 -0.600627 0
    outer loop
      vertex 23.165 -27.904 12.51
      vertex 23.165 -27.904 1.51
      vertex 24.237 -26.477 12.51
    endloop
  endfacet
  facet normal 0.866025 -0.5 0
    outer loop
      vertex 24.237 -26.477 1.51
      vertex 24.737 -25.611 1.51
      vertex 24.737 -25.611 12.51
    endloop
  endfacet
  facet normal 0.866025 -0.5 0
    outer loop
      vertex 24.237 -26.477 12.51
      vertex 24.237 -26.477 1.51
      vertex 24.737 -25.611 12.51
    endloop
  endfacet
  facet normal 0.909527 -0.415644 0
    outer loop
      vertex 24.737 -25.611 1.51
      vertex 25.502 -23.937 1.51
      vertex 25.502 -23.937 12.51
    endloop
  endfacet
  facet normal 0.909527 -0.415644 0
    outer loop
      vertex 24.737 -25.611 12.51
      vertex 24.737 -25.611 1.51
      vertex 25.502 -23.937 12.51
    endloop
  endfacet
  facet normal 0.972649 -0.232282 0
    outer loop
      vertex 25.502 -23.937 1.51
      vertex 25.961 -22.015 1.51
      vertex 25.961 -22.015 12.51
    endloop
  endfacet
  facet normal 0.972649 -0.232282 0
    outer loop
      vertex 25.502 -23.937 12.51
      vertex 25.502 -23.937 1.51
      vertex 25.961 -22.015 12.51
    endloop
  endfacet
  facet normal 0.997487 -0.0708547 0
    outer loop
      vertex 25.961 -22.015 1.51
      vertex 26.115 -19.847 1.51
      vertex 26.115 -19.847 12.51
    endloop
  endfacet
  facet normal 0.997487 -0.0708547 0
    outer loop
      vertex 25.961 -22.015 12.51
      vertex 25.961 -22.015 1.51
      vertex 26.115 -19.847 12.51
    endloop
  endfacet
  facet normal 1 0 0
    outer loop
      vertex 26.115 -19.847 1.51
      vertex 26.115 19.506 1.51
      vertex 26.115 19.506 12.51
    endloop
  endfacet
  facet normal 1 0 0
    outer loop
      vertex 26.115 -19.847 12.51
      vertex 26.115 -19.847 1.51
      vertex 26.115 19.506 12.51
    endloop
  endfacet
  facet normal 0.997487 0.0708547 0
    outer loop
      vertex 25.961 21.674 1.51
      vertex 25.961 21.674 12.51
      vertex 26.115 19.506 12.51
    endloop
  endfacet
  facet normal 0.997487 0.0708547 0
    outer loop
      vertex 26.115 19.506 1.51
      vertex 25.961 21.674 1.51
      vertex 26.115 19.506 12.51
    endloop
  endfacet
  facet normal 0.972621 0.232396 0
    outer loop
      vertex 25.502 23.595 1.51
      vertex 25.502 23.595 12.51
      vertex 25.961 21.674 12.51
    endloop
  endfacet
  facet normal 0.972621 0.232396 0
    outer loop
      vertex 25.961 21.674 1.51
      vertex 25.502 23.595 1.51
      vertex 25.961 21.674 12.51
    endloop
  endfacet
  facet normal 0.909621 0.415439 0
    outer loop
      vertex 24.737 25.27 1.51
      vertex 24.737 25.27 12.51
      vertex 25.502 23.595 12.51
    endloop
  endfacet
  facet normal 0.909621 0.415439 0
    outer loop
      vertex 25.502 23.595 1.51
      vertex 24.737 25.27 1.51
      vertex 25.502 23.595 12.51
    endloop
  endfacet
  facet normal 0.866025 0.5 0
    outer loop
      vertex 24.237 26.136 1.51
      vertex 24.237 26.136 12.51
      vertex 24.737 25.27 12.51
    endloop
  endfacet
  facet normal 0.866025 0.5 0
    outer loop
      vertex 24.737 25.27 1.51
      vertex 24.237 26.136 1.51
      vertex 24.737 25.27 12.51
    endloop
  endfacet
  facet normal 0.799529 0.600627 0
    outer loop
      vertex 23.165 27.563 1.51
      vertex 23.165 27.563 12.51
      vertex 24.237 26.136 12.51
    endloop
  endfacet
  facet normal 0.799529 0.600627 0
    outer loop
      vertex 24.237 26.136 1.51
      vertex 23.165 27.563 1.51
      vertex 24.237 26.136 12.51
    endloop
  endfacet
  facet normal 0.649993 0.75994 0
    outer loop
      vertex 21.831 28.704 12.51
      vertex 23.165 27.563 12.51
      vertex 21.831 28.704 1.51
    endloop
  endfacet
  facet normal 0.649993 0.75994 0
    outer loop
      vertex 21.831 28.704 1.51
      vertex 23.165 27.563 12.51
      vertex 23.165 27.563 1.51
    endloop
  endfacet
  facet normal 0.465393 0.885104 0
    outer loop
      vertex 20.281 29.519 12.51
      vertex 21.831 28.704 12.51
      vertex 20.281 29.519 1.51
    endloop
  endfacet
  facet normal 0.465393 0.885104 0
    outer loop
      vertex 20.281 29.519 1.51
      vertex 21.831 28.704 12.51
      vertex 21.831 28.704 1.51
    endloop
  endfacet
  facet normal 0.266435 0.963853 0
    outer loop
      vertex 18.512 30.008 12.51
      vertex 20.281 29.519 12.51
      vertex 18.512 30.008 1.51
    endloop
  endfacet
  facet normal 0.266435 0.963853 0
    outer loop
      vertex 18.512 30.008 1.51
      vertex 20.281 29.519 12.51
      vertex 20.281 29.519 1.51
    endloop
  endfacet
  facet normal 0.0818404 0.996645 0
    outer loop
      vertex 16.527 30.171 12.51
      vertex 18.512 30.008 12.51
      vertex 16.527 30.171 1.51
    endloop
  endfacet
  facet normal 0.0818404 0.996645 0
    outer loop
      vertex 16.527 30.171 1.51
      vertex 18.512 30.008 12.51
      vertex 18.512 30.008 1.51
    endloop
  endfacet
  facet normal 0 1 0
    outer loop
      vertex 15.527 30.171 12.51
      vertex 16.527 30.171 12.51
      vertex 15.527 30.171 1.51
    endloop
  endfacet
  facet normal 0 1 0
    outer loop
      vertex 15.527 30.171 1.51
      vertex 16.527 30.171 12.51
      vertex 16.527 30.171 1.51
    endloop
  endfacet
  facet normal -0.0818404 0.996645 0
    outer loop
      vertex 13.542 30.008 12.51
      vertex 15.527 30.171 12.51
      vertex 13.542 30.008 1.51
    endloop
  endfacet
  facet normal -0.0818404 0.996645 0
    outer loop
      vertex 13.542 30.008 1.51
      vertex 15.527 30.171 12.51
      vertex 15.527 30.171 1.51
    endloop
  endfacet
  facet normal -0.266435 0.963853 0
    outer loop
      vertex 11.773 29.519 12.51
      vertex 13.542 30.008 12.51
      vertex 11.773 29.519 1.51
    endloop
  endfacet
  facet normal -0.266435 0.963853 0
    outer loop
      vertex 11.773 29.519 1.51
      vertex 13.542 30.008 12.51
      vertex 13.542 30.008 1.51
    endloop
  endfacet
  facet normal -0.465393 0.885104 0
    outer loop
      vertex 10.223 28.704 12.51
      vertex 11.773 29.519 12.51
      vertex 10.223 28.704 1.51
    endloop
  endfacet
  facet normal -0.465393 0.885104 0
    outer loop
      vertex 10.223 28.704 1.51
      vertex 11.773 29.519 12.51
      vertex 11.773 29.519 1.51
    endloop
  endfacet
  facet normal -0.649993 0.75994 0
    outer loop
      vertex 8.889 27.563 12.51
      vertex 10.223 28.704 12.51
      vertex 8.889 27.563 1.51
    endloop
  endfacet
  facet normal -0.649993 0.75994 0
    outer loop
      vertex 8.889 27.563 1.51
      vertex 10.223 28.704 12.51
      vertex 10.223 28.704 1.51
    endloop
  endfacet
  facet normal -0.799529 0.600627 0
    outer loop
      vertex 7.817 26.136 12.51
      vertex 8.889 27.563 12.51
      vertex 7.817 26.136 1.51
    endloop
  endfacet
  facet normal -0.799529 0.600627 0
    outer loop
      vertex 7.817 26.136 1.51
      vertex 8.889 27.563 12.51
      vertex 8.889 27.563 1.51
    endloop
  endfacet
  facet normal -0.866025 0.5 0
    outer loop
      vertex 7.317 25.27 12.51
      vertex 7.817 26.136 12.51
      vertex 7.317 25.27 1.51
    endloop
  endfacet
  facet normal -0.866025 0.5 0
    outer loop
      vertex 7.317 25.27 1.51
      vertex 7.817 26.136 12.51
      vertex 7.817 26.136 1.51
    endloop
  endfacet
  facet normal -0.909621 0.415439 0
    outer loop
      vertex 6.552 23.595 12.51
      vertex 7.317 25.27 12.51
      vertex 6.552 23.595 1.51
    endloop
  endfacet
  facet normal -0.909621 0.415439 0
    outer loop
      vertex 6.552 23.595 1.51
      vertex 7.317 25.27 12.51
      vertex 7.317 25.27 1.51
    endloop
  endfacet
  facet normal -0.972621 0.232396 0
    outer loop
      vertex 6.093 21.674 12.51
      vertex 6.552 23.595 12.51
      vertex 6.093 21.674 1.51
    endloop
  endfacet
  facet normal -0.972621 0.232396 0
    outer loop
      vertex 6.093 21.674 1.51
      vertex 6.552 23.595 12.51
      vertex 6.552 23.595 1.51
    endloop
  endfacet
  facet normal -0.997487 0.0708547 0
    outer loop
      vertex 5.939 19.506 12.51
      vertex 6.093 21.674 12.51
      vertex 5.939 19.506 1.51
    endloop
  endfacet
  facet normal -0.997487 0.0708547 0
    outer loop
      vertex 5.939 19.506 1.51
      vertex 6.093 21.674 12.51
      vertex 6.093 21.674 1.51
    endloop
  endfacet
  facet normal 0 0 1
    outer loop
      vertex 5.939 -19.847 12.51
      vertex 6.093 -22.015 12.51
      vertex 6.552 -23.937 12.51
    endloop
  endfacet
  facet normal 0 0 1
    outer loop
      vertex 7.817 -26.477 12.51
      vertex 5.939 -19.847 12.51
      vertex 7.317 -25.611 12.51
    endloop
  endfacet
  facet normal 0 0 1
    outer loop
      vertex 7.317 -25.611 12.51
      vertex 5.939 -19.847 12.51
      vertex 6.552 -23.937 12.51
    endloop
  endfacet
  facet normal 0 0 1
    outer loop
      vertex 8.889 -27.904 12.51
      vertex 5.939 -19.847 12.51
      vertex 7.817 -26.477 12.51
    endloop
  endfacet
  facet normal 0 0 1
    outer loop
      vertex 7.552 -23.937 12.51
      vertex 5.939 -19.847 12.51
      vertex 8.889 -27.904 12.51
    endloop
  endfacet
  facet normal 0 0 1
    outer loop
      vertex 18.012 29.142 12.51
      vertex 19.781 28.653 12.51
      vertex 18.512 30.008 12.51
    endloop
  endfacet
  facet normal 0 0 1
    outer loop
      vertex 16.027 29.305 12.51
      vertex 18.012 29.142 12.51
      vertex 16.527 30.171 12.51
    endloop
  endfacet
  facet normal 0 0 1
    outer loop
      vertex 23.737 25.27 12.51
      vertex 24.502 23.595 12.51
      vertex 24.737 25.27 12.51
    endloop
  endfacet
  facet normal 0 0 1
    outer loop
      vertex 14.042 29.142 12.51
      vertex 16.027 29.305 12.51
      vertex 15.527 30.171 12.51
    endloop
  endfacet
  facet normal 0 0 1
    outer loop
      vertex 12.273 28.653 12.51
      vertex 14.042 29.142 12.51
      vertex 13.542 30.008 12.51
    endloop
  endfacet
  facet normal 0 0 1
    outer loop
      vertex 10.723 27.838 12.51
      vertex 12.273 28.653 12.51
      vertex 11.773 29.519 12.51
    endloop
  endfacet
  facet normal 0 0 1
    outer loop
      vertex 9.389 26.697 12.51
      vertex 10.723 27.838 12.51
      vertex 10.223 28.704 12.51
    endloop
  endfacet
  facet normal 0 0 1
    outer loop
      vertex 7.552 23.595 12.51
      vertex 8.317 25.27 12.51
      vertex 7.817 26.136 12.51
    endloop
  endfacet
  facet normal 0 0 1
    outer loop
      vertex 26.115 -19.847 12.51
      vertex 25.115 -19.847 12.51
      vertex 25.961 -22.015 12.51
    endloop
  endfacet
  facet normal 0 0 1
    outer loop
      vertex 7.093 21.674 12.51
      vertex 7.552 23.595 12.51
      vertex 7.317 25.27 12.51
    endloop
  endfacet
  facet normal 0 0 1
    outer loop
      vertex 8.317 25.27 12.51
      vertex 9.389 26.697 12.51
      vertex 8.889 27.563 12.51
    endloop
  endfacet
  facet normal 0 0 1
    outer loop
      vertex 6.093 21.674 12.51
      vertex 5.939 -19.847 12.51
      vertex 6.552 23.595 12.51
    endloop
  endfacet
  facet normal 0 0 1
    outer loop
      vertex 5.939 19.506 12.51
      vertex 5.939 -19.847 12.51
      vertex 6.093 21.674 12.51
    endloop
  endfacet
  facet normal 0 0 1
    outer loop
      vertex 24.961 -22.015 12.51
      vertex 24.502 -23.937 12.51
      vertex 25.502 -23.937 12.51
    endloop
  endfacet
  facet normal 0 0 1
    outer loop
      vertex 6.552 23.595 12.51
      vertex 6.939 19.506 12.51
      vertex 7.317 25.27 12.51
    endloop
  endfacet
  facet normal 0 0 1
    outer loop
      vertex 6.552 23.595 12.51
      vertex 5.939 -19.847 12.51
      vertex 6.939 19.506 12.51
    endloop
  endfacet
  facet normal 0 0 1
    outer loop
      vertex 6.939 19.506 12.51
      vertex 7.093 21.674 12.51
      vertex 7.317 25.27 12.51
    endloop
  endfacet
  facet normal 0 0 1
    outer loop
      vertex 7.317 25.27 12.51
      vertex 7.552 23.595 12.51
      vertex 7.817 26.136 12.51
    endloop
  endfacet
  facet normal 0 0 1
    outer loop
      vertex 16.027 -29.646 12.51
      vertex 14.042 -29.483 12.51
      vertex 15.527 -30.512 12.51
    endloop
  endfacet
  facet normal 0 0 1
    outer loop
      vertex 7.817 26.136 12.51
      vertex 8.317 25.27 12.51
      vertex 8.889 27.563 12.51
    endloop
  endfacet
  facet normal 0 0 1
    outer loop
      vertex 8.889 27.563 12.51
      vertex 9.389 26.697 12.51
      vertex 10.223 28.704 12.51
    endloop
  endfacet
  facet normal 0 0 1
    outer loop
      vertex 10.223 28.704 12.51
      vertex 10.723 27.838 12.51
      vertex 11.773 29.519 12.51
    endloop
  endfacet
  facet normal 0 0 1
    outer loop
      vertex 11.773 29.519 12.51
      vertex 12.273 28.653 12.51
      vertex 13.542 30.008 12.51
    endloop
  endfacet
  facet normal 0 0 1
    outer loop
      vertex 13.542 30.008 12.51
      vertex 14.042 29.142 12.51
      vertex 15.527 30.171 12.51
    endloop
  endfacet
  facet normal 0 0 1
    outer loop
      vertex 15.527 30.171 12.51
      vertex 16.027 29.305 12.51
      vertex 16.527 30.171 12.51
    endloop
  endfacet
  facet normal 0 0 1
    outer loop
      vertex 16.527 30.171 12.51
      vertex 18.012 29.142 12.51
      vertex 18.512 30.008 12.51
    endloop
  endfacet
  facet normal 0 0 1
    outer loop
      vertex 18.512 30.008 12.51
      vertex 19.781 28.653 12.51
      vertex 20.281 29.519 12.51
    endloop
  endfacet
  facet normal 0 0 1
    outer loop
      vertex 20.281 29.519 12.51
      vertex 21.331 27.838 12.51
      vertex 21.831 28.704 12.51
    endloop
  endfacet
  facet normal 0 0 1
    outer loop
      vertex 21.831 28.704 12.51
      vertex 22.665 26.697 12.51
      vertex 23.165 27.563 12.51
    endloop
  endfacet
  facet normal 0 0 1
    outer loop
      vertex 23.165 27.563 12.51
      vertex 23.737 25.27 12.51
      vertex 24.237 26.136 12.51
    endloop
  endfacet
  facet normal 0 0 1
    outer loop
      vertex 24.737 25.27 12.51
      vertex 24.502 23.595 12.51
      vertex 25.502 23.595 12.51
    endloop
  endfacet
  facet normal 0 0 1
    outer loop
      vertex 25.502 23.595 12.51
      vertex 24.961 21.674 12.51
      vertex 25.961 21.674 12.51
    endloop
  endfacet
  facet normal 0 0 1
    outer loop
      vertex 25.961 21.674 12.51
      vertex 25.115 19.506 12.51
      vertex 26.115 19.506 12.51
    endloop
  endfacet
  facet normal 0 0 1
    outer loop
      vertex 26.115 19.506 12.51
      vertex 25.115 -19.847 12.51
      vertex 26.115 -19.847 12.51
    endloop
  endfacet
  facet normal 0 0 1
    outer loop
      vertex 25.961 -22.015 12.51
      vertex 24.961 -22.015 12.51
      vertex 25.502 -23.937 12.51
    endloop
  endfacet
  facet normal 0 0 1
    outer loop
      vertex 25.502 -23.937 12.51
      vertex 24.502 -23.937 12.51
      vertex 24.737 -25.611 12.51
    endloop
  endfacet
  facet normal 0 0 1
    outer loop
      vertex 24.737 -25.611 12.51
      vertex 23.737 -25.611 12.51
      vertex 24.237 -26.477 12.51
    endloop
  endfacet
  facet normal 0 0 1
    outer loop
      vertex 24.237 -26.477 12.51
      vertex 22.665 -27.038 12.51
      vertex 23.165 -27.904 12.51
    endloop
  endfacet
  facet normal 0 0 1
    outer loop
      vertex 23.165 -27.904 12.51
      vertex 21.331 -28.179 12.51
      vertex 21.831 -29.045 12.51
    endloop
  endfacet
  facet normal 0 0 1
    outer loop
      vertex 21.831 -29.045 12.51
      vertex 19.781 -28.994 12.51
      vertex 20.281 -29.86 12.51
    endloop
  endfacet
  facet normal 0 0 1
    outer loop
      vertex 20.281 -29.86 12.51
      vertex 18.012 -29.483 12.51
      vertex 18.512 -30.349 12.51
    endloop
  endfacet
  facet normal 0 0 1
    outer loop
      vertex 18.512 -30.349 12.51
      vertex 16.027 -29.646 12.51
      vertex 16.527 -30.512 12.51
    endloop
  endfacet
  facet normal 0 0 1
    outer loop
      vertex 15.527 -30.512 12.51
      vertex 14.042 -29.483 12.51
      vertex 13.542 -30.349 12.51
    endloop
  endfacet
  facet normal 0 0 1
    outer loop
      vertex 19.781 28.653 12.51
      vertex 21.331 27.838 12.51
      vertex 20.281 29.519 12.51
    endloop
  endfacet
  facet normal 0 0 1
    outer loop
      vertex 13.542 -30.349 12.51
      vertex 12.273 -28.994 12.51
      vertex 11.773 -29.86 12.51
    endloop
  endfacet
  facet normal 0 0 1
    outer loop
      vertex 21.331 27.838 12.51
      vertex 22.665 26.697 12.51
      vertex 21.831 28.704 12.51
    endloop
  endfacet
  facet normal 0 0 1
    outer loop
      vertex 11.773 -29.86 12.51
      vertex 10.723 -28.179 12.51
      vertex 10.223 -29.045 12.51
    endloop
  endfacet
  facet normal 0 0 1
    outer loop
      vertex 22.665 26.697 12.51
      vertex 23.737 25.27 12.51
      vertex 23.165 27.563 12.51
    endloop
  endfacet
  facet normal 0 0 1
    outer loop
      vertex 10.723 -28.179 12.51
      vertex 9.389 -27.038 12.51
      vertex 10.223 -29.045 12.51
    endloop
  endfacet
  facet normal 0 0 1
    outer loop
      vertex 10.223 -29.045 12.51
      vertex 8.317 -25.611 12.51
      vertex 8.889 -27.904 12.51
    endloop
  endfacet
  facet normal 0 0 1
    outer loop
      vertex 8.317 -25.611 12.51
      vertex 7.552 -23.937 12.51
      vertex 8.889 -27.904 12.51
    endloop
  endfacet
  facet normal 0 0 1
    outer loop
      vertex 24.502 -23.937 12.51
      vertex 23.737 -25.611 12.51
      vertex 24.737 -25.611 12.51
    endloop
  endfacet
  facet normal 0 0 1
    outer loop
      vertex 23.737 -25.611 12.51
      vertex 22.665 -27.038 12.51
      vertex 24.237 -26.477 12.51
    endloop
  endfacet
  facet normal 0 0 1
    outer loop
      vertex 22.665 -27.038 12.51
      vertex 21.331 -28.179 12.51
      vertex 23.165 -27.904 12.51
    endloop
  endfacet
  facet normal 0 0 1
    outer loop
      vertex 21.331 -28.179 12.51
      vertex 19.781 -28.994 12.51
      vertex 21.831 -29.045 12.51
    endloop
  endfacet
  facet normal 0 0 1
    outer loop
      vertex 19.781 -28.994 12.51
      vertex 18.012 -29.483 12.51
      vertex 20.281 -29.86 12.51
    endloop
  endfacet
  facet normal 0 0 1
    outer loop
      vertex 18.012 -29.483 12.51
      vertex 16.027 -29.646 12.51
      vertex 18.512 -30.349 12.51
    endloop
  endfacet
  facet normal 0 0 1
    outer loop
      vertex 16.027 -29.646 12.51
      vertex 15.527 -30.512 12.51
      vertex 16.527 -30.512 12.51
    endloop
  endfacet
  facet normal 0 0 1
    outer loop
      vertex 7.552 -23.937 12.51
      vertex 7.093 -22.015 12.51
      vertex 5.939 -19.847 12.51
    endloop
  endfacet
  facet normal 0 0 1
    outer loop
      vertex 14.042 -29.483 12.51
      vertex 12.273 -28.994 12.51
      vertex 13.542 -30.349 12.51
    endloop
  endfacet
  facet normal 0 0 1
    outer loop
      vertex 12.273 -28.994 12.51
      vertex 10.723 -28.179 12.51
      vertex 11.773 -29.86 12.51
    endloop
  endfacet
  facet normal 0 0 1
    outer loop
      vertex 9.389 -27.038 12.51
      vertex 8.317 -25.611 12.51
      vertex 10.223 -29.045 12.51
    endloop
  endfacet
  facet normal 0 0 1
    outer loop
      vertex 7.093 -22.015 12.51
      vertex 6.939 -19.847 12.51
      vertex 5.939 -19.847 12.51
    endloop
  endfacet
  facet normal 0 0 1
    outer loop
      vertex 23.737 25.27 12.51
      vertex 24.737 25.27 12.51
      vertex 24.237 26.136 12.51
    endloop
  endfacet
  facet normal 0 0 1
    outer loop
      vertex 24.502 23.595 12.51
      vertex 24.961 21.674 12.51
      vertex 25.502 23.595 12.51
    endloop
  endfacet
  facet normal 0 0 1
    outer loop
      vertex 24.961 21.674 12.51
      vertex 25.115 19.506 12.51
      vertex 25.961 21.674 12.51
    endloop
  endfacet
  facet normal 0 0 1
    outer loop
      vertex 25.115 19.506 12.51
      vertex 25.115 -19.847 12.51
      vertex 26.115 19.506 12.51
    endloop
  endfacet
  facet normal 0 0 1
    outer loop
      vertex 25.115 -19.847 12.51
      vertex 24.961 -22.015 12.51
      vertex 25.961 -22.015 12.51
    endloop
  endfacet
  facet normal 0 0 1
    outer loop
      vertex 6.939 -19.847 12.51
      vertex 6.939 19.506 12.51
      vertex 5.939 -19.847 12.51
    endloop
  endfacet
  facet normal 0.997487 -0.0708547 0
    outer loop
      vertex 6.939 19.506 1.51
      vertex 7.093 21.674 1.51
      vertex 7.093 21.674 12.51
    endloop
  endfacet
  facet normal 0.997487 -0.0708547 0
    outer loop
      vertex 6.939 19.506 12.51
      vertex 6.939 19.506 1.51
      vertex 7.093 21.674 12.51
    endloop
  endfacet
  facet normal 0 0 1
    outer loop
      vertex 8.317 25.269 1.51
      vertex 8.317 25.27 1.51
      vertex 7.552 23.595 1.51
    endloop
  endfacet
  facet normal 0 0 1
    outer loop
      vertex 10.723 27.837 1.51
      vertex 10.723 27.838 1.51
      vertex 9.389 26.697 1.51
    endloop
  endfacet
  facet normal 0 0 1
    outer loop
      vertex 12.273 28.652 1.51
      vertex 12.273 28.653 1.51
      vertex 10.723 27.837 1.51
    endloop
  endfacet
  facet normal 0 0 1
    outer loop
      vertex 14.042 29.141 1.51
      vertex 14.042 29.142 1.51
      vertex 12.273 28.652 1.51
    endloop
  endfacet
  facet normal 0 0 1
    outer loop
      vertex 16.027 29.304 1.51
      vertex 16.027 29.305 1.51
      vertex 14.042 29.141 1.51
    endloop
  endfacet
  facet normal 0 0 1
    outer loop
      vertex 18.012 29.141 1.51
      vertex 18.012 29.142 1.51
      vertex 16.027 29.304 1.51
    endloop
  endfacet
  facet normal 0 0 1
    outer loop
      vertex 19.781 28.652 1.51
      vertex 19.781 28.653 1.51
      vertex 18.012 29.141 1.51
    endloop
  endfacet
  facet normal 0 0 1
    outer loop
      vertex 21.331 27.837 1.51
      vertex 21.331 27.838 1.51
      vertex 19.781 28.652 1.51
    endloop
  endfacet
  facet normal 0 0 1
    outer loop
      vertex 23.737 25.269 1.51
      vertex 23.737 25.27 1.51
      vertex 22.665 26.697 1.51
    endloop
  endfacet
  facet normal 0 0 1
    outer loop
      vertex 24.502 23.595 1.51
      vertex 23.737 25.27 1.51
      vertex 23.737 25.269 1.51
    endloop
  endfacet
  facet normal 0 0 1
    outer loop
      vertex 22.665 26.697 1.51
      vertex 21.331 27.838 1.51
      vertex 21.331 27.837 1.51
    endloop
  endfacet
  facet normal 0 0 1
    outer loop
      vertex 21.331 27.838 1.51
      vertex 19.781 28.653 1.51
      vertex 19.781 28.652 1.51
    endloop
  endfacet
  facet normal 0 0 1
    outer loop
      vertex 19.781 28.653 1.51
      vertex 18.012 29.142 1.51
      vertex 18.012 29.141 1.51
    endloop
  endfacet
  facet normal 0 0 1
    outer loop
      vertex 18.012 29.142 1.51
      vertex 16.027 29.305 1.51
      vertex 16.027 29.304 1.51
    endloop
  endfacet
  facet normal 0 0 1
    outer loop
      vertex 16.027 29.305 1.51
      vertex 14.042 29.142 1.51
      vertex 14.042 29.141 1.51
    endloop
  endfacet
  facet normal 0 0 1
    outer loop
      vertex 14.042 29.142 1.51
      vertex 12.273 28.653 1.51
      vertex 12.273 28.652 1.51
    endloop
  endfacet
  facet normal 0 0 1
    outer loop
      vertex 12.273 28.653 1.51
      vertex 10.723 27.838 1.51
      vertex 10.723 27.837 1.51
    endloop
  endfacet
  facet normal 0 0 1
    outer loop
      vertex 9.389 26.697 1.51
      vertex 8.317 25.27 1.51
      vertex 8.317 25.269 1.51
    endloop
  endfacet
  facet normal -0.997487 -0.0708547 0
    outer loop
      vertex 25.115 19.506 1.51
      vertex 25.115 19.506 12.51
      vertex 24.961 21.674 1.51
    endloop
  endfacet
  facet normal -0.997487 -0.0708547 0
    outer loop
      vertex 24.961 21.674 1.51
      vertex 25.115 19.506 12.51
      vertex 24.961 21.674 12.51
    endloop
  endfacet
  facet normal -0.972621 -0.232396 0
    outer loop
      vertex 24.961 21.674 1.51
      vertex 24.961 21.674 12.51
      vertex 24.502 23.595 1.51
    endloop
  endfacet
  facet normal -0.972621 -0.232396 0
    outer loop
      vertex 24.502 23.595 1.51
      vertex 24.961 21.674 12.51
      vertex 24.502 23.595 12.51
    endloop
  endfacet
  facet normal -0.909621 -0.415439 0
    outer loop
      vertex 24.502 23.595 1.51
      vertex 24.502 23.595 12.51
      vertex 23.737 25.27 1.51
    endloop
  endfacet
  facet normal -0.909621 -0.415439 0
    outer loop
      vertex 23.737 25.27 1.51
      vertex 24.502 23.595 12.51
      vertex 23.737 25.27 12.51
    endloop
  endfacet
  facet normal -0.799529 -0.600627 0
    outer loop
      vertex 23.737 25.27 1.51
      vertex 23.737 25.27 12.51
      vertex 22.665 26.697 1.51
    endloop
  endfacet
  facet normal -0.799529 -0.600627 0
    outer loop
      vertex 22.665 26.697 1.51
      vertex 23.737 25.27 12.51
      vertex 22.665 26.697 12.51
    endloop
  endfacet
  facet normal -0.649993 -0.75994 0
    outer loop
      vertex 21.331 27.838 1.51
      vertex 22.665 26.697 1.51
      vertex 22.665 26.697 12.51
    endloop
  endfacet
  facet normal -0.649993 -0.75994 0
    outer loop
      vertex 21.331 27.838 12.51
      vertex 21.331 27.838 1.51
      vertex 22.665 26.697 12.51
    endloop
  endfacet
  facet normal -0.465393 -0.885104 0
    outer loop
      vertex 19.781 28.653 1.51
      vertex 21.331 27.838 1.51
      vertex 21.331 27.838 12.51
    endloop
  endfacet
  facet normal -0.465393 -0.885104 0
    outer loop
      vertex 19.781 28.653 12.51
      vertex 19.781 28.653 1.51
      vertex 21.331 27.838 12.51
    endloop
  endfacet
  facet normal -0.266435 -0.963853 0
    outer loop
      vertex 18.012 29.142 1.51
      vertex 19.781 28.653 1.51
      vertex 19.781 28.653 12.51
    endloop
  endfacet
  facet normal -0.266435 -0.963853 0
    outer loop
      vertex 18.012 29.142 12.51
      vertex 18.012 29.142 1.51
      vertex 19.781 28.653 12.51
    endloop
  endfacet
  facet normal -0.0818404 -0.996645 0
    outer loop
      vertex 16.027 29.305 1.51
      vertex 18.012 29.142 1.51
      vertex 18.012 29.142 12.51
    endloop
  endfacet
  facet normal -0.0818404 -0.996645 0
    outer loop
      vertex 16.027 29.305 12.51
      vertex 16.027 29.305 1.51
      vertex 18.012 29.142 12.51
    endloop
  endfacet
  facet normal 0.0818404 -0.996645 0
    outer loop
      vertex 14.042 29.142 1.51
      vertex 16.027 29.305 1.51
      vertex 16.027 29.305 12.51
    endloop
  endfacet
  facet normal 0.0818404 -0.996645 0
    outer loop
      vertex 14.042 29.142 12.51
      vertex 14.042 29.142 1.51
      vertex 16.027 29.305 12.51
    endloop
  endfacet
  facet normal 0.266435 -0.963853 0
    outer loop
      vertex 12.273 28.653 1.51
      vertex 14.042 29.142 1.51
      vertex 14.042 29.142 12.51
    endloop
  endfacet
  facet normal 0.266435 -0.963853 0
    outer loop
      vertex 12.273 28.653 12.51
      vertex 12.273 28.653 1.51
      vertex 14.042 29.142 12.51
    endloop
  endfacet
  facet normal 0.465393 -0.885104 0
    outer loop
      vertex 10.723 27.838 1.51
      vertex 12.273 28.653 1.51
      vertex 12.273 28.653 12.51
    endloop
  endfacet
  facet normal 0.465393 -0.885104 0
    outer loop
      vertex 10.723 27.838 12.51
      vertex 10.723 27.838 1.51
      vertex 12.273 28.653 12.51
    endloop
  endfacet
  facet normal 0.649993 -0.75994 0
    outer loop
      vertex 9.389 26.697 1.51
      vertex 10.723 27.838 1.51
      vertex 10.723 27.838 12.51
    endloop
  endfacet
  facet normal 0.649993 -0.75994 0
    outer loop
      vertex 9.389 26.697 12.51
      vertex 9.389 26.697 1.51
      vertex 10.723 27.838 12.51
    endloop
  endfacet
  facet normal 0.799529 -0.600627 0
    outer loop
      vertex 8.317 25.27 1.51
      vertex 9.389 26.697 1.51
      vertex 9.389 26.697 12.51
    endloop
  endfacet
  facet normal 0.799529 -0.600627 0
    outer loop
      vertex 8.317 25.27 12.51
      vertex 8.317 25.27 1.51
      vertex 9.389 26.697 12.51
    endloop
  endfacet
  facet normal 0.909621 -0.415439 0
    outer loop
      vertex 7.552 23.595 1.51
      vertex 8.317 25.27 1.51
      vertex 8.317 25.27 12.51
    endloop
  endfacet
  facet normal 0.909621 -0.415439 0
    outer loop
      vertex 7.552 23.595 12.51
      vertex 7.552 23.595 1.51
      vertex 8.317 25.27 12.51
    endloop
  endfacet
  facet normal 0.972621 -0.232396 0
    outer loop
      vertex 7.093 21.674 1.51
      vertex 7.552 23.595 1.51
      vertex 7.552 23.595 12.51
    endloop
  endfacet
  facet normal 0.972621 -0.232396 0
    outer loop
      vertex 7.093 21.674 12.51
      vertex 7.093 21.674 1.51
      vertex 7.552 23.595 12.51
    endloop
  endfacet
endsolid OpenSCAD_Model
