<?xml version="1.0" encoding="UTF-8" standalone="no"?>
<!-- Created with Inkscape (http://www.inkscape.org/) -->

<svg
   xmlns:dc="http://purl.org/dc/elements/1.1/"
   xmlns:cc="http://creativecommons.org/ns#"
   xmlns:rdf="http://www.w3.org/1999/02/22-rdf-syntax-ns#"
   xmlns:svg="http://www.w3.org/2000/svg"
   xmlns="http://www.w3.org/2000/svg"
   xmlns:sodipodi="http://sodipodi.sourceforge.net/DTD/sodipodi-0.dtd"
   xmlns:inkscape="http://www.inkscape.org/namespaces/inkscape"
   width="248.03149"
   height="283.46457"
   id="svg2"
   version="1.1"
   inkscape:version="0.48.3.1 r9886"
   sodipodi:docname="J.svg">
  <defs
     id="defs4" />
  <sodipodi:namedview
     id="base"
     pagecolor="#ffffff"
     bordercolor="#666666"
     borderopacity="1.0"
     inkscape:pageopacity="0.0"
     inkscape:pageshadow="2"
     inkscape:zoom="2.9880278"
     inkscape:cx="78.835443"
     inkscape:cy="131.29524"
     inkscape:document-units="px"
     inkscape:current-layer="layer1"
     showgrid="false"
     units="cm"
     inkscape:window-width="1883"
     inkscape:window-height="1058"
     inkscape:window-x="37"
     inkscape:window-y="0"
     inkscape:window-maximized="1" />
  <metadata
     id="metadata7">
    <rdf:RDF>
      <cc:Work
         rdf:about="">
        <dc:format>image/svg+xml</dc:format>
        <dc:type
           rdf:resource="http://purl.org/dc/dcmitype/StillImage" />
        <dc:title></dc:title>
      </cc:Work>
    </rdf:RDF>
  </metadata>
  <g
     inkscape:label="cutter"
     inkscape:groupmode="layer"
     id="layer1"
     transform="translate(0,-768.89632)"
     style="display:inline">
    <path
       inkscape:connector-curvature="0"
       id="path3207"
       style="font-size:280px;font-style:normal;font-variant:normal;font-weight:900;font-stretch:normal;text-align:start;line-height:125%;letter-spacing:0px;word-spacing:0px;writing-mode:lr-tb;text-anchor:start;fill:#000000;fill-opacity:0.13564669;stroke:#000000;stroke-width:0.60000002;stroke-miterlimit:4;stroke-opacity:1;font-family:HelveticaRounded-Black;-inkscape-font-specification:HelveticaRounded-Black Heavy"
       d="m 113.78411,937.61131 c -1e-4,11.20006 -1.30677,19.04006 -3.92,23.52 -2.61343,4.29338 -6.62676,6.44004 -12.040004,6.44 -4.666744,4e-5 -8.400073,-1.49329 -11.2,-4.48 -2.800068,-2.98661 -4.200066,-7.65328 -4.2,-14 -6.6e-5,-8.21326 -2.613397,-14.55992 -7.84,-19.04 -5.22672,-4.47991 -11.57338,-6.71991 -19.04,-6.72 -10.453362,9e-5 -18.200021,2.98675 -23.24,8.96 -5.040011,5.78674 -7.560009,14.0934 -7.56,24.92 -9e-6,8.40005 1.773323,16.24004 5.32,23.52 3.546649,7.09336 8.679977,13.34669 15.4,18.76 6.719964,5.22669 14.653289,9.33329 23.8,12.31999 9.333271,2.9867 19.506594,4.48 30.52,4.48 10.079904,0 19.693234,-1.3067 28.840004,-3.92 9.33321,-2.6133 17.7332,-6.6266 25.2,-12.04 7.46652,-5.41331 13.34651,-12.31997 17.64,-20.71999 4.47984,-8.39996 6.71983,-18.19995 6.72,-29.4 l 0,-109.2 c -1.7e-4,-10.82648 -2.8935,-19.31981 -8.68,-25.48 -5.78682,-6.1598 -13.62681,-9.23979 -23.52,-9.24 -9.89346,2.1e-4 -17.73345,3.0802 -23.52,9.24 -5.78677,6.16019 -8.6801,14.65352 -8.68,25.48 l 0,96.6" />
    <path
       style="fill:none;stroke:#ff5206;stroke-width:0.5;stroke-linecap:butt;stroke-linejoin:miter;stroke-miterlimit:4;stroke-opacity:0.51757184;stroke-dasharray:none;display:inline"
       d="m 127.17419,891.05047 0,37.81759"
       id="path3759-0"
       inkscape:connector-curvature="0" />
    <path
       style="fill:none;stroke:#ff5206;stroke-width:0.5;stroke-linecap:butt;stroke-linejoin:miter;stroke-miterlimit:4;stroke-opacity:0.51757184;stroke-dasharray:none;display:inline"
       d="m 106.42471,910.12661 40.49494,0"
       id="path3761-4"
       inkscape:connector-curvature="0" />
  </g>
  <g
     inkscape:groupmode="layer"
     id="layer2"
     inkscape:label="outer"
     style="display:inline">
    <path
       inkscape:connector-curvature="0"
       id="path3203"
       style="font-size:280px;font-style:normal;font-variant:normal;font-weight:900;font-stretch:normal;text-align:start;line-height:125%;letter-spacing:0px;word-spacing:0px;writing-mode:lr-tb;text-anchor:start;fill:#000000;fill-opacity:0.13564669;stroke:#2000fe;stroke-width:2.5;stroke-miterlimit:4;stroke-opacity:0.15654949;font-family:HelveticaRounded-Black;-inkscape-font-specification:HelveticaRounded-Black Heavy"
       d="m 113.78411,168.71499 c -1e-4,11.20007 -1.30677,19.04006 -3.92,23.52 -2.61343,4.29338 -6.62676,6.44005 -12.040004,6.44 -4.666744,5e-5 -8.400073,-1.49328 -11.2,-4.48 -2.800068,-2.98661 -4.200066,-7.65327 -4.2,-14 -6.6e-5,-8.21326 -2.613397,-14.55992 -7.84,-19.04 -5.22672,-4.47991 -11.57338,-6.71991 -19.04,-6.72 -10.453362,9e-5 -18.200021,2.98676 -23.24,8.96 -5.040011,5.78674 -7.560009,14.0934 -7.56,24.92 -9e-6,8.40005 1.773323,16.24004 5.32,23.52 3.546649,7.09336 8.679977,13.34669 15.4,18.76 6.719964,5.22668 14.653289,9.33334 23.8,12.32 9.333271,2.98667 19.506594,4.48 30.52,4.48 10.079904,0 19.693234,-1.30667 28.840004,-3.92 9.33321,-2.61333 17.7332,-6.62666 25.2,-12.04 7.46652,-5.41331 13.34651,-12.31997 17.64,-20.72 4.47984,-8.39996 6.71983,-18.19995 6.72,-29.4 l 0,-109.199995 c -1.7e-4,-10.826486 -2.8935,-19.319811 -8.68,-25.48 -5.78682,-6.159798 -13.62681,-9.239795 -23.52,-9.24 -9.89346,2.05e-4 -17.73345,3.080202 -23.52,9.24 -5.78677,6.160189 -8.6801,14.653514 -8.68,25.48 l 0,96.599995" />
    <path
       style="fill:none;stroke:#ff5206;stroke-width:0.5;stroke-linecap:butt;stroke-linejoin:miter;stroke-miterlimit:4;stroke-opacity:0.51757184;stroke-dasharray:none;display:inline"
       d="m 127.17419,122.15415 0,37.81759"
       id="path3759-1"
       inkscape:connector-curvature="0" />
    <path
       style="fill:none;stroke:#ff5206;stroke-width:0.5;stroke-linecap:butt;stroke-linejoin:miter;stroke-miterlimit:4;stroke-opacity:0.51757184;stroke-dasharray:none;display:inline"
       d="m 106.42471,141.23029 40.49494,0"
       id="path3761-1"
       inkscape:connector-curvature="0" />
  </g>
  <g
     inkscape:groupmode="layer"
     id="layer3"
     inkscape:label="join"
     style="display:inline">
    <path
       style="fill:none;stroke:#ff5206;stroke-width:0.5;stroke-linecap:butt;stroke-linejoin:miter;stroke-miterlimit:4;stroke-opacity:0.51757184;stroke-dasharray:none"
       d="m 127.17419,122.15415 0,37.81759"
       id="path3759"
       inkscape:connector-curvature="0" />
    <path
       style="fill:none;stroke:#ff5206;stroke-width:0.5;stroke-linecap:butt;stroke-linejoin:miter;stroke-miterlimit:4;stroke-opacity:0.51757184;stroke-dasharray:none"
       d="m 106.42471,141.23029 40.49494,0"
       id="path3761"
       inkscape:connector-curvature="0" />
  </g>
</svg>
