<?xml version="1.0" encoding="UTF-8" standalone="no"?>
<!-- Created with Inkscape (http://www.inkscape.org/) -->

<svg
   xmlns:dc="http://purl.org/dc/elements/1.1/"
   xmlns:cc="http://creativecommons.org/ns#"
   xmlns:rdf="http://www.w3.org/1999/02/22-rdf-syntax-ns#"
   xmlns:svg="http://www.w3.org/2000/svg"
   xmlns="http://www.w3.org/2000/svg"
   xmlns:sodipodi="http://sodipodi.sourceforge.net/DTD/sodipodi-0.dtd"
   xmlns:inkscape="http://www.inkscape.org/namespaces/inkscape"
   width="248.03149"
   height="283.46457"
   id="svg2"
   version="1.1"
   inkscape:version="0.48.3.1 r9886"
   sodipodi:docname="O.svg">
  <defs
     id="defs4" />
  <sodipodi:namedview
     id="base"
     pagecolor="#ffffff"
     bordercolor="#666666"
     borderopacity="1.0"
     inkscape:pageopacity="0.0"
     inkscape:pageshadow="2"
     inkscape:zoom="2.9880278"
     inkscape:cx="47.081364"
     inkscape:cy="153.12091"
     inkscape:document-units="px"
     inkscape:current-layer="layer1"
     showgrid="false"
     units="cm"
     inkscape:window-width="1883"
     inkscape:window-height="1058"
     inkscape:window-x="37"
     inkscape:window-y="0"
     inkscape:window-maximized="1"
     showguides="true"
     inkscape:guide-bbox="true" />
  <metadata
     id="metadata7">
    <rdf:RDF>
      <cc:Work
         rdf:about="">
        <dc:format>image/svg+xml</dc:format>
        <dc:type
           rdf:resource="http://purl.org/dc/dcmitype/StillImage" />
        <dc:title />
      </cc:Work>
    </rdf:RDF>
  </metadata>
  <g
     inkscape:label="cutter"
     inkscape:groupmode="layer"
     id="layer1"
     transform="translate(0,-768.89632)"
     style="display:inline">
    <path
       inkscape:connector-curvature="0"
       id="path5646"
       style="font-size:280px;font-style:normal;font-variant:normal;font-weight:900;font-stretch:normal;text-align:start;line-height:125%;letter-spacing:0px;word-spacing:0px;writing-mode:lr-tb;text-anchor:start;fill:#000000;fill-opacity:0.13564669;stroke:#000000;stroke-width:0.60000002;stroke-miterlimit:4;stroke-opacity:1;font-family:HelveticaRounded-Black;-inkscape-font-specification:HelveticaRounded-Black Heavy"
       d="m 166.30411,910.73131 c -1.6e-4,16.98675 -3.36016,30.42674 -10.08,40.32 -6.72014,9.89338 -16.61347,14.84005 -29.68,14.84 -13.06677,5e-5 -22.9601,-4.94662 -29.680004,-14.84 -6.72008,-9.89326 -10.080077,-23.33325 -10.08,-40.32 -7.7e-5,-16.98655 3.35992,-30.42653 10.08,-40.32 6.719904,-9.89318 16.613234,-14.83984 29.680004,-14.84 13.06653,1.6e-4 22.95986,4.94682 29.68,14.84 6.71984,9.89347 10.07984,23.33345 10.08,40.32 m -143.920004,0 c -1.2e-5,17.54675 2.799985,33.04007 8.4,46.48 5.599974,13.44004 13.253299,24.5467 22.96,33.32 9.706613,8.58668 20.719936,15.02669 33.04,19.31999 12.506577,4.2933 25.759894,6.44 39.760004,6.44 13.99987,0 27.15985,-2.1467 39.48,-6.44 12.50649,-4.2933 23.61315,-10.73331 33.32,-19.31999 9.70646,-8.7733 17.35979,-19.87996 22.96,-33.32 5.59978,-13.43993 8.39978,-28.93325 8.4,-46.48 -2.2e-4,-16.98655 -2.80022,-32.10653 -8.4,-45.36 -5.60021,-13.43984 -13.34687,-24.54649 -23.24,-33.32 -9.70685,-8.95981 -20.81351,-15.6798 -33.32,-20.16 -12.50681,-4.47979 -25.57347,-6.71979 -39.2,-6.72 -13.62677,2.1e-4 -26.693427,2.24021 -39.200004,6.72 -12.320065,4.29353 -23.426721,10.92019 -33.32,19.88 -9.893367,8.96017 -17.640026,20.16016 -23.24,33.6 -5.600015,13.25347 -8.400012,28.37345 -8.4,45.36" />
    <path
       style="fill:none;stroke:#ff5206;stroke-width:0.5;stroke-linecap:butt;stroke-linejoin:miter;stroke-miterlimit:4;stroke-opacity:0.51757184;stroke-dasharray:none;display:inline"
       d="m 127.17419,891.05047 0,37.81759"
       id="path3759-0"
       inkscape:connector-curvature="0" />
    <path
       style="fill:none;stroke:#ff5206;stroke-width:0.5;stroke-linecap:butt;stroke-linejoin:miter;stroke-miterlimit:4;stroke-opacity:0.51757184;stroke-dasharray:none;display:inline"
       d="m 106.42471,910.12661 40.49494,0"
       id="path3761-4"
       inkscape:connector-curvature="0" />
  </g>
  <g
     inkscape:groupmode="layer"
     id="layer2"
     inkscape:label="outer"
     style="display:none">
    <path
       inkscape:connector-curvature="0"
       id="path5642"
       style="font-size:280px;font-style:normal;font-variant:normal;font-weight:900;font-stretch:normal;text-align:start;line-height:125%;letter-spacing:0px;word-spacing:0px;writing-mode:lr-tb;text-anchor:start;fill:#000000;fill-opacity:0.13564669;stroke:#2000fe;stroke-width:2.5;stroke-miterlimit:4;stroke-opacity:0.15654949;font-family:HelveticaRounded-Black;-inkscape-font-specification:HelveticaRounded-Black Heavy"
       d="m 166.30411,141.83499 c -1.6e-4,16.98675 -3.36016,30.42674 -10.08,40.32 -6.72014,9.89339 -16.61347,14.84005 -29.68,14.84 -13.06677,5e-5 -22.9601,-4.94661 -29.680004,-14.84 -6.72008,-9.89326 -10.080077,-23.33325 -10.08,-40.32 -7.7e-5,-16.98654 3.35992,-30.42653 10.08,-40.32 6.719904,-9.893178 16.613234,-14.83984 29.680004,-14.839995 13.06653,1.55e-4 22.95986,4.946817 29.68,14.839995 6.71984,9.89347 10.07984,23.33346 10.08,40.32 m -143.920004,0 c -1.2e-5,17.54675 2.799985,33.04007 8.4,46.48 5.599974,13.44005 13.253299,24.5467 22.96,33.32 9.706613,8.58668 20.719936,15.02668 33.04,19.32 12.506577,4.29334 25.759894,6.44 39.760004,6.44 13.99987,0 27.15985,-2.14666 39.48,-6.44 12.50649,-4.29332 23.61315,-10.73332 33.32,-19.32 9.70646,-8.7733 17.35979,-19.87995 22.96,-33.32 5.59978,-13.43993 8.39978,-28.93325 8.4,-46.48 -2.2e-4,-16.98654 -2.80022,-32.10653 -8.4,-45.359995 -5.60021,-13.439841 -13.34687,-24.546496 -23.24,-33.32 -9.70685,-8.959812 -20.81351,-15.679805 -33.32,-20.16 -12.50681,-4.479796 -25.57347,-6.719794 -39.2,-6.72 -13.62677,2.06e-4 -26.693427,2.240204 -39.200004,6.72 -12.320065,4.293528 -23.426721,10.920188 -33.32,19.88 -9.893367,8.96017 -17.640026,20.160159 -23.24,33.6 -5.600015,13.253465 -8.400012,28.373455 -8.4,45.359995" />
    <path
       style="fill:none;stroke:#ff5206;stroke-width:0.5;stroke-linecap:butt;stroke-linejoin:miter;stroke-miterlimit:4;stroke-opacity:0.51757184;stroke-dasharray:none;display:inline"
       d="m 127.17419,122.15415 0,37.81759"
       id="path3759-1"
       inkscape:connector-curvature="0" />
    <path
       style="fill:none;stroke:#ff5206;stroke-width:0.5;stroke-linecap:butt;stroke-linejoin:miter;stroke-miterlimit:4;stroke-opacity:0.51757184;stroke-dasharray:none;display:inline"
       d="m 106.42471,141.23029 40.49494,0"
       id="path3761-1"
       inkscape:connector-curvature="0" />
  </g>
  <g
     inkscape:groupmode="layer"
     id="layer3"
     inkscape:label="join"
     style="display:inline">
    <path
       style="fill:none;stroke:#ff5206;stroke-width:0.5;stroke-linecap:butt;stroke-linejoin:miter;stroke-miterlimit:4;stroke-opacity:0.51757184;stroke-dasharray:none"
       d="m 127.17419,122.15415 0,37.81759"
       id="path3759"
       inkscape:connector-curvature="0" />
    <path
       style="fill:none;stroke:#ff5206;stroke-width:0.5;stroke-linecap:butt;stroke-linejoin:miter;stroke-miterlimit:4;stroke-opacity:0.51757184;stroke-dasharray:none"
       d="m 106.42471,141.23029 40.49494,0"
       id="path3761"
       inkscape:connector-curvature="0" />
    <path
       inkscape:connector-curvature="0"
       id="path4743"
       style="fill:#fff603;fill-opacity:0.36213995;stroke:#f6ff0e;stroke-width:0.1;stroke-linecap:butt;stroke-linejoin:miter;stroke-miterlimit:4;stroke-opacity:1;stroke-dasharray:none"
       d="m 136.29756,247.08884 0,-51.18232 -4.43599,0.80092 -5.02189,0.22653 -4.67988,-0.16808 -4.99445,-0.75373 0,51.11957 9.67417,0.43031 z m 0,-210.513529 0,51.182317 -4.43599,-0.800914 -5.02189,-0.226527 -4.67988,0.168075 -4.99445,0.75373 0,-51.119567 9.67417,-0.430316 z m -113.574295,95.092869 64.549266,0 -0.536816,9.45788 0.375607,9.67434 -64.549266,0 -0.252831,-9.67418 z m 207.582745,0 -64.54927,0 0.53682,9.45788 -0.37561,9.67434 64.54926,0 0.25284,-9.67418 z" />
  </g>
</svg>
