<?xml version="1.0" encoding="UTF-8" standalone="no"?>
<!-- Created with Inkscape (http://www.inkscape.org/) -->

<svg
   xmlns:dc="http://purl.org/dc/elements/1.1/"
   xmlns:cc="http://creativecommons.org/ns#"
   xmlns:rdf="http://www.w3.org/1999/02/22-rdf-syntax-ns#"
   xmlns:svg="http://www.w3.org/2000/svg"
   xmlns="http://www.w3.org/2000/svg"
   xmlns:sodipodi="http://sodipodi.sourceforge.net/DTD/sodipodi-0.dtd"
   xmlns:inkscape="http://www.inkscape.org/namespaces/inkscape"
   width="248.03149"
   height="283.46457"
   id="svg2"
   version="1.1"
   inkscape:version="0.48.3.1 r9886"
   sodipodi:docname="P.svg">
  <defs
     id="defs4" />
  <sodipodi:namedview
     id="base"
     pagecolor="#ffffff"
     bordercolor="#666666"
     borderopacity="1.0"
     inkscape:pageopacity="0.0"
     inkscape:pageshadow="2"
     inkscape:zoom="2.9880278"
     inkscape:cx="61.863266"
     inkscape:cy="138.4372"
     inkscape:document-units="px"
     inkscape:current-layer="layer1"
     showgrid="false"
     units="cm"
     inkscape:window-width="1883"
     inkscape:window-height="1058"
     inkscape:window-x="37"
     inkscape:window-y="0"
     inkscape:window-maximized="1" />
  <metadata
     id="metadata7">
    <rdf:RDF>
      <cc:Work
         rdf:about="">
        <dc:format>image/svg+xml</dc:format>
        <dc:type
           rdf:resource="http://purl.org/dc/dcmitype/StillImage" />
        <dc:title></dc:title>
      </cc:Work>
    </rdf:RDF>
  </metadata>
  <g
     inkscape:label="cutter"
     inkscape:groupmode="layer"
     id="layer1"
     transform="translate(0,-768.89632)"
     style="display:inline">
    <path
       inkscape:connector-curvature="0"
       id="path5409"
       style="font-size:280px;font-style:normal;font-variant:normal;font-weight:900;font-stretch:normal;text-align:start;line-height:125%;letter-spacing:0px;word-spacing:0px;writing-mode:lr-tb;text-anchor:start;fill:#000000;fill-opacity:0.13564669;stroke:#000000;stroke-width:0.60000002;stroke-miterlimit:4;stroke-opacity:1;font-family:HelveticaRounded-Black;-inkscape-font-specification:HelveticaRounded-Black Heavy"
       d="m 39.024106,981.57131 c -2.3e-5,10.82669 2.706641,19.13339 8.12,24.91999 5.413297,5.7867 13.159956,8.68 23.24,8.68 10.079936,0 17.826595,-2.8933 23.24,-8.68 5.41325,-5.7866 8.119914,-14.0933 8.120004,-24.91999 l 0,-32.48 32.2,0 c 13.06653,6e-5 24.82652,-1.11994 35.28,-3.36 10.45317,-2.23993 19.59982,-5.97326 27.44,-11.2 8.02647,-5.41325 14.18647,-12.59991 18.48,-21.56 4.47979,-9.14656 6.71979,-20.25321 6.72,-33.32 -2.1e-4,-13.25319 -2.24021,-24.35984 -6.72,-33.32 -4.29353,-9.14649 -10.45353,-16.33315 -18.48,-21.56 -7.84018,-5.41314 -16.98683,-9.2398 -27.44,-11.48 -10.45348,-2.2398 -22.21347,-3.3598 -35.28,-3.36 l -58.240004,0 c -12.506714,2e-4 -21.746705,3.0802 -27.72,9.24 -5.973359,6.16019 -8.960023,15.86684 -8.96,29.12 l 0,133.28 m 62.720004,-81.2 0,-41.72 32.48,0 c 7.83987,1.5e-4 13.90653,1.86682 18.2,5.6 4.47986,3.73348 6.71985,8.96014 6.72,15.68 -1.5e-4,6.53346 -2.24014,11.57345 -6.72,15.12 -4.29347,3.54678 -9.33346,5.32011 -15.12,5.32 l -35.56,0" />
    <path
       style="fill:none;stroke:#ff5206;stroke-width:0.5;stroke-linecap:butt;stroke-linejoin:miter;stroke-miterlimit:4;stroke-opacity:0.51757184;stroke-dasharray:none;display:inline"
       d="m 127.17419,891.05047 0,37.81759"
       id="path3759-0"
       inkscape:connector-curvature="0" />
    <path
       style="fill:none;stroke:#ff5206;stroke-width:0.5;stroke-linecap:butt;stroke-linejoin:miter;stroke-miterlimit:4;stroke-opacity:0.51757184;stroke-dasharray:none;display:inline"
       d="m 106.42471,910.12661 40.49494,0"
       id="path3761-4"
       inkscape:connector-curvature="0" />
  </g>
  <g
     inkscape:groupmode="layer"
     id="layer2"
     inkscape:label="outer"
     style="display:inline">
    <path
       inkscape:connector-curvature="0"
       id="path5405"
       style="font-size:280px;font-style:normal;font-variant:normal;font-weight:900;font-stretch:normal;text-align:start;line-height:125%;letter-spacing:0px;word-spacing:0px;writing-mode:lr-tb;text-anchor:start;fill:#000000;fill-opacity:0.13564669;stroke:#2000fe;stroke-width:2.5;stroke-miterlimit:4;stroke-opacity:0.15654949;font-family:HelveticaRounded-Black;-inkscape-font-specification:HelveticaRounded-Black Heavy"
       d="m 39.024106,212.67499 c -2.3e-5,10.82669 2.706641,19.13335 8.12,24.92 5.413297,5.78667 13.159956,8.68 23.24,8.68 10.079936,0 17.826595,-2.89333 23.24,-8.68 5.41325,-5.78665 8.119914,-14.09331 8.120004,-24.92 l 0,-32.48 32.2,0 c 13.06653,7e-5 24.82652,-1.11993 35.28,-3.36 10.45317,-2.23993 19.59982,-5.97326 27.44,-11.2 8.02647,-5.41325 14.18647,-12.59991 18.48,-21.56 4.47979,-9.14655 6.71979,-20.25321 6.72,-33.32 -2.1e-4,-13.253184 -2.24021,-24.359839 -6.72,-33.319995 -4.29353,-9.146493 -10.45353,-16.333152 -18.48,-21.56 -7.84018,-5.413142 -16.98683,-9.239804 -27.44,-11.48 -10.45348,-2.2398 -22.21347,-3.359799 -35.28,-3.36 l -58.240004,0 c -12.506714,2.01e-4 -21.746705,3.080198 -27.72,9.24 -5.973359,6.160186 -8.960023,15.866843 -8.96,29.12 l 0,133.279995 m 62.720004,-81.2 0,-41.719995 32.48,0 c 7.83987,1.52e-4 13.90653,1.866817 18.2,5.6 4.47986,3.733476 6.71985,8.960135 6.72,15.679995 -1.5e-4,6.53346 -2.24014,11.57346 -6.72,15.12 -4.29347,3.54678 -9.33346,5.32012 -15.12,5.32 l -35.56,0" />
    <path
       style="fill:none;stroke:#ff5206;stroke-width:0.5;stroke-linecap:butt;stroke-linejoin:miter;stroke-miterlimit:4;stroke-opacity:0.51757184;stroke-dasharray:none;display:inline"
       d="m 127.17419,122.15415 0,37.81759"
       id="path3759-1"
       inkscape:connector-curvature="0" />
    <path
       style="fill:none;stroke:#ff5206;stroke-width:0.5;stroke-linecap:butt;stroke-linejoin:miter;stroke-miterlimit:4;stroke-opacity:0.51757184;stroke-dasharray:none;display:inline"
       d="m 106.42471,141.23029 40.49494,0"
       id="path3761-1"
       inkscape:connector-curvature="0" />
  </g>
  <g
     inkscape:groupmode="layer"
     id="layer3"
     inkscape:label="join"
     style="display:inline">
    <path
       style="fill:none;stroke:#ff5206;stroke-width:0.5;stroke-linecap:butt;stroke-linejoin:miter;stroke-miterlimit:4;stroke-opacity:0.51757184;stroke-dasharray:none"
       d="m 127.17419,122.15415 0,37.81759"
       id="path3759"
       inkscape:connector-curvature="0" />
    <path
       style="fill:none;stroke:#ff5206;stroke-width:0.5;stroke-linecap:butt;stroke-linejoin:miter;stroke-miterlimit:4;stroke-opacity:0.51757184;stroke-dasharray:none"
       d="m 106.42471,141.23029 40.49494,0"
       id="path3761"
       inkscape:connector-curvature="0" />
    <path
       id="path5310"
       style="fill:#ffff00;fill-opacity:0.39917698;stroke:#ffff00;stroke-width:0.2;stroke-linecap:butt;stroke-linejoin:miter;stroke-miterlimit:4;stroke-opacity:1;stroke-dasharray:none"
       d="m 101.99034,131.48306 0,48.69433 23.80156,0 0,-48.69433 z m -0.0837,-90.486115 0,48.694326 23.80156,0 0,-48.694326 z"
       inkscape:connector-curvature="0" />
  </g>
</svg>
