<?xml version="1.0" encoding="UTF-8" standalone="no"?>
<!-- Created with Inkscape (http://www.inkscape.org/) -->

<svg
   xmlns:dc="http://purl.org/dc/elements/1.1/"
   xmlns:cc="http://creativecommons.org/ns#"
   xmlns:rdf="http://www.w3.org/1999/02/22-rdf-syntax-ns#"
   xmlns:svg="http://www.w3.org/2000/svg"
   xmlns="http://www.w3.org/2000/svg"
   xmlns:sodipodi="http://sodipodi.sourceforge.net/DTD/sodipodi-0.dtd"
   xmlns:inkscape="http://www.inkscape.org/namespaces/inkscape"
   width="248.03149"
   height="283.46457"
   id="svg2"
   version="1.1"
   inkscape:version="0.48.3.1 r9886"
   sodipodi:docname="Q.svg">
  <defs
     id="defs4" />
  <sodipodi:namedview
     id="base"
     pagecolor="#ffffff"
     bordercolor="#666666"
     borderopacity="1.0"
     inkscape:pageopacity="0.0"
     inkscape:pageshadow="2"
     inkscape:zoom="2.9880278"
     inkscape:cx="78.105146"
     inkscape:cy="123.30002"
     inkscape:document-units="px"
     inkscape:current-layer="layer3"
     showgrid="false"
     units="cm"
     inkscape:window-width="1883"
     inkscape:window-height="1058"
     inkscape:window-x="37"
     inkscape:window-y="0"
     inkscape:window-maximized="1" />
  <metadata
     id="metadata7">
    <rdf:RDF>
      <cc:Work
         rdf:about="">
        <dc:format>image/svg+xml</dc:format>
        <dc:type
           rdf:resource="http://purl.org/dc/dcmitype/StillImage" />
        <dc:title></dc:title>
      </cc:Work>
    </rdf:RDF>
  </metadata>
  <g
     inkscape:label="cutter"
     inkscape:groupmode="layer"
     id="layer1"
     transform="translate(0,-768.89632)"
     style="display:inline">
    <path
       inkscape:connector-curvature="0"
       id="path5547"
       style="font-size:280px;font-style:normal;font-variant:normal;font-weight:900;font-stretch:normal;text-align:start;line-height:125%;letter-spacing:0px;word-spacing:0px;writing-mode:lr-tb;text-anchor:start;fill:#000000;fill-opacity:0.13564669;stroke:#000000;stroke-width:0.60000002;stroke-miterlimit:4;stroke-opacity:1;font-family:HelveticaRounded-Black;-inkscape-font-specification:HelveticaRounded-Black Heavy"
       d="m 135.50411,964.77131 c -2.42679,0.74671 -5.41346,1.12005 -8.96,1.12 -13.06677,5e-5 -22.9601,-4.94662 -29.680004,-14.84 -6.72008,-9.89326 -10.080077,-23.33325 -10.08,-40.32 -7.7e-5,-16.98655 3.35992,-30.42653 10.08,-40.32 6.719904,-9.89318 16.613234,-14.83984 29.680004,-14.84 13.06653,1.6e-4 22.95986,4.94682 29.68,14.84 6.71984,9.89347 10.07984,23.33345 10.08,40.32 -1.6e-4,9.33343 -0.93349,17.17342 -2.8,23.52 l -5.32,-5.6 c -2.80015,-2.79991 -5.78681,-4.85324 -8.96,-6.16 -2.98681,-1.49324 -5.88014,-2.23991 -8.68,-2.24 -5.60013,9e-5 -10.45346,2.05342 -14.56,6.16 -4.10678,3.92008 -6.16011,8.68008 -6.16,14.28 -1.1e-4,2.24007 0.93322,5.04007 2.8,8.4 1.86655,3.36006 4.29321,6.62672 7.28,9.8 l 5.6,5.88 m 50.96,53.19999 c 4.10648,4.1067 7.55981,7 10.36,8.68 2.98647,1.8667 5.8798,2.8 8.68,2.8 6.71979,0 12.13312,-2.3333 16.24,-7 4.10645,-4.6667 6.15978,-9.4267 6.16,-14.28 -2.2e-4,-2.8 -0.93355,-5.6 -2.8,-8.39999 -1.86688,-2.98665 -5.04021,-6.81331 -9.52,-11.48 l -7.28,-7.56 c 7.09312,-8.58663 12.59979,-18.66662 16.52,-30.24 3.91978,-11.75993 5.87978,-25.01325 5.88,-39.76 -2.2e-4,-16.98655 -2.80022,-32.10653 -8.4,-45.36 -5.60021,-13.43984 -13.34687,-24.54649 -23.24,-33.32 -9.70685,-8.95981 -20.81351,-15.6798 -33.32,-20.16 -12.50681,-4.47979 -25.57347,-6.71979 -39.2,-6.72 -13.62677,2.1e-4 -26.693427,2.24021 -39.200004,6.72 -12.320065,4.29353 -23.426721,10.92019 -33.32,19.88 -9.893367,8.96017 -17.640026,20.16016 -23.24,33.6 -5.600015,13.25347 -8.400012,28.37345 -8.4,45.36 -1.2e-5,17.54675 2.799985,33.04007 8.4,46.48 5.599974,13.44004 13.253299,24.5467 22.96,33.32 9.706613,8.58668 20.719936,15.02669 33.04,19.31999 12.506577,4.2933 25.759894,6.44 39.760004,6.44 17.7332,0 33.97318,-3.36 48.72,-10.08 l 11.2,11.76" />
    <path
       style="fill:none;stroke:#ff5206;stroke-width:0.5;stroke-linecap:butt;stroke-linejoin:miter;stroke-miterlimit:4;stroke-opacity:0.51757184;stroke-dasharray:none;display:inline"
       d="m 127.17419,891.05047 0,37.81759"
       id="path3759-0"
       inkscape:connector-curvature="0" />
    <path
       style="fill:none;stroke:#ff5206;stroke-width:0.5;stroke-linecap:butt;stroke-linejoin:miter;stroke-miterlimit:4;stroke-opacity:0.51757184;stroke-dasharray:none;display:inline"
       d="m 106.42471,910.12661 40.49494,0"
       id="path3761-4"
       inkscape:connector-curvature="0" />
  </g>
  <g
     inkscape:groupmode="layer"
     id="layer2"
     inkscape:label="outer"
     style="display:inline">
    <path
       inkscape:connector-curvature="0"
       id="path5543"
       style="font-size:280px;font-style:normal;font-variant:normal;font-weight:900;font-stretch:normal;text-align:start;line-height:125%;letter-spacing:0px;word-spacing:0px;writing-mode:lr-tb;text-anchor:start;fill:#000000;fill-opacity:0.13564669;stroke:#2000fe;stroke-width:2.5;stroke-miterlimit:4;stroke-opacity:0.15654949;font-family:HelveticaRounded-Black;-inkscape-font-specification:HelveticaRounded-Black Heavy"
       d="m 135.50411,195.87499 c -2.42679,0.74672 -5.41346,1.12005 -8.96,1.12 -13.06677,5e-5 -22.9601,-4.94661 -29.680004,-14.84 -6.72008,-9.89326 -10.080077,-23.33325 -10.08,-40.32 -7.7e-5,-16.98654 3.35992,-30.42653 10.08,-40.32 6.719904,-9.893178 16.613234,-14.83984 29.680004,-14.839995 13.06653,1.55e-4 22.95986,4.946817 29.68,14.839995 6.71984,9.89347 10.07984,23.33346 10.08,40.32 -1.6e-4,9.33343 -0.93349,17.17342 -2.8,23.52 l -5.32,-5.6 c -2.80015,-2.79991 -5.78681,-4.85324 -8.96,-6.16 -2.98681,-1.49324 -5.88014,-2.2399 -8.68,-2.24 -5.60013,1e-4 -10.45346,2.05343 -14.56,6.16 -4.10678,3.92009 -6.16011,8.68008 -6.16,14.28 -1.1e-4,2.24007 0.93322,5.04007 2.8,8.4 1.86655,3.36006 4.29321,6.62673 7.28,9.8 l 5.6,5.88 m 50.96,53.2 c 4.10648,4.10666 7.55981,6.99999 10.36,8.68 2.98647,1.86665 5.8798,2.79999 8.68,2.8 6.71979,-10e-6 12.13312,-2.33334 16.24,-7 4.10645,-4.66667 6.15978,-9.42666 6.16,-14.28 -2.2e-4,-2.79999 -0.93355,-5.59999 -2.8,-8.4 -1.86688,-2.98665 -5.04021,-6.81331 -9.52,-11.48 l -7.28,-7.56 c 7.09312,-8.58662 12.59979,-18.66661 16.52,-30.24 3.91978,-11.75992 5.87978,-25.01324 5.88,-39.76 -2.2e-4,-16.98654 -2.80022,-32.10653 -8.4,-45.359995 -5.60021,-13.439841 -13.34687,-24.546496 -23.24,-33.32 -9.70685,-8.959812 -20.81351,-15.679805 -33.32,-20.16 -12.50681,-4.479796 -25.57347,-6.719794 -39.2,-6.72 -13.62677,2.06e-4 -26.693427,2.240204 -39.200004,6.72 -12.320065,4.293528 -23.426721,10.920188 -33.32,19.88 -9.893367,8.96017 -17.640026,20.160159 -23.24,33.6 -5.600015,13.253465 -8.400012,28.373455 -8.4,45.359995 -1.2e-5,17.54675 2.799985,33.04007 8.4,46.48 5.599974,13.44005 13.253299,24.5467 22.96,33.32 9.706613,8.58668 20.719936,15.02668 33.04,19.32 12.506577,4.29334 25.759894,6.44 39.760004,6.44 17.7332,0 33.97318,-3.36 48.72,-10.08 l 11.2,11.76" />
    <path
       style="fill:none;stroke:#ff5206;stroke-width:0.5;stroke-linecap:butt;stroke-linejoin:miter;stroke-miterlimit:4;stroke-opacity:0.51757184;stroke-dasharray:none;display:inline"
       d="m 127.17419,122.15415 0,37.81759"
       id="path3759-1"
       inkscape:connector-curvature="0" />
    <path
       style="fill:none;stroke:#ff5206;stroke-width:0.5;stroke-linecap:butt;stroke-linejoin:miter;stroke-miterlimit:4;stroke-opacity:0.51757184;stroke-dasharray:none;display:inline"
       d="m 106.42471,141.23029 40.49494,0"
       id="path3761-1"
       inkscape:connector-curvature="0" />
  </g>
  <g
     inkscape:groupmode="layer"
     id="layer3"
     inkscape:label="join"
     style="display:inline">
    <path
       style="fill:none;stroke:#ff5206;stroke-width:0.5;stroke-linecap:butt;stroke-linejoin:miter;stroke-miterlimit:4;stroke-opacity:0.51757184;stroke-dasharray:none"
       d="m 127.17419,122.15415 0,37.81759"
       id="path3759"
       inkscape:connector-curvature="0" />
    <path
       style="fill:none;stroke:#ff5206;stroke-width:0.5;stroke-linecap:butt;stroke-linejoin:miter;stroke-miterlimit:4;stroke-opacity:0.51757184;stroke-dasharray:none"
       d="m 106.42471,141.23029 40.49494,0"
       id="path3761"
       inkscape:connector-curvature="0" />
    <path
       inkscape:connector-curvature="0"
       id="path4743"
       style="fill:#fff603;fill-opacity:0.36213995;stroke:#f6ff0e;stroke-width:0.1;stroke-linecap:butt;stroke-linejoin:miter;stroke-miterlimit:4;stroke-opacity:1;stroke-dasharray:none;display:inline"
       d="m 136.29756,247.08884 -1.04584,-51.09865 -3.39015,0.71725 -5.02189,0.22653 -4.67988,-0.16808 -4.99445,-0.75373 0,51.11957 9.67417,0.43031 z m 0,-210.513529 0,51.182317 -4.43599,-0.800914 -5.02189,-0.226527 -4.67988,0.168075 -4.99445,0.75373 0,-51.119567 9.67417,-0.430316 z m -113.574295,95.092869 64.549266,0 -0.536816,9.45788 0.375607,9.67434 -64.549266,0 -0.252831,-9.67418 z m 207.582735,0 -64.54927,0 0.53682,9.45788 -0.37561,9.67434 64.54926,0 0.25284,-9.67418 z"
       sodipodi:nodetypes="cccccccccccccccccccccccccccccccc" />
  </g>
</svg>
