<?xml version="1.0" encoding="UTF-8" standalone="no"?>
<!-- Created with Inkscape (http://www.inkscape.org/) -->

<svg
   xmlns:dc="http://purl.org/dc/elements/1.1/"
   xmlns:cc="http://creativecommons.org/ns#"
   xmlns:rdf="http://www.w3.org/1999/02/22-rdf-syntax-ns#"
   xmlns:svg="http://www.w3.org/2000/svg"
   xmlns="http://www.w3.org/2000/svg"
   xmlns:sodipodi="http://sodipodi.sourceforge.net/DTD/sodipodi-0.dtd"
   xmlns:inkscape="http://www.inkscape.org/namespaces/inkscape"
   width="248.03149"
   height="283.46457"
   id="svg2"
   version="1.1"
   inkscape:version="0.48.3.1 r9886"
   sodipodi:docname="S.svg">
  <defs
     id="defs4" />
  <sodipodi:namedview
     id="base"
     pagecolor="#ffffff"
     bordercolor="#666666"
     borderopacity="1.0"
     inkscape:pageopacity="0.0"
     inkscape:pageshadow="2"
     inkscape:zoom="2.9880278"
     inkscape:cx="78.835447"
     inkscape:cy="131.29524"
     inkscape:document-units="px"
     inkscape:current-layer="layer2"
     showgrid="false"
     units="cm"
     inkscape:window-width="1883"
     inkscape:window-height="1058"
     inkscape:window-x="37"
     inkscape:window-y="0"
     inkscape:window-maximized="1" />
  <metadata
     id="metadata7">
    <rdf:RDF>
      <cc:Work
         rdf:about="">
        <dc:format>image/svg+xml</dc:format>
        <dc:type
           rdf:resource="http://purl.org/dc/dcmitype/StillImage" />
        <dc:title />
      </cc:Work>
    </rdf:RDF>
  </metadata>
  <g
     inkscape:label="cutter"
     inkscape:groupmode="layer"
     id="layer1"
     transform="translate(0,-768.89632)"
     style="display:inline">
    <path
       inkscape:connector-curvature="0"
       id="path5867"
       style="font-size:280px;font-style:normal;font-variant:normal;font-weight:900;font-stretch:normal;text-align:start;line-height:125%;letter-spacing:0px;word-spacing:0px;writing-mode:lr-tb;text-anchor:start;fill:#000000;fill-opacity:0.13564669;stroke:#000000;stroke-width:0.60000002;stroke-miterlimit:4;stroke-opacity:1;font-family:HelveticaRounded-Black;-inkscape-font-specification:HelveticaRounded-Black Heavy"
       d="m 140.94411,954.13131 c -1.3e-4,5.78672 -2.33346,10.08005 -7,12.88 -4.66678,2.61338 -10.64011,3.92004 -17.92,3.92 -7.65343,4e-5 -13.81342,-1.39996 -18.480004,-4.2 -4.666743,-2.79995 -9.706738,-6.90661 -15.12,-12.32 -4.480062,-4.29327 -8.400058,-7.4666 -11.76,-9.52 -3.360051,-2.23993 -7.373381,-3.35993 -12.04,-3.36 -7.840035,7e-5 -14.373362,2.42674 -19.6,7.28 -5.040018,4.85339 -7.560015,11.20005 -7.56,19.04 -1.5e-5,5.04004 1.493316,10.36003 4.48,15.96 3.17331,5.41336 8.213305,10.64002 15.12,15.68 6.906625,5.03999 16.146616,9.05329 27.72,12.03999 11.573259,3.1733 25.293244,4.76 41.160004,4.76 11.01321,0 21.46654,-1.4 31.36,-4.2 10.07985,-2.6133 19.03984,-6.72 26.88,-12.31999 7.83983,-5.78665 13.99982,-12.97331 18.48,-21.56 4.66648,-8.77329 6.99981,-18.94661 7,-30.52 -1.9e-4,-16.42659 -4.94685,-29.21324 -14.84,-38.36 -9.70683,-9.33322 -23.80015,-16.51988 -42.28,-21.56 l -33.32,-8.96 c -7.46676,-2.0532 -12.97342,-4.19986 -16.520004,-6.44 -3.360077,-2.42652 -5.040076,-5.78652 -5.04,-10.08 -7.6e-5,-4.29318 1.959922,-7.55984 5.88,-9.8 4.106584,-2.4265 9.146574,-3.63984 15.120004,-3.64 7.83989,1.6e-4 13.99989,1.2135 18.48,3.64 4.47988,2.42682 9.23987,5.88015 14.28,10.36 3.91986,3.73348 7.27986,6.44014 10.08,8.12 2.98652,1.68014 6.62652,2.52014 10.92,2.52 8.21317,1.4e-4 14.93316,-2.33319 20.16,-7 5.22649,-4.66652 7.83982,-10.82651 7.84,-18.48 -1.8e-4,-8.02649 -2.61351,-14.83982 -7.84,-20.44 -5.04017,-5.59981 -11.76016,-9.98647 -20.16,-13.16 -8.40015,-3.3598 -17.5468,-5.69313 -27.44,-7 -9.70678,-1.49313 -19.69344,-2.23979 -29.96,-2.24 -13.62675,2.1e-4 -25.480071,1.77354 -35.560004,5.32 -9.893381,3.54687 -18.013373,8.40019 -24.36,14.56 -6.346693,5.97351 -11.013355,12.88017 -14,20.72 -2.986683,7.65349 -4.480015,15.86682 -4.48,24.64 -1.5e-5,14.00013 4.199981,25.76012 12.6,35.28 8.586631,9.5201 20.999952,16.61342 37.24,21.28 l 42.840004,12.32 c 6.34655,1.86674 10.82654,3.82674 13.44,5.88 2.79987,2.0534 4.19987,5.04006 4.2,8.96" />
    <path
       style="fill:none;stroke:#ff5206;stroke-width:0.5;stroke-linecap:butt;stroke-linejoin:miter;stroke-miterlimit:4;stroke-opacity:0.51757184;stroke-dasharray:none;display:inline"
       d="m 127.17419,891.05047 0,37.81759"
       id="path3759-0"
       inkscape:connector-curvature="0" />
    <path
       style="fill:none;stroke:#ff5206;stroke-width:0.5;stroke-linecap:butt;stroke-linejoin:miter;stroke-miterlimit:4;stroke-opacity:0.51757184;stroke-dasharray:none;display:inline"
       d="m 106.42471,910.12661 40.49494,0"
       id="path3761-4"
       inkscape:connector-curvature="0" />
  </g>
  <g
     inkscape:groupmode="layer"
     id="layer2"
     inkscape:label="outer"
     style="display:inline">
    <path
       inkscape:connector-curvature="0"
       id="path5863"
       style="font-size:280px;font-style:normal;font-variant:normal;font-weight:900;font-stretch:normal;text-align:start;line-height:125%;letter-spacing:0px;word-spacing:0px;writing-mode:lr-tb;text-anchor:start;fill:#000000;fill-opacity:0.13564669;stroke:#2000fe;stroke-width:2.5;stroke-miterlimit:4;stroke-opacity:0.15654949;font-family:HelveticaRounded-Black;-inkscape-font-specification:HelveticaRounded-Black Heavy"
       d="m 140.94411,185.23499 c -1.3e-4,5.78672 -2.33346,10.08005 -7,12.88 -4.66678,2.61338 -10.64011,3.92005 -17.92,3.92 -7.65343,5e-5 -13.81342,-1.39995 -18.480004,-4.2 -4.666743,-2.79995 -9.706738,-6.90661 -15.12,-12.32 -4.480062,-4.29327 -8.400058,-7.4666 -11.76,-9.52 -3.360051,-2.23993 -7.373381,-3.35993 -12.04,-3.36 -7.840035,7e-5 -14.373362,2.42674 -19.6,7.28 -5.040018,4.8534 -7.560015,11.20006 -7.56,19.04 -1.5e-5,5.04004 1.493316,10.36004 4.48,15.96 3.17331,5.41336 8.213305,10.64002 15.12,15.68 6.906625,5.04001 16.146616,9.05334 27.72,12.04 11.573259,3.17333 25.293244,4.76 41.160004,4.76 11.01321,0 21.46654,-1.4 31.36,-4.2 10.07985,-2.61333 19.03984,-6.71999 26.88,-12.32 7.83983,-5.78664 13.99982,-12.9733 18.48,-21.56 4.66648,-8.77329 6.99981,-18.94661 7,-30.52 -1.9e-4,-16.42658 -4.94685,-29.21324 -14.84,-38.36 -9.70683,-9.33322 -23.80015,-16.51988 -42.28,-21.56 l -33.32,-8.96 c -7.46676,-2.05319 -12.97342,-4.19986 -16.520004,-6.44 -3.360077,-2.42652 -5.040076,-5.786517 -5.04,-10.079995 -7.6e-5,-4.29318 1.959922,-7.559844 5.88,-9.8 4.106584,-2.426506 9.146574,-3.639838 15.120004,-3.64 7.83989,1.62e-4 13.99989,1.213494 18.48,3.64 4.47988,2.426823 9.23987,5.880153 14.28,10.36 3.91986,3.733478 7.27986,6.440145 10.08,8.119995 2.98652,1.68014 6.62652,2.52014 10.92,2.52 8.21317,1.4e-4 14.93316,-2.33319 20.16,-6.999995 5.22649,-4.666517 7.83982,-10.826511 7.84,-18.48 -1.8e-4,-8.026496 -2.61351,-14.839822 -7.84,-20.44 -5.04017,-5.599811 -11.76016,-9.986473 -20.16,-13.16 -8.40015,-3.3598 -17.5468,-5.693131 -27.44,-7 -9.70678,-1.493128 -19.69344,-2.239794 -29.96,-2.24 -13.62675,2.06e-4 -25.480071,1.773537 -35.560004,5.32 -9.893381,3.546864 -18.013373,8.400192 -24.36,14.56 -6.346693,5.973513 -11.013355,12.880173 -14,20.72 -2.986683,7.653491 -4.480015,15.866816 -4.48,24.639995 -1.5e-5,14.00013 4.199981,25.76012 12.6,35.28 8.586631,9.5201 20.999952,16.61343 37.24,21.28 l 42.840004,12.32 c 6.34655,1.86674 10.82654,3.82674 13.44,5.88 2.79987,2.0534 4.19987,5.04007 4.2,8.96" />
    <path
       style="fill:none;stroke:#ff5206;stroke-width:0.5;stroke-linecap:butt;stroke-linejoin:miter;stroke-miterlimit:4;stroke-opacity:0.51757184;stroke-dasharray:none;display:inline"
       d="m 127.17419,122.15415 0,37.81759"
       id="path3759-1"
       inkscape:connector-curvature="0" />
    <path
       style="fill:none;stroke:#ff5206;stroke-width:0.5;stroke-linecap:butt;stroke-linejoin:miter;stroke-miterlimit:4;stroke-opacity:0.51757184;stroke-dasharray:none;display:inline"
       d="m 106.42471,141.23029 40.49494,0"
       id="path3761-1"
       inkscape:connector-curvature="0" />
  </g>
  <g
     inkscape:groupmode="layer"
     id="layer3"
     inkscape:label="join"
     style="display:inline">
    <path
       style="fill:none;stroke:#ff5206;stroke-width:0.5;stroke-linecap:butt;stroke-linejoin:miter;stroke-miterlimit:4;stroke-opacity:0.51757184;stroke-dasharray:none"
       d="m 127.17419,122.15415 0,37.81759"
       id="path3759"
       inkscape:connector-curvature="0" />
    <path
       style="fill:none;stroke:#ff5206;stroke-width:0.5;stroke-linecap:butt;stroke-linejoin:miter;stroke-miterlimit:4;stroke-opacity:0.51757184;stroke-dasharray:none"
       d="m 106.42471,141.23029 40.49494,0"
       id="path3761"
       inkscape:connector-curvature="0" />
  </g>
</svg>
