<?xml version="1.0" encoding="UTF-8" standalone="no"?>
<!-- Created with Inkscape (http://www.inkscape.org/) -->

<svg
   xmlns:dc="http://purl.org/dc/elements/1.1/"
   xmlns:cc="http://creativecommons.org/ns#"
   xmlns:rdf="http://www.w3.org/1999/02/22-rdf-syntax-ns#"
   xmlns:svg="http://www.w3.org/2000/svg"
   xmlns="http://www.w3.org/2000/svg"
   xmlns:sodipodi="http://sodipodi.sourceforge.net/DTD/sodipodi-0.dtd"
   xmlns:inkscape="http://www.inkscape.org/namespaces/inkscape"
   width="248.03149"
   height="283.46457"
   id="svg2"
   version="1.1"
   inkscape:version="0.48.3.1 r9886"
   sodipodi:docname="U.svg">
  <defs
     id="defs4" />
  <sodipodi:namedview
     id="base"
     pagecolor="#ffffff"
     bordercolor="#666666"
     borderopacity="1.0"
     inkscape:pageopacity="0.0"
     inkscape:pageshadow="2"
     inkscape:zoom="2.9880278"
     inkscape:cx="78.835443"
     inkscape:cy="131.29524"
     inkscape:document-units="px"
     inkscape:current-layer="layer1"
     showgrid="false"
     units="cm"
     inkscape:window-width="1883"
     inkscape:window-height="1058"
     inkscape:window-x="37"
     inkscape:window-y="0"
     inkscape:window-maximized="1" />
  <metadata
     id="metadata7">
    <rdf:RDF>
      <cc:Work
         rdf:about="">
        <dc:format>image/svg+xml</dc:format>
        <dc:type
           rdf:resource="http://purl.org/dc/dcmitype/StillImage" />
        <dc:title></dc:title>
      </cc:Work>
    </rdf:RDF>
  </metadata>
  <g
     inkscape:label="cutter"
     inkscape:groupmode="layer"
     id="layer1"
     transform="translate(0,-768.89632)"
     style="display:inline">
    <path
       inkscape:connector-curvature="0"
       id="path6533"
       style="font-size:280px;font-style:normal;font-variant:normal;font-weight:900;font-stretch:normal;text-align:start;line-height:125%;letter-spacing:0px;word-spacing:0px;writing-mode:lr-tb;text-anchor:start;fill:#000000;fill-opacity:0.13564669;stroke:#000000;stroke-width:0.60000002;stroke-miterlimit:4;stroke-opacity:1;font-family:HelveticaRounded-Black;-inkscape-font-specification:HelveticaRounded-Black Heavy"
       d="m 159.02411,932.85131 c -1.5e-4,11.0134 -2.70682,19.60006 -8.12,25.76 -5.22681,5.97338 -13.3468,8.96004 -24.36,8.96 -11.01344,4e-5 -19.22677,-2.98662 -24.64,-8.96 -5.226757,-6.15994 -7.840088,-14.7466 -7.840004,-25.76 l 0,-91.84 c -8.4e-5,-10.82648 -2.893414,-19.31981 -8.68,-25.48 -5.786736,-6.1598 -13.626728,-9.23979 -23.52,-9.24 -9.893375,2.1e-4 -17.733367,3.0802 -23.52,9.24 -5.786689,6.16019 -8.68002,14.65352 -8.68,25.48 l 0,92.4 c -2e-5,14.9334 2.333311,27.72005 7,38.36 4.853302,10.64003 11.573295,19.22669 20.16,25.76 8.773278,6.53339 18.946601,11.29329 30.52,14.27999 11.759911,2.9867 24.826564,4.48 39.200004,4.48 14.3732,0 27.34652,-1.4933 38.92,-4.48 11.75983,-2.9867 21.93315,-7.7466 30.52,-14.27999 8.77313,-6.53331 15.49313,-15.11997 20.16,-25.76 4.85312,-10.63995 7.27978,-23.4266 7.28,-38.36 l 0,-92.4 c -2.2e-4,-10.82648 -2.89355,-19.31981 -8.68,-25.48 -5.78687,-6.1598 -13.62686,-9.23979 -23.52,-9.24 -9.89351,2.1e-4 -17.7335,3.0802 -23.52,9.24 -5.78682,6.16019 -8.68015,14.65352 -8.68,25.48 l 0,91.84" />
    <path
       style="fill:none;stroke:#ff5206;stroke-width:0.5;stroke-linecap:butt;stroke-linejoin:miter;stroke-miterlimit:4;stroke-opacity:0.51757184;stroke-dasharray:none;display:inline"
       d="m 127.17419,891.05047 0,37.81759"
       id="path3759-0"
       inkscape:connector-curvature="0" />
    <path
       style="fill:none;stroke:#ff5206;stroke-width:0.5;stroke-linecap:butt;stroke-linejoin:miter;stroke-miterlimit:4;stroke-opacity:0.51757184;stroke-dasharray:none;display:inline"
       d="m 106.42471,910.12661 40.49494,0"
       id="path3761-4"
       inkscape:connector-curvature="0" />
  </g>
  <g
     inkscape:groupmode="layer"
     id="layer2"
     inkscape:label="outer"
     style="display:inline">
    <path
       inkscape:connector-curvature="0"
       id="path6529"
       style="font-size:280px;font-style:normal;font-variant:normal;font-weight:900;font-stretch:normal;text-align:start;line-height:125%;letter-spacing:0px;word-spacing:0px;writing-mode:lr-tb;text-anchor:start;fill:#000000;fill-opacity:0.13564669;stroke:#2000fe;stroke-width:2.5;stroke-miterlimit:4;stroke-opacity:0.15654949;font-family:HelveticaRounded-Black;-inkscape-font-specification:HelveticaRounded-Black Heavy"
       d="m 159.02411,163.95499 c -1.5e-4,11.01341 -2.70682,19.60006 -8.12,25.76 -5.22681,5.97338 -13.3468,8.96005 -24.36,8.96 -11.01344,5e-5 -19.22677,-2.98662 -24.64,-8.96 -5.226757,-6.15994 -7.840088,-14.74659 -7.840004,-25.76 l 0,-91.839995 c -8.4e-5,-10.826486 -2.893414,-19.319811 -8.68,-25.48 -5.786736,-6.159798 -13.626728,-9.239795 -23.52,-9.24 -9.893375,2.05e-4 -17.733367,3.080202 -23.52,9.24 -5.786689,6.160189 -8.68002,14.653514 -8.68,25.48 l 0,92.399995 c -2e-5,14.9334 2.333311,27.72005 7,38.36 4.853302,10.64003 11.573295,19.22669 20.16,25.76 8.773278,6.53335 18.946601,11.29334 30.52,14.28 11.759911,2.98667 24.826564,4.48 39.200004,4.48 14.3732,0 27.34652,-1.49333 38.92,-4.48 11.75983,-2.98666 21.93315,-7.74665 30.52,-14.28 8.77313,-6.53331 15.49313,-15.11997 20.16,-25.76 4.85312,-10.63995 7.27978,-23.4266 7.28,-38.36 l 0,-92.399995 c -2.2e-4,-10.826486 -2.89355,-19.319811 -8.68,-25.48 -5.78687,-6.159798 -13.62686,-9.239795 -23.52,-9.24 -9.89351,2.05e-4 -17.7335,3.080202 -23.52,9.24 -5.78682,6.160189 -8.68015,14.653514 -8.68,25.48 l 0,91.839995" />
    <path
       style="fill:none;stroke:#ff5206;stroke-width:0.5;stroke-linecap:butt;stroke-linejoin:miter;stroke-miterlimit:4;stroke-opacity:0.51757184;stroke-dasharray:none;display:inline"
       d="m 127.17419,122.15415 0,37.81759"
       id="path3759-1"
       inkscape:connector-curvature="0" />
    <path
       style="fill:none;stroke:#ff5206;stroke-width:0.5;stroke-linecap:butt;stroke-linejoin:miter;stroke-miterlimit:4;stroke-opacity:0.51757184;stroke-dasharray:none;display:inline"
       d="m 106.42471,141.23029 40.49494,0"
       id="path3761-1"
       inkscape:connector-curvature="0" />
  </g>
  <g
     inkscape:groupmode="layer"
     id="layer3"
     inkscape:label="join"
     style="display:inline">
    <path
       style="fill:none;stroke:#ff5206;stroke-width:0.5;stroke-linecap:butt;stroke-linejoin:miter;stroke-miterlimit:4;stroke-opacity:0.51757184;stroke-dasharray:none"
       d="m 127.17419,122.15415 0,37.81759"
       id="path3759"
       inkscape:connector-curvature="0" />
    <path
       style="fill:none;stroke:#ff5206;stroke-width:0.5;stroke-linecap:butt;stroke-linejoin:miter;stroke-miterlimit:4;stroke-opacity:0.51757184;stroke-dasharray:none"
       d="m 106.42471,141.23029 40.49494,0"
       id="path3761"
       inkscape:connector-curvature="0" />
  </g>
</svg>
