<?xml version="1.0" encoding="UTF-8" standalone="no"?>
<!-- Created with Inkscape (http://www.inkscape.org/) -->

<svg
   xmlns:dc="http://purl.org/dc/elements/1.1/"
   xmlns:cc="http://creativecommons.org/ns#"
   xmlns:rdf="http://www.w3.org/1999/02/22-rdf-syntax-ns#"
   xmlns:svg="http://www.w3.org/2000/svg"
   xmlns="http://www.w3.org/2000/svg"
   xmlns:sodipodi="http://sodipodi.sourceforge.net/DTD/sodipodi-0.dtd"
   xmlns:inkscape="http://www.inkscape.org/namespaces/inkscape"
   width="248.03149"
   height="283.46457"
   id="svg2"
   version="1.1"
   inkscape:version="0.48.3.1 r9886"
   sodipodi:docname="W.svg">
  <defs
     id="defs4" />
  <sodipodi:namedview
     id="base"
     pagecolor="#ffffff"
     bordercolor="#666666"
     borderopacity="1.0"
     inkscape:pageopacity="0.0"
     inkscape:pageshadow="2"
     inkscape:zoom="2.9880278"
     inkscape:cx="78.835443"
     inkscape:cy="131.29524"
     inkscape:document-units="px"
     inkscape:current-layer="layer1"
     showgrid="false"
     units="cm"
     inkscape:window-width="1883"
     inkscape:window-height="1058"
     inkscape:window-x="37"
     inkscape:window-y="0"
     inkscape:window-maximized="1" />
  <metadata
     id="metadata7">
    <rdf:RDF>
      <cc:Work
         rdf:about="">
        <dc:format>image/svg+xml</dc:format>
        <dc:type
           rdf:resource="http://purl.org/dc/dcmitype/StillImage" />
        <dc:title></dc:title>
      </cc:Work>
    </rdf:RDF>
  </metadata>
  <g
     inkscape:label="cutter"
     inkscape:groupmode="layer"
     id="layer1"
     transform="translate(0,-768.89632)"
     style="display:inline">
    <path
       inkscape:connector-curvature="0"
       id="path6769"
       style="font-size:280px;font-style:normal;font-variant:normal;font-weight:900;font-stretch:normal;text-align:start;line-height:125%;letter-spacing:0px;word-spacing:0px;writing-mode:lr-tb;text-anchor:start;fill:#000000;fill-opacity:0.13564669;stroke:#000000;stroke-width:0.60000002;stroke-miterlimit:4;stroke-opacity:1;font-family:HelveticaRounded-Black;-inkscape-font-specification:HelveticaRounded-Black Heavy"
       d="m 177.42411,941.81131 -0.56,0 -17.64,-104.44 c -1.86684,-11.57315 -5.04017,-19.59981 -9.52,-24.08 -4.48016,-4.66646 -12.13348,-6.99979 -22.96,-7 -10.64013,2.1e-4 -18.29345,2.33354 -22.96,7 -4.480111,4.48019 -7.653441,12.50685 -9.520004,24.08 l -17.64,104.44 -0.56,0 -17.64,-109.76 c -1.493398,-9.14648 -4.946728,-15.6798 -10.36,-19.6 -5.413384,-4.10646 -12.133377,-6.15979 -20.16,-6.16 -8.586694,2.1e-4 -15.586687,2.61354 -21,7.84 -5.4133428,5.22686 -8.1200067,11.94685 -8.12,20.16 -6.7e-6,5.78684 2.3333243,18.20016 7,37.24 l 28.28,114.8 c 2.239956,9.33335 6.066619,16.51999 11.48,21.55999 5.599941,4.8533 12.973267,7.28 22.12,7.28 l 9.8,0 c 9.146572,0 16.146565,-2.4267 21,-7.28 5.039884,-4.8533 8.493214,-12.31997 10.360004,-22.39999 l 17.64,-93.52 0.56,0 17.64,93.52 c 1.86651,10.08002 5.2265,17.54669 10.08,22.39999 5.03983,4.8533 12.13315,7.28 21.28,7.28 l 9.8,0 c 9.14646,0 16.42645,-2.4267 21.84,-7.28 5.59977,-5.04 9.51977,-12.22664 11.76,-21.55999 l 28.28,-114.8 c 4.6664,-19.03984 6.99973,-31.45316 7,-37.24 -2.7e-4,-8.21315 -2.70693,-14.93314 -8.12,-20.16 -5.41359,-5.22646 -12.41358,-7.83979 -21,-7.84 -8.0269,2.1e-4 -14.74689,2.05354 -20.16,6.16 -5.41355,3.9202 -8.86688,10.45352 -10.36,19.6 l -17.64,109.76" />
    <path
       style="fill:none;stroke:#ff5206;stroke-width:0.5;stroke-linecap:butt;stroke-linejoin:miter;stroke-miterlimit:4;stroke-opacity:0.51757184;stroke-dasharray:none;display:inline"
       d="m 127.17419,891.05047 0,37.81759"
       id="path3759-0"
       inkscape:connector-curvature="0" />
    <path
       style="fill:none;stroke:#ff5206;stroke-width:0.5;stroke-linecap:butt;stroke-linejoin:miter;stroke-miterlimit:4;stroke-opacity:0.51757184;stroke-dasharray:none;display:inline"
       d="m 106.42471,910.12661 40.49494,0"
       id="path3761-4"
       inkscape:connector-curvature="0" />
  </g>
  <g
     inkscape:groupmode="layer"
     id="layer2"
     inkscape:label="outer"
     style="display:inline">
    <path
       inkscape:connector-curvature="0"
       id="path6765"
       style="font-size:280px;font-style:normal;font-variant:normal;font-weight:900;font-stretch:normal;text-align:start;line-height:125%;letter-spacing:0px;word-spacing:0px;writing-mode:lr-tb;text-anchor:start;fill:#000000;fill-opacity:0.13564669;stroke:#2000fe;stroke-width:2.5;stroke-miterlimit:4;stroke-opacity:0.15654949;font-family:HelveticaRounded-Black;-inkscape-font-specification:HelveticaRounded-Black Heavy"
       d="m 177.42411,172.91499 -0.56,0 -17.64,-104.439995 c -1.86684,-11.573148 -5.04017,-19.599807 -9.52,-24.08 -4.48016,-4.666464 -12.13348,-6.999795 -22.96,-7 -10.64013,2.05e-4 -18.29345,2.333536 -22.96,7 -4.480111,4.480193 -7.653441,12.506852 -9.520004,24.08 l -17.64,104.439995 -0.56,0 -17.64,-109.759995 c -1.493398,-9.146479 -4.946728,-15.679805 -10.36,-19.6 -5.413384,-4.106464 -12.133377,-6.159795 -20.16,-6.16 -8.586694,2.05e-4 -15.586687,2.613535 -21,7.84 -5.4133428,5.226858 -8.1200067,11.946852 -8.12,20.16 -6.7e-6,5.786838 2.3333243,18.200159 7,37.239995 l 28.28,114.8 c 2.239956,9.33335 6.066619,16.52001 11.48,21.56 5.599941,4.85334 12.973267,7.28 22.12,7.28 l 9.8,0 c 9.146572,0 16.146565,-2.42666 21,-7.28 5.039884,-4.85332 8.493214,-12.31998 10.360004,-22.4 l 17.64,-93.52 0.56,0 17.64,93.52 c 1.86651,10.08002 5.2265,17.54668 10.08,22.4 5.03983,4.85334 12.13315,7.28 21.28,7.28 l 9.8,0 c 9.14646,0 16.42645,-2.42666 21.84,-7.28 5.59977,-5.03999 9.51977,-12.22665 11.76,-21.56 l 28.28,-114.8 c 4.6664,-19.039836 6.99973,-31.453157 7,-37.239995 -2.7e-4,-8.213148 -2.70693,-14.933142 -8.12,-20.16 -5.41359,-5.226465 -12.41358,-7.839795 -21,-7.84 -8.0269,2.05e-4 -14.74689,2.053536 -20.16,6.16 -5.41355,3.920195 -8.86688,10.453521 -10.36,19.6 l -17.64,109.759995" />
    <path
       style="fill:none;stroke:#ff5206;stroke-width:0.5;stroke-linecap:butt;stroke-linejoin:miter;stroke-miterlimit:4;stroke-opacity:0.51757184;stroke-dasharray:none;display:inline"
       d="m 127.17419,122.15415 0,37.81759"
       id="path3759-1"
       inkscape:connector-curvature="0" />
    <path
       style="fill:none;stroke:#ff5206;stroke-width:0.5;stroke-linecap:butt;stroke-linejoin:miter;stroke-miterlimit:4;stroke-opacity:0.51757184;stroke-dasharray:none;display:inline"
       d="m 106.42471,141.23029 40.49494,0"
       id="path3761-1"
       inkscape:connector-curvature="0" />
  </g>
  <g
     inkscape:groupmode="layer"
     id="layer3"
     inkscape:label="join"
     style="display:inline">
    <path
       style="fill:none;stroke:#ff5206;stroke-width:0.5;stroke-linecap:butt;stroke-linejoin:miter;stroke-miterlimit:4;stroke-opacity:0.51757184;stroke-dasharray:none"
       d="m 127.17419,122.15415 0,37.81759"
       id="path3759"
       inkscape:connector-curvature="0" />
    <path
       style="fill:none;stroke:#ff5206;stroke-width:0.5;stroke-linecap:butt;stroke-linejoin:miter;stroke-miterlimit:4;stroke-opacity:0.51757184;stroke-dasharray:none"
       d="m 106.42471,141.23029 40.49494,0"
       id="path3761"
       inkscape:connector-curvature="0" />
  </g>
</svg>
