<?xml version="1.0" encoding="UTF-8" standalone="no"?>
<!-- Created with Inkscape (http://www.inkscape.org/) -->

<svg
   xmlns:dc="http://purl.org/dc/elements/1.1/"
   xmlns:cc="http://creativecommons.org/ns#"
   xmlns:rdf="http://www.w3.org/1999/02/22-rdf-syntax-ns#"
   xmlns:svg="http://www.w3.org/2000/svg"
   xmlns="http://www.w3.org/2000/svg"
   xmlns:sodipodi="http://sodipodi.sourceforge.net/DTD/sodipodi-0.dtd"
   xmlns:inkscape="http://www.inkscape.org/namespaces/inkscape"
   width="248.03149"
   height="283.46457"
   id="svg2"
   version="1.1"
   inkscape:version="0.48.3.1 r9886"
   sodipodi:docname="Template.svg">
  <defs
     id="defs4" />
  <sodipodi:namedview
     id="base"
     pagecolor="#ffffff"
     bordercolor="#666666"
     borderopacity="1.0"
     inkscape:pageopacity="0.0"
     inkscape:pageshadow="2"
     inkscape:zoom="2.9880278"
     inkscape:cx="78.835443"
     inkscape:cy="131.29524"
     inkscape:document-units="px"
     inkscape:current-layer="layer1"
     showgrid="false"
     units="cm"
     inkscape:window-width="1883"
     inkscape:window-height="1058"
     inkscape:window-x="37"
     inkscape:window-y="0"
     inkscape:window-maximized="1" />
  <metadata
     id="metadata7">
    <rdf:RDF>
      <cc:Work
         rdf:about="">
        <dc:format>image/svg+xml</dc:format>
        <dc:type
           rdf:resource="http://purl.org/dc/dcmitype/StillImage" />
        <dc:title></dc:title>
      </cc:Work>
    </rdf:RDF>
  </metadata>
  <g
     inkscape:label="cutter"
     inkscape:groupmode="layer"
     id="layer1"
     transform="translate(0,-768.89632)"
     style="display:inline">
    <path
       inkscape:connector-curvature="0"
       id="path6868"
       style="font-size:280px;font-style:normal;font-variant:normal;font-weight:900;font-stretch:normal;text-align:start;line-height:125%;letter-spacing:0px;word-spacing:0px;writing-mode:lr-tb;text-anchor:start;fill:#000000;fill-opacity:0.13564669;stroke:#000000;stroke-width:0.60000002;stroke-miterlimit:4;stroke-opacity:1;font-family:HelveticaRounded-Black;-inkscape-font-specification:HelveticaRounded-Black Heavy"
       d="m 87.024106,907.37131 -39.2,59.92 c -2.426676,3.73337 -4.293341,7.09337 -5.6,10.08 -1.306672,2.9867 -1.960004,6.0667 -1.96,9.24 -4e-6,5.04002 0.933328,9.42668 2.8,13.16 2.053324,3.54669 4.666655,6.53329 7.84,8.95999 3.359982,2.24 6.813312,3.8267 10.36,4.76 3.546638,1.12 6.906635,1.68 10.08,1.68 5.786626,0 11.10662,-1.4933 15.96,-4.48 5.039944,-3.1733 9.146606,-7.56 12.32,-13.15999 l 24.640004,-43.68 24.64,43.68 c 3.17321,5.59999 7.18654,9.98669 12.04,13.15999 5.03987,2.9867 10.45319,4.48 16.24,4.48 3.17319,0 6.53318,-0.56 10.08,-1.68 3.73317,-0.9333 7.1865,-2.52 10.36,-4.76 3.17316,-2.4267 5.69316,-5.4133 7.56,-8.95999 2.05316,-3.73332 3.07982,-8.11998 3.08,-13.16 -1.8e-4,-3.1733 -0.65351,-6.2533 -1.96,-9.24 -1.30684,-2.98663 -3.1735,-6.34663 -5.6,-10.08 l -39.2,-59.92 35.84,-54.32 c 3.91983,-5.97317 5.87983,-11.75983 5.88,-17.36 -1.7e-4,-8.58648 -2.98683,-15.58647 -8.96,-21 -5.78682,-5.5998 -12.69348,-8.39979 -20.72,-8.4 -5.2268,2.1e-4 -10.2668,1.21354 -15.12,3.64 -4.66679,2.42687 -8.30678,5.97353 -10.92,10.64 l -23.24,42.28 -23.24,-42.28 c -2.426733,-4.66647 -6.06673,-8.21313 -10.920004,-10.64 -4.853383,-2.42646 -9.893377,-3.63979 -15.12,-3.64 -8.026698,2.1e-4 -15.026691,2.8002 -21,8.4 -5.786679,5.41353 -8.680009,12.41352 -8.68,21 -9e-6,5.60017 1.959989,11.38683 5.88,17.36 l 35.84,54.32" />
    <path
       style="fill:none;stroke:#ff5206;stroke-width:0.5;stroke-linecap:butt;stroke-linejoin:miter;stroke-miterlimit:4;stroke-opacity:0.51757184;stroke-dasharray:none;display:inline"
       d="m 127.17419,891.05047 0,37.81759"
       id="path3759-0"
       inkscape:connector-curvature="0" />
    <path
       style="fill:none;stroke:#ff5206;stroke-width:0.5;stroke-linecap:butt;stroke-linejoin:miter;stroke-miterlimit:4;stroke-opacity:0.51757184;stroke-dasharray:none;display:inline"
       d="m 106.42471,910.12661 40.49494,0"
       id="path3761-4"
       inkscape:connector-curvature="0" />
  </g>
  <g
     inkscape:groupmode="layer"
     id="layer2"
     inkscape:label="outer"
     style="display:inline">
    <path
       inkscape:connector-curvature="0"
       id="path6864"
       style="font-size:280px;font-style:normal;font-variant:normal;font-weight:900;font-stretch:normal;text-align:start;line-height:125%;letter-spacing:0px;word-spacing:0px;writing-mode:lr-tb;text-anchor:start;fill:#000000;fill-opacity:0.13564669;stroke:#2000fe;stroke-width:2.5;stroke-miterlimit:4;stroke-opacity:0.15654949;font-family:HelveticaRounded-Black;-inkscape-font-specification:HelveticaRounded-Black Heavy"
       d="m 87.024106,138.47499 -39.2,59.92 c -2.426676,3.73338 -4.293341,7.09337 -5.6,10.08 -1.306672,2.9867 -1.960004,6.0667 -1.96,9.24 -4e-6,5.04002 0.933328,9.42669 2.8,13.16 2.053324,3.54668 4.666655,6.53334 7.84,8.96 3.359982,2.24001 6.813312,3.82667 10.36,4.76 3.546638,1.12 6.906635,1.68 10.08,1.68 5.786626,0 11.10662,-1.49333 15.96,-4.48 5.039944,-3.17332 9.146606,-7.55999 12.32,-13.16 l 24.640004,-43.68 24.64,43.68 c 3.17321,5.60001 7.18654,9.98668 12.04,13.16 5.03987,2.98667 10.45319,4.48 16.24,4.48 3.17319,0 6.53318,-0.56 10.08,-1.68 3.73317,-0.93333 7.1865,-2.51999 10.36,-4.76 3.17316,-2.42666 5.69316,-5.41332 7.56,-8.96 2.05316,-3.73331 3.07982,-8.11998 3.08,-13.16 -1.8e-4,-3.1733 -0.65351,-6.2533 -1.96,-9.24 -1.30684,-2.98663 -3.1735,-6.34662 -5.6,-10.08 l -39.2,-59.92 35.84,-54.319995 c 3.91983,-5.973169 5.87983,-11.75983 5.88,-17.36 -1.7e-4,-8.586483 -2.98683,-15.586476 -8.96,-21 -5.78682,-5.599798 -12.69348,-8.399795 -20.72,-8.4 -5.2268,2.05e-4 -10.2668,1.213537 -15.12,3.64 -4.66679,2.426865 -8.30678,5.973528 -10.92,10.64 l -23.24,42.28 -23.24,-42.28 c -2.426733,-4.666472 -6.06673,-8.213135 -10.920004,-10.64 -4.853383,-2.426463 -9.893377,-3.639795 -15.12,-3.64 -8.026698,2.05e-4 -15.026691,2.800202 -21,8.4 -5.786679,5.413524 -8.680009,12.413517 -8.68,21 -9e-6,5.60017 1.959989,11.386831 5.88,17.36 l 35.84,54.319995" />
    <path
       style="fill:none;stroke:#ff5206;stroke-width:0.5;stroke-linecap:butt;stroke-linejoin:miter;stroke-miterlimit:4;stroke-opacity:0.51757184;stroke-dasharray:none;display:inline"
       d="m 127.17419,122.15415 0,37.81759"
       id="path3759-1"
       inkscape:connector-curvature="0" />
    <path
       style="fill:none;stroke:#ff5206;stroke-width:0.5;stroke-linecap:butt;stroke-linejoin:miter;stroke-miterlimit:4;stroke-opacity:0.51757184;stroke-dasharray:none;display:inline"
       d="m 106.42471,141.23029 40.49494,0"
       id="path3761-1"
       inkscape:connector-curvature="0" />
  </g>
  <g
     inkscape:groupmode="layer"
     id="layer3"
     inkscape:label="join"
     style="display:inline">
    <path
       style="fill:none;stroke:#ff5206;stroke-width:0.5;stroke-linecap:butt;stroke-linejoin:miter;stroke-miterlimit:4;stroke-opacity:0.51757184;stroke-dasharray:none"
       d="m 127.17419,122.15415 0,37.81759"
       id="path3759"
       inkscape:connector-curvature="0" />
    <path
       style="fill:none;stroke:#ff5206;stroke-width:0.5;stroke-linecap:butt;stroke-linejoin:miter;stroke-miterlimit:4;stroke-opacity:0.51757184;stroke-dasharray:none"
       d="m 106.42471,141.23029 40.49494,0"
       id="path3761"
       inkscape:connector-curvature="0" />
  </g>
</svg>
