<?xml version="1.0" encoding="UTF-8" standalone="no"?>
<!-- Created with Inkscape (http://www.inkscape.org/) -->

<svg
   xmlns:dc="http://purl.org/dc/elements/1.1/"
   xmlns:cc="http://creativecommons.org/ns#"
   xmlns:rdf="http://www.w3.org/1999/02/22-rdf-syntax-ns#"
   xmlns:svg="http://www.w3.org/2000/svg"
   xmlns="http://www.w3.org/2000/svg"
   xmlns:sodipodi="http://sodipodi.sourceforge.net/DTD/sodipodi-0.dtd"
   xmlns:inkscape="http://www.inkscape.org/namespaces/inkscape"
   width="248.03149"
   height="283.46457"
   id="svg2"
   version="1.1"
   inkscape:version="0.48.3.1 r9886"
   sodipodi:docname="Z.svg">
  <defs
     id="defs4" />
  <sodipodi:namedview
     id="base"
     pagecolor="#ffffff"
     bordercolor="#666666"
     borderopacity="1.0"
     inkscape:pageopacity="0.0"
     inkscape:pageshadow="2"
     inkscape:zoom="2.9880278"
     inkscape:cx="78.835443"
     inkscape:cy="131.29524"
     inkscape:document-units="px"
     inkscape:current-layer="layer1"
     showgrid="false"
     units="cm"
     inkscape:window-width="1883"
     inkscape:window-height="1058"
     inkscape:window-x="37"
     inkscape:window-y="0"
     inkscape:window-maximized="1" />
  <metadata
     id="metadata7">
    <rdf:RDF>
      <cc:Work
         rdf:about="">
        <dc:format>image/svg+xml</dc:format>
        <dc:type
           rdf:resource="http://purl.org/dc/dcmitype/StillImage" />
        <dc:title></dc:title>
      </cc:Work>
    </rdf:RDF>
  </metadata>
  <g
     inkscape:label="cutter"
     inkscape:groupmode="layer"
     id="layer1"
     transform="translate(0,-768.89632)"
     style="display:inline">
    <path
       inkscape:connector-curvature="0"
       id="path7087"
       style="font-size:280px;font-style:normal;font-variant:normal;font-weight:900;font-stretch:normal;text-align:start;line-height:125%;letter-spacing:0px;word-spacing:0px;writing-mode:lr-tb;text-anchor:start;fill:#000000;fill-opacity:0.13564669;stroke:#000000;stroke-width:0.60000002;stroke-miterlimit:4;stroke-opacity:1;font-family:HelveticaRounded-Black;-inkscape-font-specification:HelveticaRounded-Black Heavy"
       d="m 109.86411,961.13131 86.24,-95.76 c 4.85314,-5.41318 8.21314,-10.07984 10.08,-14 1.86647,-4.1065 2.7998,-8.49316 2.8,-13.16 -2e-4,-8.39982 -2.52019,-15.21314 -7.56,-20.44 -4.85352,-5.22647 -12.13351,-7.8398 -21.84,-7.84 l -121.520004,0 c -10.266698,2e-4 -18.013357,2.2402 -23.24,6.72 -5.040014,4.48019 -7.560011,10.64019 -7.56,18.48 -1.1e-5,7.84017 2.519986,14.00016 7.56,18.48 5.226643,4.48015 12.973302,6.72015 23.24,6.72 l 62.720004,0 -80.640004,89.6 c -6.906684,7.65339 -11.666679,13.81338 -14.28,18.48 -2.426674,4.48004 -3.640006,9.4267 -3.64,14.84 -6e-6,8.40002 2.613325,15.21335 7.84,20.43999 5.413314,5.2267 13.346639,7.84 23.8,7.84 l 128.800004,0 c 19.59981,0 29.3998,-8.4 29.4,-25.19999 -2e-4,-16.79996 -9.80019,-25.19995 -29.4,-25.2 l -72.8,0" />
    <path
       style="fill:none;stroke:#ff5206;stroke-width:0.5;stroke-linecap:butt;stroke-linejoin:miter;stroke-miterlimit:4;stroke-opacity:0.51757184;stroke-dasharray:none;display:inline"
       d="m 127.17419,891.05047 0,37.81759"
       id="path3759-0"
       inkscape:connector-curvature="0" />
    <path
       style="fill:none;stroke:#ff5206;stroke-width:0.5;stroke-linecap:butt;stroke-linejoin:miter;stroke-miterlimit:4;stroke-opacity:0.51757184;stroke-dasharray:none;display:inline"
       d="m 106.42471,910.12661 40.49494,0"
       id="path3761-4"
       inkscape:connector-curvature="0" />
  </g>
  <g
     inkscape:groupmode="layer"
     id="layer2"
     inkscape:label="outer"
     style="display:inline">
    <path
       inkscape:connector-curvature="0"
       id="path7083"
       style="font-size:280px;font-style:normal;font-variant:normal;font-weight:900;font-stretch:normal;text-align:start;line-height:125%;letter-spacing:0px;word-spacing:0px;writing-mode:lr-tb;text-anchor:start;fill:#000000;fill-opacity:0.13564669;stroke:#2000fe;stroke-width:2.5;stroke-miterlimit:4;stroke-opacity:0.15654949;font-family:HelveticaRounded-Black;-inkscape-font-specification:HelveticaRounded-Black Heavy"
       d="m 109.86411,192.23499 86.24,-95.759995 c 4.85314,-5.413182 8.21314,-10.079844 10.08,-14 1.86647,-4.106503 2.7998,-8.493165 2.8,-13.16 -2e-4,-8.399819 -2.52019,-15.213145 -7.56,-20.44 -4.85352,-5.226468 -12.13351,-7.839799 -21.84,-7.84 l -121.520004,0 c -10.266698,2.01e-4 -18.013357,2.240199 -23.24,6.72 -5.040014,4.48019 -7.560011,10.640184 -7.56,18.48 -1.1e-5,7.840168 2.519986,14.000162 7.56,18.48 5.226643,4.480153 12.973302,6.720151 23.24,6.72 l 62.720004,0 -80.640004,89.599995 c -6.906684,7.65339 -11.666679,13.81339 -14.28,18.48 -2.426674,4.48004 -3.640006,9.4267 -3.64,14.84 -6e-6,8.40002 2.613325,15.21335 7.84,20.44 5.413314,5.22667 13.346639,7.84 23.8,7.84 l 128.800004,0 c 19.59981,0 29.3998,-8.39999 29.4,-25.2 -2e-4,-16.79995 -9.80019,-25.19995 -29.4,-25.2 l -72.8,0" />
    <path
       style="fill:none;stroke:#ff5206;stroke-width:0.5;stroke-linecap:butt;stroke-linejoin:miter;stroke-miterlimit:4;stroke-opacity:0.51757184;stroke-dasharray:none;display:inline"
       d="m 127.17419,122.15415 0,37.81759"
       id="path3759-1"
       inkscape:connector-curvature="0" />
    <path
       style="fill:none;stroke:#ff5206;stroke-width:0.5;stroke-linecap:butt;stroke-linejoin:miter;stroke-miterlimit:4;stroke-opacity:0.51757184;stroke-dasharray:none;display:inline"
       d="m 106.42471,141.23029 40.49494,0"
       id="path3761-1"
       inkscape:connector-curvature="0" />
  </g>
  <g
     inkscape:groupmode="layer"
     id="layer3"
     inkscape:label="join"
     style="display:inline">
    <path
       style="fill:none;stroke:#ff5206;stroke-width:0.5;stroke-linecap:butt;stroke-linejoin:miter;stroke-miterlimit:4;stroke-opacity:0.51757184;stroke-dasharray:none"
       d="m 127.17419,122.15415 0,37.81759"
       id="path3759"
       inkscape:connector-curvature="0" />
    <path
       style="fill:none;stroke:#ff5206;stroke-width:0.5;stroke-linecap:butt;stroke-linejoin:miter;stroke-miterlimit:4;stroke-opacity:0.51757184;stroke-dasharray:none"
       d="m 106.42471,141.23029 40.49494,0"
       id="path3761"
       inkscape:connector-curvature="0" />
  </g>
</svg>
